G04 ================== begin FILE IDENTIFICATION RECORD ==================*
G04 Layout Name:  E:/TTTN/Z-waveProgrammer/allegro/Z-WAVE PROG.brd*
G04 Film Name:    SMASK_TOP*
G04 File Format:  Gerber RS274X*
G04 File Origin:  Cadence Allegro 16.6-S049*
G04 Origin Date:  Wed Aug 07 14:01:41 2019*
G04 *
G04 Layer:  PIN/SOLDERMASK_TOP*
G04 Layer:  PACKAGE GEOMETRY/SOLDERMASK_TOP*
G04 Layer:  DRAWING FORMAT/SOLDERMASK_TOP*
G04 Layer:  BOARD GEOMETRY/OUTLINE*
G04 Layer:  BOARD GEOMETRY/SOLDERMASK_TOP*
G04 Layer:  BOARD GEOMETRY/LOGO*
G04 *
G04 Offset:    (0.000 0.000)*
G04 Mirror:    No*
G04 Mode:      Positive*
G04 Rotation:  0*
G04 FullContactRelief:  No*
G04 UndefLineWidth:     5.000*
G04 ================== end FILE IDENTIFICATION RECORD ====================*
%FSLAX25Y25*MOIN*%
%IR0*IPPOS*OFA0.00000B0.00000*MIA0B0*SFA1.00000B1.00000*%
%ADD21R,.127949X.127949*%
%ADD16R,.11024X.04724*%
%ADD10R,.130551X.033465*%
%ADD22R,.108429X.045429*%
%ADD26R,.073X.02*%
%ADD24R,.058X.02*%
%ADD25R,.02X.058*%
%ADD18R,.038X.041*%
%ADD17R,.041X.038*%
%ADD13R,.056X.051*%
%ADD27R,.065X.06*%
%ADD32C,.066*%
%ADD29C,.085*%
%ADD19R,.01024X.03189*%
%ADD30C,.040551*%
%ADD20R,.03189X.01024*%
%ADD11C,.05622*%
%ADD31R,.066X.066*%
%ADD28R,.085X.085*%
%ADD23R,.12811X.157642*%
%ADD12R,.05622X.05622*%
%ADD14R,.027559X.023618*%
%ADD15R,.027559X.03937*%
%ADD33C,.005*%
G75*
%LPD*%
G75*
G54D10*
X-49472Y-61130D03*
Y-14870D03*
G54D11*
X-41205Y-51780D03*
Y-41937D03*
Y-34063D03*
G54D20*
X-646Y-50906D03*
Y-48937D03*
Y-46969D03*
Y-45000D03*
Y-43031D03*
Y-41063D03*
Y-39094D03*
X18646Y-50906D03*
Y-39094D03*
Y-41063D03*
Y-43031D03*
Y-45000D03*
Y-46969D03*
Y-48937D03*
G54D12*
X-41205Y-24221D03*
G54D30*
X178000Y-40606D03*
Y-21394D03*
G54D21*
X9000Y-45000D03*
G54D31*
X211000Y-46500D03*
Y2000D03*
Y-10000D03*
G54D13*
X-27000Y-28268D03*
Y-11732D03*
G54D22*
X8795Y-26055D03*
Y-17000D03*
Y-7945D03*
G54D14*
X-16937Y-41740D03*
X-9063Y-34260D03*
Y-41740D03*
G54D23*
X33992Y-17000D03*
G54D32*
X221000Y-46500D03*
X211000Y-56500D03*
X221000D03*
X211000Y-66500D03*
X221000D03*
X211000Y-20000D03*
X221000D03*
X211000Y-30000D03*
X221000D03*
Y2000D03*
Y-10000D03*
X211000Y12000D03*
X221000D03*
G54D33*
G01X47500Y-99500D02*
X240000D01*
Y24000D01*
X50000D01*
X27500Y1500D01*
X-34500D01*
X-43000Y-7000D01*
X-63000D01*
Y-68500D01*
X-41500D01*
X-34000Y-76000D01*
X-20000D01*
X24000D01*
X47500Y-99500D01*
G54D15*
X-16937Y-35047D03*
G54D24*
X84000Y-56600D03*
Y-53500D03*
Y-50300D03*
Y-47200D03*
Y-44000D03*
Y-40900D03*
Y-37700D03*
Y-34600D03*
Y-31400D03*
Y-28300D03*
Y-25100D03*
Y-22000D03*
Y-18800D03*
Y-15700D03*
Y-12500D03*
Y-9400D03*
X144000Y-50300D03*
Y-53500D03*
Y-56600D03*
Y-25100D03*
Y-28300D03*
Y-31400D03*
Y-34600D03*
Y-37700D03*
Y-40900D03*
Y-44000D03*
Y-47200D03*
Y-9400D03*
Y-12500D03*
Y-15700D03*
Y-18800D03*
Y-22000D03*
G54D25*
X93500Y-63000D03*
X90400D03*
Y-3000D03*
X93500D03*
X115600Y-63000D03*
X112400D03*
X109300D03*
X106100D03*
X103000D03*
X99800D03*
X96700D03*
X118700D03*
X96700Y-3000D03*
X99800D03*
X103000D03*
X106100D03*
X109300D03*
X112400D03*
X115600D03*
X118700D03*
X137600Y-63000D03*
X134500D03*
X131300D03*
X128200D03*
X125000D03*
X121900D03*
Y-3000D03*
X125000D03*
X128200D03*
X131300D03*
X134500D03*
X137600D03*
G54D16*
X-13000Y-23906D03*
Y-12094D03*
X55000Y-24906D03*
Y-13094D03*
G54D17*
X-31000Y-47000D03*
X-25000D03*
X-31000Y-39000D03*
X-25000D03*
X55000Y-44000D03*
X61000D03*
X55000Y-38000D03*
X61000D03*
X64000Y-6000D03*
X52000D03*
X58000D03*
X70000D03*
X117000Y8000D03*
X111000D03*
X105000D03*
X111000Y14000D03*
X105000D03*
X117000D03*
X147000Y8000D03*
X141000D03*
X135000D03*
X129000D03*
X123000D03*
Y14000D03*
X135000D03*
X129000D03*
X147000D03*
X141000D03*
X152000Y-78000D03*
X158000D03*
X183000Y-67000D03*
X177000D03*
X183000Y-61000D03*
X177000D03*
G54D26*
X107120Y-80840D03*
Y-78280D03*
Y-75720D03*
Y-73160D03*
X130880Y-75720D03*
Y-78280D03*
Y-80840D03*
Y-73160D03*
G54D27*
X165646Y-78000D03*
X196354D03*
G54D18*
X-3000Y-61000D03*
Y-67000D03*
X-9000Y-61000D03*
Y-67000D03*
X12000Y-61000D03*
Y-67000D03*
X6000D03*
Y-61000D03*
X-3000Y-24000D03*
Y-18000D03*
X18000Y-67000D03*
Y-61000D03*
X35000Y-54000D03*
X41000D03*
X35000Y-42000D03*
Y-36000D03*
X41000Y-42000D03*
Y-36000D03*
X35000Y-48000D03*
X41000D03*
X44000Y-25000D03*
Y-19000D03*
X71000Y-56000D03*
Y-50000D03*
Y-24000D03*
Y-18000D03*
X98000Y-80000D03*
Y-74000D03*
X142000Y-80000D03*
Y-74000D03*
X158000Y-52000D03*
Y-46000D03*
X189000Y-67000D03*
Y-61000D03*
X193000Y-41000D03*
Y-35000D03*
Y-27000D03*
Y-21000D03*
G54D28*
X159000Y10000D03*
G54D19*
X5063Y-54646D03*
X3094D03*
X14906D03*
X12937D03*
X10969D03*
X9000D03*
X7031D03*
X3094Y-35354D03*
X5063D03*
X7031D03*
X9000D03*
X10969D03*
X12937D03*
X14906D03*
G54D29*
X169000Y10000D03*
X179000D03*
X189000D03*
M02*
