G04 ================== begin FILE IDENTIFICATION RECORD ==================*
G04 Layout Name:  E:/TTTN/Z-waveProgrammer/allegro/Z-WAVE PROG.brd*
G04 Film Name:    BOTTOM*
G04 File Format:  Gerber RS274X*
G04 File Origin:  Cadence Allegro 16.6-S049*
G04 Origin Date:  Wed Aug 07 14:00:57 2019*
G04 *
G04 Layer:  ETCH/BOTTOM*
G04 Layer:  PIN/BOTTOM*
G04 Layer:  VIA CLASS/BOTTOM*
G04 Layer:  DRAWING FORMAT/BOTTOM*
G04 Layer:  BOARD GEOMETRY/OUTLINE*
G04 Layer:  BOARD GEOMETRY/LOGO_M*
G04 *
G04 Offset:    (0.000 0.000)*
G04 Mirror:    No*
G04 Mode:      Positive*
G04 Rotation:  0*
G04 FullContactRelief:  No*
G04 UndefLineWidth:     5.000*
G04 ================== end FILE IDENTIFICATION RECORD ====================*
%FSLAX25Y25*MOIN*%
%IR0*IPPOS*OFA0.00000B0.00000*MIA0B0*SFA1.00000B1.00000*%
%ADD18C,.06*%
%ADD15C,.08*%
%ADD13C,.044*%
%ADD17R,.06X.06*%
%ADD16C,.040551*%
%ADD14R,.08X.08*%
%ADD11C,.05622*%
%ADD12R,.05622X.05622*%
%ADD10R,.090551X.027559*%
%ADD19C,.008*%
%ADD20C,.01*%
%ADD21C,.02*%
%ADD22C,.012*%
%ADD23C,.03*%
%ADD24C,.015*%
%ADD25C,.005*%
%ADD30R,.106556X.043562*%
%ADD29C,.070004*%
%ADD26C,.090004*%
%ADD33C,.074224*%
%ADD27C,.078004*%
%ADD34C,.066224*%
%ADD32R,.074224X.074224*%
%ADD28R,.078004X.078004*%
%ADD31C,.058556*%
G75*
%LPD*%
G75*
G36*
G01X50000Y-96500D02*
X27500Y-73000D01*
X-33000D01*
X-40500Y-65500D01*
X-59000D01*
Y-10500D01*
X-42500D01*
X-34500Y-2500D01*
X27500D01*
X50000Y20000D01*
X214055D01*
G02X214374Y19358I0J-400D01*
G01X211709Y15837D01*
X211591Y15855D01*
G03X214550Y13616I-591J-3855D01*
G01X214500Y13725D01*
X216411Y16250D01*
X219084D01*
G02X219262Y15492I0J-400D01*
G03X222738I1738J-3492D01*
G02X222916Y16250I178J358D01*
G01X225275D01*
X228250Y13275D01*
Y-60521D01*
G02X227567Y-60804I-400J0D01*
G01X224648Y-57885D01*
X224689Y-57767D01*
G03X222267Y-60189I-3689J1267D01*
G01X222385Y-60148D01*
X224900Y-62663D01*
Y-64001D01*
G02X224174Y-64234I-400J0D01*
G03X219400Y-70057I-3174J-2266D01*
G01Y-82337D01*
X213337Y-88400D01*
X87663D01*
X82600Y-83337D01*
Y-76771D01*
G03X83771Y-75600I-1600J2771D01*
G01X98663D01*
X99663Y-74600D01*
X114006D01*
G02X114339Y-75222I0J-400D01*
G03X113909Y-77828I2661J-1778D01*
G01X113939Y-77940D01*
X109379Y-82500D01*
X93827D01*
G03Y-85500I-2827J-1500D01*
G01X110621D01*
X116060Y-80061D01*
X116172Y-80091D01*
G03X119661Y-75222I828J3091D01*
G02X119994Y-74600I333J222D01*
G01X146663D01*
X153600Y-67663D01*
Y-9271D01*
G03X153306Y-3579I-1600J2771D01*
G02X153251Y-2879I163J365D01*
G03X148382Y-922I-1751J2679D01*
G01X148407Y-1030D01*
X146400Y-3037D01*
Y-66337D01*
X144337Y-68400D01*
X78771D01*
G03X74400Y-72771I-2771J-1600D01*
G01Y-85663D01*
X81304Y-92567D01*
G02X81021Y-93250I-283J-283D01*
G01X75725D01*
X64309Y-81834D01*
G02X64526Y-81157I283J283D01*
G03X63278Y-74882I-526J3157D01*
G01X63170Y-74907D01*
X62600Y-74337D01*
Y-58771D01*
G03X59400I-1600J2771D01*
G01Y-75663D01*
X60907Y-77170D01*
X60882Y-77278D01*
G03X60843Y-77474I3118J-720D01*
G02X60166Y-77691I-395J66D01*
G01X56750Y-74275D01*
Y-64679D01*
G03X51848Y-62556I-1750J2679D01*
G01X51866Y-62658D01*
X48275Y-66250D01*
X41725D01*
X38134Y-62658D01*
X38152Y-62556D01*
G03X35249Y-58810I-3152J556D01*
G01X35182Y-58804D01*
X33804Y-57568D01*
X29736Y-53500D01*
X-1500D01*
Y-30998D01*
G03X-6500I-2500J1998D01*
G01Y-53500D01*
X-12355D01*
G03Y-58500I-1998J-2500D01*
G01X27664D01*
X30364Y-61200D01*
X31843Y-62526D01*
X31855Y-62593D01*
G03X35556Y-65152I3145J593D01*
G01X35658Y-65134D01*
X40275Y-69750D01*
X49725D01*
X52567Y-66908D01*
G02X53250Y-67191I283J-283D01*
G01Y-75725D01*
X73342Y-95817D01*
G02X73059Y-96500I-283J-283D01*
G01X50000D01*
G37*
G36*
G01X84163Y-90900D02*
X77600Y-84337D01*
Y-75991D01*
G02X78334Y-75770I400J0D01*
G03X79400Y-76771I2666J1770D01*
G01Y-84663D01*
X84954Y-90217D01*
G02X84671Y-90900I-283J-283D01*
G01X84163D01*
G37*
G36*
G01X83771Y-72400D02*
G03X83661Y-72222I-2771J-1600D01*
G02X83994Y-71600I333J222D01*
G01X97171D01*
G02X97454Y-72283I0J-400D01*
G01X97337Y-72400D01*
X83771D01*
G37*
G36*
G01X149600Y-66171D02*
Y-9494D01*
G02X150222Y-9161I400J0D01*
G03X150400Y-9271I1778J2661D01*
G01Y-66337D01*
X150283Y-66454D01*
G02X149600Y-66171I-283J283D01*
G37*
G36*
G01X222979Y-93250D02*
G02X222696Y-92567I0J400D01*
G01X227567Y-87696D01*
G02X228250Y-87979I283J-283D01*
G01Y-88275D01*
X223275Y-93250D01*
X222979D01*
G37*
G36*
G01X216046Y-90217D02*
X222600Y-83663D01*
Y-70057D01*
G03X224174Y-68766I-1600J3557D01*
G02X224900Y-68999I326J-232D01*
G01Y-85837D01*
X219837Y-90900D01*
X216329D01*
G02X216046Y-90217I0J400D01*
G37*
G36*
G01X225941Y-96500D02*
G02X225658Y-95817I0J400D01*
G01X231750Y-89725D01*
Y14725D01*
X227158Y19317D01*
G02X227441Y20000I283J283D01*
G01X238000D01*
Y-96500D01*
X225941D01*
G37*
%LPC*%
G75*
G36*
G01X219634Y-16347D02*
G02X217347Y-18634I1366J-3653D01*
G01X217392Y-18514D01*
X215379Y-16500D01*
X213980D01*
G03X213703Y-17188I0J-400D01*
G02X207515Y-21750I-2703J-2811D01*
G01X202275D01*
X183275Y-2750D01*
X169275D01*
X161425Y5100D01*
X154100D01*
Y14900D01*
X163900D01*
Y12450D01*
G03X164655Y12265I400J0D01*
G02X173623Y11626I4345J-2265D01*
G03X174377I377J133D01*
G02Y8374I4623J-1626D01*
G03X173623I-377J-133D01*
G02X164292Y8640I-4623J1626D01*
G01X164251Y8784D01*
X163900D01*
Y7575D01*
X170725Y750D01*
X184725D01*
X194166Y-8691D01*
G03X194843Y-8474I283J283D01*
G02X201091Y-9828I3157J-526D01*
G01X201061Y-9940D01*
X204621Y-13500D01*
X207100D01*
Y-6100D01*
X214900D01*
Y-13500D01*
X216621D01*
X219514Y-16392D01*
X219634Y-16347D01*
G37*
G36*
G01X-18321Y-48750D02*
G02Y-45250I-2679J1750D01*
G01X-14679D01*
G02Y-48750I2679J-1750D01*
G01X-18321D01*
G37*
G36*
G01X161771Y-62600D02*
G02Y-59400I-2771J1600D01*
G01X168229D01*
G02Y-62600I2771J-1600D01*
G01X161771D01*
G37*
G36*
G01X44600Y-59229D02*
G02X41400I-1600J-2771D01*
G01Y-58663D01*
X25400Y-42663D01*
Y-38771D01*
G02X28600I1600J2771D01*
G01Y-41337D01*
X44600Y-57337D01*
Y-59229D01*
G37*
G36*
G01X165152Y-83444D02*
G02X162556Y-80848I-3152J-556D01*
G01X162658Y-80866D01*
X166250Y-77275D01*
Y-71679D01*
G02X169750I1750J2679D01*
G01Y-78725D01*
X165134Y-83342D01*
X165152Y-83444D01*
G37*
G54D30*
X-49472Y-14870D03*
Y-61130D03*
G54D29*
X221000Y-10000D03*
Y-46500D03*
G54D26*
X189000Y10000D03*
G54D33*
X-41205Y-34063D03*
Y-41937D03*
G54D27*
X221000Y2000D03*
Y-30000D03*
X211000D03*
Y-56500D03*
Y-66500D03*
G54D34*
X-41205Y-51780D03*
G54D32*
Y-24221D03*
G54D28*
X211000Y2000D03*
Y-46500D03*
G54D31*
X178000Y-21394D03*
Y-40606D03*
%LPD*%
G75*
G36*
G01X203725Y-18250D02*
X198309Y-12834D01*
G02X198526Y-12157I283J283D01*
G03X198828Y-12091I-526J3157D01*
G01X198940Y-12061D01*
X203379Y-16500D01*
X208020D01*
G02X208297Y-17188I0J-400D01*
G03X207515Y-18250I2703J-2811D01*
G01X203725D01*
G37*
G54D10*
X-49472Y-61130D03*
Y-14870D03*
G54D20*
G01X91000Y-84000D02*
X110000D01*
X117000Y-77000D01*
G01X198263Y-75737D02*
X196000Y-78000D01*
G01X198000Y-9000D02*
X204000Y-15000D01*
X216000D01*
X221000Y-20000D01*
G54D11*
X-41205Y-51780D03*
Y-41937D03*
Y-34063D03*
G54D21*
G01X55000Y-30000D02*
Y-37000D01*
X57000Y-39000D01*
X71000D01*
G01D02*
X74000Y-36000D01*
Y-2000D01*
G01X150000Y4000D02*
X76000D01*
X74000Y2000D01*
Y-2000D01*
G01X163000Y-41500D02*
Y-3000D01*
X156000Y4000D01*
X150000D01*
G01D02*
Y13000D01*
X155000Y18000D01*
X186500D01*
X189000Y15500D01*
G01D02*
Y10000D01*
G54D12*
X-41205Y-24221D03*
G54D22*
G01X43000Y-62000D02*
Y-58000D01*
X27000Y-42000D01*
Y-36000D01*
G01X64000Y-78000D02*
X61000Y-75000D01*
Y-56000D01*
G01X221000Y-56500D02*
X226500Y-62000D01*
Y-86500D01*
X220500Y-92500D01*
X83500D01*
X76000Y-85000D01*
Y-70000D01*
G01X221000Y-66500D02*
Y-83000D01*
X214000Y-90000D01*
X87000D01*
X81000Y-84000D01*
Y-74000D01*
G01X151500Y-200D02*
X148000Y-3700D01*
Y-67000D01*
X145000Y-70000D01*
X76000D01*
G01X152000Y-6500D02*
Y-67000D01*
X146000Y-73000D01*
X99000D01*
X98000Y-74000D01*
X81000D01*
G01X154560Y-70500D02*
Y-82560D01*
X159800Y-87800D01*
X192200D01*
X196000Y-84000D01*
Y-82454D01*
G01X159000Y-61000D02*
X171000D01*
G54D13*
X-12000Y-47000D03*
X-21000D03*
X-14353Y-56000D03*
X-16937Y-30063D03*
X-13000Y-12000D03*
X-4000Y-29000D03*
X24000Y-63000D03*
X43000Y-62000D03*
X35000D03*
X27000Y-36000D03*
X64000Y-78000D03*
X55000Y-62000D03*
X61000Y-56000D03*
X55000Y-30000D03*
X71000Y-78000D03*
X81000Y-74000D03*
X91000Y-84000D03*
X76000Y-70000D03*
X71000Y-39000D03*
X74000Y-2000D03*
X117000Y-77000D03*
X162000Y-84000D03*
X154560Y-70500D03*
X171000Y-61000D03*
X159000D03*
X168000Y-69000D03*
X163000Y-41500D03*
X151500Y-200D03*
X152000Y-6500D03*
X196000Y-78000D03*
X198000Y-9000D03*
G54D23*
G01X-28000Y-51780D02*
X-41205D01*
G01X-17000Y-20000D02*
X-25000D01*
X-28000Y-23000D01*
Y-51780D01*
G01D02*
X-27220D01*
X-16000Y-63000D01*
X24000D01*
G01X-4000Y-56000D02*
X-14353D01*
G01X-17000Y-20000D02*
X-16937Y-20030D01*
Y-30063D01*
G01X-13000Y-12000D02*
X57000D01*
X67000Y-2000D01*
X74000D01*
G01X-13000Y-12000D02*
X-15970Y-14970D01*
Y-18970D01*
X-17000Y-20000D01*
G01X-4000Y-29000D02*
Y-56000D01*
G01X35000Y-62000D02*
X32084Y-59384D01*
X28700Y-56000D01*
X-4000D01*
G54D14*
X159000Y10000D03*
G54D24*
G01X-21000Y-47000D02*
X-12000D01*
G01X35000Y-62000D02*
X41000Y-68000D01*
X49000D01*
X55000Y-62000D01*
G01D02*
Y-75000D01*
X75000Y-95000D01*
X224000D01*
X230000Y-89000D01*
Y14000D01*
X226000Y18000D01*
X215540D01*
X211000Y12000D01*
G01X71000Y-39000D02*
Y-78000D01*
G01X196000Y-82454D02*
Y-78000D01*
G01X168000Y-69000D02*
Y-78000D01*
X162000Y-84000D01*
G01X156250Y-46000D02*
X154560Y-47690D01*
Y-70500D01*
G01X156250Y-46000D02*
X158500D01*
G01D02*
X163000Y-41500D01*
G01X211000Y-20000D02*
X203000D01*
X184000Y-1000D01*
X170000D01*
X159000Y10000D01*
G01X218500Y-41000D02*
X205500D01*
X202000Y-44500D01*
Y-62500D01*
X196000Y-68500D01*
Y-78000D01*
G01X203000Y-4000D02*
X189000Y10000D01*
G01X221000Y-46500D02*
Y-43500D01*
X218500Y-41000D01*
G01X221000Y-10000D02*
X215000Y-4000D01*
G01D02*
X203000D01*
G54D15*
X169000Y10000D03*
X179000D03*
X189000D03*
G54D25*
G01X47500Y-99500D02*
X240000D01*
Y24000D01*
X50000D01*
X27500Y1500D01*
X-34500D01*
X-43000Y-7000D01*
X-63000D01*
Y-68500D01*
X-41500D01*
X-34000Y-76000D01*
X-20000D01*
X24000D01*
X47500Y-99500D01*
G54D16*
X178000Y-40606D03*
Y-21394D03*
G54D17*
X211000Y-46500D03*
Y2000D03*
Y-10000D03*
G54D18*
X221000Y-46500D03*
X211000Y-56500D03*
X221000D03*
X211000Y-66500D03*
X221000D03*
X211000Y-20000D03*
X221000D03*
X211000Y-30000D03*
X221000D03*
Y2000D03*
Y-10000D03*
X211000Y12000D03*
X221000D03*
G54D19*
G01X-43888Y-54462D02*
X-41205Y-51780D01*
G01D02*
X-38522Y-49097D01*
G01X-43888D02*
X-41205Y-51780D01*
G01D02*
X-38522Y-54462D01*
G01X185477Y6476D02*
X189000Y10000D01*
G01D02*
X192524Y13524D01*
G01X185477D02*
X189000Y10000D01*
G01X218184Y-49316D02*
X221000Y-46500D01*
G01D02*
X223816Y-43684D01*
G01X218184D02*
X221000Y-46500D01*
G01D02*
X223816Y-49316D01*
G01X218184Y-12816D02*
X221000Y-10000D01*
G01D02*
X223816Y-7184D01*
G01X221000Y-10000D02*
X223816Y-12816D01*
M02*
