G04 ================== begin FILE IDENTIFICATION RECORD ==================*
G04 Layout Name:  E:/TTTN/Z-waveProgrammer/allegro/Z-WAVE PROG.brd*
G04 Film Name:    SILK_BOTTOM*
G04 File Format:  Gerber RS274X*
G04 File Origin:  Cadence Allegro 16.6-S049*
G04 Origin Date:  Wed Aug 07 14:00:57 2019*
G04 *
G04 Layer:  REF DES/SILKSCREEN_BOTTOM*
G04 Layer:  PACKAGE GEOMETRY/SILKSCREEN_BOTTOM*
G04 Layer:  DRAWING FORMAT/SILKSCREEN_BOTTOM*
G04 Layer:  BOARD GEOMETRY/OUTLINE*
G04 Layer:  BOARD GEOMETRY/SILKSCREEN_BOTTOM*
G04 Layer:  BOARD GEOMETRY/LOGO_M*
G04 *
G04 Offset:    (0.000 0.000)*
G04 Mirror:    No*
G04 Mode:      Positive*
G04 Rotation:  0*
G04 FullContactRelief:  No*
G04 UndefLineWidth:     6.000*
G04 ================== end FILE IDENTIFICATION RECORD ====================*
%FSLAX25Y25*MOIN*%
%IR0*IPPOS*OFA0.00000B0.00000*MIA0B0*SFA1.00000B1.00000*%
%ADD10C,.006*%
G75*
%LPD*%
G75*
G54D10*
G01X206000Y-71500D02*
X208500D01*
G01X213500D02*
X218500D01*
G01X226000D02*
X223500D01*
G01X206000Y-54000D02*
Y-49000D01*
G01Y-64000D02*
Y-59000D01*
G01Y-71500D02*
Y-69000D01*
G01Y-35000D02*
X208500D01*
G01X213500D02*
X218500D01*
G01X226000D02*
X223500D01*
G01X206000Y-27500D02*
Y-22500D01*
G01Y-35000D02*
Y-32500D01*
G01X213500Y-41500D02*
X218500D01*
G01X206000D02*
X208500D01*
G01X226000D02*
X223500D01*
G01X206000Y-44000D02*
Y-41500D01*
G01X213500Y-5000D02*
X218500D01*
G01X206000D02*
X208500D01*
G01X226000D02*
X223500D01*
G01X206000Y-17500D02*
Y-12500D01*
G01Y-7500D02*
Y-5000D01*
G01X226000Y-71500D02*
Y-69000D01*
G01Y-64000D02*
Y-59000D01*
G01Y-54000D02*
Y-49000D01*
G01Y-35000D02*
Y-32500D01*
G01Y-27500D02*
Y-22500D01*
G01Y-44000D02*
Y-41500D01*
G01Y-17500D02*
Y-12500D01*
G01Y-7500D02*
Y-5000D01*
G01X47500Y-99500D02*
X240000D01*
Y24000D01*
X50000D01*
X27500Y1500D01*
X-34500D01*
X-43000Y-7000D01*
X-63000D01*
Y-68500D01*
X-41500D01*
X-34000Y-76000D01*
X-20000D01*
X24000D01*
X47500Y-99500D01*
G01X210500Y-72933D02*
X211250Y-73400D01*
X211750Y-73960D01*
X212000Y-74613D01*
X211750Y-75360D01*
X211250Y-75920D01*
X210500Y-76480D01*
X209500Y-76667D01*
X204500D01*
G01X210875Y-80247D02*
X211500Y-80807D01*
X211875Y-81460D01*
X212000Y-82300D01*
X211750Y-83140D01*
X211250Y-83793D01*
X210375Y-84260D01*
X209375Y-84353D01*
X208375Y-84167D01*
X207750Y-83700D01*
X207250Y-83047D01*
X207125Y-82393D01*
X207250Y-81740D01*
X207750Y-80900D01*
X204500Y-81180D01*
Y-83700D01*
M02*
