G04 ================== begin FILE IDENTIFICATION RECORD ==================*
G04 Layout Name:  E:/TTTN/Z-waveProgrammer/allegro/Z-WAVE PROG.brd*
G04 Film Name:    SILK_TOP*
G04 File Format:  Gerber RS274X*
G04 File Origin:  Cadence Allegro 16.6-S049*
G04 Origin Date:  Wed Aug 07 14:00:57 2019*
G04 *
G04 Layer:  REF DES/SILKSCREEN_TOP*
G04 Layer:  PACKAGE GEOMETRY/SILKSCREEN_TOP*
G04 Layer:  DRAWING FORMAT/SILKSCREEN_TOP*
G04 Layer:  BOARD GEOMETRY/OUTLINE*
G04 Layer:  BOARD GEOMETRY/SILKSCREEN_TOP*
G04 Layer:  BOARD GEOMETRY/LOGO*
G04 *
G04 Offset:    (0.000 0.000)*
G04 Mirror:    No*
G04 Mode:      Positive*
G04 Rotation:  0*
G04 FullContactRelief:  No*
G04 UndefLineWidth:     6.000*
G04 ================== end FILE IDENTIFICATION RECORD ====================*
%FSLAX25Y25*MOIN*%
%IR0*IPPOS*OFA0.00000B0.00000*MIA0B0*SFA1.00000B1.00000*%
%ADD10C,.005*%
%ADD11C,.006*%
%ADD12C,.00787*%
G75*
%LPD*%
G75*
G36*
G01X12907Y-5014D02*
G03I-681J0D01*
G37*
G54D10*
G01X1126Y-54843D02*
X-843D01*
Y-52874D01*
G01Y-37126D02*
Y-35157D01*
X1126D01*
G01X18843Y-52874D02*
Y-54843D01*
X16874D01*
G01Y-35157D02*
X18843D01*
Y-37126D01*
G01X178000Y-53342D02*
G02X168158Y-43520I-10J9833D01*
G01D02*
Y-18480D01*
G01D02*
G02X178000Y-8658I9833J-10D01*
G01X187842Y-43520D02*
G02X178000Y-53342I-9833J10D01*
G01Y-8658D02*
G02X187842Y-18480I10J-9833D01*
G01Y-43520D01*
G54D11*
G01X-11500Y-63000D02*
Y-58500D01*
X-6500D01*
G01Y-65000D02*
Y-69500D01*
X-11500D01*
Y-65000D01*
G01X-33500Y-44500D02*
X-29000D01*
G01X-28400Y-45900D02*
Y-48200D01*
G01X-27700Y-45900D02*
Y-48200D01*
G01X-29000Y-49500D02*
X-33500D01*
Y-44500D01*
G01X-27000D02*
X-22500D01*
Y-49500D01*
X-27000D01*
G01X-33500Y-36500D02*
X-29000D01*
G01X-28400Y-37900D02*
Y-40200D01*
G01X-27700Y-37900D02*
Y-40200D01*
G01X-29000Y-41500D02*
X-33500D01*
Y-36500D01*
G01X-27000D02*
X-22500D01*
Y-41500D01*
X-27000D01*
G01X-500Y-58500D02*
Y-63000D01*
G01X-1900Y-63600D02*
X-4200D01*
G01X-1900Y-64300D02*
X-4200D01*
G01X-5500Y-63000D02*
Y-58500D01*
X-500D01*
G01Y-65000D02*
Y-69500D01*
X-5500D01*
Y-65000D01*
G01X-6500Y-58500D02*
Y-63000D01*
G01X-7900Y-63600D02*
X-10200D01*
G01X-7900Y-64300D02*
X-10200D01*
G01X14500Y-58500D02*
Y-63000D01*
G01X13100Y-63600D02*
X10800D01*
G01X13100Y-64300D02*
X10800D01*
G01X9500Y-63000D02*
Y-58500D01*
X14500D01*
G01Y-65000D02*
Y-69500D01*
X9500D01*
Y-65000D01*
G01X3500Y-69500D02*
Y-65000D01*
G01X4900Y-64400D02*
X7200D01*
G01X4900Y-63700D02*
X7200D01*
G01X8500Y-65000D02*
Y-69500D01*
X3500D01*
G01Y-63000D02*
Y-58500D01*
X8500D01*
Y-63000D01*
G01X-5500Y-26500D02*
Y-22000D01*
G01X-500D02*
Y-26500D01*
X-5500D01*
G01X27890Y-4205D02*
X14110D01*
Y-29795D01*
X27890D01*
Y-4205D01*
G01X-4100Y-21400D02*
X-1800D01*
G01X-4100Y-20700D02*
X-1800D01*
G01X-5500Y-20000D02*
Y-15500D01*
X-500D01*
Y-20000D01*
G01X20500Y-65000D02*
Y-69500D01*
X15500D01*
Y-65000D01*
G01Y-63000D02*
Y-58500D01*
X20500D01*
G01X19100Y-64300D02*
X16800D01*
G01X19100Y-63600D02*
X16800D01*
G01X20500Y-58500D02*
Y-63000D01*
G01X32500Y-56500D02*
Y-52000D01*
G01X33900Y-51400D02*
X36200D01*
G01X33900Y-50700D02*
X36200D01*
G01X37500Y-52000D02*
Y-56500D01*
X32500D01*
G01Y-50000D02*
Y-45500D01*
X37500D01*
Y-50000D01*
G01X38500Y-56500D02*
Y-52000D01*
G01X39900Y-51400D02*
X42200D01*
G01X39900Y-50700D02*
X42200D01*
G01X43500Y-52000D02*
Y-56500D01*
X38500D01*
G01Y-50000D02*
Y-45500D01*
X43500D01*
Y-50000D01*
G01X46500Y-23000D02*
Y-27500D01*
X41500D01*
Y-23000D01*
G01X37500Y-40000D02*
Y-44500D01*
X32500D01*
Y-40000D01*
G01Y-38000D02*
Y-33500D01*
X37500D01*
G01X36100Y-39300D02*
X33800D01*
G01X36100Y-38600D02*
X33800D01*
G01X37500Y-33500D02*
Y-38000D01*
G01X43500Y-40000D02*
Y-44500D01*
X38500D01*
Y-40000D01*
G01Y-38000D02*
Y-33500D01*
X43500D01*
G01X42100Y-39300D02*
X39800D01*
G01X42100Y-38600D02*
X39800D01*
G01X41500Y-21000D02*
Y-16500D01*
X46500D01*
G01X43500Y-33500D02*
Y-38000D01*
G01X52500Y-41500D02*
X57000D01*
G01X57600Y-42900D02*
Y-45200D01*
G01X58300Y-42900D02*
Y-45200D01*
G01X57000Y-46500D02*
X52500D01*
Y-41500D01*
G01X59000D02*
X63500D01*
Y-46500D01*
X59000D01*
G01X52500Y-35500D02*
X57000D01*
G01X57600Y-36900D02*
Y-39200D01*
G01X58300Y-36900D02*
Y-39200D01*
G01X57000Y-40500D02*
X52500D01*
Y-35500D01*
G01X59000D02*
X63500D01*
Y-40500D01*
X59000D01*
G01X46500Y-16500D02*
Y-21000D01*
G01X45100Y-21600D02*
X42800D01*
G01X45100Y-22300D02*
X42800D01*
G01X66000Y-8500D02*
X61500D01*
Y-3500D01*
X66000D01*
G01X66700Y-7100D02*
Y-4800D01*
G01X67400Y-7100D02*
Y-4800D01*
G01X49500Y-3500D02*
X54000D01*
G01X54600Y-4900D02*
Y-7200D01*
G01X55300Y-4900D02*
Y-7200D01*
G01X54000Y-8500D02*
X49500D01*
Y-3500D01*
G01X56000D02*
X60500D01*
Y-8500D01*
X56000D01*
G01X68500Y-58500D02*
Y-54000D01*
G01X69900Y-53400D02*
X72200D01*
G01X69900Y-52700D02*
X72200D01*
G01X73500Y-54000D02*
Y-58500D01*
X68500D01*
G01Y-52000D02*
Y-47500D01*
X73500D01*
Y-52000D01*
G01X86400Y-58900D02*
Y-60600D01*
X88100D01*
G01X73500Y-22000D02*
Y-26500D01*
X68500D01*
Y-22000D01*
G01X73500Y-15500D02*
Y-20000D01*
G01X72100Y-20600D02*
X69800D01*
G01X72100Y-21300D02*
X69800D01*
G01X68500Y-20000D02*
Y-15500D01*
X73500D01*
G01X88100Y-5400D02*
X86400D01*
Y-7100D01*
G01X68000Y-3500D02*
X72500D01*
Y-8500D01*
G01D02*
X68000D01*
G01X99100Y-76600D02*
X96800D01*
G01X99100Y-77300D02*
X96800D01*
G01X100500Y-78000D02*
Y-82500D01*
X95500D01*
Y-78000D01*
G01X100500Y-71500D02*
Y-76000D01*
G01X95500D02*
Y-71500D01*
X100500D01*
G01X119000Y5500D02*
X114500D01*
Y10500D01*
G01X119600Y9100D02*
Y6800D01*
G01X114500Y10500D02*
X119000D01*
G01X109000D02*
X113500D01*
Y5500D01*
X109000D01*
G01X107000D02*
X102500D01*
Y10500D01*
G01X108300Y9100D02*
Y6800D01*
G01X107600Y9100D02*
Y6800D01*
G01X102500Y10500D02*
X107000D01*
G01X113500Y11500D02*
X109000D01*
G01X108400Y12900D02*
Y15200D01*
G01X107700Y12900D02*
Y15200D01*
G01X109000Y16500D02*
X113500D01*
Y11500D01*
G01X107000D02*
X102500D01*
Y16500D01*
X107000D01*
G01X119700Y12900D02*
Y15200D01*
G01X119000Y11500D02*
X114500D01*
Y16500D01*
X119000D01*
G01X143100Y-76600D02*
X140800D01*
G01X143100Y-77300D02*
X140800D01*
G01X144500Y-78000D02*
Y-82500D01*
X139500D01*
Y-78000D01*
G01X139900Y-60600D02*
X141600D01*
Y-58900D01*
G01X144500Y-71500D02*
Y-76000D01*
G01X139500D02*
Y-71500D01*
X144500D01*
G01X141600Y-7100D02*
Y-5400D01*
X139900D01*
G01X145000Y10500D02*
X149500D01*
Y5500D01*
X145000D01*
G01X143000D02*
X138500D01*
Y10500D01*
G01X144300Y9100D02*
Y6800D01*
G01X143600Y9100D02*
Y6800D01*
G01X138500Y10500D02*
X143000D01*
G01X133000D02*
X137500D01*
Y5500D01*
X133000D01*
G01X131000D02*
X126500D01*
Y10500D01*
G01X132300Y9100D02*
Y6800D01*
G01X131600Y9100D02*
Y6800D01*
G01X126500Y10500D02*
X131000D01*
G01X121000D02*
X125500D01*
Y5500D01*
X121000D01*
G01X120300Y9100D02*
Y6800D01*
G01X125500Y11500D02*
X121000D01*
G01X120400Y12900D02*
Y15200D01*
G01X121000Y16500D02*
X125500D01*
Y11500D01*
G01X137500D02*
X133000D01*
G01X132400Y12900D02*
Y15200D01*
G01X131700Y12900D02*
Y15200D01*
G01X133000Y16500D02*
X137500D01*
Y11500D01*
G01X131000D02*
X126500D01*
Y16500D01*
X131000D01*
G01X149500Y11500D02*
X145000D01*
G01X144400Y12900D02*
Y15200D01*
G01X143700Y12900D02*
Y15200D01*
G01X145000Y16500D02*
X149500D01*
Y11500D01*
G01X143000D02*
X138500D01*
Y16500D01*
X143000D01*
G01X168992Y-85284D02*
X193008D01*
Y-81500D01*
G01X168992D02*
Y-85284D01*
G01X154600Y-76900D02*
Y-79200D01*
G01X155300Y-76900D02*
Y-79200D01*
G01X154000Y-80500D02*
X149500D01*
Y-75500D01*
G01X156000D02*
X160500D01*
Y-80500D01*
X156000D01*
G01X155500Y-54500D02*
Y-50000D01*
G01X160500D02*
Y-54500D01*
X155500D01*
G01X193008Y-74500D02*
Y-70716D01*
X168992D01*
Y-74500D01*
G01X149500Y-75500D02*
X154000D01*
G01X156900Y-49400D02*
X159200D01*
G01X156900Y-48700D02*
X159200D01*
G01X155500Y-48000D02*
Y-43500D01*
X160500D01*
Y-48000D01*
G01X194000Y5000D02*
X193000Y4000D01*
X185000D01*
X184000Y5000D01*
X183000Y4000D01*
X175000D01*
X174000Y5000D01*
X173000Y4000D01*
X165000D01*
X164000Y5000D01*
X163000Y4000D01*
X154000D01*
X153000Y5000D01*
Y15000D01*
X154000Y16000D01*
G01D02*
X163000D01*
X164000Y15000D01*
X165000Y16000D01*
X173000D01*
X174000Y15000D01*
X175000Y16000D01*
X183000D01*
X184000Y15000D01*
X185000Y16000D01*
X193000D01*
X194000Y15000D01*
G01X181000Y-64500D02*
X185500D01*
Y-69500D01*
X181000D01*
G01X179000D02*
X174500D01*
Y-64500D01*
G01X180300Y-65900D02*
Y-68200D01*
G01X179600Y-65900D02*
Y-68200D01*
G01X174500Y-64500D02*
X179000D01*
G01X181000Y-58500D02*
X185500D01*
Y-63500D01*
X181000D01*
G01X179000D02*
X174500D01*
Y-58500D01*
G01X180300Y-59900D02*
Y-62200D01*
G01X179600Y-59900D02*
Y-62200D01*
G01X174500Y-58500D02*
X179000D01*
G01X186500Y-69500D02*
Y-65000D01*
G01X187900Y-64400D02*
X190200D01*
G01X187900Y-63700D02*
X190200D01*
G01X191500Y-65000D02*
Y-69500D01*
X186500D01*
G01Y-63000D02*
Y-58500D01*
X191500D01*
Y-63000D01*
G01X190500Y-43500D02*
Y-39000D01*
G01X191900Y-38400D02*
X194200D01*
G01X191900Y-37700D02*
X194200D01*
G01X195500Y-39000D02*
Y-43500D01*
X190500D01*
G01Y-37000D02*
Y-32500D01*
X195500D01*
Y-37000D01*
G01X194100Y-24300D02*
X191800D01*
G01X195500Y-25000D02*
Y-29500D01*
X190500D01*
Y-25000D01*
G01X195500Y-18500D02*
Y-23000D01*
G01X194100Y-23600D02*
X191800D01*
G01X190500Y-23000D02*
Y-18500D01*
X195500D01*
G01X194000Y15000D02*
Y5000D01*
G01X206000Y-41500D02*
X226000D01*
Y-71500D01*
X206000D01*
Y-41500D01*
G01Y-5000D02*
X226000D01*
Y-35000D01*
X206000D01*
Y-5000D01*
G01Y-3000D02*
Y17000D01*
X226000D01*
Y-3000D01*
X206000D01*
Y17000D01*
G01Y-3000D02*
Y17000D01*
X226000D01*
G01Y-3000D02*
Y17000D01*
G01X-88339Y-1543D02*
X-91206D01*
X-91806Y-1743D01*
X-92206Y-2143D01*
X-92339Y-2643D01*
X-92206Y-3143D01*
X-91806Y-3543D01*
X-91206Y-3743D01*
X-88339D01*
G01X-91539Y-5143D02*
X-92006Y-5443D01*
X-92273Y-5843D01*
X-92339Y-6293D01*
X-92273Y-6693D01*
X-91940Y-7093D01*
X-91539Y-7343D01*
X-91139Y-7393D01*
X-90673Y-7293D01*
X-90340Y-6943D01*
X-90206Y-6593D01*
Y-6143D01*
G01Y-6593D02*
X-90006Y-6893D01*
X-89673Y-7143D01*
X-89273Y-7243D01*
X-88873Y-7143D01*
X-88540Y-6893D01*
X-88339Y-6443D01*
X-88406Y-5993D01*
X-88673Y-5543D01*
G01X47500Y-99500D02*
X240000D01*
Y24000D01*
X50000D01*
X27500Y1500D01*
X-34500D01*
X-43000Y-7000D01*
X-63000D01*
Y-68500D01*
X-41500D01*
X-34000Y-76000D01*
X-20000D01*
X24000D01*
X47500Y-99500D01*
G01X-12833Y-61600D02*
X-12633Y-61300D01*
X-12500Y-60950D01*
Y-60550D01*
X-12700Y-60100D01*
X-13033Y-59750D01*
X-13433Y-59500D01*
X-14100Y-59300D01*
X-14700Y-59250D01*
X-15300Y-59350D01*
X-15700Y-59500D01*
X-16100Y-59800D01*
X-16367Y-60150D01*
X-16500Y-60500D01*
Y-60850D01*
X-16367Y-61200D01*
X-16167Y-61500D01*
X-15900Y-61750D01*
G01X-14833Y-63150D02*
X-14367Y-63500D01*
X-14100Y-63800D01*
X-13967Y-64200D01*
X-14100Y-64550D01*
X-14367Y-64800D01*
X-14767Y-65000D01*
X-15233Y-65050D01*
X-15633Y-65000D01*
X-16033Y-64800D01*
X-16367Y-64500D01*
X-16500Y-64150D01*
X-16367Y-63750D01*
X-15967Y-63400D01*
X-15367Y-63200D01*
X-14700Y-63150D01*
X-13833Y-63250D01*
X-13367Y-63400D01*
X-12900Y-63650D01*
X-12567Y-64000D01*
X-12500Y-64350D01*
X-12633Y-64700D01*
X-12967Y-64950D01*
G01X-17833Y-61600D02*
X-17633Y-61300D01*
X-17500Y-60950D01*
Y-60550D01*
X-17700Y-60100D01*
X-18033Y-59750D01*
X-18433Y-59500D01*
X-19100Y-59300D01*
X-19700Y-59250D01*
X-20300Y-59350D01*
X-20700Y-59500D01*
X-21100Y-59800D01*
X-21367Y-60150D01*
X-21500Y-60500D01*
Y-60850D01*
X-21367Y-61200D01*
X-21167Y-61500D01*
X-20900Y-61750D01*
G01X-21500Y-64000D02*
X-20633Y-64100D01*
X-19900Y-64250D01*
X-19233Y-64450D01*
X-18500Y-64700D01*
X-17500Y-65100D01*
Y-63100D01*
G01X-11900Y-46000D02*
Y-48867D01*
X-11700Y-49467D01*
X-11300Y-49867D01*
X-10800Y-50000D01*
X-10300Y-49867D01*
X-9900Y-49467D01*
X-9700Y-48867D01*
Y-46000D01*
G01X-6600Y-50000D02*
Y-46000D01*
X-8450Y-48867D01*
X-5950D01*
G01X-32500Y-59000D02*
Y-55000D01*
X-31250D01*
X-30850Y-55200D01*
X-30600Y-55467D01*
X-30500Y-56000D01*
X-30600Y-56533D01*
X-30900Y-56867D01*
X-31250Y-57067D01*
X-32500D01*
G01X-31250D02*
X-30500Y-59000D01*
G01X-28850Y-55667D02*
X-28550Y-55267D01*
X-28200Y-55067D01*
X-27800Y-55000D01*
X-27300Y-55133D01*
X-26950Y-55467D01*
X-26850Y-55867D01*
X-26900Y-56267D01*
X-27100Y-56600D01*
X-28100Y-57267D01*
X-28550Y-57733D01*
X-28850Y-58400D01*
X-28950Y-59000D01*
X-26850D01*
G01X-32500Y-54000D02*
Y-50000D01*
X-31250D01*
X-30850Y-50200D01*
X-30600Y-50467D01*
X-30500Y-51000D01*
X-30600Y-51533D01*
X-30900Y-51867D01*
X-31250Y-52067D01*
X-32500D01*
G01X-31250D02*
X-30500Y-54000D01*
G01X-27900D02*
Y-50000D01*
X-28500Y-50800D01*
G01Y-54000D02*
X-27300D01*
G01X-20110Y-8189D02*
Y-31811D01*
X-33890D01*
Y-8189D01*
X-20110D01*
G01X-16400Y-4333D02*
X-16700Y-4133D01*
X-17050Y-4000D01*
X-17450D01*
X-17900Y-4200D01*
X-18250Y-4533D01*
X-18500Y-4933D01*
X-18700Y-5600D01*
X-18750Y-6200D01*
X-18650Y-6800D01*
X-18500Y-7200D01*
X-18200Y-7600D01*
X-17850Y-7867D01*
X-17500Y-8000D01*
X-17150D01*
X-16800Y-7867D01*
X-16500Y-7667D01*
X-16250Y-7400D01*
G01X-13900Y-8000D02*
Y-4000D01*
X-14500Y-4800D01*
G01Y-8000D02*
X-13300D01*
G01X-10300D02*
Y-4000D01*
X-10900Y-4800D01*
G01Y-8000D02*
X-9700D01*
G01X-9205Y-26189D02*
Y-29056D01*
X-9005Y-29656D01*
X-8605Y-30056D01*
X-8105Y-30189D01*
X-7605Y-30056D01*
X-7205Y-29656D01*
X-7005Y-29056D01*
Y-26189D01*
G01X-4505Y-30189D02*
Y-26189D01*
X-5105Y-26989D01*
G01Y-30189D02*
X-3905D01*
G01X-5667Y-12400D02*
X-5867Y-12700D01*
X-6000Y-13050D01*
Y-13450D01*
X-5800Y-13900D01*
X-5467Y-14250D01*
X-5067Y-14500D01*
X-4400Y-14700D01*
X-3800Y-14750D01*
X-3200Y-14650D01*
X-2800Y-14500D01*
X-2400Y-14200D01*
X-2133Y-13850D01*
X-2000Y-13500D01*
Y-13150D01*
X-2133Y-12800D01*
X-2333Y-12500D01*
X-2600Y-12250D01*
G01X-2000Y-9900D02*
X-6000D01*
X-5200Y-10500D01*
G01X-2000D02*
Y-9300D01*
G01X-6000Y-6300D02*
X-5867Y-6700D01*
X-5533Y-7000D01*
X-5133Y-7200D01*
X-4600Y-7350D01*
X-4000Y-7400D01*
X-3400Y-7350D01*
X-2867Y-7200D01*
X-2467Y-7000D01*
X-2133Y-6700D01*
X-2000Y-6300D01*
X-2133Y-5900D01*
X-2467Y-5600D01*
X-2867Y-5400D01*
X-3400Y-5250D01*
X-4000Y-5200D01*
X-4600Y-5250D01*
X-5133Y-5400D01*
X-5533Y-5600D01*
X-5867Y-5900D01*
X-6000Y-6300D01*
G01X33000Y-59900D02*
X37000D01*
Y-60900D01*
X36800Y-61300D01*
X36533Y-61600D01*
X36133Y-61850D01*
X35667Y-62050D01*
X35000Y-62100D01*
X34333Y-62050D01*
X33867Y-61850D01*
X33467Y-61600D01*
X33200Y-61300D01*
X33000Y-60900D01*
Y-59900D01*
G01Y-64600D02*
X37000D01*
X36200Y-64000D01*
G01X33000D02*
Y-65200D01*
G01X28000Y-59500D02*
X32000D01*
Y-60750D01*
X31800Y-61150D01*
X31533Y-61400D01*
X31000Y-61500D01*
X30467Y-61400D01*
X30133Y-61100D01*
X29933Y-60750D01*
Y-59500D01*
G01Y-60750D02*
X28000Y-61500D01*
G01Y-64700D02*
X32000D01*
X29133Y-62850D01*
Y-65350D01*
G01X26000Y-54500D02*
X22000D01*
Y-53250D01*
X22200Y-52850D01*
X22467Y-52600D01*
X23000Y-52500D01*
X23533Y-52600D01*
X23867Y-52900D01*
X24067Y-53250D01*
Y-54500D01*
G01Y-53250D02*
X26000Y-52500D01*
G01Y-49900D02*
X22000D01*
X22800Y-50500D01*
G01X26000D02*
Y-49300D01*
G01X22667Y-47250D02*
X22267Y-46950D01*
X22067Y-46600D01*
X22000Y-46200D01*
X22133Y-45700D01*
X22467Y-45350D01*
X22867Y-45250D01*
X23267Y-45300D01*
X23600Y-45500D01*
X24267Y-46500D01*
X24733Y-46950D01*
X25400Y-47250D01*
X26000Y-47350D01*
Y-45250D01*
G01X31500Y-55000D02*
X27500D01*
Y-53750D01*
X27700Y-53350D01*
X27967Y-53100D01*
X28500Y-53000D01*
X29033Y-53100D01*
X29367Y-53400D01*
X29567Y-53750D01*
Y-55000D01*
G01Y-53750D02*
X31500Y-53000D01*
G01Y-50400D02*
X27500D01*
X28300Y-51000D01*
G01X31500D02*
Y-49800D01*
G01Y-46800D02*
X27500D01*
X28300Y-47400D01*
G01X31500D02*
Y-46200D01*
G01X23500Y-59500D02*
X27500D01*
Y-60750D01*
X27300Y-61150D01*
X27033Y-61400D01*
X26500Y-61500D01*
X25967Y-61400D01*
X25633Y-61100D01*
X25433Y-60750D01*
Y-59500D01*
G01Y-60750D02*
X23500Y-61500D01*
G01X24100Y-63000D02*
X23767Y-63300D01*
X23567Y-63650D01*
X23500Y-64100D01*
X23633Y-64550D01*
X23900Y-64900D01*
X24367Y-65150D01*
X24900Y-65200D01*
X25433Y-65100D01*
X25767Y-64850D01*
X26033Y-64500D01*
X26100Y-64150D01*
X26033Y-63800D01*
X25767Y-63350D01*
X27500Y-63500D01*
Y-64850D01*
G01X26000Y-43100D02*
X22000D01*
Y-42100D01*
X22200Y-41700D01*
X22467Y-41400D01*
X22867Y-41150D01*
X23333Y-40950D01*
X24000Y-40900D01*
X24667Y-40950D01*
X25133Y-41150D01*
X25533Y-41400D01*
X25800Y-41700D01*
X26000Y-42100D01*
Y-43100D01*
G01X25533Y-39250D02*
X25867Y-38900D01*
X26000Y-38500D01*
X25867Y-38100D01*
X25467Y-37750D01*
X24867Y-37500D01*
X24267Y-37400D01*
X23533D01*
X22933Y-37500D01*
X22400Y-37750D01*
X22133Y-38050D01*
X22000Y-38400D01*
X22133Y-38800D01*
X22400Y-39100D01*
X22800Y-39300D01*
X23333Y-39400D01*
X23800Y-39300D01*
X24267Y-39050D01*
X24533Y-38750D01*
X24600Y-38400D01*
X24467Y-38000D01*
X24133Y-37700D01*
X23533Y-37400D01*
G01X31500Y-43100D02*
X27500D01*
Y-42100D01*
X27700Y-41700D01*
X27967Y-41400D01*
X28367Y-41150D01*
X28833Y-40950D01*
X29500Y-40900D01*
X30167Y-40950D01*
X30633Y-41150D01*
X31033Y-41400D01*
X31300Y-41700D01*
X31500Y-42100D01*
Y-43100D01*
G01Y-38400D02*
X27500D01*
X28300Y-39000D01*
G01X31500D02*
Y-37800D01*
G01Y-34800D02*
X27500D01*
X28300Y-35400D01*
G01X31500D02*
Y-34200D01*
G01X46167Y-12100D02*
X46367Y-11800D01*
X46500Y-11450D01*
Y-11050D01*
X46300Y-10600D01*
X45967Y-10250D01*
X45567Y-10000D01*
X44900Y-9800D01*
X44300Y-9750D01*
X43700Y-9850D01*
X43300Y-10000D01*
X42900Y-10300D01*
X42633Y-10650D01*
X42500Y-11000D01*
Y-11350D01*
X42633Y-11700D01*
X42833Y-12000D01*
X43100Y-12250D01*
G01X42500Y-14600D02*
X42567Y-14950D01*
X42767Y-15350D01*
X43100Y-15600D01*
X43567Y-15700D01*
X44033Y-15600D01*
X44433Y-15300D01*
X44633Y-14850D01*
Y-14350D01*
X44767Y-14050D01*
X45100Y-13800D01*
X45567Y-13700D01*
X46033Y-13850D01*
X46367Y-14200D01*
X46500Y-14600D01*
X46367Y-15000D01*
X46033Y-15350D01*
X45567Y-15500D01*
X45100Y-15400D01*
X44767Y-15150D01*
X44633Y-14850D01*
Y-14350D01*
X44433Y-13900D01*
X44033Y-13600D01*
X43567Y-13500D01*
X43100Y-13600D01*
X42767Y-13850D01*
X42567Y-14250D01*
X42500Y-14600D01*
G01X33900Y1000D02*
Y-1867D01*
X34100Y-2467D01*
X34500Y-2867D01*
X35000Y-3000D01*
X35500Y-2867D01*
X35900Y-2467D01*
X36100Y-1867D01*
Y1000D01*
G01X37500Y-2400D02*
X37800Y-2733D01*
X38150Y-2933D01*
X38600Y-3000D01*
X39050Y-2867D01*
X39400Y-2600D01*
X39650Y-2133D01*
X39700Y-1600D01*
X39600Y-1067D01*
X39350Y-733D01*
X39000Y-467D01*
X38650Y-400D01*
X38300Y-467D01*
X37850Y-733D01*
X38000Y1000D01*
X39350D01*
G01X66000Y-46000D02*
Y-42000D01*
X67250D01*
X67650Y-42200D01*
X67900Y-42467D01*
X68000Y-43000D01*
X67900Y-43533D01*
X67600Y-43867D01*
X67250Y-44067D01*
X66000D01*
G01X67250D02*
X68000Y-46000D01*
G01X69750Y-45533D02*
X70100Y-45867D01*
X70500Y-46000D01*
X70900Y-45867D01*
X71250Y-45467D01*
X71500Y-44867D01*
X71600Y-44267D01*
Y-43533D01*
X71500Y-42933D01*
X71250Y-42400D01*
X70950Y-42133D01*
X70600Y-42000D01*
X70200Y-42133D01*
X69900Y-42400D01*
X69700Y-42800D01*
X69600Y-43333D01*
X69700Y-43800D01*
X69950Y-44267D01*
X70250Y-44533D01*
X70600Y-44600D01*
X71000Y-44467D01*
X71300Y-44133D01*
X71600Y-43533D01*
G01X65500Y-40000D02*
Y-36000D01*
X66750D01*
X67150Y-36200D01*
X67400Y-36467D01*
X67500Y-37000D01*
X67400Y-37533D01*
X67100Y-37867D01*
X66750Y-38067D01*
X65500D01*
G01X66750D02*
X67500Y-40000D01*
G01X70100D02*
Y-36000D01*
X69500Y-36800D01*
G01Y-40000D02*
X70700D01*
G01X73700Y-36000D02*
X73300Y-36133D01*
X73000Y-36467D01*
X72800Y-36867D01*
X72650Y-37400D01*
X72600Y-38000D01*
X72650Y-38600D01*
X72800Y-39133D01*
X73000Y-39533D01*
X73300Y-39867D01*
X73700Y-40000D01*
X74100Y-39867D01*
X74400Y-39533D01*
X74600Y-39133D01*
X74750Y-38600D01*
X74800Y-38000D01*
X74750Y-37400D01*
X74600Y-36867D01*
X74400Y-36467D01*
X74100Y-36133D01*
X73700Y-36000D01*
G01X62900Y-2500D02*
Y1500D01*
X63900D01*
X64300Y1300D01*
X64600Y1033D01*
X64850Y633D01*
X65050Y167D01*
X65100Y-500D01*
X65050Y-1167D01*
X64850Y-1633D01*
X64600Y-2033D01*
X64300Y-2300D01*
X63900Y-2500D01*
X62900D01*
G01X66500Y-1900D02*
X66800Y-2233D01*
X67150Y-2433D01*
X67600Y-2500D01*
X68050Y-2367D01*
X68400Y-2100D01*
X68650Y-1633D01*
X68700Y-1100D01*
X68600Y-567D01*
X68350Y-233D01*
X68000Y33D01*
X67650Y100D01*
X67300Y33D01*
X66850Y-233D01*
X67000Y1500D01*
X68350D01*
G01X65667Y-14100D02*
X65867Y-13800D01*
X66000Y-13450D01*
Y-13050D01*
X65800Y-12600D01*
X65467Y-12250D01*
X65067Y-12000D01*
X64400Y-11800D01*
X63800Y-11750D01*
X63200Y-11850D01*
X62800Y-12000D01*
X62400Y-12300D01*
X62133Y-12650D01*
X62000Y-13000D01*
Y-13350D01*
X62133Y-13700D01*
X62333Y-14000D01*
X62600Y-14250D01*
G01X62467Y-15750D02*
X62133Y-16100D01*
X62000Y-16500D01*
X62133Y-16900D01*
X62533Y-17250D01*
X63133Y-17500D01*
X63733Y-17600D01*
X64467D01*
X65067Y-17500D01*
X65600Y-17250D01*
X65867Y-16950D01*
X66000Y-16600D01*
X65867Y-16200D01*
X65600Y-15900D01*
X65200Y-15700D01*
X64667Y-15600D01*
X64200Y-15700D01*
X63733Y-15950D01*
X63467Y-16250D01*
X63400Y-16600D01*
X63533Y-17000D01*
X63867Y-17300D01*
X64467Y-17600D01*
G01X50500Y-2500D02*
Y1500D01*
X51750D01*
X52150Y1300D01*
X52400Y1033D01*
X52500Y500D01*
X52400Y-33D01*
X52100Y-367D01*
X51750Y-567D01*
X50500D01*
G01X51750D02*
X52500Y-2500D01*
G01X55100D02*
X55450Y-2433D01*
X55850Y-2233D01*
X56100Y-1900D01*
X56200Y-1433D01*
X56100Y-967D01*
X55800Y-567D01*
X55350Y-367D01*
X54850D01*
X54550Y-233D01*
X54300Y100D01*
X54200Y567D01*
X54350Y1033D01*
X54700Y1367D01*
X55100Y1500D01*
X55500Y1367D01*
X55850Y1033D01*
X56000Y567D01*
X55900Y100D01*
X55650Y-233D01*
X55350Y-367D01*
X54850D01*
X54400Y-567D01*
X54100Y-967D01*
X54000Y-1433D01*
X54100Y-1900D01*
X54350Y-2233D01*
X54750Y-2433D01*
X55100Y-2500D01*
G01X66400Y7000D02*
Y11000D01*
X67400D01*
X67800Y10800D01*
X68100Y10533D01*
X68350Y10133D01*
X68550Y9667D01*
X68600Y9000D01*
X68550Y8333D01*
X68350Y7867D01*
X68100Y7467D01*
X67800Y7200D01*
X67400Y7000D01*
X66400D01*
G01X71100D02*
Y11000D01*
X70500Y10200D01*
G01Y7000D02*
X71700D01*
G01X74700Y11000D02*
X74300Y10867D01*
X74000Y10533D01*
X73800Y10133D01*
X73650Y9600D01*
X73600Y9000D01*
X73650Y8400D01*
X73800Y7867D01*
X74000Y7467D01*
X74300Y7133D01*
X74700Y7000D01*
X75100Y7133D01*
X75400Y7467D01*
X75600Y7867D01*
X75750Y8400D01*
X75800Y9000D01*
X75750Y9600D01*
X75600Y10133D01*
X75400Y10533D01*
X75100Y10867D01*
X74700Y11000D01*
G01X53400Y7000D02*
Y11000D01*
X54400D01*
X54800Y10800D01*
X55100Y10533D01*
X55350Y10133D01*
X55550Y9667D01*
X55600Y9000D01*
X55550Y8333D01*
X55350Y7867D01*
X55100Y7467D01*
X54800Y7200D01*
X54400Y7000D01*
X53400D01*
G01X58100D02*
Y11000D01*
X57500Y10200D01*
G01Y7000D02*
X58700D01*
G01X60750Y10333D02*
X61050Y10733D01*
X61400Y10933D01*
X61800Y11000D01*
X62300Y10867D01*
X62650Y10533D01*
X62750Y10133D01*
X62700Y9733D01*
X62500Y9400D01*
X61500Y8733D01*
X61050Y8267D01*
X60750Y7600D01*
X60650Y7000D01*
X62750D01*
G01X53500Y12000D02*
Y16000D01*
X54750D01*
X55150Y15800D01*
X55400Y15533D01*
X55500Y15000D01*
X55400Y14467D01*
X55100Y14133D01*
X54750Y13933D01*
X53500D01*
G01X54750D02*
X55500Y12000D01*
G01X58100D02*
Y16000D01*
X57500Y15200D01*
G01Y12000D02*
X58700D01*
G01X60750Y13667D02*
X61100Y14133D01*
X61400Y14400D01*
X61800Y14533D01*
X62150Y14400D01*
X62400Y14133D01*
X62600Y13733D01*
X62650Y13267D01*
X62600Y12867D01*
X62400Y12467D01*
X62100Y12133D01*
X61750Y12000D01*
X61350Y12133D01*
X61000Y12533D01*
X60800Y13133D01*
X60750Y13800D01*
X60850Y14667D01*
X61000Y15133D01*
X61250Y15600D01*
X61600Y15933D01*
X61950Y16000D01*
X62300Y15867D01*
X62550Y15533D01*
G01X66450Y12034D02*
Y16034D01*
X67700D01*
X68100Y15834D01*
X68350Y15567D01*
X68450Y15034D01*
X68350Y14501D01*
X68050Y14167D01*
X67700Y13967D01*
X66450D01*
G01X67700D02*
X68450Y12034D01*
G01X71050D02*
Y16034D01*
X70450Y15234D01*
G01Y12034D02*
X71650D01*
G01X73550Y12634D02*
X73850Y12301D01*
X74200Y12101D01*
X74650Y12034D01*
X75100Y12167D01*
X75450Y12434D01*
X75700Y12901D01*
X75750Y13434D01*
X75650Y13967D01*
X75400Y14301D01*
X75050Y14567D01*
X74700Y14634D01*
X74350Y14567D01*
X73900Y14301D01*
X74050Y16034D01*
X75400D01*
G01X93667Y-74600D02*
X93867Y-74300D01*
X94000Y-73950D01*
Y-73550D01*
X93800Y-73100D01*
X93467Y-72750D01*
X93067Y-72500D01*
X92400Y-72300D01*
X91800Y-72250D01*
X91200Y-72350D01*
X90800Y-72500D01*
X90400Y-72800D01*
X90133Y-73150D01*
X90000Y-73500D01*
Y-73850D01*
X90133Y-74200D01*
X90333Y-74500D01*
X90600Y-74750D01*
G01X90000Y-77100D02*
X94000D01*
X93200Y-76500D01*
G01X90000D02*
Y-77700D01*
G01Y-81300D02*
X94000D01*
X91133Y-79450D01*
Y-81950D01*
G01X71600Y-59333D02*
X71300Y-59133D01*
X70950Y-59000D01*
X70550D01*
X70100Y-59200D01*
X69750Y-59533D01*
X69500Y-59933D01*
X69300Y-60600D01*
X69250Y-61200D01*
X69350Y-61800D01*
X69500Y-62200D01*
X69800Y-62600D01*
X70150Y-62867D01*
X70500Y-63000D01*
X70850D01*
X71200Y-62867D01*
X71500Y-62667D01*
X71750Y-62400D01*
G01X74100Y-63000D02*
Y-59000D01*
X73500Y-59800D01*
G01Y-63000D02*
X74700D01*
G01X78000Y-69400D02*
X80867D01*
X81467Y-69200D01*
X81867Y-68800D01*
X82000Y-68300D01*
X81867Y-67800D01*
X81467Y-67400D01*
X80867Y-67200D01*
X78000D01*
G01X78667Y-65650D02*
X78267Y-65350D01*
X78067Y-65000D01*
X78000Y-64600D01*
X78133Y-64100D01*
X78467Y-63750D01*
X78867Y-63650D01*
X79267Y-63700D01*
X79600Y-63900D01*
X80267Y-64900D01*
X80733Y-65350D01*
X81400Y-65650D01*
X82000Y-65750D01*
Y-63650D01*
G01X70600Y-27833D02*
X70300Y-27633D01*
X69950Y-27500D01*
X69550D01*
X69100Y-27700D01*
X68750Y-28033D01*
X68500Y-28433D01*
X68300Y-29100D01*
X68250Y-29700D01*
X68350Y-30300D01*
X68500Y-30700D01*
X68800Y-31100D01*
X69150Y-31367D01*
X69500Y-31500D01*
X69850D01*
X70200Y-31367D01*
X70500Y-31167D01*
X70750Y-30900D01*
G01X72150Y-28167D02*
X72450Y-27767D01*
X72800Y-27567D01*
X73200Y-27500D01*
X73700Y-27633D01*
X74050Y-27967D01*
X74150Y-28367D01*
X74100Y-28767D01*
X73900Y-29100D01*
X72900Y-29767D01*
X72450Y-30233D01*
X72150Y-30900D01*
X72050Y-31500D01*
X74150D01*
G01X90400Y7000D02*
Y11000D01*
X91400D01*
X91800Y10800D01*
X92100Y10533D01*
X92350Y10133D01*
X92550Y9667D01*
X92600Y9000D01*
X92550Y8333D01*
X92350Y7867D01*
X92100Y7467D01*
X91800Y7200D01*
X91400Y7000D01*
X90400D01*
G01X95000D02*
X95100Y7867D01*
X95250Y8600D01*
X95450Y9267D01*
X95700Y10000D01*
X96100Y11000D01*
X94100D01*
G01X78400Y7000D02*
Y11000D01*
X79400D01*
X79800Y10800D01*
X80100Y10533D01*
X80350Y10133D01*
X80550Y9667D01*
X80600Y9000D01*
X80550Y8333D01*
X80350Y7867D01*
X80100Y7467D01*
X79800Y7200D01*
X79400Y7000D01*
X78400D01*
G01X83100D02*
X83450Y7067D01*
X83850Y7267D01*
X84100Y7600D01*
X84200Y8067D01*
X84100Y8533D01*
X83800Y8933D01*
X83350Y9133D01*
X82850D01*
X82550Y9267D01*
X82300Y9600D01*
X82200Y10067D01*
X82350Y10533D01*
X82700Y10867D01*
X83100Y11000D01*
X83500Y10867D01*
X83850Y10533D01*
X84000Y10067D01*
X83900Y9600D01*
X83650Y9267D01*
X83350Y9133D01*
X82850D01*
X82400Y8933D01*
X82100Y8533D01*
X82000Y8067D01*
X82100Y7600D01*
X82350Y7267D01*
X82750Y7067D01*
X83100Y7000D01*
G01X78450Y12034D02*
Y16034D01*
X79700D01*
X80100Y15834D01*
X80350Y15567D01*
X80450Y15034D01*
X80350Y14501D01*
X80050Y14167D01*
X79700Y13967D01*
X78450D01*
G01X79700D02*
X80450Y12034D01*
G01X83050D02*
Y16034D01*
X82450Y15234D01*
G01Y12034D02*
X83650D01*
G01X87250D02*
Y16034D01*
X85400Y13167D01*
X87900D01*
G01X90450Y12034D02*
Y16034D01*
X91700D01*
X92100Y15834D01*
X92350Y15567D01*
X92450Y15034D01*
X92350Y14501D01*
X92050Y14167D01*
X91700Y13967D01*
X90450D01*
G01X91700D02*
X92450Y12034D01*
G01X95050D02*
Y16034D01*
X94450Y15234D01*
G01Y12034D02*
X95650D01*
G01X97550Y12834D02*
X97850Y12367D01*
X98250Y12101D01*
X98700Y12034D01*
X99100Y12101D01*
X99500Y12434D01*
X99750Y12834D01*
X99800Y13234D01*
X99700Y13701D01*
X99350Y14034D01*
X99000Y14167D01*
X98550D01*
G01X99000D02*
X99300Y14367D01*
X99550Y14701D01*
X99650Y15101D01*
X99550Y15501D01*
X99300Y15834D01*
X98850Y16034D01*
X98400Y15967D01*
X97950Y15701D01*
G01X127500Y-71090D02*
X110500D01*
Y-82910D01*
X127500D01*
Y-71090D01*
G01X127100Y-82000D02*
G03I-600J0D01*
G01X134500Y-88000D02*
Y-84000D01*
X135750D01*
X136150Y-84200D01*
X136400Y-84467D01*
X136500Y-85000D01*
X136400Y-85533D01*
X136100Y-85867D01*
X135750Y-86067D01*
X134500D01*
G01X135750D02*
X136500Y-88000D01*
G01X139100D02*
Y-84000D01*
X138500Y-84800D01*
G01Y-88000D02*
X139700D01*
G01X142600D02*
X142700Y-87133D01*
X142850Y-86400D01*
X143050Y-85733D01*
X143300Y-85000D01*
X143700Y-84000D01*
X141700D01*
G01X128400Y-67000D02*
Y-69867D01*
X128600Y-70467D01*
X129000Y-70867D01*
X129500Y-71000D01*
X130000Y-70867D01*
X130400Y-70467D01*
X130600Y-69867D01*
Y-67000D01*
G01X132150Y-69333D02*
X132500Y-68867D01*
X132800Y-68600D01*
X133200Y-68467D01*
X133550Y-68600D01*
X133800Y-68867D01*
X134000Y-69267D01*
X134050Y-69733D01*
X134000Y-70133D01*
X133800Y-70533D01*
X133500Y-70867D01*
X133150Y-71000D01*
X132750Y-70867D01*
X132400Y-70467D01*
X132200Y-69867D01*
X132150Y-69200D01*
X132250Y-68333D01*
X132400Y-67867D01*
X132650Y-67400D01*
X133000Y-67067D01*
X133350Y-67000D01*
X133700Y-67133D01*
X133950Y-67467D01*
G01X168450Y-91467D02*
X168850Y-91800D01*
X169300Y-92000D01*
X169700D01*
X170100Y-91800D01*
X170400Y-91467D01*
X170550Y-91000D01*
X170450Y-90533D01*
X170200Y-90133D01*
X169750Y-89867D01*
X169150Y-89733D01*
X168800Y-89467D01*
X168650Y-89000D01*
X168750Y-88533D01*
X169000Y-88200D01*
X169350Y-88000D01*
X169700D01*
X170050Y-88133D01*
X170350Y-88467D01*
G01X171600Y-88000D02*
X172300Y-92000D01*
X173100Y-88000D01*
X173900Y-92000D01*
X174600Y-88000D01*
G01X176700Y-92000D02*
Y-88000D01*
X176100Y-88800D01*
G01Y-92000D02*
X177300D01*
G01X150500Y-88000D02*
Y-84000D01*
X151750D01*
X152150Y-84200D01*
X152400Y-84467D01*
X152500Y-85000D01*
X152400Y-85533D01*
X152100Y-85867D01*
X151750Y-86067D01*
X150500D01*
G01X151750D02*
X152500Y-88000D01*
G01X154000Y-87200D02*
X154300Y-87667D01*
X154700Y-87933D01*
X155150Y-88000D01*
X155550Y-87933D01*
X155950Y-87600D01*
X156200Y-87200D01*
X156250Y-86800D01*
X156150Y-86333D01*
X155800Y-86000D01*
X155450Y-85867D01*
X155000D01*
G01X155450D02*
X155750Y-85667D01*
X156000Y-85333D01*
X156100Y-84933D01*
X156000Y-84533D01*
X155750Y-84200D01*
X155300Y-84000D01*
X154850Y-84067D01*
X154400Y-84333D01*
G01X167400Y-69000D02*
Y-65000D01*
X168400D01*
X168800Y-65200D01*
X169100Y-65467D01*
X169350Y-65867D01*
X169550Y-66333D01*
X169600Y-67000D01*
X169550Y-67667D01*
X169350Y-68133D01*
X169100Y-68533D01*
X168800Y-68800D01*
X168400Y-69000D01*
X167400D01*
G01X172700D02*
Y-65000D01*
X170850Y-67867D01*
X173350D01*
G01X167400Y-62000D02*
Y-58000D01*
X168400D01*
X168800Y-58200D01*
X169100Y-58467D01*
X169350Y-58867D01*
X169550Y-59333D01*
X169600Y-60000D01*
X169550Y-60667D01*
X169350Y-61133D01*
X169100Y-61533D01*
X168800Y-61800D01*
X168400Y-62000D01*
X167400D01*
G01X171150Y-60333D02*
X171500Y-59867D01*
X171800Y-59600D01*
X172200Y-59467D01*
X172550Y-59600D01*
X172800Y-59867D01*
X173000Y-60267D01*
X173050Y-60733D01*
X173000Y-61133D01*
X172800Y-61533D01*
X172500Y-61867D01*
X172150Y-62000D01*
X171750Y-61867D01*
X171400Y-61467D01*
X171200Y-60867D01*
X171150Y-60200D01*
X171250Y-59333D01*
X171400Y-58867D01*
X171650Y-58400D01*
X172000Y-58067D01*
X172350Y-58000D01*
X172700Y-58133D01*
X172950Y-58467D01*
G01X156600Y-38333D02*
X156300Y-38133D01*
X155950Y-38000D01*
X155550D01*
X155100Y-38200D01*
X154750Y-38533D01*
X154500Y-38933D01*
X154300Y-39600D01*
X154250Y-40200D01*
X154350Y-40800D01*
X154500Y-41200D01*
X154800Y-41600D01*
X155150Y-41867D01*
X155500Y-42000D01*
X155850D01*
X156200Y-41867D01*
X156500Y-41667D01*
X156750Y-41400D01*
G01X158000Y-41200D02*
X158300Y-41667D01*
X158700Y-41933D01*
X159150Y-42000D01*
X159550Y-41933D01*
X159950Y-41600D01*
X160200Y-41200D01*
X160250Y-40800D01*
X160150Y-40333D01*
X159800Y-40000D01*
X159450Y-39867D01*
X159000D01*
G01X159450D02*
X159750Y-39667D01*
X160000Y-39333D01*
X160100Y-38933D01*
X160000Y-38533D01*
X159750Y-38200D01*
X159300Y-38000D01*
X158850Y-38067D01*
X158400Y-38333D01*
G01X166000Y-26300D02*
X164200D01*
X162000Y-27300D01*
G01Y-25300D02*
X164200Y-26300D01*
G01X166000Y-22700D02*
X162000D01*
X162800Y-23300D01*
G01X166000D02*
Y-22100D01*
G01X154500Y-2000D02*
Y2000D01*
X155750D01*
X156150Y1800D01*
X156400Y1533D01*
X156500Y1000D01*
X156400Y467D01*
X156100Y133D01*
X155750Y-67D01*
X154500D01*
G01X155750D02*
X156500Y-2000D01*
G01X158050Y-1467D02*
X158450Y-1800D01*
X158900Y-2000D01*
X159300D01*
X159700Y-1800D01*
X160000Y-1467D01*
X160150Y-1000D01*
X160050Y-533D01*
X159800Y-133D01*
X159350Y133D01*
X158750Y267D01*
X158400Y533D01*
X158250Y1000D01*
X158350Y1467D01*
X158600Y1800D01*
X158950Y2000D01*
X159300D01*
X159650Y1867D01*
X159950Y1533D01*
G01X164500Y-2000D02*
Y2000D01*
X165750D01*
X166150Y1800D01*
X166400Y1533D01*
X166500Y1000D01*
X166400Y467D01*
X166100Y133D01*
X165750Y-67D01*
X164500D01*
G01X165750D02*
X166500Y-2000D01*
G01X168050D02*
X170150Y2000D01*
G01X168050D02*
X170150Y-2000D01*
G01X196450Y-67467D02*
X196850Y-67800D01*
X197300Y-68000D01*
X197700D01*
X198100Y-67800D01*
X198400Y-67467D01*
X198550Y-67000D01*
X198450Y-66533D01*
X198200Y-66133D01*
X197750Y-65867D01*
X197150Y-65733D01*
X196800Y-65467D01*
X196650Y-65000D01*
X196750Y-64533D01*
X197000Y-64200D01*
X197350Y-64000D01*
X197700D01*
X198050Y-64133D01*
X198350Y-64467D01*
G01X202200Y-64333D02*
X201900Y-64133D01*
X201550Y-64000D01*
X201150D01*
X200700Y-64200D01*
X200350Y-64533D01*
X200100Y-64933D01*
X199900Y-65600D01*
X199850Y-66200D01*
X199950Y-66800D01*
X200100Y-67200D01*
X200400Y-67600D01*
X200750Y-67867D01*
X201100Y-68000D01*
X201450D01*
X201800Y-67867D01*
X202100Y-67667D01*
X202350Y-67400D01*
G01X203600Y-68000D02*
Y-64000D01*
G01X205500D02*
X203600Y-66467D01*
G01X205800Y-68000D02*
X204450Y-65333D01*
G01X196500Y-58000D02*
Y-54000D01*
X197750D01*
X198150Y-54200D01*
X198400Y-54467D01*
X198500Y-55000D01*
X198400Y-55533D01*
X198100Y-55867D01*
X197750Y-56067D01*
X196500D01*
G01X197750D02*
X198500Y-58000D01*
G01X200050Y-57467D02*
X200450Y-57800D01*
X200900Y-58000D01*
X201300D01*
X201700Y-57800D01*
X202000Y-57467D01*
X202150Y-57000D01*
X202050Y-56533D01*
X201800Y-56133D01*
X201350Y-55867D01*
X200750Y-55733D01*
X200400Y-55467D01*
X200250Y-55000D01*
X200350Y-54533D01*
X200600Y-54200D01*
X200950Y-54000D01*
X201300D01*
X201650Y-54133D01*
X201950Y-54467D01*
G01X204700Y-54000D02*
Y-58000D01*
G01X203550Y-54000D02*
X205850D01*
G01X190333Y-51400D02*
X190133Y-51700D01*
X190000Y-52050D01*
Y-52450D01*
X190200Y-52900D01*
X190533Y-53250D01*
X190933Y-53500D01*
X191600Y-53700D01*
X192200Y-53750D01*
X192800Y-53650D01*
X193200Y-53500D01*
X193600Y-53200D01*
X193867Y-52850D01*
X194000Y-52500D01*
Y-52150D01*
X193867Y-51800D01*
X193667Y-51500D01*
X193400Y-51250D01*
G01X194000Y-48900D02*
X190000D01*
X190800Y-49500D01*
G01X194000D02*
Y-48300D01*
G01X190667Y-46250D02*
X190267Y-45950D01*
X190067Y-45600D01*
X190000Y-45200D01*
X190133Y-44700D01*
X190467Y-44350D01*
X190867Y-44250D01*
X191267Y-44300D01*
X191600Y-44500D01*
X192267Y-45500D01*
X192733Y-45950D01*
X193400Y-46250D01*
X194000Y-46350D01*
Y-44250D01*
G01X184500Y-58000D02*
Y-54000D01*
X185750D01*
X186150Y-54200D01*
X186400Y-54467D01*
X186500Y-55000D01*
X186400Y-55533D01*
X186100Y-55867D01*
X185750Y-56067D01*
X184500D01*
G01X185750D02*
X186500Y-58000D01*
G01X189000D02*
X189100Y-57133D01*
X189250Y-56400D01*
X189450Y-55733D01*
X189700Y-55000D01*
X190100Y-54000D01*
X188100D01*
G01X198400Y-47200D02*
X198700Y-47667D01*
X199100Y-47933D01*
X199550Y-48000D01*
X199950Y-47933D01*
X200350Y-47600D01*
X200600Y-47200D01*
X200650Y-46800D01*
X200550Y-46333D01*
X200200Y-46000D01*
X199850Y-45867D01*
X199400D01*
G01X199850D02*
X200150Y-45667D01*
X200400Y-45333D01*
X200500Y-44933D01*
X200400Y-44533D01*
X200150Y-44200D01*
X199700Y-44000D01*
X199250Y-44067D01*
X198800Y-44333D01*
G01X201850Y-44000D02*
X203100Y-48000D01*
X204350Y-44000D01*
G01X196450Y-31467D02*
X196850Y-31800D01*
X197300Y-32000D01*
X197700D01*
X198100Y-31800D01*
X198400Y-31467D01*
X198550Y-31000D01*
X198450Y-30533D01*
X198200Y-30133D01*
X197750Y-29867D01*
X197150Y-29733D01*
X196800Y-29467D01*
X196650Y-29000D01*
X196750Y-28533D01*
X197000Y-28200D01*
X197350Y-28000D01*
X197700D01*
X198050Y-28133D01*
X198350Y-28467D01*
G01X202200Y-28333D02*
X201900Y-28133D01*
X201550Y-28000D01*
X201150D01*
X200700Y-28200D01*
X200350Y-28533D01*
X200100Y-28933D01*
X199900Y-29600D01*
X199850Y-30200D01*
X199950Y-30800D01*
X200100Y-31200D01*
X200400Y-31600D01*
X200750Y-31867D01*
X201100Y-32000D01*
X201450D01*
X201800Y-31867D01*
X202100Y-31667D01*
X202350Y-31400D01*
G01X203600Y-32000D02*
Y-28000D01*
G01X205500D02*
X203600Y-30467D01*
G01X205800Y-32000D02*
X204450Y-29333D01*
G01X175500Y2000D02*
Y-2000D01*
G01X174350Y2000D02*
X176650D01*
G01X178050Y-2000D02*
X180150Y2000D01*
G01X178050D02*
X180150Y-2000D01*
G01X185800Y0D02*
X186800D01*
Y-1200D01*
X186500Y-1600D01*
X186150Y-1867D01*
X185650Y-2000D01*
X185150Y-1867D01*
X184800Y-1600D01*
X184500Y-1200D01*
X184300Y-733D01*
X184200Y-200D01*
Y267D01*
X184300Y667D01*
X184500Y1133D01*
X184800Y1533D01*
X185100Y1800D01*
X185500Y2000D01*
X185850D01*
X186250Y1867D01*
X186550Y1600D01*
G01X187950Y-2000D02*
Y2000D01*
X190250Y-2000D01*
Y2000D01*
G01X191600Y-2000D02*
Y2000D01*
X192600D01*
X193000Y1800D01*
X193300Y1533D01*
X193550Y1133D01*
X193750Y667D01*
X193800Y0D01*
X193750Y-667D01*
X193550Y-1133D01*
X193300Y-1533D01*
X193000Y-1800D01*
X192600Y-2000D01*
X191600D01*
G01X196500Y-22000D02*
Y-18000D01*
X197750D01*
X198150Y-18200D01*
X198400Y-18467D01*
X198500Y-19000D01*
X198400Y-19533D01*
X198100Y-19867D01*
X197750Y-20067D01*
X196500D01*
G01X197750D02*
X198500Y-22000D01*
G01X200050Y-21467D02*
X200450Y-21800D01*
X200900Y-22000D01*
X201300D01*
X201700Y-21800D01*
X202000Y-21467D01*
X202150Y-21000D01*
X202050Y-20533D01*
X201800Y-20133D01*
X201350Y-19867D01*
X200750Y-19733D01*
X200400Y-19467D01*
X200250Y-19000D01*
X200350Y-18533D01*
X200600Y-18200D01*
X200950Y-18000D01*
X201300D01*
X201650Y-18133D01*
X201950Y-18467D01*
G01X204700Y-18000D02*
Y-22000D01*
G01X203550Y-18000D02*
X205850D01*
G01X194250Y-8000D02*
X195500Y-12000D01*
X196750Y-8000D01*
G01X200200Y-8333D02*
X199900Y-8133D01*
X199550Y-8000D01*
X199150D01*
X198700Y-8200D01*
X198350Y-8533D01*
X198100Y-8933D01*
X197900Y-9600D01*
X197850Y-10200D01*
X197950Y-10800D01*
X198100Y-11200D01*
X198400Y-11600D01*
X198750Y-11867D01*
X199100Y-12000D01*
X199450D01*
X199800Y-11867D01*
X200100Y-11667D01*
X200350Y-11400D01*
G01X203800Y-8333D02*
X203500Y-8133D01*
X203150Y-8000D01*
X202750D01*
X202300Y-8200D01*
X201950Y-8533D01*
X201700Y-8933D01*
X201500Y-9600D01*
X201450Y-10200D01*
X201550Y-10800D01*
X201700Y-11200D01*
X202000Y-11600D01*
X202350Y-11867D01*
X202700Y-12000D01*
X203050D01*
X203400Y-11867D01*
X203700Y-11667D01*
X203950Y-11400D01*
G01X198400Y800D02*
X198700Y333D01*
X199100Y67D01*
X199550Y0D01*
X199950Y67D01*
X200350Y400D01*
X200600Y800D01*
X200650Y1200D01*
X200550Y1667D01*
X200200Y2000D01*
X199850Y2133D01*
X199400D01*
G01X199850D02*
X200150Y2333D01*
X200400Y2667D01*
X200500Y3067D01*
X200400Y3467D01*
X200150Y3800D01*
X199700Y4000D01*
X199250Y3933D01*
X198800Y3667D01*
G01X201850Y4000D02*
X203100Y0D01*
X204350Y4000D01*
G01X190333Y-15400D02*
X190133Y-15700D01*
X190000Y-16050D01*
Y-16450D01*
X190200Y-16900D01*
X190533Y-17250D01*
X190933Y-17500D01*
X191600Y-17700D01*
X192200Y-17750D01*
X192800Y-17650D01*
X193200Y-17500D01*
X193600Y-17200D01*
X193867Y-16850D01*
X194000Y-16500D01*
Y-16150D01*
X193867Y-15800D01*
X193667Y-15500D01*
X193400Y-15250D01*
G01X194000Y-12900D02*
X190000D01*
X190800Y-13500D01*
G01X194000D02*
Y-12300D01*
G01X193200Y-10400D02*
X193667Y-10100D01*
X193933Y-9700D01*
X194000Y-9250D01*
X193933Y-8850D01*
X193600Y-8450D01*
X193200Y-8200D01*
X192800Y-8150D01*
X192333Y-8250D01*
X192000Y-8600D01*
X191867Y-8950D01*
Y-9400D01*
G01Y-8950D02*
X191667Y-8650D01*
X191333Y-8400D01*
X190933Y-8300D01*
X190533Y-8400D01*
X190200Y-8650D01*
X190000Y-9100D01*
X190067Y-9550D01*
X190333Y-10000D01*
G01X198400Y10600D02*
X198700Y10267D01*
X199050Y10067D01*
X199500Y10000D01*
X199950Y10133D01*
X200300Y10400D01*
X200550Y10867D01*
X200600Y11400D01*
X200500Y11933D01*
X200250Y12267D01*
X199900Y12533D01*
X199550Y12600D01*
X199200Y12533D01*
X198750Y12267D01*
X198900Y14000D01*
X200250D01*
G01X201850D02*
X203100Y10000D01*
X204350Y14000D01*
G01X209200Y-79500D02*
X209600Y-79250D01*
X209867Y-78950D01*
X210000Y-78600D01*
X209867Y-78200D01*
X209600Y-77900D01*
X209200Y-77600D01*
X208667Y-77500D01*
X206000D01*
G01X209400Y-76000D02*
X209733Y-75700D01*
X209933Y-75350D01*
X210000Y-74900D01*
X209867Y-74450D01*
X209600Y-74100D01*
X209133Y-73850D01*
X208600Y-73800D01*
X208067Y-73900D01*
X207733Y-74150D01*
X207467Y-74500D01*
X207400Y-74850D01*
X207467Y-75200D01*
X207733Y-75650D01*
X206000Y-75500D01*
Y-74150D01*
G01X226500Y-58000D02*
Y-54000D01*
X227700D01*
X228100Y-54200D01*
X228400Y-54667D01*
X228500Y-55200D01*
X228400Y-55733D01*
X228150Y-56133D01*
X227700Y-56333D01*
X226500D01*
G01X230000Y-58000D02*
Y-54000D01*
X231000D01*
X231400Y-54200D01*
X231700Y-54467D01*
X231950Y-54867D01*
X232150Y-55333D01*
X232200Y-56000D01*
X232150Y-56667D01*
X231950Y-57133D01*
X231700Y-57533D01*
X231400Y-57800D01*
X231000Y-58000D01*
X230000D01*
G01X234100Y-54000D02*
X235300D01*
G01X234700D02*
Y-58000D01*
G01X234100D02*
X235300D01*
G01X226500Y-68000D02*
Y-64000D01*
X227700D01*
X228100Y-64200D01*
X228400Y-64667D01*
X228500Y-65200D01*
X228400Y-65733D01*
X228150Y-66133D01*
X227700Y-66333D01*
X226500D01*
G01X230000Y-68000D02*
Y-64000D01*
X231000D01*
X231400Y-64200D01*
X231700Y-64467D01*
X231950Y-64867D01*
X232150Y-65333D01*
X232200Y-66000D01*
X232150Y-66667D01*
X231950Y-67133D01*
X231700Y-67533D01*
X231400Y-67800D01*
X231000Y-68000D01*
X230000D01*
G01X234700D02*
X234300Y-67933D01*
X233950Y-67667D01*
X233650Y-67267D01*
X233450Y-66800D01*
X233350Y-66267D01*
Y-65733D01*
X233450Y-65200D01*
X233650Y-64733D01*
X233950Y-64333D01*
X234300Y-64067D01*
X234700Y-64000D01*
X235100Y-64067D01*
X235450Y-64333D01*
X235750Y-64733D01*
X235950Y-65200D01*
X236050Y-65733D01*
Y-66267D01*
X235950Y-66800D01*
X235750Y-67267D01*
X235450Y-67667D01*
X235100Y-67933D01*
X234700Y-68000D01*
G01X227800Y-46000D02*
X228800D01*
Y-47200D01*
X228500Y-47600D01*
X228150Y-47867D01*
X227650Y-48000D01*
X227150Y-47867D01*
X226800Y-47600D01*
X226500Y-47200D01*
X226300Y-46733D01*
X226200Y-46200D01*
Y-45733D01*
X226300Y-45333D01*
X226500Y-44867D01*
X226800Y-44467D01*
X227100Y-44200D01*
X227500Y-44000D01*
X227850D01*
X228250Y-44133D01*
X228550Y-44400D01*
G01X229950Y-48000D02*
Y-44000D01*
X232250Y-48000D01*
Y-44000D01*
G01X233600Y-48000D02*
Y-44000D01*
X234600D01*
X235000Y-44200D01*
X235300Y-44467D01*
X235550Y-44867D01*
X235750Y-45333D01*
X235800Y-46000D01*
X235750Y-46667D01*
X235550Y-47133D01*
X235300Y-47533D01*
X235000Y-47800D01*
X234600Y-48000D01*
X233600D01*
G01X228200Y-32000D02*
Y-28000D01*
X229500Y-31333D01*
X230800Y-28000D01*
Y-32000D01*
G01X232500Y-28000D02*
X233700D01*
G01X233100D02*
Y-32000D01*
G01X232500D02*
X233700D01*
G01X228200Y-22000D02*
Y-18000D01*
X229500Y-21333D01*
X230800Y-18000D01*
Y-22000D01*
G01X233100D02*
X232700Y-21933D01*
X232350Y-21667D01*
X232050Y-21267D01*
X231850Y-20800D01*
X231750Y-20267D01*
Y-19733D01*
X231850Y-19200D01*
X232050Y-18733D01*
X232350Y-18333D01*
X232700Y-18067D01*
X233100Y-18000D01*
X233500Y-18067D01*
X233850Y-18333D01*
X234150Y-18733D01*
X234350Y-19200D01*
X234450Y-19733D01*
Y-20267D01*
X234350Y-20800D01*
X234150Y-21267D01*
X233850Y-21667D01*
X233500Y-21933D01*
X233100Y-22000D01*
G01X229800Y-10000D02*
X230800D01*
Y-11200D01*
X230500Y-11600D01*
X230150Y-11867D01*
X229650Y-12000D01*
X229150Y-11867D01*
X228800Y-11600D01*
X228500Y-11200D01*
X228300Y-10733D01*
X228200Y-10200D01*
Y-9733D01*
X228300Y-9333D01*
X228500Y-8867D01*
X228800Y-8467D01*
X229100Y-8200D01*
X229500Y-8000D01*
X229850D01*
X230250Y-8133D01*
X230550Y-8400D01*
G01X231950Y-12000D02*
Y-8000D01*
X234250Y-12000D01*
Y-8000D01*
G01X235600Y-12000D02*
Y-8000D01*
X236600D01*
X237000Y-8200D01*
X237300Y-8467D01*
X237550Y-8867D01*
X237750Y-9333D01*
X237800Y-10000D01*
X237750Y-10667D01*
X237550Y-11133D01*
X237300Y-11533D01*
X237000Y-11800D01*
X236600Y-12000D01*
X235600D01*
G54D12*
G01X-18315Y-14800D02*
Y-21200D01*
G01X-3598Y-39094D02*
G03I-394J0D01*
G01X-7685Y-21200D02*
Y-14800D01*
G01X60315Y-22200D02*
Y-15800D01*
G01X49685D02*
Y-22200D01*
M02*
