G04 ================== begin FILE IDENTIFICATION RECORD ==================*
G04 Layout Name:  E:/TTTN/Z-waveProgrammer/allegro/Z-WAVE PROG.brd*
G04 Film Name:    TOP*
G04 File Format:  Gerber RS274X*
G04 File Origin:  Cadence Allegro 16.6-S049*
G04 Origin Date:  Wed Aug 07 14:00:57 2019*
G04 *
G04 Layer:  ETCH/TOP*
G04 Layer:  PIN/TOP*
G04 Layer:  VIA CLASS/TOP*
G04 Layer:  DRAWING FORMAT/TOP*
G04 Layer:  BOARD GEOMETRY/OUTLINE*
G04 Layer:  BOARD GEOMETRY/LOGO*
G04 *
G04 Offset:    (0.000 0.000)*
G04 Mirror:    No*
G04 Mode:      Positive*
G04 Rotation:  0*
G04 FullContactRelief:  No*
G04 UndefLineWidth:     5.000*
G04 ================== end FILE IDENTIFICATION RECORD ====================*
%FSLAX25Y25*MOIN*%
%IR0*IPPOS*OFA0.00000B0.00000*MIA0B0*SFA1.00000B1.00000*%
%ADD23R,.098429X.035429*%
%ADD22R,.127949X.127949*%
%ADD17R,.11024X.04724*%
%ADD14R,.12598X.059059*%
%ADD19R,.032X.035*%
%ADD18R,.035X.032*%
%ADD27R,.065X.012*%
%ADD25R,.058X.02*%
%ADD26R,.02X.058*%
%ADD28R,.06X.055*%
%ADD33C,.06*%
%ADD30C,.08*%
%ADD13C,.044*%
%ADD32R,.06X.06*%
%ADD20R,.01024X.03189*%
%ADD31C,.040551*%
%ADD29R,.08X.08*%
%ADD21R,.03189X.01024*%
%ADD11C,.05622*%
%ADD24R,.11811X.147642*%
%ADD12R,.05622X.05622*%
%ADD15R,.027559X.023618*%
%ADD10R,.090551X.027559*%
%ADD16R,.027559X.03937*%
%ADD34C,.008*%
%ADD35C,.009*%
%ADD36C,.01*%
%ADD37C,.011*%
%ADD38C,.02*%
%ADD39C,.012*%
%ADD40C,.03*%
%ADD41C,.015*%
%ADD42C,.005*%
G75*
%LPD*%
G75*
G36*
G01X-33000Y-70000D02*
X-47000Y-56000D01*
Y-22000D01*
X-46183Y-21183D01*
G02X-45500Y-21466I283J-283D01*
G01Y-26914D01*
X-44916Y-27499D01*
Y-27932D01*
X-44483D01*
X-44414Y-28000D01*
X-37586D01*
X-37517Y-27932D01*
X-37494D01*
Y-27908D01*
X-35500Y-25914D01*
Y-17414D01*
X-34086Y-16000D01*
X-20586D01*
X-20171Y-15585D01*
X-19801D01*
Y-15215D01*
X-19500Y-14914D01*
Y-8586D01*
X-19801Y-8285D01*
Y-7879D01*
X-20207D01*
X-20586Y-7500D01*
X-31534D01*
G02X-31817Y-6817I0J400D01*
G01X-29500Y-4500D01*
X39500D01*
X46000Y2000D01*
X53106D01*
G02X53389Y1317I0J-400D01*
G01X50000Y-2072D01*
Y-3500D01*
X49350D01*
Y-8000D01*
X27113D01*
X21613Y-13000D01*
X2000D01*
Y-19914D01*
X2244Y-20158D01*
G02X2102Y-20500I-141J-141D01*
G01X-1000D01*
Y-20000D01*
X-5000D01*
Y-20500D01*
X-24000D01*
Y-19000D01*
X-30000D01*
Y-20500D01*
X-32414D01*
X-34500Y-22586D01*
Y-31100D01*
G02X-34906Y-31500I-400J0D01*
G03X-35483Y-31558I-39J-2500D01*
G01X-35504Y-31563D01*
X-38462D01*
G03Y-36563I-2743J-2500D01*
G01X-36108D01*
X-33650Y-39678D01*
Y-41500D01*
X-28350D01*
Y-41000D01*
X-27650D01*
Y-41500D01*
X-26000D01*
Y-44500D01*
X-27650D01*
Y-45000D01*
X-28350D01*
Y-44500D01*
X-35106D01*
X-37496Y-42109D01*
X-37494Y-42024D01*
G03X-41118Y-45647I-3710J87D01*
G01X-41032Y-45645D01*
X-37177Y-49500D01*
X-28350D01*
Y-49000D01*
X-27650D01*
Y-49500D01*
X-26000D01*
Y-51000D01*
X-18500Y-58500D01*
X-16351D01*
G03X-16103Y-58679I1998J2500D01*
G01Y-60175D01*
X-13528Y-62750D01*
X-11500D01*
Y-63650D01*
X-11000D01*
Y-65000D01*
X-7000D01*
Y-63650D01*
X-6500D01*
Y-62750D01*
X-5500D01*
Y-63650D01*
X-5000D01*
Y-65000D01*
X-1000D01*
Y-63650D01*
X-450D01*
Y-65151D01*
X2849Y-68450D01*
X3500D01*
Y-70000D01*
X-33000D01*
G37*
G36*
G01X-44000Y-27000D02*
X-44500Y-26500D01*
Y-20000D01*
X-33000Y-8500D01*
X-21000D01*
X-20500Y-9000D01*
Y-14500D01*
X-21000Y-15000D01*
X-34500D01*
X-36500Y-17000D01*
Y-25500D01*
X-38000Y-27000D01*
X-44000D01*
G37*
G36*
G01X-28350Y-36500D02*
X-29788D01*
X-32039Y-33648D01*
G02X-31725Y-33000I314J248D01*
G01X-22466D01*
G02X-22183Y-33683I0J-400D01*
G01X-25000Y-36500D01*
X-27650D01*
Y-37000D01*
X-28350D01*
Y-36500D01*
G37*
G36*
G01X-32500Y-32000D02*
X-33500Y-31000D01*
Y-23000D01*
X-32000Y-21500D01*
X-5000D01*
Y-22000D01*
X-1000D01*
Y-21500D01*
X14000D01*
X15500Y-23000D01*
Y-27500D01*
X14500Y-28500D01*
X7410D01*
X6910Y-29000D01*
X-10000D01*
X-11500Y-27500D01*
X-15021D01*
G03X-18802Y-27462I-1916J-2563D01*
G01X-18854Y-27500D01*
X-19000D01*
X-20500Y-29000D01*
Y-31500D01*
X-21000Y-32000D01*
X-32500D01*
G37*
G36*
G01X20500Y-70000D02*
Y-64350D01*
X20000D01*
Y-63000D01*
X16000D01*
Y-64350D01*
X15500D01*
Y-65600D01*
X14500D01*
Y-64350D01*
X14000D01*
Y-63650D01*
X14500D01*
Y-58500D01*
X24500D01*
X29000Y-63000D01*
Y-67000D01*
X26000Y-70000D01*
X20500D01*
G37*
G36*
G01X8500D02*
Y-64350D01*
X8000D01*
Y-63650D01*
X8500D01*
Y-60296D01*
G02X9183Y-60013I400J0D01*
G01X9500Y-60330D01*
Y-63650D01*
X10000D01*
Y-64350D01*
X9500D01*
Y-70000D01*
X8500D01*
G37*
G36*
G01X1595Y-60028D02*
X2023D01*
X2817Y-59234D01*
G02X3500Y-59517I283J-283D01*
G01Y-63650D01*
X4000D01*
Y-64350D01*
X3500D01*
Y-64516D01*
G02X3158Y-64658I-200J0D01*
G01X2450Y-63949D01*
Y-61849D01*
X1312Y-60711D01*
G02X1595Y-60028I283J283D01*
G37*
G36*
G01X39000Y-26500D02*
X28500D01*
X22000Y-20000D01*
X3500D01*
X3000Y-19500D01*
Y-14000D01*
X22000D01*
X27500Y-9000D01*
X58500D01*
X61000Y-11500D01*
Y-19500D01*
X59500Y-21000D01*
X46000D01*
X42000Y-21000D01*
X41000Y-21000D01*
X40500Y-21500D01*
Y-25000D01*
X39000Y-26500D01*
G37*
G36*
G01X61250Y-21630D02*
Y-27275D01*
X53250Y-35275D01*
Y-35500D01*
X52350D01*
Y-40500D01*
X57650D01*
Y-40000D01*
X58350D01*
Y-40500D01*
X59400D01*
Y-41500D01*
X58350D01*
Y-42000D01*
X57650D01*
Y-41500D01*
X52350D01*
Y-43500D01*
X50600D01*
Y-40737D01*
X50500Y-40637D01*
Y-38237D01*
X50500Y-28500D01*
X38622D01*
X38621Y-28500D01*
X16398D01*
G02X16256Y-28158I0J200D01*
G01X16500Y-27914D01*
Y-22586D01*
X15598Y-21683D01*
G02X15880Y-21000I283J283D01*
G01X21586D01*
X28086Y-27500D01*
X39414D01*
X41500Y-25414D01*
Y-22000D01*
X42000D01*
Y-23000D01*
X46000D01*
Y-22000D01*
X59914D01*
X60567Y-21348D01*
G02X61250Y-21630I283J-283D01*
G37*
G36*
G01X63650Y-43500D02*
Y-41500D01*
X62600D01*
Y-40500D01*
X63650D01*
Y-39750D01*
X64975D01*
X67750Y-36975D01*
Y-20725D01*
X68158Y-20317D01*
G02X68500Y-20458I141J-141D01*
G01Y-20650D01*
X69000D01*
Y-22000D01*
X73000D01*
Y-20650D01*
X73500D01*
Y-20608D01*
G02X73842Y-20467I200J0D01*
G01X73925Y-20550D01*
X76500D01*
Y-42500D01*
X75500Y-43500D01*
X63650D01*
G37*
G36*
G01Y-35642D02*
Y-35500D01*
X58941D01*
G02X58658Y-34817I0J400D01*
G01X63567Y-29908D01*
G02X64250Y-30191I283J-283D01*
G01Y-35525D01*
X63992Y-35783D01*
G02X63650Y-35642I-141J141D01*
G37*
G36*
G01X68500Y-16250D02*
X67275D01*
X65433Y-18092D01*
G02X64750Y-17809I-283J283D01*
G01Y-17219D01*
X62000Y-14469D01*
Y-11086D01*
X61412Y-10498D01*
Y-9832D01*
X60746D01*
X60098Y-9183D01*
G02X60380Y-8500I283J283D01*
G01X66650D01*
Y-8000D01*
X68000D01*
Y-4000D01*
X66650D01*
Y-3500D01*
X55350D01*
Y-4000D01*
X54650D01*
Y-3500D01*
X54578D01*
X54476Y-3253D01*
X59728Y2000D01*
X73500D01*
X76500Y-1000D01*
Y-16342D01*
G02X76159Y-16483I-200J0D01*
G01X75925Y-16250D01*
X73500D01*
Y-15350D01*
X68500D01*
Y-16250D01*
G37*
G36*
G01X179750Y-32275D02*
X176975Y-29500D01*
X179750Y-26725D01*
Y-23741D01*
G03X180452Y-22994I-1750J2347D01*
G01X189419D01*
X189813Y-22600D01*
X190500D01*
Y-23650D01*
X191000D01*
Y-24750D01*
X190900D01*
Y-29250D01*
X195100D01*
Y-24750D01*
X195000D01*
Y-23650D01*
X195500D01*
Y-18350D01*
X190500D01*
Y-19400D01*
X188487D01*
X188094Y-19794D01*
X180452D01*
G03X176250Y-23741I-2452J-1600D01*
G01Y-25275D01*
X175275Y-26250D01*
X162275D01*
X155675Y-32850D01*
X152500D01*
Y-31000D01*
X166500Y-17000D01*
Y-8500D01*
X166900Y-8100D01*
X190100D01*
X197500Y-15500D01*
Y-47500D01*
X191000Y-54000D01*
X166500D01*
Y-53000D01*
X160100Y-46600D01*
Y-43750D01*
X157250D01*
X154500Y-41000D01*
X152500D01*
Y-39450D01*
X158025D01*
X164725Y-32750D01*
X175275D01*
X176250Y-33725D01*
Y-38259D01*
G03X180452Y-42206I1750J-2347D01*
G01X188094D01*
X188487Y-42600D01*
X190500D01*
Y-43650D01*
X195500D01*
Y-38350D01*
X195000D01*
Y-37250D01*
X195100D01*
Y-32750D01*
X190900D01*
Y-37250D01*
X191000D01*
Y-38350D01*
X190500D01*
Y-39400D01*
X189813D01*
X189419Y-39006D01*
X180452D01*
G03X179750Y-38259I-2452J-1600D01*
G01Y-32275D01*
G37*
G54D10*
X-49472Y-61130D03*
Y-14870D03*
G54D11*
X-41205Y-51780D03*
Y-41937D03*
Y-34063D03*
G54D20*
X5063Y-54646D03*
X3094D03*
X14906D03*
X12937D03*
X10969D03*
X9000D03*
X7031D03*
X3094Y-35354D03*
X5063D03*
X7031D03*
X9000D03*
X10969D03*
X12937D03*
X14906D03*
G54D12*
X-41205Y-24221D03*
G54D21*
X-646Y-50906D03*
Y-48937D03*
Y-46969D03*
Y-45000D03*
Y-43031D03*
Y-41063D03*
Y-39094D03*
X18646Y-50906D03*
Y-39094D03*
Y-41063D03*
Y-43031D03*
Y-45000D03*
Y-46969D03*
Y-48937D03*
G54D30*
X169000Y10000D03*
X179000D03*
X189000D03*
G54D40*
G01X-41205Y-24221D02*
Y-19410D01*
X-33527Y-11732D01*
X-27000D01*
G01X-41205Y-34063D02*
G01X-31000Y-39000D02*
X-34946Y-34000D01*
X-35009Y-34063D01*
X-41205D01*
G01X-41205Y-41937D02*
G01X-31000Y-47000D02*
X-36142D01*
X-41205Y-41937D01*
G01X-27000Y-28268D02*
X-22638Y-23906D01*
X-13000D01*
G01D02*
X-12906Y-24000D01*
X-3000D01*
G01Y-12094D02*
X-13000D01*
G01X-3000Y-24000D02*
X-945Y-26055D01*
X8795D01*
G01X5645Y-7945D02*
X1055D01*
X-3000Y-12000D01*
Y-12094D01*
G01D02*
Y-18000D01*
G01X8795Y-17000D02*
X33992D01*
G01X18000Y-61000D02*
X22000D01*
X24000Y-63000D01*
G01X44000Y-19000D02*
X42000Y-17000D01*
X33992D01*
G01X44000Y-25000D02*
X46600D01*
G01X46694Y-24906D02*
X55000D01*
G01X58000Y-6000D02*
X64000D01*
G01X55000Y-13094D02*
X52000D01*
G01D02*
X49756D01*
X44000Y-18850D01*
Y-19000D01*
G01X52000Y-13094D02*
Y-6000D01*
G01X70000D02*
X71000D01*
X74000Y-3000D01*
Y-2000D01*
G54D31*
X178000Y-40606D03*
Y-21394D03*
G54D13*
X-12000Y-47000D03*
X-21000D03*
X-14353Y-56000D03*
X-16937Y-30063D03*
X-13000Y-12000D03*
X-4000Y-29000D03*
X24000Y-63000D03*
X43000Y-62000D03*
X35000D03*
X27000Y-36000D03*
X64000Y-78000D03*
X55000Y-62000D03*
X61000Y-56000D03*
X55000Y-30000D03*
X71000Y-78000D03*
X81000Y-74000D03*
X91000Y-84000D03*
X76000Y-70000D03*
X71000Y-39000D03*
X74000Y-2000D03*
X117000Y-77000D03*
X162000Y-84000D03*
X154560Y-70500D03*
X171000Y-61000D03*
X159000D03*
X168000Y-69000D03*
X163000Y-41500D03*
X151500Y-200D03*
X152000Y-6500D03*
X196000Y-78000D03*
X198000Y-9000D03*
G54D22*
X9000Y-45000D03*
G54D41*
G01X-49472Y-14870D02*
Y-61130D01*
G01X-41205Y-51780D02*
X-29220D01*
X-14000Y-67000D01*
X-9000D01*
G01X-49472Y-61130D02*
X-46323D01*
X-41205Y-56012D01*
G01X-9000Y-61000D02*
X-12803D01*
X-14353Y-59450D01*
Y-56000D01*
G01X-25000Y-47000D02*
X-24000Y-45059D01*
X-22208Y-46851D01*
X-21000Y-47000D01*
G01X-25000Y-39000D02*
X-19874D01*
X-17134Y-41740D01*
X-16937D01*
G01X-13000Y-12000D02*
Y-12094D01*
G01X-9000Y-67000D02*
X-3000D01*
G01X-9000Y-61000D02*
X-3000D01*
G01X-5000Y-29000D02*
X-3000Y-27000D01*
Y-24000D01*
G01X8795Y-7945D02*
X5645D01*
G01D02*
X5560Y-7860D01*
G01X41000Y-54000D02*
X35000D01*
G01X58150Y-13094D02*
X63000Y-17944D01*
Y-28000D01*
X55000Y-36000D01*
Y-38000D01*
G01X61000D02*
X64250D01*
X66000Y-36250D01*
Y-20000D01*
X68000Y-18000D01*
X71000D01*
G01X55000Y-13094D02*
X58150D01*
G01X98000Y-74000D02*
X95150D01*
X94600Y-74550D01*
X89450D01*
X86000Y-78000D01*
X71000D01*
G01X84000Y-53500D02*
X78500D01*
X75000Y-50000D01*
X71000D01*
G01Y-56000D02*
X73850D01*
X74450Y-56600D01*
X84000D01*
G01X76000Y-22000D02*
X75000Y-23000D01*
X74850D01*
X73850Y-24000D01*
X71000D01*
G01X84000Y-22000D02*
X76000D01*
G01X84000Y-18800D02*
X76000D01*
G01D02*
X74650D01*
X73850Y-18000D01*
G01D02*
X75200D01*
X76000Y-18800D01*
G01X71000Y-18000D02*
X73850D01*
G01X152000Y-84000D02*
X151999D01*
X151983Y-83984D01*
X101834D01*
X98000Y-80150D01*
G01X129000Y16850D02*
X127850Y18000D01*
X118150D01*
X117000Y16850D01*
G01Y14000D02*
Y16850D01*
G01X118250Y15250D02*
X117000Y14000D01*
G01X105000D02*
Y16850D01*
X106150Y18000D01*
X115850D01*
X117000Y16850D01*
G01X142000Y-74000D02*
X150772D01*
X152000Y-75168D01*
Y-78000D01*
G01X158000Y-46000D02*
X155000D01*
X149900Y-40900D01*
X144000D01*
G01Y-37700D02*
X157300D01*
X164000Y-31000D01*
X176000D01*
X178000Y-33000D01*
Y-40606D01*
G01X144000Y-34600D02*
X156400D01*
X163000Y-28000D01*
X176000D01*
X178000Y-26000D01*
Y-21394D01*
G01X148150Y-44000D02*
X144000D01*
G01X129000Y14000D02*
Y16850D01*
G01D02*
X130211Y18061D01*
X139500D01*
X141000Y16561D01*
Y16215D01*
G01Y14000D02*
Y16215D01*
G01X140850Y14000D02*
X141000D01*
G01X199000Y17715D02*
X142500D01*
X141000Y16215D01*
G01X158000Y-78000D02*
X165396D01*
G01D02*
X165646D01*
G01D02*
X173000D01*
X177000Y-74000D01*
Y-72904D01*
G01X152000Y-84000D02*
Y-78000D01*
G01X162000Y-84000D02*
X152000D01*
G01X162000Y-52000D02*
X165560Y-55560D01*
Y-63110D01*
X168000Y-65550D01*
Y-69000D01*
G01X177000Y-72904D02*
Y-67000D01*
G01X211000Y-56500D02*
X204000Y-63500D01*
Y-70500D01*
X201596Y-72904D01*
X177000D01*
G01X189000Y-61000D02*
X198500D01*
X201000Y-58500D01*
Y-56500D01*
X211000Y-46500D01*
G01X194818Y-56500D02*
X184900D01*
G01X189000Y-67000D02*
X183000D01*
G01D02*
Y-61000D01*
G01X211000Y-46500D02*
Y-42250D01*
X214250Y-39000D01*
X227500D01*
X229000Y-37500D01*
Y15000D01*
X226286Y17715D01*
X199000D01*
G01X211000Y2000D02*
X205000D01*
X199000Y8000D01*
Y17715D01*
G01X221000Y2000D02*
Y12000D01*
G01X211000Y-10000D02*
X217995Y-3005D01*
Y-1005D01*
X221000Y2000D01*
G54D32*
X211000Y-46500D03*
Y2000D03*
Y-10000D03*
G54D14*
X-27000Y-28268D03*
Y-11732D03*
G54D23*
X8795Y-26055D03*
Y-17000D03*
Y-7945D03*
G54D42*
G01X47500Y-99500D02*
X240000D01*
Y24000D01*
X50000D01*
X27500Y1500D01*
X-34500D01*
X-43000Y-7000D01*
X-63000D01*
Y-68500D01*
X-41500D01*
X-34000Y-76000D01*
X-20000D01*
X24000D01*
X47500Y-99500D01*
G54D15*
X-16937Y-41740D03*
X-9063Y-34260D03*
Y-41740D03*
G54D24*
X33992Y-17000D03*
G54D33*
X221000Y-46500D03*
X211000Y-56500D03*
X221000D03*
X211000Y-66500D03*
X221000D03*
X211000Y-20000D03*
X221000D03*
X211000Y-30000D03*
X221000D03*
Y2000D03*
Y-10000D03*
X211000Y12000D03*
X221000D03*
G54D34*
G01X12000Y-61000D02*
Y-60850D01*
X9000Y-57850D01*
Y-54646D01*
G01X12000Y-67000D02*
X18000D01*
G01X-4969Y-46969D02*
X-4975Y-46975D01*
G01D02*
X-3147D01*
X-3141Y-46969D01*
G01X107120Y-78280D02*
Y-80840D01*
G01D02*
X101340D01*
X100500Y-80000D01*
X98000D01*
G01X190700Y-35000D02*
X193000D01*
G01D02*
X195300D01*
G01X190700Y-27000D02*
X193000D01*
G01D02*
X195300D01*
G54D16*
X-16937Y-35047D03*
G54D25*
X84000Y-56600D03*
Y-53500D03*
Y-50300D03*
Y-47200D03*
Y-44000D03*
Y-40900D03*
Y-37700D03*
Y-34600D03*
Y-31400D03*
Y-28300D03*
Y-25100D03*
Y-22000D03*
Y-18800D03*
Y-15700D03*
Y-12500D03*
Y-9400D03*
X144000Y-50300D03*
Y-53500D03*
Y-56600D03*
Y-25100D03*
Y-28300D03*
Y-31400D03*
Y-34600D03*
Y-37700D03*
Y-40900D03*
Y-44000D03*
Y-47200D03*
Y-9400D03*
Y-12500D03*
Y-15700D03*
Y-18800D03*
Y-22000D03*
G54D35*
G01X-9063Y-41740D02*
X-10740D01*
X-12000Y-43000D01*
Y-47000D01*
G01X6000Y-67000D02*
X3450D01*
X1000Y-64550D01*
Y-62450D01*
X-450Y-61000D01*
X-3000D01*
G01X3094Y-54646D02*
X646D01*
X-646Y-53354D01*
Y-50906D01*
G01X3094Y-55026D02*
Y-56906D01*
X1422Y-58578D01*
X-728D01*
X-3000Y-60850D01*
Y-61000D01*
G01X3094Y-54646D02*
Y-55026D01*
G01D02*
X3113Y-55042D01*
G01X6000Y-61000D02*
Y-58128D01*
X5063Y-57191D01*
Y-54646D01*
G01X-9063Y-41740D02*
X-7995D01*
X-4735Y-45000D01*
X-646D01*
G01X142000Y-80000D02*
X138826D01*
X137986Y-80840D01*
X130880D01*
G01X154560Y-70500D02*
X137740D01*
X135080Y-73160D01*
X130880D01*
G01Y-75720D02*
X136280D01*
X138000Y-74000D01*
X142000D01*
G54D26*
X93500Y-63000D03*
X90400D03*
Y-3000D03*
X93500D03*
X115600Y-63000D03*
X112400D03*
X109300D03*
X106100D03*
X103000D03*
X99800D03*
X96700D03*
X118700D03*
X96700Y-3000D03*
X99800D03*
X103000D03*
X106100D03*
X109300D03*
X112400D03*
X115600D03*
X118700D03*
X137600Y-63000D03*
X134500D03*
X131300D03*
X128200D03*
X125000D03*
X121900D03*
Y-3000D03*
X125000D03*
X128200D03*
X131300D03*
X134500D03*
X137600D03*
G54D17*
X-13000Y-23906D03*
Y-12094D03*
X55000Y-24906D03*
Y-13094D03*
G54D36*
G01X-4975Y-46975D02*
X-9000Y-51000D01*
X-14700D01*
X-16937Y-48763D01*
Y-41740D01*
G01Y-35047D02*
Y-35637D01*
X-14852Y-37723D01*
X-8277D01*
X-2969Y-43031D01*
X-646D01*
G01X7031Y-35354D02*
Y-31000D01*
X8031Y-30000D01*
X38000D01*
X41000Y-33000D01*
Y-36000D01*
G01X27000D02*
Y-33800D01*
X25559Y-32359D01*
X9877D01*
X9057Y-33180D01*
Y-35297D01*
X9000Y-35354D01*
G01X-3141Y-46969D02*
X-646D01*
G01X-3141D02*
X-4969D01*
G01X41000Y-42000D02*
Y-48000D01*
G01X46600Y-25000D02*
X46694Y-24906D01*
G01X117000Y-77000D02*
X113800D01*
X112520Y-75720D01*
X107120D01*
G01X98000Y-80150D02*
Y-80000D01*
G01X107120Y-73160D02*
X118740D01*
X125000Y-66900D01*
Y-63000D01*
G01X107120Y-75720D02*
X102870D01*
X102000Y-74850D01*
Y-71670D01*
X103670Y-70000D01*
X118800D01*
X121900Y-66900D01*
Y-63000D01*
G01X130880Y-78280D02*
X124280D01*
X122257Y-76257D01*
Y-72843D01*
X128200Y-66900D01*
Y-63000D01*
G01X131300D02*
Y-67000D01*
X132300Y-68000D01*
X144000D01*
X151000Y-61000D01*
X159000D01*
G01X211000Y-20000D02*
X216000Y-25000D01*
X224850D01*
X226500Y-26650D01*
Y-34800D01*
G01X183000Y-58400D02*
X184900Y-56500D01*
G54D27*
X107120Y-80840D03*
Y-78280D03*
Y-75720D03*
Y-73160D03*
X130880Y-75720D03*
Y-78280D03*
Y-80840D03*
Y-73160D03*
G54D18*
X-31000Y-47000D03*
X-25000D03*
X-31000Y-39000D03*
X-25000D03*
X55000Y-44000D03*
X61000D03*
X55000Y-38000D03*
X61000D03*
X64000Y-6000D03*
X52000D03*
X58000D03*
X70000D03*
X117000Y8000D03*
X111000D03*
X105000D03*
X111000Y14000D03*
X105000D03*
X117000D03*
X147000Y8000D03*
X141000D03*
X135000D03*
X129000D03*
X123000D03*
Y14000D03*
X135000D03*
X129000D03*
X147000D03*
X141000D03*
X152000Y-78000D03*
X158000D03*
X183000Y-67000D03*
X177000D03*
X183000Y-61000D03*
X177000D03*
G54D37*
G01X121900Y100D02*
X120000Y2000D01*
X108300D01*
G54D28*
X165646Y-78000D03*
X196354D03*
G54D19*
X-3000Y-61000D03*
Y-67000D03*
X-9000Y-61000D03*
Y-67000D03*
X12000Y-61000D03*
Y-67000D03*
X6000D03*
Y-61000D03*
X-3000Y-24000D03*
Y-18000D03*
X18000Y-67000D03*
Y-61000D03*
X35000Y-54000D03*
X41000D03*
X35000Y-42000D03*
Y-36000D03*
X41000Y-42000D03*
Y-36000D03*
X35000Y-48000D03*
X41000D03*
X44000Y-25000D03*
Y-19000D03*
X71000Y-56000D03*
Y-50000D03*
Y-24000D03*
Y-18000D03*
X98000Y-80000D03*
Y-74000D03*
X142000Y-80000D03*
Y-74000D03*
X158000Y-52000D03*
Y-46000D03*
X189000Y-67000D03*
Y-61000D03*
X193000Y-41000D03*
Y-35000D03*
Y-27000D03*
Y-21000D03*
G54D38*
G01X-41205Y-56012D02*
Y-51780D01*
G01X-16937Y-35047D02*
Y-30063D01*
G01X-7000Y-29000D02*
X-5000D01*
G01X-9063Y-34260D02*
Y-31579D01*
X-9000Y-31516D01*
Y-31000D01*
X-7000Y-29000D01*
G01X-5000D02*
X-4000D01*
G01X35000Y-54000D02*
Y-62000D01*
G01X55000D02*
Y-44000D01*
G01Y-30000D02*
Y-24906D01*
G01X52000Y-6000D02*
Y-2900D01*
X58900Y4000D01*
X91000D01*
X101000Y14000D01*
X105000D01*
G01X71000Y-39000D02*
Y-50000D01*
G01Y-24000D02*
Y-39000D01*
G01X158000Y-46000D02*
X158500D01*
X163000Y-41500D01*
G54D29*
X159000Y10000D03*
G54D39*
G01X41000Y-36000D02*
X46000D01*
X48900Y-38900D01*
Y-41300D01*
X49000Y-41400D01*
Y-64000D01*
X55000Y-70000D01*
X76000D01*
G01X35000Y-36000D02*
X27000D01*
G01X35000Y-48000D02*
Y-42000D01*
G01X98000Y-80150D02*
X87174D01*
X86974Y-80350D01*
X85650D01*
X82737Y-83263D01*
X69263D01*
X64000Y-78000D01*
G01X43000Y-62000D02*
Y-65300D01*
X51700Y-74000D01*
X81000D01*
G01X61000Y-56000D02*
Y-44000D01*
G01Y-56000D02*
X71000D01*
G01X61000Y-44000D02*
Y-38000D01*
G01X211000Y-66500D02*
Y-70600D01*
X210960Y-70640D01*
Y-79040D01*
X202200Y-87800D01*
X160426D01*
X158976Y-86350D01*
X151026D01*
X151009Y-86334D01*
X93334D01*
X91000Y-84000D01*
G01X76000Y-70000D02*
X90500D01*
X93500Y-67000D01*
Y-63000D01*
G01X81000Y-74000D02*
X84300D01*
X86100Y-72200D01*
X91411D01*
X96700Y-66911D01*
Y-63000D01*
G01X121900Y-3000D02*
Y100D01*
G01X108300Y2000D02*
X105000Y5300D01*
Y8000D01*
G01X111000Y14000D02*
Y8000D01*
G01X125000Y-3000D02*
Y2950D01*
X123800Y4150D01*
X118350D01*
X117000Y5500D01*
Y8000D01*
G01X105000D02*
Y9000D01*
G01X144000Y-47200D02*
X147200D01*
X157000Y-57000D01*
X161800D01*
X163000Y-58200D01*
Y-75604D01*
X165396Y-78000D01*
G01X158000Y-52000D02*
X156150D01*
X148150Y-44000D01*
G01X144000Y-28300D02*
X150700D01*
X163500Y-15500D01*
Y-8500D01*
X165500Y-6500D01*
X195500D01*
X198000Y-9000D01*
G01X144000Y-18800D02*
X149700D01*
X164500Y-4000D01*
X200000D01*
X202000Y-6000D01*
Y-25100D01*
X206900Y-30000D01*
X211000D01*
G01X131300Y-3000D02*
Y1000D01*
X132300Y2000D01*
X138000D01*
X141000Y5000D01*
Y8000D01*
G01X128200Y-3000D02*
Y2200D01*
X129000Y3000D01*
Y8000D01*
G01X144000Y-15700D02*
X148800D01*
X163500Y-1000D01*
X203000D01*
X205000Y-3000D01*
Y-23000D01*
X207000Y-25000D01*
X213000D01*
X218000Y-30000D01*
X221000D01*
G01X135000Y14000D02*
Y8000D01*
G01X123000Y14000D02*
Y8000D01*
G01X193000Y-30094D02*
X197000Y-34094D01*
Y-47500D01*
X195000Y-49500D01*
X166500D01*
X163000Y-46000D01*
Y-41500D01*
G01X171000Y-61000D02*
X177000D01*
G01X158000Y-52000D02*
X162000D01*
G01X151500Y-200D02*
X155900Y4200D01*
X167200D01*
X169000Y6000D01*
Y10000D01*
G01X152000Y-6500D02*
X160500Y2000D01*
X171000D01*
X179000Y10000D01*
G01X152000Y-8000D02*
Y-6500D01*
G01X147000Y14000D02*
Y8000D01*
G01X226500Y-34800D02*
X225300Y-36000D01*
X205500D01*
X200000Y-41500D01*
Y-51318D01*
X194818Y-56500D01*
G01X183000Y-58400D02*
Y-61000D01*
G01X184900Y-56500D02*
X184800D01*
X183000Y-58300D01*
Y-58400D01*
G01X193000Y-27000D02*
Y-30094D01*
G01D02*
Y-35000D01*
G01X178000Y-40606D02*
X188756D01*
X189150Y-41000D01*
X193000D01*
G01X178000Y-21394D02*
X188756D01*
X189150Y-21000D01*
X193000D01*
M02*
