G04 ================== begin FILE IDENTIFICATION RECORD ==================*
G04 Layout Name:  E:/0_Working/1_Hardware/17_LoraNode/tmp2/RAK833_RPIGATEWAY.brd*
G04 Film Name:    RAK833_FAB.art*
G04 File Format:  Gerber RS274X*
G04 File Origin:  Cadence Allegro 17.2-S052*
G04 Origin Date:  Mon Jun 29 19:00:06 2020*
G04 *
G04 Layer:  MANUFACTURING/NCDRILL_LEGEND*
G04 Layer:  MANUFACTURING/NCDRILL_FIGURE*
G04 Layer:  DRAWING FORMAT/OUTLINE*
G04 Layer:  BOARD GEOMETRY/OUTLINE*
G04 Layer:  BOARD GEOMETRY/DIMENSION*
G04 *
G04 Offset:    (0.000 0.000)*
G04 Mirror:    No*
G04 Mode:      Positive*
G04 Rotation:  0*
G04 FullContactRelief:  No*
G04 UndefLineWidth:     5.000*
G04 ================== end FILE IDENTIFICATION RECORD ====================*
%FSLAX25Y25*MOIN*%
%IR0*IPPOS*OFA0.00000B0.00000*MIA0B0*SFA1.00000B1.00000*%
%AMMACRO11*
1,1,.005,-.020834,-.025*
20,1,.005,-.020834,-.025,-.000001,.025,0.0*
1,1,.005,-.000001,.025*
20,1,.005,-.000001,.025,.020834,-.025,0.0*
1,1,.005,.020834,-.025*
1,1,.005,.013333,-.007501*
20,1,.005,.013333,-.007501,-.013334,-.007501,0.0*
1,1,.005,-.013334,-.007501*
%
%ADD11MACRO11*%
%AMMACRO10*
1,1,.005,.06,0.0*
20,1,.005,.06,0.0,.059088,-.010419,0.0*
1,1,.005,.059088,-.010419*
20,1,.005,.059088,-.010419,.056382,-.020521,0.0*
1,1,.005,.056382,-.020521*
20,1,.005,.056382,-.020521,.051962,-.03,0.0*
1,1,.005,.051962,-.03*
20,1,.005,.051962,-.03,.045963,-.038567,0.0*
1,1,.005,.045963,-.038567*
20,1,.005,.045963,-.038567,.038567,-.045963,0.0*
1,1,.005,.038567,-.045963*
20,1,.005,.038567,-.045963,.03,-.051962,0.0*
1,1,.005,.03,-.051962*
20,1,.005,.03,-.051962,.020521,-.056382,0.0*
1,1,.005,.020521,-.056382*
20,1,.005,.020521,-.056382,.010419,-.059088,0.0*
1,1,.005,.010419,-.059088*
20,1,.005,.010419,-.059088,0.0,-.06,0.0*
1,1,.005,0.0,-.06*
20,1,.005,0.0,-.06,-.010419,-.059088,0.0*
1,1,.005,-.010419,-.059088*
20,1,.005,-.010419,-.059088,-.020521,-.056382,0.0*
1,1,.005,-.020521,-.056382*
20,1,.005,-.020521,-.056382,-.03,-.051962,0.0*
1,1,.005,-.03,-.051962*
20,1,.005,-.03,-.051962,-.038567,-.045963,0.0*
1,1,.005,-.038567,-.045963*
20,1,.005,-.038567,-.045963,-.045963,-.038567,0.0*
1,1,.005,-.045963,-.038567*
20,1,.005,-.045963,-.038567,-.051962,-.03,0.0*
1,1,.005,-.051962,-.03*
20,1,.005,-.051962,-.03,-.056382,-.020521,0.0*
1,1,.005,-.056382,-.020521*
20,1,.005,-.056382,-.020521,-.059088,-.010419,0.0*
1,1,.005,-.059088,-.010419*
20,1,.005,-.059088,-.010419,-.06,0.0,0.0*
1,1,.005,-.06,0.0*
20,1,.005,-.06,0.0,-.059088,.010419,0.0*
1,1,.005,-.059088,.010419*
20,1,.005,-.059088,.010419,-.056382,.020521,0.0*
1,1,.005,-.056382,.020521*
20,1,.005,-.056382,.020521,-.051962,.03,0.0*
1,1,.005,-.051962,.03*
20,1,.005,-.051962,.03,-.045963,.038567,0.0*
1,1,.005,-.045963,.038567*
20,1,.005,-.045963,.038567,-.038567,.045963,0.0*
1,1,.005,-.038567,.045963*
20,1,.005,-.038567,.045963,-.03,.051962,0.0*
1,1,.005,-.03,.051962*
20,1,.005,-.03,.051962,-.020521,.056382,0.0*
1,1,.005,-.020521,.056382*
20,1,.005,-.020521,.056382,-.010419,.059088,0.0*
1,1,.005,-.010419,.059088*
20,1,.005,-.010419,.059088,0.0,.06,0.0*
1,1,.005,0.0,.06*
20,1,.005,0.0,.06,.010419,.059088,0.0*
1,1,.005,.010419,.059088*
20,1,.005,.010419,.059088,.020521,.056382,0.0*
1,1,.005,.020521,.056382*
20,1,.005,.020521,.056382,.03,.051962,0.0*
1,1,.005,.03,.051962*
20,1,.005,.03,.051962,.038567,.045963,0.0*
1,1,.005,.038567,.045963*
20,1,.005,.038567,.045963,.045963,.038567,0.0*
1,1,.005,.045963,.038567*
20,1,.005,.045963,.038567,.051962,.03,0.0*
1,1,.005,.051962,.03*
20,1,.005,.051962,.03,.056382,.020521,0.0*
1,1,.005,.056382,.020521*
20,1,.005,.056382,.020521,.059088,.010419,0.0*
1,1,.005,.059088,.010419*
20,1,.005,.059088,.010419,.06,0.0,0.0*
1,1,.005,.06,0.0*
1,1,.005,-.021,-.03*
20,1,.005,-.021,-.03,-.021,.03,0.0*
1,1,.005,-.021,.03*
1,1,.005,.021,.03*
20,1,.005,.021,.03,.021,-.03,0.0*
1,1,.005,.021,-.03*
1,1,.005,.021,-.000001*
20,1,.005,.021,-.000001,-.021,-.000001,0.0*
1,1,.005,-.021,-.000001*
%
%ADD10MACRO10*%
%AMMACRO17*
1,1,.005,.025,0.0*
20,1,.005,.025,0.0,.02462,-.004341,0.0*
1,1,.005,.02462,-.004341*
20,1,.005,.02462,-.004341,.023492,-.008551,0.0*
1,1,.005,.023492,-.008551*
20,1,.005,.023492,-.008551,.021651,-.0125,0.0*
1,1,.005,.021651,-.0125*
20,1,.005,.021651,-.0125,.019151,-.01607,0.0*
1,1,.005,.019151,-.01607*
20,1,.005,.019151,-.01607,.01607,-.019151,0.0*
1,1,.005,.01607,-.019151*
20,1,.005,.01607,-.019151,.0125,-.021651,0.0*
1,1,.005,.0125,-.021651*
20,1,.005,.0125,-.021651,.008551,-.023492,0.0*
1,1,.005,.008551,-.023492*
20,1,.005,.008551,-.023492,.004341,-.02462,0.0*
1,1,.005,.004341,-.02462*
20,1,.005,.004341,-.02462,0.0,-.025,0.0*
1,1,.005,0.0,-.025*
20,1,.005,0.0,-.025,-.004341,-.02462,0.0*
1,1,.005,-.004341,-.02462*
20,1,.005,-.004341,-.02462,-.008551,-.023492,0.0*
1,1,.005,-.008551,-.023492*
20,1,.005,-.008551,-.023492,-.0125,-.021651,0.0*
1,1,.005,-.0125,-.021651*
20,1,.005,-.0125,-.021651,-.01607,-.019151,0.0*
1,1,.005,-.01607,-.019151*
20,1,.005,-.01607,-.019151,-.019151,-.01607,0.0*
1,1,.005,-.019151,-.01607*
20,1,.005,-.019151,-.01607,-.021651,-.0125,0.0*
1,1,.005,-.021651,-.0125*
20,1,.005,-.021651,-.0125,-.023492,-.008551,0.0*
1,1,.005,-.023492,-.008551*
20,1,.005,-.023492,-.008551,-.02462,-.004341,0.0*
1,1,.005,-.02462,-.004341*
20,1,.005,-.02462,-.004341,-.025,0.0,0.0*
1,1,.005,-.025,0.0*
20,1,.005,-.025,0.0,-.02462,.004341,0.0*
1,1,.005,-.02462,.004341*
20,1,.005,-.02462,.004341,-.023492,.008551,0.0*
1,1,.005,-.023492,.008551*
20,1,.005,-.023492,.008551,-.021651,.0125,0.0*
1,1,.005,-.021651,.0125*
20,1,.005,-.021651,.0125,-.019151,.01607,0.0*
1,1,.005,-.019151,.01607*
20,1,.005,-.019151,.01607,-.01607,.019151,0.0*
1,1,.005,-.01607,.019151*
20,1,.005,-.01607,.019151,-.0125,.021651,0.0*
1,1,.005,-.0125,.021651*
20,1,.005,-.0125,.021651,-.008551,.023492,0.0*
1,1,.005,-.008551,.023492*
20,1,.005,-.008551,.023492,-.004341,.02462,0.0*
1,1,.005,-.004341,.02462*
20,1,.005,-.004341,.02462,0.0,.025,0.0*
1,1,.005,0.0,.025*
20,1,.005,0.0,.025,.004341,.02462,0.0*
1,1,.005,.004341,.02462*
20,1,.005,.004341,.02462,.008551,.023492,0.0*
1,1,.005,.008551,.023492*
20,1,.005,.008551,.023492,.0125,.021651,0.0*
1,1,.005,.0125,.021651*
20,1,.005,.0125,.021651,.01607,.019151,0.0*
1,1,.005,.01607,.019151*
20,1,.005,.01607,.019151,.019151,.01607,0.0*
1,1,.005,.019151,.01607*
20,1,.005,.019151,.01607,.021651,.0125,0.0*
1,1,.005,.021651,.0125*
20,1,.005,.021651,.0125,.023492,.008551,0.0*
1,1,.005,.023492,.008551*
20,1,.005,.023492,.008551,.02462,.004341,0.0*
1,1,.005,.02462,.004341*
20,1,.005,.02462,.004341,.025,0.0,0.0*
1,1,.005,.025,0.0*
1,1,.005,.003333,.000834*
20,1,.005,.003333,.000834,.005,.002083,0.0*
1,1,.005,.005,.002083*
20,1,.005,.005,.002083,.00625,.004166,0.0*
1,1,.005,.00625,.004166*
20,1,.005,.00625,.004166,.007084,.007084,0.0*
1,1,.005,.007084,.007084*
20,1,.005,.007084,.007084,.00625,.009583,0.0*
1,1,.005,.00625,.009583*
20,1,.005,.00625,.009583,.004583,.01125,0.0*
1,1,.005,.004583,.01125*
20,1,.005,.004583,.01125,.001667,.0125,0.0*
1,1,.005,.001667,.0125*
20,1,.005,.001667,.0125,-.009583,.0125,0.0*
1,1,.005,-.009583,.0125*
20,1,.005,-.009583,.0125,-.009583,-.0125,0.0*
1,1,.005,-.009583,-.0125*
20,1,.005,-.009583,-.0125,.004167,-.0125,0.0*
1,1,.005,.004167,-.0125*
20,1,.005,.004167,-.0125,.007084,-.010834,0.0*
1,1,.005,.007084,-.010834*
20,1,.005,.007084,-.010834,.00875,-.008333,0.0*
1,1,.005,.00875,-.008333*
20,1,.005,.00875,-.008333,.009583,-.005417,0.0*
1,1,.005,.009583,-.005417*
20,1,.005,.009583,-.005417,.00875,-.002501,0.0*
1,1,.005,.00875,-.002501*
20,1,.005,.00875,-.002501,.00625,0.0,0.0*
1,1,.005,.00625,0.0*
20,1,.005,.00625,0.0,.003333,.000834,0.0*
1,1,.005,.003333,.000834*
20,1,.005,.003333,.000834,-.009583,.000834,0.0*
1,1,.005,-.009583,.000834*
%
%ADD17MACRO17*%
%AMMACRO14*
1,1,.005,.02,0.0*
20,1,.005,.02,0.0,.019696,-.003473,0.0*
1,1,.005,.019696,-.003473*
20,1,.005,.019696,-.003473,.018794,-.00684,0.0*
1,1,.005,.018794,-.00684*
20,1,.005,.018794,-.00684,.017321,-.01,0.0*
1,1,.005,.017321,-.01*
20,1,.005,.017321,-.01,.015321,-.012856,0.0*
1,1,.005,.015321,-.012856*
20,1,.005,.015321,-.012856,.012856,-.015321,0.0*
1,1,.005,.012856,-.015321*
20,1,.005,.012856,-.015321,.01,-.017321,0.0*
1,1,.005,.01,-.017321*
20,1,.005,.01,-.017321,.00684,-.018794,0.0*
1,1,.005,.00684,-.018794*
20,1,.005,.00684,-.018794,.003473,-.019696,0.0*
1,1,.005,.003473,-.019696*
20,1,.005,.003473,-.019696,0.0,-.02,0.0*
1,1,.005,0.0,-.02*
20,1,.005,0.0,-.02,-.003473,-.019696,0.0*
1,1,.005,-.003473,-.019696*
20,1,.005,-.003473,-.019696,-.00684,-.018794,0.0*
1,1,.005,-.00684,-.018794*
20,1,.005,-.00684,-.018794,-.01,-.017321,0.0*
1,1,.005,-.01,-.017321*
20,1,.005,-.01,-.017321,-.012856,-.015321,0.0*
1,1,.005,-.012856,-.015321*
20,1,.005,-.012856,-.015321,-.015321,-.012856,0.0*
1,1,.005,-.015321,-.012856*
20,1,.005,-.015321,-.012856,-.017321,-.01,0.0*
1,1,.005,-.017321,-.01*
20,1,.005,-.017321,-.01,-.018794,-.00684,0.0*
1,1,.005,-.018794,-.00684*
20,1,.005,-.018794,-.00684,-.019696,-.003473,0.0*
1,1,.005,-.019696,-.003473*
20,1,.005,-.019696,-.003473,-.02,0.0,0.0*
1,1,.005,-.02,0.0*
20,1,.005,-.02,0.0,-.019696,.003473,0.0*
1,1,.005,-.019696,.003473*
20,1,.005,-.019696,.003473,-.018794,.00684,0.0*
1,1,.005,-.018794,.00684*
20,1,.005,-.018794,.00684,-.017321,.01,0.0*
1,1,.005,-.017321,.01*
20,1,.005,-.017321,.01,-.015321,.012856,0.0*
1,1,.005,-.015321,.012856*
20,1,.005,-.015321,.012856,-.012856,.015321,0.0*
1,1,.005,-.012856,.015321*
20,1,.005,-.012856,.015321,-.01,.017321,0.0*
1,1,.005,-.01,.017321*
20,1,.005,-.01,.017321,-.00684,.018794,0.0*
1,1,.005,-.00684,.018794*
20,1,.005,-.00684,.018794,-.003473,.019696,0.0*
1,1,.005,-.003473,.019696*
20,1,.005,-.003473,.019696,0.0,.02,0.0*
1,1,.005,0.0,.02*
20,1,.005,0.0,.02,.003473,.019696,0.0*
1,1,.005,.003473,.019696*
20,1,.005,.003473,.019696,.00684,.018794,0.0*
1,1,.005,.00684,.018794*
20,1,.005,.00684,.018794,.01,.017321,0.0*
1,1,.005,.01,.017321*
20,1,.005,.01,.017321,.012856,.015321,0.0*
1,1,.005,.012856,.015321*
20,1,.005,.012856,.015321,.015321,.012856,0.0*
1,1,.005,.015321,.012856*
20,1,.005,.015321,.012856,.017321,.01,0.0*
1,1,.005,.017321,.01*
20,1,.005,.017321,.01,.018794,.00684,0.0*
1,1,.005,.018794,.00684*
20,1,.005,.018794,.00684,.019696,.003473,0.0*
1,1,.005,.019696,.003473*
20,1,.005,.019696,.003473,.02,0.0,0.0*
1,1,.005,.02,0.0*
1,1,.005,.006667,-.01*
20,1,.005,.006667,-.01,-.006667,-.01,0.0*
1,1,.005,-.006667,-.01*
20,1,.005,-.006667,-.01,-.006667,.01,0.0*
1,1,.005,-.006667,.01*
20,1,.005,-.006667,.01,.006667,.01,0.0*
1,1,.005,.006667,.01*
1,1,.005,.001333,.000334*
20,1,.005,.001333,.000334,-.006667,.000334,0.0*
1,1,.005,-.006667,.000334*
%
%ADD14MACRO14*%
%AMMACRO13*
1,1,.005,.02,0.0*
20,1,.005,.02,0.0,-.02,0.0,0.0*
1,1,.005,-.02,0.0*
1,1,.005,0.0,.02*
20,1,.005,0.0,.02,0.0,-.02,0.0*
1,1,.005,0.0,-.02*
1,1,.005,.017333,.018333*
20,1,.005,.017333,.018333,.015333,.019333,0.0*
1,1,.005,.015333,.019333*
20,1,.005,.015333,.019333,.013,.02,0.0*
1,1,.005,.013,.02*
20,1,.005,.013,.02,.010334,.02,0.0*
1,1,.005,.010334,.02*
20,1,.005,.010334,.02,.007333,.019,0.0*
1,1,.005,.007333,.019*
20,1,.005,.007333,.019,.005,.017333,0.0*
1,1,.005,.005,.017333*
20,1,.005,.005,.017333,.003333,.015333,0.0*
1,1,.005,.003333,.015333*
20,1,.005,.003333,.015333,.002,.012,0.0*
1,1,.005,.002,.012*
20,1,.005,.002,.012,.001666,.009,0.0*
1,1,.005,.001666,.009*
20,1,.005,.001666,.009,.002333,.006,0.0*
1,1,.005,.002333,.006*
20,1,.005,.002333,.006,.003333,.004,0.0*
1,1,.005,.003333,.004*
20,1,.005,.003333,.004,.005333,.002,0.0*
1,1,.005,.005333,.002*
20,1,.005,.005333,.002,.007667,.000667,0.0*
1,1,.005,.007667,.000667*
20,1,.005,.007667,.000667,.01,0.0,0.0*
1,1,.005,.01,0.0*
20,1,.005,.01,0.0,.012333,0.0,0.0*
1,1,.005,.012333,0.0*
20,1,.005,.012333,0.0,.014667,.000667,0.0*
1,1,.005,.014667,.000667*
20,1,.005,.014667,.000667,.016667,.001666,0.0*
1,1,.005,.016667,.001666*
20,1,.005,.016667,.001666,.018334,.002999,0.0*
1,1,.005,.018334,.002999*
%
%ADD13MACRO13*%
%AMMACRO19*
1,1,.005,.025,0.0*
20,1,.005,.025,0.0,.02462,-.004341,0.0*
1,1,.005,.02462,-.004341*
20,1,.005,.02462,-.004341,.023492,-.008551,0.0*
1,1,.005,.023492,-.008551*
20,1,.005,.023492,-.008551,.021651,-.0125,0.0*
1,1,.005,.021651,-.0125*
20,1,.005,.021651,-.0125,.019151,-.01607,0.0*
1,1,.005,.019151,-.01607*
20,1,.005,.019151,-.01607,.01607,-.019151,0.0*
1,1,.005,.01607,-.019151*
20,1,.005,.01607,-.019151,.0125,-.021651,0.0*
1,1,.005,.0125,-.021651*
20,1,.005,.0125,-.021651,.008551,-.023492,0.0*
1,1,.005,.008551,-.023492*
20,1,.005,.008551,-.023492,.004341,-.02462,0.0*
1,1,.005,.004341,-.02462*
20,1,.005,.004341,-.02462,0.0,-.025,0.0*
1,1,.005,0.0,-.025*
20,1,.005,0.0,-.025,-.004341,-.02462,0.0*
1,1,.005,-.004341,-.02462*
20,1,.005,-.004341,-.02462,-.008551,-.023492,0.0*
1,1,.005,-.008551,-.023492*
20,1,.005,-.008551,-.023492,-.0125,-.021651,0.0*
1,1,.005,-.0125,-.021651*
20,1,.005,-.0125,-.021651,-.01607,-.019151,0.0*
1,1,.005,-.01607,-.019151*
20,1,.005,-.01607,-.019151,-.019151,-.01607,0.0*
1,1,.005,-.019151,-.01607*
20,1,.005,-.019151,-.01607,-.021651,-.0125,0.0*
1,1,.005,-.021651,-.0125*
20,1,.005,-.021651,-.0125,-.023492,-.008551,0.0*
1,1,.005,-.023492,-.008551*
20,1,.005,-.023492,-.008551,-.02462,-.004341,0.0*
1,1,.005,-.02462,-.004341*
20,1,.005,-.02462,-.004341,-.025,0.0,0.0*
1,1,.005,-.025,0.0*
20,1,.005,-.025,0.0,-.02462,.004341,0.0*
1,1,.005,-.02462,.004341*
20,1,.005,-.02462,.004341,-.023492,.008551,0.0*
1,1,.005,-.023492,.008551*
20,1,.005,-.023492,.008551,-.021651,.0125,0.0*
1,1,.005,-.021651,.0125*
20,1,.005,-.021651,.0125,-.019151,.01607,0.0*
1,1,.005,-.019151,.01607*
20,1,.005,-.019151,.01607,-.01607,.019151,0.0*
1,1,.005,-.01607,.019151*
20,1,.005,-.01607,.019151,-.0125,.021651,0.0*
1,1,.005,-.0125,.021651*
20,1,.005,-.0125,.021651,-.008551,.023492,0.0*
1,1,.005,-.008551,.023492*
20,1,.005,-.008551,.023492,-.004341,.02462,0.0*
1,1,.005,-.004341,.02462*
20,1,.005,-.004341,.02462,0.0,.025,0.0*
1,1,.005,0.0,.025*
20,1,.005,0.0,.025,.004341,.02462,0.0*
1,1,.005,.004341,.02462*
20,1,.005,.004341,.02462,.008551,.023492,0.0*
1,1,.005,.008551,.023492*
20,1,.005,.008551,.023492,.0125,.021651,0.0*
1,1,.005,.0125,.021651*
20,1,.005,.0125,.021651,.01607,.019151,0.0*
1,1,.005,.01607,.019151*
20,1,.005,.01607,.019151,.019151,.01607,0.0*
1,1,.005,.019151,.01607*
20,1,.005,.019151,.01607,.021651,.0125,0.0*
1,1,.005,.021651,.0125*
20,1,.005,.021651,.0125,.023492,.008551,0.0*
1,1,.005,.023492,.008551*
20,1,.005,.023492,.008551,.02462,.004341,0.0*
1,1,.005,.02462,.004341*
20,1,.005,.02462,.004341,.025,0.0,0.0*
1,1,.005,.025,0.0*
1,1,.005,-.007917,-.0125*
20,1,.005,-.007917,-.0125,-.007917,.0125,0.0*
1,1,.005,-.007917,.0125*
20,1,.005,-.007917,.0125,.007917,.0125,0.0*
1,1,.005,.007917,.0125*
1,1,.005,.002083,.000417*
20,1,.005,.002083,.000417,-.007917,.000417,0.0*
1,1,.005,-.007917,.000417*
%
%ADD19MACRO19*%
%AMMACRO16*
1,1,.005,.0225,0.0*
20,1,.005,.0225,0.0,.022158,-.003907,0.0*
1,1,.005,.022158,-.003907*
20,1,.005,.022158,-.003907,.021143,-.007695,0.0*
1,1,.005,.021143,-.007695*
20,1,.005,.021143,-.007695,.019486,-.01125,0.0*
1,1,.005,.019486,-.01125*
20,1,.005,.019486,-.01125,.017236,-.014463,0.0*
1,1,.005,.017236,-.014463*
20,1,.005,.017236,-.014463,.014463,-.017236,0.0*
1,1,.005,.014463,-.017236*
20,1,.005,.014463,-.017236,.01125,-.019486,0.0*
1,1,.005,.01125,-.019486*
20,1,.005,.01125,-.019486,.007695,-.021143,0.0*
1,1,.005,.007695,-.021143*
20,1,.005,.007695,-.021143,.003907,-.022158,0.0*
1,1,.005,.003907,-.022158*
20,1,.005,.003907,-.022158,0.0,-.0225,0.0*
1,1,.005,0.0,-.0225*
20,1,.005,0.0,-.0225,-.003907,-.022158,0.0*
1,1,.005,-.003907,-.022158*
20,1,.005,-.003907,-.022158,-.007695,-.021143,0.0*
1,1,.005,-.007695,-.021143*
20,1,.005,-.007695,-.021143,-.01125,-.019486,0.0*
1,1,.005,-.01125,-.019486*
20,1,.005,-.01125,-.019486,-.014463,-.017236,0.0*
1,1,.005,-.014463,-.017236*
20,1,.005,-.014463,-.017236,-.017236,-.014463,0.0*
1,1,.005,-.017236,-.014463*
20,1,.005,-.017236,-.014463,-.019486,-.01125,0.0*
1,1,.005,-.019486,-.01125*
20,1,.005,-.019486,-.01125,-.021143,-.007695,0.0*
1,1,.005,-.021143,-.007695*
20,1,.005,-.021143,-.007695,-.022158,-.003907,0.0*
1,1,.005,-.022158,-.003907*
20,1,.005,-.022158,-.003907,-.0225,0.0,0.0*
1,1,.005,-.0225,0.0*
20,1,.005,-.0225,0.0,-.022158,.003907,0.0*
1,1,.005,-.022158,.003907*
20,1,.005,-.022158,.003907,-.021143,.007695,0.0*
1,1,.005,-.021143,.007695*
20,1,.005,-.021143,.007695,-.019486,.01125,0.0*
1,1,.005,-.019486,.01125*
20,1,.005,-.019486,.01125,-.017236,.014463,0.0*
1,1,.005,-.017236,.014463*
20,1,.005,-.017236,.014463,-.014463,.017236,0.0*
1,1,.005,-.014463,.017236*
20,1,.005,-.014463,.017236,-.01125,.019486,0.0*
1,1,.005,-.01125,.019486*
20,1,.005,-.01125,.019486,-.007695,.021143,0.0*
1,1,.005,-.007695,.021143*
20,1,.005,-.007695,.021143,-.003907,.022158,0.0*
1,1,.005,-.003907,.022158*
20,1,.005,-.003907,.022158,0.0,.0225,0.0*
1,1,.005,0.0,.0225*
20,1,.005,0.0,.0225,.003907,.022158,0.0*
1,1,.005,.003907,.022158*
20,1,.005,.003907,.022158,.007695,.021143,0.0*
1,1,.005,.007695,.021143*
20,1,.005,.007695,.021143,.01125,.019486,0.0*
1,1,.005,.01125,.019486*
20,1,.005,.01125,.019486,.014463,.017236,0.0*
1,1,.005,.014463,.017236*
20,1,.005,.014463,.017236,.017236,.014463,0.0*
1,1,.005,.017236,.014463*
20,1,.005,.017236,.014463,.019486,.01125,0.0*
1,1,.005,.019486,.01125*
20,1,.005,.019486,.01125,.021143,.007695,0.0*
1,1,.005,.021143,.007695*
20,1,.005,.021143,.007695,.022158,.003907,0.0*
1,1,.005,.022158,.003907*
20,1,.005,.022158,.003907,.0225,0.0,0.0*
1,1,.005,.0225,0.0*
1,1,.005,-.0045,.01125*
20,1,.005,-.0045,.01125,.004499,.01125,0.0*
1,1,.005,.004499,.01125*
1,1,.005,0.0,.01125*
20,1,.005,0.0,.01125,0.0,-.01125,0.0*
1,1,.005,0.0,-.01125*
1,1,.005,-.0045,-.01125*
20,1,.005,-.0045,-.01125,.004499,-.01125,0.0*
1,1,.005,.004499,-.01125*
%
%ADD16MACRO16*%
%AMMACRO15*
1,1,.005,.0325,0.0*
20,1,.005,.0325,0.0,.032006,-.005644,0.0*
1,1,.005,.032006,-.005644*
20,1,.005,.032006,-.005644,.03054,-.011116,0.0*
1,1,.005,.03054,-.011116*
20,1,.005,.03054,-.011116,.028146,-.01625,0.0*
1,1,.005,.028146,-.01625*
20,1,.005,.028146,-.01625,.024896,-.020891,0.0*
1,1,.005,.024896,-.020891*
20,1,.005,.024896,-.020891,.020891,-.024896,0.0*
1,1,.005,.020891,-.024896*
20,1,.005,.020891,-.024896,.01625,-.028146,0.0*
1,1,.005,.01625,-.028146*
20,1,.005,.01625,-.028146,.011116,-.03054,0.0*
1,1,.005,.011116,-.03054*
20,1,.005,.011116,-.03054,.005644,-.032006,0.0*
1,1,.005,.005644,-.032006*
20,1,.005,.005644,-.032006,0.0,-.0325,0.0*
1,1,.005,0.0,-.0325*
20,1,.005,0.0,-.0325,-.005644,-.032006,0.0*
1,1,.005,-.005644,-.032006*
20,1,.005,-.005644,-.032006,-.011116,-.03054,0.0*
1,1,.005,-.011116,-.03054*
20,1,.005,-.011116,-.03054,-.01625,-.028146,0.0*
1,1,.005,-.01625,-.028146*
20,1,.005,-.01625,-.028146,-.020891,-.024896,0.0*
1,1,.005,-.020891,-.024896*
20,1,.005,-.020891,-.024896,-.024896,-.020891,0.0*
1,1,.005,-.024896,-.020891*
20,1,.005,-.024896,-.020891,-.028146,-.01625,0.0*
1,1,.005,-.028146,-.01625*
20,1,.005,-.028146,-.01625,-.03054,-.011116,0.0*
1,1,.005,-.03054,-.011116*
20,1,.005,-.03054,-.011116,-.032006,-.005644,0.0*
1,1,.005,-.032006,-.005644*
20,1,.005,-.032006,-.005644,-.0325,0.0,0.0*
1,1,.005,-.0325,0.0*
20,1,.005,-.0325,0.0,-.032006,.005644,0.0*
1,1,.005,-.032006,.005644*
20,1,.005,-.032006,.005644,-.03054,.011116,0.0*
1,1,.005,-.03054,.011116*
20,1,.005,-.03054,.011116,-.028146,.01625,0.0*
1,1,.005,-.028146,.01625*
20,1,.005,-.028146,.01625,-.024896,.020891,0.0*
1,1,.005,-.024896,.020891*
20,1,.005,-.024896,.020891,-.020891,.024896,0.0*
1,1,.005,-.020891,.024896*
20,1,.005,-.020891,.024896,-.01625,.028146,0.0*
1,1,.005,-.01625,.028146*
20,1,.005,-.01625,.028146,-.011116,.03054,0.0*
1,1,.005,-.011116,.03054*
20,1,.005,-.011116,.03054,-.005644,.032006,0.0*
1,1,.005,-.005644,.032006*
20,1,.005,-.005644,.032006,0.0,.0325,0.0*
1,1,.005,0.0,.0325*
20,1,.005,0.0,.0325,.005644,.032006,0.0*
1,1,.005,.005644,.032006*
20,1,.005,.005644,.032006,.011116,.03054,0.0*
1,1,.005,.011116,.03054*
20,1,.005,.011116,.03054,.01625,.028146,0.0*
1,1,.005,.01625,.028146*
20,1,.005,.01625,.028146,.020891,.024896,0.0*
1,1,.005,.020891,.024896*
20,1,.005,.020891,.024896,.024896,.020891,0.0*
1,1,.005,.024896,.020891*
20,1,.005,.024896,.020891,.028146,.01625,0.0*
1,1,.005,.028146,.01625*
20,1,.005,.028146,.01625,.03054,.011116,0.0*
1,1,.005,.03054,.011116*
20,1,.005,.03054,.011116,.032006,.005644,0.0*
1,1,.005,.032006,.005644*
20,1,.005,.032006,.005644,.0325,0.0,0.0*
1,1,.005,.0325,0.0*
1,1,.005,-.010833,-.00975*
20,1,.005,-.010833,-.00975,-.008125,-.013001,0.0*
1,1,.005,-.008125,-.013001*
20,1,.005,-.008125,-.013001,-.004875,-.015167,0.0*
1,1,.005,-.004875,-.015167*
20,1,.005,-.004875,-.015167,-.001084,-.01625,0.0*
1,1,.005,-.001084,-.01625*
20,1,.005,-.001084,-.01625,.00325,-.015167,0.0*
1,1,.005,.00325,-.015167*
20,1,.005,.00325,-.015167,.0065,-.013001,0.0*
1,1,.005,.0065,-.013001*
20,1,.005,.0065,-.013001,.00975,-.00975,0.0*
1,1,.005,.00975,-.00975*
20,1,.005,.00975,-.00975,.010833,-.005417,0.0*
1,1,.005,.010833,-.005417*
20,1,.005,.010833,-.005417,.010833,.01625,0.0*
1,1,.005,.010833,.01625*
%
%ADD15MACRO15*%
%AMMACRO18*
1,1,.005,.039,0.0*
20,1,.005,.039,0.0,.038408,-.006772,0.0*
1,1,.005,.038408,-.006772*
20,1,.005,.038408,-.006772,.036648,-.013339,0.0*
1,1,.005,.036648,-.013339*
20,1,.005,.036648,-.013339,.033775,-.0195,0.0*
1,1,.005,.033775,-.0195*
20,1,.005,.033775,-.0195,.029876,-.025069,0.0*
1,1,.005,.029876,-.025069*
20,1,.005,.029876,-.025069,.025069,-.029876,0.0*
1,1,.005,.025069,-.029876*
20,1,.005,.025069,-.029876,.0195,-.033775,0.0*
1,1,.005,.0195,-.033775*
20,1,.005,.0195,-.033775,.013339,-.036648,0.0*
1,1,.005,.013339,-.036648*
20,1,.005,.013339,-.036648,.006772,-.038408,0.0*
1,1,.005,.006772,-.038408*
20,1,.005,.006772,-.038408,0.0,-.039,0.0*
1,1,.005,0.0,-.039*
20,1,.005,0.0,-.039,-.006772,-.038408,0.0*
1,1,.005,-.006772,-.038408*
20,1,.005,-.006772,-.038408,-.013339,-.036648,0.0*
1,1,.005,-.013339,-.036648*
20,1,.005,-.013339,-.036648,-.0195,-.033775,0.0*
1,1,.005,-.0195,-.033775*
20,1,.005,-.0195,-.033775,-.025069,-.029876,0.0*
1,1,.005,-.025069,-.029876*
20,1,.005,-.025069,-.029876,-.029876,-.025069,0.0*
1,1,.005,-.029876,-.025069*
20,1,.005,-.029876,-.025069,-.033775,-.0195,0.0*
1,1,.005,-.033775,-.0195*
20,1,.005,-.033775,-.0195,-.036648,-.013339,0.0*
1,1,.005,-.036648,-.013339*
20,1,.005,-.036648,-.013339,-.038408,-.006772,0.0*
1,1,.005,-.038408,-.006772*
20,1,.005,-.038408,-.006772,-.039,0.0,0.0*
1,1,.005,-.039,0.0*
20,1,.005,-.039,0.0,-.038408,.006772,0.0*
1,1,.005,-.038408,.006772*
20,1,.005,-.038408,.006772,-.036648,.013339,0.0*
1,1,.005,-.036648,.013339*
20,1,.005,-.036648,.013339,-.033775,.0195,0.0*
1,1,.005,-.033775,.0195*
20,1,.005,-.033775,.0195,-.029876,.025069,0.0*
1,1,.005,-.029876,.025069*
20,1,.005,-.029876,.025069,-.025069,.029876,0.0*
1,1,.005,-.025069,.029876*
20,1,.005,-.025069,.029876,-.0195,.033775,0.0*
1,1,.005,-.0195,.033775*
20,1,.005,-.0195,.033775,-.013339,.036648,0.0*
1,1,.005,-.013339,.036648*
20,1,.005,-.013339,.036648,-.006772,.038408,0.0*
1,1,.005,-.006772,.038408*
20,1,.005,-.006772,.038408,0.0,.039,0.0*
1,1,.005,0.0,.039*
20,1,.005,0.0,.039,.006772,.038408,0.0*
1,1,.005,.006772,.038408*
20,1,.005,.006772,.038408,.013339,.036648,0.0*
1,1,.005,.013339,.036648*
20,1,.005,.013339,.036648,.0195,.033775,0.0*
1,1,.005,.0195,.033775*
20,1,.005,.0195,.033775,.025069,.029876,0.0*
1,1,.005,.025069,.029876*
20,1,.005,.025069,.029876,.029876,.025069,0.0*
1,1,.005,.029876,.025069*
20,1,.005,.029876,.025069,.033775,.0195,0.0*
1,1,.005,.033775,.0195*
20,1,.005,.033775,.0195,.036648,.013339,0.0*
1,1,.005,.036648,.013339*
20,1,.005,.036648,.013339,.038408,.006772,0.0*
1,1,.005,.038408,.006772*
20,1,.005,.038408,.006772,.039,0.0,0.0*
1,1,.005,.039,0.0*
1,1,.005,-.0143,-.0195*
20,1,.005,-.0143,-.0195,-.0143,.0195,0.0*
1,1,.005,-.0143,.0195*
20,1,.005,-.0143,.0195,-.0013,.0195,0.0*
1,1,.005,-.0013,.0195*
20,1,.005,-.0013,.0195,.0039,.017549,0.0*
1,1,.005,.0039,.017549*
20,1,.005,.0039,.017549,.0078,.01495,0.0*
1,1,.005,.0078,.01495*
20,1,.005,.0078,.01495,.011051,.011051,0.0*
1,1,.005,.011051,.011051*
20,1,.005,.011051,.011051,.01365,.006499,0.0*
1,1,.005,.01365,.006499*
20,1,.005,.01365,.006499,.0143,-.000001,0.0*
1,1,.005,.0143,-.000001*
20,1,.005,.0143,-.000001,.01365,-.0065,0.0*
1,1,.005,.01365,-.0065*
20,1,.005,.01365,-.0065,.011051,-.011051,0.0*
1,1,.005,.011051,-.011051*
20,1,.005,.011051,-.011051,.0078,-.014951,0.0*
1,1,.005,.0078,-.014951*
20,1,.005,.0078,-.014951,.0039,-.01755,0.0*
1,1,.005,.0039,-.01755*
20,1,.005,.0039,-.01755,-.0013,-.0195,0.0*
1,1,.005,-.0013,-.0195*
20,1,.005,-.0013,-.0195,-.0143,-.0195,0.0*
1,1,.005,-.0143,-.0195*
%
%ADD18MACRO18*%
%AMMACRO12*
1,1,.005,.059049,0.0*
20,1,.005,.059049,0.0,.058152,-.010254,0.0*
1,1,.005,.058152,-.010254*
20,1,.005,.058152,-.010254,.055488,-.020196,0.0*
1,1,.005,.055488,-.020196*
20,1,.005,.055488,-.020196,.051138,-.029524,0.0*
1,1,.005,.051138,-.029524*
20,1,.005,.051138,-.029524,.045234,-.037956,0.0*
1,1,.005,.045234,-.037956*
20,1,.005,.045234,-.037956,.037956,-.045234,0.0*
1,1,.005,.037956,-.045234*
20,1,.005,.037956,-.045234,.029525,-.051138,0.0*
1,1,.005,.029525,-.051138*
20,1,.005,.029525,-.051138,.020196,-.055488,0.0*
1,1,.005,.020196,-.055488*
20,1,.005,.020196,-.055488,.010254,-.058152,0.0*
1,1,.005,.010254,-.058152*
20,1,.005,.010254,-.058152,0.0,-.059049,0.0*
1,1,.005,0.0,-.059049*
20,1,.005,0.0,-.059049,-.010254,-.058152,0.0*
1,1,.005,-.010254,-.058152*
20,1,.005,-.010254,-.058152,-.020196,-.055488,0.0*
1,1,.005,-.020196,-.055488*
20,1,.005,-.020196,-.055488,-.029524,-.051138,0.0*
1,1,.005,-.029524,-.051138*
20,1,.005,-.029524,-.051138,-.037956,-.045234,0.0*
1,1,.005,-.037956,-.045234*
20,1,.005,-.037956,-.045234,-.045234,-.037956,0.0*
1,1,.005,-.045234,-.037956*
20,1,.005,-.045234,-.037956,-.051138,-.029525,0.0*
1,1,.005,-.051138,-.029525*
20,1,.005,-.051138,-.029525,-.055488,-.020196,0.0*
1,1,.005,-.055488,-.020196*
20,1,.005,-.055488,-.020196,-.058152,-.010254,0.0*
1,1,.005,-.058152,-.010254*
20,1,.005,-.058152,-.010254,-.059049,0.0,0.0*
1,1,.005,-.059049,0.0*
20,1,.005,-.059049,0.0,-.058152,.010254,0.0*
1,1,.005,-.058152,.010254*
20,1,.005,-.058152,.010254,-.055488,.020196,0.0*
1,1,.005,-.055488,.020196*
20,1,.005,-.055488,.020196,-.051138,.029524,0.0*
1,1,.005,-.051138,.029524*
20,1,.005,-.051138,.029524,-.045234,.037956,0.0*
1,1,.005,-.045234,.037956*
20,1,.005,-.045234,.037956,-.037956,.045234,0.0*
1,1,.005,-.037956,.045234*
20,1,.005,-.037956,.045234,-.029525,.051138,0.0*
1,1,.005,-.029525,.051138*
20,1,.005,-.029525,.051138,-.020196,.055488,0.0*
1,1,.005,-.020196,.055488*
20,1,.005,-.020196,.055488,-.010254,.058152,0.0*
1,1,.005,-.010254,.058152*
20,1,.005,-.010254,.058152,0.0,.059049,0.0*
1,1,.005,0.0,.059049*
20,1,.005,0.0,.059049,.010254,.058152,0.0*
1,1,.005,.010254,.058152*
20,1,.005,.010254,.058152,.020196,.055488,0.0*
1,1,.005,.020196,.055488*
20,1,.005,.020196,.055488,.029524,.051138,0.0*
1,1,.005,.029524,.051138*
20,1,.005,.029524,.051138,.037956,.045234,0.0*
1,1,.005,.037956,.045234*
20,1,.005,.037956,.045234,.045234,.037956,0.0*
1,1,.005,.045234,.037956*
20,1,.005,.045234,.037956,.051138,.029525,0.0*
1,1,.005,.051138,.029525*
20,1,.005,.051138,.029525,.055488,.020196,0.0*
1,1,.005,.055488,.020196*
20,1,.005,.055488,.020196,.058152,.010254,0.0*
1,1,.005,.058152,.010254*
20,1,.005,.058152,.010254,.059049,0.0,0.0*
1,1,.005,.059049,0.0*
1,1,.005,.005905,0.0*
20,1,.005,.005905,0.0,.025589,0.0,0.0*
1,1,.005,.025589,0.0*
20,1,.005,.025589,0.0,.025589,-.017715,0.0*
1,1,.005,.025589,-.017715*
20,1,.005,.025589,-.017715,.019684,-.02362,0.0*
1,1,.005,.019684,-.02362*
20,1,.005,.019684,-.02362,.012794,-.027556,0.0*
1,1,.005,.012794,-.027556*
20,1,.005,.012794,-.027556,.002953,-.029524,0.0*
1,1,.005,.002953,-.029524*
20,1,.005,.002953,-.029524,-.006888,-.027556,0.0*
1,1,.005,-.006888,-.027556*
20,1,.005,-.006888,-.027556,-.013777,-.02362,0.0*
1,1,.005,-.013777,-.02362*
20,1,.005,-.013777,-.02362,-.019683,-.017715,0.0*
1,1,.005,-.019683,-.017715*
20,1,.005,-.019683,-.017715,-.02362,-.010826,0.0*
1,1,.005,-.02362,-.010826*
20,1,.005,-.02362,-.010826,-.025588,-.002952,0.0*
1,1,.005,-.025588,-.002952*
20,1,.005,-.025588,-.002952,-.025588,.003937,0.0*
1,1,.005,-.025588,.003937*
20,1,.005,-.025588,.003937,-.02362,.009841,0.0*
1,1,.005,-.02362,.009841*
20,1,.005,-.02362,.009841,-.019683,.016732,0.0*
1,1,.005,-.019683,.016732*
20,1,.005,-.019683,.016732,-.013777,.022636,0.0*
1,1,.005,-.013777,.022636*
20,1,.005,-.013777,.022636,-.007874,.026571,0.0*
1,1,.005,-.007874,.026571*
20,1,.005,-.007874,.026571,0.0,.029525,0.0*
1,1,.005,0.0,.029525*
20,1,.005,0.0,.029525,.006889,.029525,0.0*
1,1,.005,.006889,.029525*
20,1,.005,.006889,.029525,.014762,.027557,0.0*
1,1,.005,.014762,.027557*
20,1,.005,.014762,.027557,.020668,.02362,0.0*
1,1,.005,.020668,.02362*
%
%ADD12MACRO12*%
%ADD20C,.005*%
G75*
%LPD*%
G75*
G54D10*
X9827Y21087D03*
Y214000D03*
X238173Y21087D03*
Y214000D03*
G54D20*
G01X0Y240000D02*
Y0D01*
X332000D01*
Y240000D01*
X0D01*
G54D11*
X25000Y37000D03*
X24000Y17000D03*
X25000Y67000D03*
X14000Y117000D03*
Y157000D03*
Y137000D03*
Y227000D03*
X38000Y40000D03*
X44000Y17000D03*
X54000Y97000D03*
Y77000D03*
Y117000D03*
Y157000D03*
Y137000D03*
Y177000D03*
X70000Y35000D03*
X74000Y97000D03*
Y117000D03*
Y157000D03*
Y137000D03*
Y177000D03*
X59000Y198000D03*
X94000Y27000D03*
X93000Y49000D03*
X105000Y47000D03*
X94000Y97000D03*
Y117000D03*
X114000D03*
X94000Y137000D03*
Y157000D03*
X114000D03*
Y137000D03*
X130000Y55000D03*
X136000D03*
X134000Y97000D03*
Y77000D03*
Y117000D03*
Y157000D03*
Y137000D03*
X154000Y97000D03*
Y77000D03*
X176000Y102000D03*
X154000Y117000D03*
X176000Y134000D03*
X163000D03*
X176000Y150000D03*
X154000Y157000D03*
Y137000D03*
X168000Y178000D03*
X170000Y172000D03*
X186000Y40000D03*
Y25000D03*
X181000Y50000D03*
X178000Y167000D03*
X233000Y35000D03*
X214000Y17000D03*
Y37000D03*
X233000Y62000D03*
Y53000D03*
Y44000D03*
X214000Y57000D03*
X229000Y100000D03*
X211000D03*
X212000Y110000D03*
X229000Y109000D03*
Y148000D03*
X212000Y157000D03*
Y132000D03*
X208000Y144000D03*
X236000Y145000D03*
X212000Y167000D03*
X243000Y35000D03*
X258000Y69000D03*
X249000D03*
X240000D03*
X243000Y62000D03*
Y53000D03*
Y44000D03*
X250000Y99000D03*
X258000Y80000D03*
X249000D03*
X241000Y107000D03*
X258377Y133000D03*
X239000Y154000D03*
X238000Y162000D03*
X261000Y197000D03*
X255000Y216000D03*
X264000Y224000D03*
X268000Y69000D03*
X288000D03*
X269000Y85000D03*
X288000Y80000D03*
X268000Y124000D03*
Y107000D03*
X277000Y124000D03*
X284000Y136000D03*
X269000D03*
X280000Y183000D03*
X278000Y192000D03*
X280000Y198000D03*
X296000Y210000D03*
X294000Y227000D03*
X298000Y69000D03*
X308000D03*
X318000D03*
X327000D03*
X298000Y80000D03*
X308000D03*
X318000D03*
X327000D03*
X326000Y125000D03*
X313000Y107000D03*
X314000Y207000D03*
X302000Y204000D03*
X314000Y227000D03*
G54D12*
X14630Y86520D03*
Y181790D03*
X109710Y86520D03*
Y181790D03*
G54D13*
X28500Y209000D03*
X285000Y215000D03*
G54D14*
X28500Y219000D03*
X38500Y209000D03*
Y219000D03*
X48500Y209000D03*
Y219000D03*
X59000Y209000D03*
Y219000D03*
X69000Y209000D03*
Y219000D03*
X79000Y209000D03*
Y219000D03*
X89000Y209000D03*
Y219000D03*
X99000Y209000D03*
Y219000D03*
X109000Y209000D03*
Y219000D03*
X119000Y209000D03*
Y219000D03*
X129000Y209000D03*
Y219000D03*
X139000Y209000D03*
Y219000D03*
X149000Y209000D03*
Y219000D03*
X159000Y209000D03*
Y219000D03*
X169000Y209000D03*
Y219000D03*
X179000Y209000D03*
Y219000D03*
X189000Y209000D03*
Y219000D03*
X199000Y209000D03*
Y219000D03*
X209000Y209000D03*
Y219000D03*
X219000Y209000D03*
Y219000D03*
X265000Y215000D03*
X275000D03*
G54D15*
X204000Y84940D03*
G54D16*
Y183370D03*
G54D17*
X260000Y173000D03*
G54D18*
X280000Y54000D03*
G54D19*
X270000Y173000D03*
X280000D03*
X290000D03*
X300000D03*
X310000D03*
M02*
