G04 ================== begin FILE IDENTIFICATION RECORD ==================*
G04 Layout Name:  E:/0_Working/1_Hardware/17_LoraNode/tmp2/RAK833_RPIGATEWAY.brd*
G04 Film Name:    RAK833_SILK_TOP.art*
G04 File Format:  Gerber RS274X*
G04 File Origin:  Cadence Allegro 17.2-S052*
G04 Origin Date:  Mon Jun 29 19:00:06 2020*
G04 *
G04 Layer:  REF DES/SILKSCREEN_TOP*
G04 Layer:  PACKAGE GEOMETRY/SILKSCREEN_TOP*
G04 Layer:  BOARD GEOMETRY/OUTLINE*
G04 Layer:  BOARD GEOMETRY/SILKSCREEN_TOP*
G04 *
G04 Offset:    (0.000 0.000)*
G04 Mirror:    No*
G04 Mode:      Positive*
G04 Rotation:  0*
G04 FullContactRelief:  No*
G04 UndefLineWidth:     6.000*
G04 ================== end FILE IDENTIFICATION RECORD ====================*
%FSLAX25Y25*MOIN*%
%IR0*IPPOS*OFA0.00000B0.00000*MIA0B0*SFA1.00000B1.00000*%
%ADD10C,.005*%
%ADD11C,.006*%
%ADD12C,.008*%
%ADD13C,.00787*%
%ADD14C,.005909*%
%ADD15C,.001969*%
%ADD16C,.007874*%
%ADD17C,.01*%
G75*
%LPD*%
G75*
G54D10*
G01X23500Y204000D02*
Y224000D01*
G01X224000Y204000D02*
X24000D01*
G01X43500D02*
X23500D01*
G01Y224000D02*
X224000D01*
G01X53500Y204000D02*
X43500D01*
G01X72000Y69000D02*
X76500D01*
X83000Y62500D01*
Y43000D01*
G01X68000D02*
X57000D01*
Y62500D01*
X63500Y69000D01*
X68000D01*
G01X83000Y43000D02*
X72000D01*
G01X74000Y41500D02*
Y37500D01*
G01X74500Y74500D02*
Y70500D01*
G01X72500Y72500D02*
X76500D01*
G01X161000Y34000D02*
Y38500D01*
X167500Y45000D01*
X187000D01*
G01Y30000D02*
Y19000D01*
X167500D01*
X161000Y25500D01*
Y30000D01*
G01X155500Y36500D02*
X159500D01*
G01X157500Y34500D02*
Y38500D01*
G01X187000Y45000D02*
Y34000D01*
G01X188500Y36000D02*
X192500D01*
G01X224000Y224000D02*
Y204000D01*
G01X260000Y220000D02*
Y210000D01*
X290000D01*
Y220000D01*
X260000D01*
G54D11*
G01X3820Y68859D02*
X21652D01*
Y35157D01*
X3877D01*
G01X40500Y58500D02*
X36000D01*
G01X35400Y59900D02*
Y62200D01*
G01X34700Y59900D02*
Y62200D01*
G01X36000Y63500D02*
X40500D01*
Y58500D01*
G01X34000D02*
X29500D01*
Y63500D01*
X34000D01*
G01X40500Y53500D02*
X36000D01*
G01X35400Y54900D02*
Y57200D01*
G01X34700Y54900D02*
Y57200D01*
G01X36000Y58500D02*
X40500D01*
Y53500D01*
G01X34000D02*
X29500D01*
Y58500D01*
X34000D01*
G01X40500Y48500D02*
X36000D01*
G01X35400Y49900D02*
Y52200D01*
G01X34700Y49900D02*
Y52200D01*
G01X36000Y53500D02*
X40500D01*
Y48500D01*
G01X34000D02*
X29500D01*
Y53500D01*
X34000D01*
G01X40500Y43500D02*
X36000D01*
G01X35400Y44900D02*
Y47200D01*
G01X34700Y44900D02*
Y47200D01*
G01X36000Y48500D02*
X40500D01*
Y43500D01*
G01X34000D02*
X29500D01*
Y48500D01*
X34000D01*
G01X40500Y110500D02*
Y106000D01*
G01X39100Y105400D02*
X36800D01*
G01X39100Y104700D02*
X36800D01*
G01X35500Y106000D02*
Y110500D01*
X40500D01*
G01Y104000D02*
Y99500D01*
X35500D01*
Y104000D01*
G01X107500Y60500D02*
Y56000D01*
G01X106100Y55400D02*
X103800D01*
G01X106100Y54700D02*
X103800D01*
G01X102500Y56000D02*
Y60500D01*
X107500D01*
G01Y54000D02*
Y49500D01*
X102500D01*
Y54000D01*
G01X118000Y49500D02*
X113500D01*
Y54500D01*
X118000D01*
G01X102500Y61500D02*
Y66000D01*
G01X103900Y66600D02*
X106200D01*
G01X107500Y66000D02*
Y61500D01*
X102500D01*
G01X113000Y42200D02*
Y48000D01*
G01D02*
X113200Y48200D01*
G01D02*
X130400D01*
G01X130800Y41800D02*
X113400D01*
G01D02*
X113000Y42200D01*
G01X103900Y67300D02*
X106200D01*
G01X102500Y68000D02*
Y72500D01*
X107500D01*
Y68000D01*
G01X124500Y49500D02*
X120000D01*
G01X119400Y50900D02*
Y53200D01*
G01X118700Y50900D02*
Y53200D01*
G01X120000Y54500D02*
X124500D01*
Y49500D01*
G01X144000Y52500D02*
X139500D01*
Y57500D01*
X144000D01*
G01X130500Y64500D02*
X135000D01*
G01X135600Y63100D02*
Y60800D01*
G01X136300Y63100D02*
Y60800D01*
G01X135000Y59500D02*
X130500D01*
Y64500D01*
G01X137000D02*
X141500D01*
Y59500D01*
X137000D01*
G01X135600Y68100D02*
Y65800D01*
G01X136300Y68100D02*
Y65800D01*
G01X135000Y64500D02*
X130500D01*
Y69500D01*
G01X137000D02*
X141500D01*
Y64500D01*
X137000D01*
G01X118000Y45000D02*
X126000D01*
G01X120200Y42600D02*
Y47400D01*
G01Y45000D02*
X123600Y47400D01*
G01D02*
Y42600D01*
G01D02*
X120200Y45000D01*
G01X130400Y48200D02*
X131000Y47600D01*
G01D02*
Y42000D01*
G01D02*
X130800Y41800D01*
G01X130500Y69500D02*
X135000D01*
G01X150500Y52500D02*
X146000D01*
G01X145400Y53900D02*
Y56200D01*
G01X144700Y53900D02*
Y56200D01*
G01X146000Y57500D02*
X150500D01*
Y52500D01*
G01X165500D02*
X170000D01*
G01X170600Y51100D02*
Y48800D01*
G01X171300Y51100D02*
Y48800D01*
G01X170000Y47500D02*
X165500D01*
Y52500D01*
G01X172000D02*
X176500D01*
Y47500D01*
X172000D01*
G01X173500Y86500D02*
Y91000D01*
G01X178500D02*
Y86500D01*
X173500D01*
G01Y93000D02*
Y97500D01*
X178500D01*
Y93000D01*
G01X173500Y134500D02*
Y139000D01*
G01X178500D02*
Y134500D01*
X173500D01*
G01Y141000D02*
Y145500D01*
X178500D01*
Y141000D01*
G01X173500Y178000D02*
Y182500D01*
X178500D01*
G01Y176000D02*
Y171500D01*
X173500D01*
Y176000D01*
G01X174900Y91600D02*
X177200D01*
G01X174900Y92300D02*
X177200D01*
G01X174900Y139600D02*
X177200D01*
G01X174900Y140300D02*
X177200D01*
G01X178500Y182500D02*
Y178000D01*
G01X177100Y177400D02*
X174800D01*
G01X177100Y176700D02*
X174800D01*
G01X237500Y128000D02*
Y123500D01*
X232500D01*
Y128000D01*
G01X235100Y156400D02*
X232800D01*
G01X235100Y155700D02*
X232800D01*
G01X231500Y157000D02*
Y161500D01*
X236500D01*
G01Y155000D02*
Y150500D01*
X231500D01*
Y155000D01*
G01X236100Y129400D02*
X233800D01*
G01X236100Y128700D02*
X233800D01*
G01X232500Y130000D02*
Y134500D01*
X237500D01*
G01X231500Y161500D02*
Y166000D01*
G01X232900Y166600D02*
X235200D01*
G01X232900Y167300D02*
X235200D01*
G01X236500Y166000D02*
Y161500D01*
X231500D01*
G01Y168000D02*
Y172500D01*
X236500D01*
Y168000D01*
G01X258600Y159100D02*
Y156800D01*
G01X259300Y159100D02*
Y156800D01*
G01X258000Y155500D02*
X253500D01*
Y160500D01*
G01X260000D02*
X264500D01*
Y155500D01*
X260000D01*
G01X236500Y161500D02*
Y157000D01*
G01X237500Y134500D02*
Y130000D01*
G01X264500Y160500D02*
X260000D01*
G01X259400Y161900D02*
Y164200D01*
G01X258700Y161900D02*
Y164200D01*
G01X260000Y165500D02*
X264500D01*
Y160500D01*
G01X258000D02*
X253500D01*
Y165500D01*
X258000D01*
G01X253500Y160500D02*
X258000D01*
G01X257500Y184500D02*
Y189000D01*
G01X262500D02*
Y184500D01*
X257500D01*
G01X316000Y167000D02*
X254000D01*
Y179000D01*
X316000D01*
Y167000D01*
G01X258900Y189600D02*
X261200D01*
G01X258900Y190300D02*
X261200D01*
G01X257500Y191000D02*
Y195500D01*
X262500D01*
Y191000D01*
G01X282500Y66500D02*
X278000D01*
G01Y71500D02*
X282500D01*
Y66500D01*
G01X276000D02*
X271500D01*
Y71500D01*
X276000D01*
G01X282500Y82500D02*
X278000D01*
G01X277400Y83900D02*
Y86200D01*
G01X276700Y83900D02*
Y86200D01*
G01X278000Y87500D02*
X282500D01*
Y82500D01*
G01X276000D02*
X271500D01*
Y87500D01*
X276000D01*
G01X277400Y67900D02*
Y70200D01*
G01X276700Y67900D02*
Y70200D01*
G01X282500Y82500D02*
Y78000D01*
G01X281100Y77400D02*
X278800D01*
G01X281100Y76700D02*
X278800D01*
G01X277500Y78000D02*
Y82500D01*
X282500D01*
G01Y76000D02*
Y71500D01*
X277500D01*
Y76000D01*
G01X294500Y197500D02*
X290000D01*
G01X289400Y198900D02*
Y201200D01*
G01X288700Y198900D02*
Y201200D01*
G01X290000Y202500D02*
X294500D01*
Y197500D01*
G01X288000D02*
X283500D01*
Y202500D01*
X288000D01*
G01X308500Y113500D02*
Y118000D01*
G01X309900Y118600D02*
X312200D01*
G01X309900Y119300D02*
X312200D01*
G01X313500Y118000D02*
Y113500D01*
X308500D01*
G01Y120000D02*
Y124500D01*
X313500D01*
Y120000D01*
G01X318500Y124500D02*
Y120000D01*
G01X317100Y119400D02*
X314800D01*
G01X317100Y118700D02*
X314800D01*
G01X313500Y120000D02*
Y124500D01*
X318500D01*
G01Y118000D02*
Y113500D01*
X313500D01*
Y118000D01*
G01X310500Y141500D02*
X315000D01*
G01X315600Y140100D02*
Y137800D01*
G01X316300Y140100D02*
Y137800D01*
G01X315000Y136500D02*
X310500D01*
Y141500D01*
G01X317000D02*
X321500D01*
Y136500D01*
X317000D01*
G01X323500Y133500D02*
Y132000D01*
G01X308500D02*
Y134000D01*
G01X307500Y133000D02*
X309500D01*
G01X315000Y129500D02*
X309500D01*
Y136500D01*
G01X317000D02*
X322500D01*
Y136000D01*
Y129500D01*
X317000D01*
G01X316400Y134500D02*
Y131500D01*
G01X315700Y134500D02*
Y131500D01*
G01X309500Y136500D02*
X315000D01*
G01X0Y240000D02*
Y0D01*
X332000D01*
Y240000D01*
X0D01*
G01X1000Y1000D02*
X331000D01*
Y239000D01*
X1000D01*
Y1000D01*
G01X184310Y78060D02*
X225650D01*
Y82390D01*
X220930D01*
Y185540D01*
X225650D01*
Y190260D01*
X184310D01*
Y183570D01*
X193370D01*
Y86320D01*
X184310D01*
Y78060D01*
X4000D01*
Y190260D01*
X184310D01*
G01X122000Y69004D02*
X116000D01*
Y56996D01*
X122000D01*
Y69004D01*
G01X316000Y167000D02*
X254000D01*
Y179000D01*
X316000D01*
Y167000D01*
G01X272500Y183090D02*
X289500D01*
Y194910D01*
X272500D01*
Y183090D01*
G01X274100Y194000D02*
G03I-600J0D01*
G54D12*
G01X14583Y29900D02*
X14875Y29450D01*
X15225Y29150D01*
X15633Y29000D01*
X16100Y29150D01*
X16450Y29450D01*
X16800Y29900D01*
X16917Y30500D01*
Y33500D01*
G01X18742Y32750D02*
X19092Y33200D01*
X19500Y33425D01*
X19967Y33500D01*
X20550Y33350D01*
X20958Y32975D01*
X21075Y32525D01*
X21017Y32075D01*
X20783Y31700D01*
X19617Y30950D01*
X19092Y30425D01*
X18742Y29675D01*
X18625Y29000D01*
X21075D01*
G01X31467Y37675D02*
X31817Y37300D01*
X32225Y37075D01*
X32750Y37000D01*
X33275Y37150D01*
X33683Y37450D01*
X33975Y37975D01*
X34033Y38575D01*
X33917Y39175D01*
X33625Y39550D01*
X33217Y39850D01*
X32808Y39925D01*
X32400Y39850D01*
X31875Y39550D01*
X32050Y41500D01*
X33625D01*
G01X57033Y35125D02*
X56683Y35350D01*
X56275Y35500D01*
X55808D01*
X55283Y35275D01*
X54875Y34900D01*
X54583Y34450D01*
X54350Y33700D01*
X54292Y33025D01*
X54408Y32350D01*
X54583Y31900D01*
X54933Y31450D01*
X55342Y31150D01*
X55750Y31000D01*
X56158D01*
X56567Y31150D01*
X56917Y31375D01*
X57208Y31675D01*
G01X58742Y34750D02*
X59092Y35200D01*
X59500Y35425D01*
X59967Y35500D01*
X60550Y35350D01*
X60958Y34975D01*
X61075Y34525D01*
X61017Y34075D01*
X60783Y33700D01*
X59617Y32950D01*
X59092Y32425D01*
X58742Y31675D01*
X58625Y31000D01*
X61075D01*
G01X32750Y66000D02*
Y70500D01*
X32050Y69600D01*
G01Y66000D02*
X33450D01*
G01X43583Y59000D02*
Y63500D01*
X45042D01*
X45508Y63275D01*
X45800Y62975D01*
X45917Y62375D01*
X45800Y61775D01*
X45450Y61400D01*
X45042Y61175D01*
X43583D01*
G01X45042D02*
X45917Y59000D01*
G01X47742Y60875D02*
X48150Y61400D01*
X48500Y61700D01*
X48967Y61850D01*
X49375Y61700D01*
X49667Y61400D01*
X49900Y60950D01*
X49958Y60425D01*
X49900Y59975D01*
X49667Y59525D01*
X49317Y59150D01*
X48908Y59000D01*
X48442Y59150D01*
X48033Y59600D01*
X47800Y60275D01*
X47742Y61025D01*
X47858Y62000D01*
X48033Y62525D01*
X48325Y63050D01*
X48733Y63425D01*
X49142Y63500D01*
X49550Y63350D01*
X49842Y62975D01*
G01X43583Y54000D02*
Y58500D01*
X45042D01*
X45508Y58275D01*
X45800Y57975D01*
X45917Y57375D01*
X45800Y56775D01*
X45450Y56400D01*
X45042Y56175D01*
X43583D01*
G01X45042D02*
X45917Y54000D01*
G01X48733D02*
X48850Y54975D01*
X49025Y55800D01*
X49258Y56550D01*
X49550Y57375D01*
X50017Y58500D01*
X47683D01*
G01X43583Y49000D02*
Y53500D01*
X45042D01*
X45508Y53275D01*
X45800Y52975D01*
X45917Y52375D01*
X45800Y51775D01*
X45450Y51400D01*
X45042Y51175D01*
X43583D01*
G01X45042D02*
X45917Y49000D01*
G01X48850D02*
X49258Y49075D01*
X49725Y49300D01*
X50017Y49675D01*
X50133Y50200D01*
X50017Y50725D01*
X49667Y51175D01*
X49142Y51400D01*
X48558D01*
X48208Y51550D01*
X47917Y51925D01*
X47800Y52450D01*
X47975Y52975D01*
X48383Y53350D01*
X48850Y53500D01*
X49317Y53350D01*
X49725Y52975D01*
X49900Y52450D01*
X49783Y51925D01*
X49492Y51550D01*
X49142Y51400D01*
X48558D01*
X48033Y51175D01*
X47683Y50725D01*
X47567Y50200D01*
X47683Y49675D01*
X47975Y49300D01*
X48442Y49075D01*
X48850Y49000D01*
G01X43583Y44000D02*
Y48500D01*
X45042D01*
X45508Y48275D01*
X45800Y47975D01*
X45917Y47375D01*
X45800Y46775D01*
X45450Y46400D01*
X45042Y46175D01*
X43583D01*
G01X45042D02*
X45917Y44000D01*
G01X47858Y44525D02*
X48267Y44150D01*
X48733Y44000D01*
X49200Y44150D01*
X49608Y44600D01*
X49900Y45275D01*
X50017Y45950D01*
Y46775D01*
X49900Y47450D01*
X49608Y48050D01*
X49258Y48350D01*
X48850Y48500D01*
X48383Y48350D01*
X48033Y48050D01*
X47800Y47600D01*
X47683Y47000D01*
X47800Y46475D01*
X48092Y45950D01*
X48442Y45650D01*
X48850Y45575D01*
X49317Y45725D01*
X49667Y46100D01*
X50017Y46775D01*
G01X26467Y76500D02*
Y73275D01*
X26700Y72600D01*
X27167Y72150D01*
X27750Y72000D01*
X28333Y72150D01*
X28800Y72600D01*
X29033Y73275D01*
Y76500D01*
G01X30742Y75750D02*
X31092Y76200D01*
X31500Y76425D01*
X31967Y76500D01*
X32550Y76350D01*
X32958Y75975D01*
X33075Y75525D01*
X33017Y75075D01*
X32783Y74700D01*
X31617Y73950D01*
X31092Y73425D01*
X30742Y72675D01*
X30625Y72000D01*
X33075D01*
G01X35583Y112000D02*
Y116500D01*
X37042D01*
X37508Y116275D01*
X37800Y115975D01*
X37917Y115375D01*
X37800Y114775D01*
X37450Y114400D01*
X37042Y114175D01*
X35583D01*
G01X37042D02*
X37917Y112000D01*
G01X41550D02*
Y116500D01*
X39392Y113275D01*
X42308D01*
G01X25583Y226900D02*
X25875Y226450D01*
X26225Y226150D01*
X26633Y226000D01*
X27100Y226150D01*
X27450Y226450D01*
X27800Y226900D01*
X27917Y227500D01*
Y230500D01*
G01X30850Y226000D02*
Y230500D01*
X30150Y229600D01*
G01Y226000D02*
X31550D01*
G01X105033Y30125D02*
X104683Y30350D01*
X104275Y30500D01*
X103808D01*
X103283Y30275D01*
X102875Y29900D01*
X102583Y29450D01*
X102350Y28700D01*
X102292Y28025D01*
X102408Y27350D01*
X102583Y26900D01*
X102933Y26450D01*
X103342Y26150D01*
X103750Y26000D01*
X104158D01*
X104567Y26150D01*
X104917Y26375D01*
X105208Y26675D01*
G01X106567Y26900D02*
X106917Y26375D01*
X107383Y26075D01*
X107908Y26000D01*
X108375Y26075D01*
X108842Y26450D01*
X109133Y26900D01*
X109192Y27350D01*
X109075Y27875D01*
X108667Y28250D01*
X108258Y28400D01*
X107733D01*
G01X108258D02*
X108608Y28625D01*
X108900Y29000D01*
X109017Y29450D01*
X108900Y29900D01*
X108608Y30275D01*
X108083Y30500D01*
X107558Y30425D01*
X107033Y30125D01*
G01X116033Y37125D02*
X115683Y37350D01*
X115275Y37500D01*
X114808D01*
X114283Y37275D01*
X113875Y36900D01*
X113583Y36450D01*
X113350Y35700D01*
X113292Y35025D01*
X113408Y34350D01*
X113583Y33900D01*
X113933Y33450D01*
X114342Y33150D01*
X114750Y33000D01*
X115158D01*
X115567Y33150D01*
X115917Y33375D01*
X116208Y33675D01*
G01X118850Y33000D02*
Y37500D01*
X118150Y36600D01*
G01Y33000D02*
X119550D01*
G01X102583D02*
Y37500D01*
X104042D01*
X104508Y37275D01*
X104800Y36975D01*
X104917Y36375D01*
X104800Y35775D01*
X104450Y35400D01*
X104042Y35175D01*
X102583D01*
G01X104042D02*
X104917Y33000D01*
G01X107850D02*
Y37500D01*
X107150Y36600D01*
G01Y33000D02*
X108550D01*
G01X113467Y26000D02*
Y30500D01*
X114633D01*
X115100Y30275D01*
X115450Y29975D01*
X115742Y29525D01*
X115975Y29000D01*
X116033Y28250D01*
X115975Y27500D01*
X115742Y26975D01*
X115450Y26525D01*
X115100Y26225D01*
X114633Y26000D01*
X113467D01*
G01X118850D02*
Y30500D01*
X118150Y29600D01*
G01Y26000D02*
X119550D01*
G01X113467Y77500D02*
Y74275D01*
X113700Y73600D01*
X114167Y73150D01*
X114750Y73000D01*
X115333Y73150D01*
X115800Y73600D01*
X116033Y74275D01*
Y77500D01*
G01X118850Y73000D02*
Y77500D01*
X118150Y76600D01*
G01Y73000D02*
X119550D01*
G01X89033Y76125D02*
X88683Y76350D01*
X88275Y76500D01*
X87808D01*
X87283Y76275D01*
X86875Y75900D01*
X86583Y75450D01*
X86350Y74700D01*
X86292Y74025D01*
X86408Y73350D01*
X86583Y72900D01*
X86933Y72450D01*
X87342Y72150D01*
X87750Y72000D01*
X88158D01*
X88567Y72150D01*
X88917Y72375D01*
X89208Y72675D01*
G01X92550Y72000D02*
Y76500D01*
X90392Y73275D01*
X93308D01*
G01X118583Y16500D02*
Y12000D01*
X120917D01*
G01X123850D02*
Y16500D01*
X123150Y15600D01*
G01Y12000D02*
X124550D01*
G01X144583Y60000D02*
Y64500D01*
X146042D01*
X146508Y64275D01*
X146800Y63975D01*
X146917Y63375D01*
X146800Y62775D01*
X146450Y62400D01*
X146042Y62175D01*
X144583D01*
G01X146042D02*
X146917Y60000D01*
G01X148742Y63750D02*
X149092Y64200D01*
X149500Y64425D01*
X149967Y64500D01*
X150550Y64350D01*
X150958Y63975D01*
X151075Y63525D01*
X151017Y63075D01*
X150783Y62700D01*
X149617Y61950D01*
X149092Y61425D01*
X148742Y60675D01*
X148625Y60000D01*
X151075D01*
G01X144583Y67000D02*
Y71500D01*
X146042D01*
X146508Y71275D01*
X146800Y70975D01*
X146917Y70375D01*
X146800Y69775D01*
X146450Y69400D01*
X146042Y69175D01*
X144583D01*
G01X146042D02*
X146917Y67000D01*
G01X148567Y67900D02*
X148917Y67375D01*
X149383Y67075D01*
X149908Y67000D01*
X150375Y67075D01*
X150842Y67450D01*
X151133Y67900D01*
X151192Y68350D01*
X151075Y68875D01*
X150667Y69250D01*
X150258Y69400D01*
X149733D01*
G01X150258D02*
X150608Y69625D01*
X150900Y70000D01*
X151017Y70450D01*
X150900Y70900D01*
X150608Y71275D01*
X150083Y71500D01*
X149558Y71425D01*
X149033Y71125D01*
G01X164033Y15125D02*
X163683Y15350D01*
X163275Y15500D01*
X162808D01*
X162283Y15275D01*
X161875Y14900D01*
X161583Y14450D01*
X161350Y13700D01*
X161292Y13025D01*
X161408Y12350D01*
X161583Y11900D01*
X161933Y11450D01*
X162342Y11150D01*
X162750Y11000D01*
X163158D01*
X163567Y11150D01*
X163917Y11375D01*
X164208Y11675D01*
G01X165742Y12875D02*
X166150Y13400D01*
X166500Y13700D01*
X166967Y13850D01*
X167375Y13700D01*
X167667Y13400D01*
X167900Y12950D01*
X167958Y12425D01*
X167900Y11975D01*
X167667Y11525D01*
X167317Y11150D01*
X166908Y11000D01*
X166442Y11150D01*
X166033Y11600D01*
X165800Y12275D01*
X165742Y13025D01*
X165858Y14000D01*
X166033Y14525D01*
X166325Y15050D01*
X166733Y15425D01*
X167142Y15500D01*
X167550Y15350D01*
X167842Y14975D01*
G01X159033Y71125D02*
X158683Y71350D01*
X158275Y71500D01*
X157808D01*
X157283Y71275D01*
X156875Y70900D01*
X156583Y70450D01*
X156350Y69700D01*
X156292Y69025D01*
X156408Y68350D01*
X156583Y67900D01*
X156933Y67450D01*
X157342Y67150D01*
X157750Y67000D01*
X158158D01*
X158567Y67150D01*
X158917Y67375D01*
X159208Y67675D01*
G01X161733Y67000D02*
X161850Y67975D01*
X162025Y68800D01*
X162258Y69550D01*
X162550Y70375D01*
X163017Y71500D01*
X160683D01*
G01X169033Y64125D02*
X168683Y64350D01*
X168275Y64500D01*
X167808D01*
X167283Y64275D01*
X166875Y63900D01*
X166583Y63450D01*
X166350Y62700D01*
X166292Y62025D01*
X166408Y61350D01*
X166583Y60900D01*
X166933Y60450D01*
X167342Y60150D01*
X167750Y60000D01*
X168158D01*
X168567Y60150D01*
X168917Y60375D01*
X169208Y60675D01*
G01X171850Y60000D02*
Y64500D01*
X171150Y63600D01*
G01Y60000D02*
X172550D01*
G01X174667Y60900D02*
X175017Y60375D01*
X175483Y60075D01*
X176008Y60000D01*
X176475Y60075D01*
X176942Y60450D01*
X177233Y60900D01*
X177292Y61350D01*
X177175Y61875D01*
X176767Y62250D01*
X176358Y62400D01*
X175833D01*
G01X176358D02*
X176708Y62625D01*
X177000Y63000D01*
X177117Y63450D01*
X177000Y63900D01*
X176708Y64275D01*
X176183Y64500D01*
X175658Y64425D01*
X175133Y64125D01*
G01X159033D02*
X158683Y64350D01*
X158275Y64500D01*
X157808D01*
X157283Y64275D01*
X156875Y63900D01*
X156583Y63450D01*
X156350Y62700D01*
X156292Y62025D01*
X156408Y61350D01*
X156583Y60900D01*
X156933Y60450D01*
X157342Y60150D01*
X157750Y60000D01*
X158158D01*
X158567Y60150D01*
X158917Y60375D01*
X159208Y60675D01*
G01X160567D02*
X160917Y60300D01*
X161325Y60075D01*
X161850Y60000D01*
X162375Y60150D01*
X162783Y60450D01*
X163075Y60975D01*
X163133Y61575D01*
X163017Y62175D01*
X162725Y62550D01*
X162317Y62850D01*
X161908Y62925D01*
X161500Y62850D01*
X160975Y62550D01*
X161150Y64500D01*
X162725D01*
G01X163033Y98125D02*
X162683Y98350D01*
X162275Y98500D01*
X161808D01*
X161283Y98275D01*
X160875Y97900D01*
X160583Y97450D01*
X160350Y96700D01*
X160292Y96025D01*
X160408Y95350D01*
X160583Y94900D01*
X160933Y94450D01*
X161342Y94150D01*
X161750Y94000D01*
X162158D01*
X162567Y94150D01*
X162917Y94375D01*
X163208Y94675D01*
G01X165850Y94000D02*
Y98500D01*
X165150Y97600D01*
G01Y94000D02*
X166550D01*
G01X169950Y98500D02*
X169483Y98350D01*
X169133Y97975D01*
X168900Y97525D01*
X168725Y96925D01*
X168667Y96250D01*
X168725Y95575D01*
X168900Y94975D01*
X169133Y94525D01*
X169483Y94150D01*
X169950Y94000D01*
X170417Y94150D01*
X170767Y94525D01*
X171000Y94975D01*
X171175Y95575D01*
X171233Y96250D01*
X171175Y96925D01*
X171000Y97525D01*
X170767Y97975D01*
X170417Y98350D01*
X169950Y98500D01*
G01X167033Y144125D02*
X166683Y144350D01*
X166275Y144500D01*
X165808D01*
X165283Y144275D01*
X164875Y143900D01*
X164583Y143450D01*
X164350Y142700D01*
X164292Y142025D01*
X164408Y141350D01*
X164583Y140900D01*
X164933Y140450D01*
X165342Y140150D01*
X165750Y140000D01*
X166158D01*
X166567Y140150D01*
X166917Y140375D01*
X167208Y140675D01*
G01X168858Y140525D02*
X169267Y140150D01*
X169733Y140000D01*
X170200Y140150D01*
X170608Y140600D01*
X170900Y141275D01*
X171017Y141950D01*
Y142775D01*
X170900Y143450D01*
X170608Y144050D01*
X170258Y144350D01*
X169850Y144500D01*
X169383Y144350D01*
X169033Y144050D01*
X168800Y143600D01*
X168683Y143000D01*
X168800Y142475D01*
X169092Y141950D01*
X169442Y141650D01*
X169850Y141575D01*
X170317Y141725D01*
X170667Y142100D01*
X171017Y142775D01*
G01X167033Y181125D02*
X166683Y181350D01*
X166275Y181500D01*
X165808D01*
X165283Y181275D01*
X164875Y180900D01*
X164583Y180450D01*
X164350Y179700D01*
X164292Y179025D01*
X164408Y178350D01*
X164583Y177900D01*
X164933Y177450D01*
X165342Y177150D01*
X165750Y177000D01*
X166158D01*
X166567Y177150D01*
X166917Y177375D01*
X167208Y177675D01*
G01X169850Y177000D02*
X170258Y177075D01*
X170725Y177300D01*
X171017Y177675D01*
X171133Y178200D01*
X171017Y178725D01*
X170667Y179175D01*
X170142Y179400D01*
X169558D01*
X169208Y179550D01*
X168917Y179925D01*
X168800Y180450D01*
X168975Y180975D01*
X169383Y181350D01*
X169850Y181500D01*
X170317Y181350D01*
X170725Y180975D01*
X170900Y180450D01*
X170783Y179925D01*
X170492Y179550D01*
X170142Y179400D01*
X169558D01*
X169033Y179175D01*
X168683Y178725D01*
X168567Y178200D01*
X168683Y177675D01*
X168975Y177300D01*
X169442Y177075D01*
X169850Y177000D01*
G01X233583Y136000D02*
Y140500D01*
X235042D01*
X235508Y140275D01*
X235800Y139975D01*
X235917Y139375D01*
X235800Y138775D01*
X235450Y138400D01*
X235042Y138175D01*
X233583D01*
G01X235042D02*
X235917Y136000D01*
G01X237567Y136675D02*
X237917Y136300D01*
X238325Y136075D01*
X238850Y136000D01*
X239375Y136150D01*
X239783Y136450D01*
X240075Y136975D01*
X240133Y137575D01*
X240017Y138175D01*
X239725Y138550D01*
X239317Y138850D01*
X238908Y138925D01*
X238500Y138850D01*
X237975Y138550D01*
X238150Y140500D01*
X239725D01*
G01X231875Y176033D02*
X231650Y175683D01*
X231500Y175275D01*
Y174808D01*
X231725Y174283D01*
X232100Y173875D01*
X232550Y173583D01*
X233300Y173350D01*
X233975Y173292D01*
X234650Y173408D01*
X235100Y173583D01*
X235550Y173933D01*
X235850Y174342D01*
X236000Y174750D01*
Y175158D01*
X235850Y175567D01*
X235625Y175917D01*
X235325Y176208D01*
G01X236000Y178850D02*
X231500D01*
X232400Y178150D01*
G01X236000D02*
Y179550D01*
G01X232250Y181842D02*
X231800Y182192D01*
X231575Y182600D01*
X231500Y183067D01*
X231650Y183650D01*
X232025Y184058D01*
X232475Y184175D01*
X232925Y184117D01*
X233300Y183883D01*
X234050Y182717D01*
X234575Y182192D01*
X235325Y181842D01*
X236000Y181725D01*
Y184175D01*
G01X231875Y191033D02*
X231650Y190683D01*
X231500Y190275D01*
Y189808D01*
X231725Y189283D01*
X232100Y188875D01*
X232550Y188583D01*
X233300Y188350D01*
X233975Y188292D01*
X234650Y188408D01*
X235100Y188583D01*
X235550Y188933D01*
X235850Y189342D01*
X236000Y189750D01*
Y190158D01*
X235850Y190567D01*
X235625Y190917D01*
X235325Y191208D01*
G01X236000Y193850D02*
X231500D01*
X232400Y193150D01*
G01X236000D02*
Y194550D01*
G01Y197950D02*
X231500D01*
X232400Y197250D01*
G01X236000D02*
Y198650D01*
G01X257033Y87125D02*
X256683Y87350D01*
X256275Y87500D01*
X255808D01*
X255283Y87275D01*
X254875Y86900D01*
X254583Y86450D01*
X254350Y85700D01*
X254292Y85025D01*
X254408Y84350D01*
X254583Y83900D01*
X254933Y83450D01*
X255342Y83150D01*
X255750Y83000D01*
X256158D01*
X256567Y83150D01*
X256917Y83375D01*
X257208Y83675D01*
G01X259850Y83000D02*
Y87500D01*
X259150Y86600D01*
G01Y83000D02*
X260550D01*
G01X263833D02*
X263950Y83975D01*
X264125Y84800D01*
X264358Y85550D01*
X264650Y86375D01*
X265117Y87500D01*
X262783D01*
G01X257033Y73125D02*
X256683Y73350D01*
X256275Y73500D01*
X255808D01*
X255283Y73275D01*
X254875Y72900D01*
X254583Y72450D01*
X254350Y71700D01*
X254292Y71025D01*
X254408Y70350D01*
X254583Y69900D01*
X254933Y69450D01*
X255342Y69150D01*
X255750Y69000D01*
X256158D01*
X256567Y69150D01*
X256917Y69375D01*
X257208Y69675D01*
G01X259850Y69000D02*
Y73500D01*
X259150Y72600D01*
G01Y69000D02*
X260550D01*
G01X263950D02*
X264358Y69075D01*
X264825Y69300D01*
X265117Y69675D01*
X265233Y70200D01*
X265117Y70725D01*
X264767Y71175D01*
X264242Y71400D01*
X263658D01*
X263308Y71550D01*
X263017Y71925D01*
X262900Y72450D01*
X263075Y72975D01*
X263483Y73350D01*
X263950Y73500D01*
X264417Y73350D01*
X264825Y72975D01*
X265000Y72450D01*
X264883Y71925D01*
X264592Y71550D01*
X264242Y71400D01*
X263658D01*
X263133Y71175D01*
X262783Y70725D01*
X262667Y70200D01*
X262783Y69675D01*
X263075Y69300D01*
X263542Y69075D01*
X263950Y69000D01*
G01X254583Y80500D02*
Y76000D01*
X256917D01*
G01X258742Y79750D02*
X259092Y80200D01*
X259500Y80425D01*
X259967Y80500D01*
X260550Y80350D01*
X260958Y79975D01*
X261075Y79525D01*
X261017Y79075D01*
X260783Y78700D01*
X259617Y77950D01*
X259092Y77425D01*
X258742Y76675D01*
X258625Y76000D01*
X261075D01*
G01X243033Y159125D02*
X242683Y159350D01*
X242275Y159500D01*
X241808D01*
X241283Y159275D01*
X240875Y158900D01*
X240583Y158450D01*
X240350Y157700D01*
X240292Y157025D01*
X240408Y156350D01*
X240583Y155900D01*
X240933Y155450D01*
X241342Y155150D01*
X241750Y155000D01*
X242158D01*
X242567Y155150D01*
X242917Y155375D01*
X243208Y155675D01*
G01X245850Y155000D02*
Y159500D01*
X245150Y158600D01*
G01Y155000D02*
X246550D01*
G01X250650D02*
Y159500D01*
X248492Y156275D01*
X251408D01*
G01X244292Y175500D02*
X245750Y171000D01*
X247208Y175500D01*
G01X249208Y172500D02*
X250608D01*
G01X249850Y173475D02*
Y171525D01*
G01X243033Y165125D02*
X242683Y165350D01*
X242275Y165500D01*
X241808D01*
X241283Y165275D01*
X240875Y164900D01*
X240583Y164450D01*
X240350Y163700D01*
X240292Y163025D01*
X240408Y162350D01*
X240583Y161900D01*
X240933Y161450D01*
X241342Y161150D01*
X241750Y161000D01*
X242158D01*
X242567Y161150D01*
X242917Y161375D01*
X243208Y161675D01*
G01X245850Y161000D02*
Y165500D01*
X245150Y164600D01*
G01Y161000D02*
X246550D01*
G01X248667Y161675D02*
X249017Y161300D01*
X249425Y161075D01*
X249950Y161000D01*
X250475Y161150D01*
X250883Y161450D01*
X251175Y161975D01*
X251233Y162575D01*
X251117Y163175D01*
X250825Y163550D01*
X250417Y163850D01*
X250008Y163925D01*
X249600Y163850D01*
X249075Y163550D01*
X249250Y165500D01*
X250825D01*
G01X244583Y191000D02*
Y195500D01*
X246042D01*
X246508Y195275D01*
X246800Y194975D01*
X246917Y194375D01*
X246800Y193775D01*
X246450Y193400D01*
X246042Y193175D01*
X244583D01*
G01X246042D02*
X246917Y191000D01*
G01X249850D02*
Y195500D01*
X249150Y194600D01*
G01Y191000D02*
X250550D01*
G01X252842Y194750D02*
X253192Y195200D01*
X253600Y195425D01*
X254067Y195500D01*
X254650Y195350D01*
X255058Y194975D01*
X255175Y194525D01*
X255117Y194075D01*
X254883Y193700D01*
X253717Y192950D01*
X253192Y192425D01*
X252842Y191675D01*
X252725Y191000D01*
X255175D01*
G01X247583Y214900D02*
X247875Y214450D01*
X248225Y214150D01*
X248633Y214000D01*
X249100Y214150D01*
X249450Y214450D01*
X249800Y214900D01*
X249917Y215500D01*
Y218500D01*
G01X252850Y214000D02*
Y218500D01*
X252150Y217600D01*
G01Y214000D02*
X253550D01*
G01X257650D02*
Y218500D01*
X255492Y215275D01*
X258408D01*
G01X263100Y225250D02*
X264267D01*
Y223900D01*
X263917Y223450D01*
X263508Y223150D01*
X262925Y223000D01*
X262342Y223150D01*
X261933Y223450D01*
X261583Y223900D01*
X261350Y224425D01*
X261233Y225025D01*
Y225550D01*
X261350Y226000D01*
X261583Y226525D01*
X261933Y226975D01*
X262283Y227275D01*
X262750Y227500D01*
X263158D01*
X263625Y227350D01*
X263975Y227050D01*
G01X265858Y223000D02*
Y226000D01*
G01Y225250D02*
X266092Y225625D01*
X266442Y225925D01*
X266908Y226000D01*
X267317Y225925D01*
X267667Y225625D01*
X267842Y225100D01*
Y223000D01*
G01X272000Y227500D02*
Y223000D01*
G01Y223675D02*
X271767Y223300D01*
X271417Y223075D01*
X271008Y223000D01*
X270542Y223150D01*
X270192Y223525D01*
X269958Y223975D01*
X269900Y224500D01*
X269958Y225025D01*
X270192Y225475D01*
X270542Y225850D01*
X271008Y226000D01*
X271417Y225925D01*
X271708Y225775D01*
X272000Y225475D01*
G01X294917Y51000D02*
X292583D01*
Y55500D01*
X294917D01*
G01X293983Y53325D02*
X292583D01*
G01X297850Y51000D02*
Y55500D01*
X297150Y54600D01*
G01Y51000D02*
X298550D01*
G01X268292Y164500D02*
X269750Y160000D01*
X271208Y164500D01*
G01X273092Y161500D02*
X274608D01*
G01X277583Y160000D02*
Y164500D01*
X279042D01*
X279508Y164275D01*
X279800Y163975D01*
X279917Y163375D01*
X279800Y162775D01*
X279450Y162400D01*
X279042Y162175D01*
X277583D01*
G01X279042D02*
X279917Y160000D01*
G01X281625Y160600D02*
X282092Y160225D01*
X282617Y160000D01*
X283083D01*
X283550Y160225D01*
X283900Y160600D01*
X284075Y161125D01*
X283958Y161650D01*
X283667Y162100D01*
X283142Y162400D01*
X282442Y162550D01*
X282033Y162850D01*
X281858Y163375D01*
X281975Y163900D01*
X282267Y164275D01*
X282675Y164500D01*
X283083D01*
X283492Y164350D01*
X283842Y163975D01*
G01X287233Y160000D02*
Y164500D01*
X288750Y160750D01*
X290267Y164500D01*
Y160000D01*
G01X292850D02*
X292383Y160075D01*
X291975Y160375D01*
X291625Y160825D01*
X291392Y161350D01*
X291275Y161950D01*
Y162550D01*
X291392Y163150D01*
X291625Y163675D01*
X291975Y164125D01*
X292383Y164425D01*
X292850Y164500D01*
X293317Y164425D01*
X293725Y164125D01*
X294075Y163675D01*
X294308Y163150D01*
X294425Y162550D01*
Y161950D01*
X294308Y161350D01*
X294075Y160825D01*
X293725Y160375D01*
X293317Y160075D01*
X292850Y160000D01*
G01X265467Y203500D02*
Y200275D01*
X265700Y199600D01*
X266167Y199150D01*
X266750Y199000D01*
X267333Y199150D01*
X267800Y199600D01*
X268033Y200275D01*
Y203500D01*
G01X271550Y199000D02*
Y203500D01*
X269392Y200275D01*
X272308D01*
G01X276750Y227500D02*
Y223000D01*
G01X275408Y227500D02*
X278092D01*
G01X279975Y226000D02*
X281725Y223000D01*
G01Y226000D02*
X279975Y223000D01*
G01X285583D02*
Y227500D01*
X287042D01*
X287508Y227275D01*
X287800Y226975D01*
X287917Y226375D01*
X287800Y225775D01*
X287450Y225400D01*
X287042Y225175D01*
X285583D01*
G01X287042D02*
X287917Y223000D01*
G01X289975Y226000D02*
X291725Y223000D01*
G01Y226000D02*
X289975Y223000D01*
G01X302467Y89500D02*
Y86275D01*
X302700Y85600D01*
X303167Y85150D01*
X303750Y85000D01*
X304333Y85150D01*
X304800Y85600D01*
X305033Y86275D01*
Y89500D01*
G01X306567Y85900D02*
X306917Y85375D01*
X307383Y85075D01*
X307908Y85000D01*
X308375Y85075D01*
X308842Y85450D01*
X309133Y85900D01*
X309192Y86350D01*
X309075Y86875D01*
X308667Y87250D01*
X308258Y87400D01*
X307733D01*
G01X308258D02*
X308608Y87625D01*
X308900Y88000D01*
X309017Y88450D01*
X308900Y88900D01*
X308608Y89275D01*
X308083Y89500D01*
X307558Y89425D01*
X307033Y89125D01*
G01X309259Y103591D02*
X309110Y103292D01*
X309010Y102943D01*
Y102545D01*
X309160Y102096D01*
X309409Y101748D01*
X309708Y101498D01*
X310206Y101299D01*
X310654Y101249D01*
X311103Y101349D01*
X311402Y101498D01*
X311701Y101797D01*
X311900Y102146D01*
X312000Y102495D01*
Y102844D01*
X311900Y103193D01*
X311751Y103492D01*
X311552Y103741D01*
G01X312000Y106465D02*
X309010D01*
X309608Y105867D01*
G01X312000D02*
Y107063D01*
G01X310754Y109488D02*
X310405Y109837D01*
X310206Y110136D01*
X310106Y110535D01*
X310206Y110884D01*
X310405Y111133D01*
X310704Y111332D01*
X311053Y111382D01*
X311352Y111332D01*
X311651Y111133D01*
X311900Y110834D01*
X312000Y110485D01*
X311900Y110086D01*
X311601Y109737D01*
X311153Y109538D01*
X310654Y109488D01*
X310007Y109588D01*
X309658Y109737D01*
X309309Y109987D01*
X309060Y110335D01*
X309010Y110684D01*
X309110Y111033D01*
X309359Y111282D01*
G01X317000Y101498D02*
X314010D01*
Y102744D01*
X314160Y103143D01*
X314359Y103392D01*
X314758Y103492D01*
X315156Y103392D01*
X315405Y103093D01*
X315555Y102744D01*
Y101498D01*
G01Y102744D02*
X317000Y103492D01*
G01Y106465D02*
X314010D01*
X314608Y105867D01*
G01X317000D02*
Y107063D01*
G01X314010Y110435D02*
X314110Y110036D01*
X314359Y109737D01*
X314658Y109538D01*
X315057Y109388D01*
X315505Y109339D01*
X315954Y109388D01*
X316352Y109538D01*
X316651Y109737D01*
X316900Y110036D01*
X317000Y110435D01*
X316900Y110834D01*
X316651Y111133D01*
X316352Y111332D01*
X315954Y111482D01*
X315505Y111531D01*
X315057Y111482D01*
X314658Y111332D01*
X314359Y111133D01*
X314110Y110834D01*
X314010Y110435D01*
G01X311583Y150000D02*
Y154500D01*
X313042D01*
X313508Y154275D01*
X313800Y153975D01*
X313917Y153375D01*
X313800Y152775D01*
X313450Y152400D01*
X313042Y152175D01*
X311583D01*
G01X313042D02*
X313917Y150000D01*
G01X316850D02*
Y154500D01*
X316150Y153600D01*
G01Y150000D02*
X317550D01*
G01X320950D02*
Y154500D01*
X320250Y153600D01*
G01Y150000D02*
X321650D01*
G01X311467Y143000D02*
Y147500D01*
X312633D01*
X313100Y147275D01*
X313450Y146975D01*
X313742Y146525D01*
X313975Y146000D01*
X314033Y145250D01*
X313975Y144500D01*
X313742Y143975D01*
X313450Y143525D01*
X313100Y143225D01*
X312633Y143000D01*
X311467D01*
G01X315742Y146750D02*
X316092Y147200D01*
X316500Y147425D01*
X316967Y147500D01*
X317550Y147350D01*
X317958Y146975D01*
X318075Y146525D01*
X318017Y146075D01*
X317783Y145700D01*
X316617Y144950D01*
X316092Y144425D01*
X315742Y143675D01*
X315625Y143000D01*
X318075D01*
G01X300033Y164125D02*
X299683Y164350D01*
X299275Y164500D01*
X298808D01*
X298283Y164275D01*
X297875Y163900D01*
X297583Y163450D01*
X297350Y162700D01*
X297292Y162025D01*
X297408Y161350D01*
X297583Y160900D01*
X297933Y160450D01*
X298342Y160150D01*
X298750Y160000D01*
X299158D01*
X299567Y160150D01*
X299917Y160375D01*
X300208Y160675D01*
G01X301567Y160000D02*
Y164500D01*
G01X303783D02*
X301567Y161725D01*
G01X304133Y160000D02*
X302558Y163000D01*
G01X307233Y160000D02*
Y164500D01*
X308750Y160750D01*
X310267Y164500D01*
Y160000D01*
G01X312150Y164500D02*
X313550D01*
G01X312850D02*
Y160000D01*
G01X312150D02*
X313550D01*
G01X321583Y170900D02*
X321875Y170450D01*
X322225Y170150D01*
X322633Y170000D01*
X323100Y170150D01*
X323450Y170450D01*
X323800Y170900D01*
X323917Y171500D01*
Y174500D01*
G01X325567Y170900D02*
X325917Y170375D01*
X326383Y170075D01*
X326908Y170000D01*
X327375Y170075D01*
X327842Y170450D01*
X328133Y170900D01*
X328192Y171350D01*
X328075Y171875D01*
X327667Y172250D01*
X327258Y172400D01*
X326733D01*
G01X327258D02*
X327608Y172625D01*
X327900Y173000D01*
X328017Y173450D01*
X327900Y173900D01*
X327608Y174275D01*
X327083Y174500D01*
X326558Y174425D01*
X326033Y174125D01*
G01X302033Y203125D02*
X301683Y203350D01*
X301275Y203500D01*
X300808D01*
X300283Y203275D01*
X299875Y202900D01*
X299583Y202450D01*
X299350Y201700D01*
X299292Y201025D01*
X299408Y200350D01*
X299583Y199900D01*
X299933Y199450D01*
X300342Y199150D01*
X300750Y199000D01*
X301158D01*
X301567Y199150D01*
X301917Y199375D01*
X302208Y199675D01*
G01X304850Y199000D02*
Y203500D01*
X304150Y202600D01*
G01Y199000D02*
X305550D01*
G01X307958Y199525D02*
X308367Y199150D01*
X308833Y199000D01*
X309300Y199150D01*
X309708Y199600D01*
X310000Y200275D01*
X310117Y200950D01*
Y201775D01*
X310000Y202450D01*
X309708Y203050D01*
X309358Y203350D01*
X308950Y203500D01*
X308483Y203350D01*
X308133Y203050D01*
X307900Y202600D01*
X307783Y202000D01*
X307900Y201475D01*
X308192Y200950D01*
X308542Y200650D01*
X308950Y200575D01*
X309417Y200725D01*
X309767Y201100D01*
X310117Y201775D01*
G54D13*
G01X87685Y64200D02*
Y57800D01*
G01X98315D02*
Y64200D01*
G01X146200Y51315D02*
X139800D01*
G01Y40685D02*
X146200D01*
G54D14*
G01X249543Y103000D02*
Y95913D01*
X269622D01*
G01X249543Y118354D02*
Y110087D01*
G01X259386Y149457D02*
X249543D01*
Y142764D01*
G01X282614Y95913D02*
X298756D01*
Y103394D01*
G01X276315Y95913D02*
X277496D01*
G01X298756Y142370D02*
Y149457D01*
X288913D01*
G01X298756Y109693D02*
Y112843D01*
G54D15*
G01X301837Y101819D02*
G03I-1113J0D01*
G54D16*
G01X133094Y11220D02*
X125220D01*
Y38780D01*
X133094D01*
G01X144906D02*
X152780D01*
Y11220D01*
X144906D01*
G54D17*
G01X277047Y61382D02*
X282953D01*
X287382Y56953D01*
Y51047D01*
X282953Y46618D01*
X277047D01*
X272618Y51047D01*
Y56953D01*
X277047Y61382D01*
M02*
