G04 ================== begin FILE IDENTIFICATION RECORD ==================*
G04 Layout Name:  E:/0_Working/1_Hardware/17_LoraNode/tmp2/RAK833_RPIGATEWAY.brd*
G04 Film Name:    RAK833_BOTTOM.art*
G04 File Format:  Gerber RS274X*
G04 File Origin:  Cadence Allegro 17.2-S052*
G04 Origin Date:  Mon Jun 29 19:00:06 2020*
G04 *
G04 Layer:  ETCH/BOTTOM*
G04 Layer:  PIN/BOTTOM*
G04 Layer:  VIA CLASS/BOTTOM*
G04 Layer:  BOARD GEOMETRY/OUTLINE*
G04 *
G04 Offset:    (0.000 0.000)*
G04 Mirror:    No*
G04 Mode:      Positive*
G04 Rotation:  0*
G04 FullContactRelief:  No*
G04 UndefLineWidth:     5.000*
G04 ================== end FILE IDENTIFICATION RECORD ====================*
%FSLAX25Y25*MOIN*%
%IR0*IPPOS*OFA0.00000B0.00000*MIA0B0*SFA1.00000B1.00000*%
%ADD10C,.13*%
%ADD12C,.208701*%
%ADD13R,.08X.08*%
%ADD19R,.08X.08*%
%ADD14C,.08*%
%ADD11C,.044*%
%ADD15C,.075*%
%ADD17R,.08X.08*%
%ADD16C,.055299*%
%ADD18P,.127841X8X22.5*%
%ADD20C,.008*%
%ADD21C,.03*%
%ADD22C,.005*%
%ADD25C,.150004*%
%ADD26C,.228706*%
%ADD24C,.090004*%
%ADD27C,.095004*%
%ADD23C,.075304*%
G75*
%LPD*%
G75*
G36*
G01X1000Y239000D02*
X331000D01*
Y65000D01*
X248000D01*
Y1000D01*
X1000D01*
Y239000D01*
G37*
%LPC*%
G75*
G36*
G01X191420Y165600D02*
X180878D01*
G02X178000Y163800I-2878J1400D01*
G02Y170200I0J3200D01*
G02X180878Y168400I0J-3200D01*
G01X192000D01*
G02X192990Y167990I0J-1400D01*
G01X207580Y153400D01*
X217420D01*
X219010Y154990D01*
G02X220000Y155400I990J-990D01*
G01X236122D01*
G02X239000Y157200I2878J-1400D01*
G02Y150800I0J-3200D01*
G02X236122Y152600I0J3200D01*
G01X220580D01*
X218990Y151010D01*
G02X218000Y150600I-990J990D01*
G01X207000D01*
G02X206010Y151010I0J1400D01*
G01X191420Y165600D01*
G37*
G36*
G01X203630Y220889D02*
G03X204370I370J151D01*
G02X213630I4630J-1889D01*
G03X214370I370J151D01*
G02X219000Y224000I4630J-1889D01*
G02X224000Y219000I0J-5000D01*
G02X220889Y214370I-5000J0D01*
G03Y213630I151J-370D01*
G02X224000Y209000I-1889J-4630D01*
G02X219000Y204000I-5000J0D01*
G02X214370Y207111I0J5000D01*
G03X213630I-370J-151D01*
G02X204370I-4630J1889D01*
G03X203630I-370J-151D01*
G02X194370I-4630J1889D01*
G03X193630I-370J-151D01*
G02X184370I-4630J1889D01*
G03X183630I-370J-151D01*
G02X174370I-4630J1889D01*
G03X173630I-370J-151D01*
G02X164370I-4630J1889D01*
G03X163630I-370J-151D01*
G02X154370I-4630J1889D01*
G03X153630I-370J-151D01*
G02X144370I-4630J1889D01*
G03X143630I-370J-151D01*
G02X134370I-4630J1889D01*
G03X133630I-370J-151D01*
G02X124370I-4630J1889D01*
G03X123630I-370J-151D01*
G02X114370I-4630J1889D01*
G03X113630I-370J-151D01*
G02X104370I-4630J1889D01*
G03X103630I-370J-151D01*
G02X94370I-4630J1889D01*
G03X93630I-370J-151D01*
G02X84370I-4630J1889D01*
G03X83630I-370J-151D01*
G02X74370I-4630J1889D01*
G03X73630I-370J-151D01*
G02X69000Y204000I-4630J1889D01*
G02X64000Y209000I0J5000D01*
G02X67111Y213630I5000J0D01*
G03Y214370I-151J370D01*
G02X64370Y217111I1889J4630D01*
G03X63630I-370J-151D01*
G02X59000Y214000I-4630J1889D01*
G02Y224000I0J5000D01*
G02X63630Y220889I0J-5000D01*
G03X64370I370J151D01*
G02X73630I4630J-1889D01*
G03X74370I370J151D01*
G02X83630I4630J-1889D01*
G03X84370I370J151D01*
G02X93630I4630J-1889D01*
G03X94370I370J151D01*
G02X103630I4630J-1889D01*
G03X104370I370J151D01*
G02X113630I4630J-1889D01*
G03X114370I370J151D01*
G02X123630I4630J-1889D01*
G03X124370I370J151D01*
G02X133630I4630J-1889D01*
G03X134370I370J151D01*
G02X143630I4630J-1889D01*
G03X144370I370J151D01*
G02X153630I4630J-1889D01*
G03X154370I370J151D01*
G02X163630I4630J-1889D01*
G03X164370I370J151D01*
G02X173630I4630J-1889D01*
G03X174370I370J151D01*
G02X183630I4630J-1889D01*
G03X184370I370J151D01*
G02X193630I4630J-1889D01*
G03X194370I370J151D01*
G02X203630I4630J-1889D01*
G37*
G36*
G01X280000Y217829D02*
Y219000D01*
G02X281000Y220000I1000J0D01*
G01X289000D01*
G02X290000Y219000I0J-1000D01*
G01Y211000D01*
G02X289000Y210000I-1000J0D01*
G01X281000D01*
G02X280000Y211000I0J1000D01*
G01Y212171D01*
G03X279259Y212380I-400J0D01*
G02X275000Y210000I-4259J2620D01*
G02Y220000I0J5000D01*
G02X279259Y217620I0J-5000D01*
G03X280000Y217829I341J210D01*
G37*
G36*
G01X164998Y131500D02*
G02X163000Y130800I-1998J2500D01*
G02Y137200I0J3200D01*
G02X164998Y136500I0J-3200D01*
G01X174002D01*
G02X176000Y137200I1998J-2500D01*
G02Y130800I0J-3200D01*
G02X174002Y131500I0J3200D01*
G01X164998D01*
G37*
G36*
G01X231420Y142400D02*
X232973Y143954D01*
X232938Y144068D01*
G02X232800Y145000I3062J932D01*
G02X236000Y141800I3200J0D01*
G02X235068Y141938I0J3200D01*
G01X234954Y141973D01*
X232990Y140010D01*
G02X232000Y139600I-990J990D01*
G01X211000D01*
G02X210010Y140010I0J1400D01*
G01X209046Y140973D01*
X208932Y140938D01*
G02X208000Y140800I-932J3062D01*
G02X211200Y144000I0J3200D01*
G02X211062Y143068I-3200J0D01*
G01X211027Y142954D01*
X211580Y142400D01*
X231420D01*
G37*
G36*
G01X188964Y175500D02*
X169998D01*
G02X168000Y174800I-1998J2500D01*
G02Y181200I0J3200D01*
G02X169998Y180500I0J-3200D01*
G01X190000D01*
G02X191768Y179768I0J-2500D01*
G01X207036Y164500D01*
X236002D01*
G02X238000Y165200I1998J-2500D01*
G02Y158800I0J-3200D01*
G02X236002Y159500I0J3200D01*
G01X206000D01*
G02X204232Y160232I0J2500D01*
G01X188964Y175500D01*
G37*
G36*
G01X24232Y237768D02*
G02X26000Y238500I1768J-1768D01*
G01X296000D01*
G02X297768Y237768I0J-2500D01*
G01X303768Y231768D01*
G02X304500Y230000I-1768J-1768D01*
G01Y205998D01*
G02X305200Y204000I-2500J-1998D01*
G02X302000Y200800I-3200J0D01*
G02X300002Y201500I0J3200D01*
G01X280036D01*
X262500Y183964D01*
Y178000D01*
X264000D01*
G02X265000Y177000I0J-1000D01*
G01Y169000D01*
G02X264000Y168000I-1000J0D01*
G01X256000D01*
G02X255857Y168010I0J1000D01*
G03X255400Y167614I-57J-396D01*
G01Y166580D01*
X260580Y161400D01*
X270600D01*
Y165000D01*
G02X271010Y165990I1400J0D01*
G01X275614Y170594D01*
X275548Y170724D01*
G02X275000Y173000I4452J2276D01*
G02X280000Y178000I5000J0D01*
G02X284630Y174889I0J-5000D01*
G03X285370I370J151D01*
G02X294630I4630J-1889D01*
G03X295370I370J151D01*
G02X304630I4630J-1889D01*
G03X305370I370J151D01*
G02X305616Y175404I4630J-1889D01*
G01X292612Y188408D01*
X280192D01*
G02X279202Y188818I0J1400D01*
G01X279046Y188973D01*
X278932Y188938D01*
G02X278000Y188800I-932J3062D01*
G02X281200Y192000I0J3200D01*
G02X281181Y191652I-3200J0D01*
G03X281579Y191208I398J-44D01*
G01X293192D01*
G02X294182Y190798I0J-1400D01*
G01X307594Y177386D01*
X307724Y177452D01*
G02X310000Y178000I2276J-4452D01*
G02Y168000I0J-5000D01*
G02X305370Y171111I0J5000D01*
G03X304630I-370J-151D01*
G02X295370I-4630J1889D01*
G03X294630I-370J-151D01*
G02X285370I-4630J1889D01*
G03X284630I-370J-151D01*
G02X280000Y168000I-4630J1889D01*
G02X277596Y168616I0J5000D01*
G01X273400Y164420D01*
Y162126D01*
X277990Y157536D01*
G02X278400Y156546I-990J-990D01*
G01Y126878D01*
G02X280200Y124000I-1400J-2878D01*
G02X273800I-3200J0D01*
G02X275600Y126878I3200J0D01*
G01Y129225D01*
X275225Y129322D01*
G02X274990Y129010I-1225J678D01*
G01X271027Y125046D01*
X271062Y124932D01*
G02X271200Y124000I-3062J-932D01*
G02X268000Y127200I-3200J0D01*
G02X268932Y127062I0J-3200D01*
G01X269046Y127027D01*
X272600Y130580D01*
Y156420D01*
X270420Y158600D01*
X260000D01*
G02X259010Y159010I0J1400D01*
G01X253010Y165010D01*
G02X252600Y166000I990J990D01*
G01Y186900D01*
G02X253010Y187890I1400J0D01*
G01X259029Y193910D01*
G03X258997Y194504I-283J283D01*
G02X257800Y197000I2003J2496D01*
G02X264200I3200J0D01*
G02X262506Y194176I-3200J0D01*
G01X262400Y194120D01*
Y193900D01*
G02X261990Y192910I-1400J0D01*
G01X255400Y186320D01*
Y178386D01*
G03X255857Y177990I400J0D01*
G02X256000Y178000I142J-990D01*
G01X257500D01*
Y185000D01*
G02X258232Y186768I2500J0D01*
G01X277232Y205768D01*
G02X279000Y206500I1768J-1768D01*
G01X299500D01*
Y228964D01*
X294964Y233500D01*
X27036D01*
X22500Y228964D01*
Y212536D01*
X22817Y212219D01*
G03X23500Y212502I283J283D01*
G01Y213000D01*
G02X24500Y214000I1000J0D01*
G01X25671D01*
G03X25880Y214741I0J400D01*
G02X23500Y219000I2620J4259D01*
G02X28500Y224000I5000J0D01*
G02X33130Y220889I0J-5000D01*
G03X33870I370J151D01*
G02X43130I4630J-1889D01*
G03X43870I370J151D01*
G02X48500Y224000I4630J-1889D01*
G02X53500Y219000I0J-5000D01*
G02X50389Y214370I-5000J0D01*
G03Y213630I151J-370D01*
G02X53500Y209000I-1889J-4630D01*
G02X48500Y204000I-5000J0D01*
G02X43870Y207111I0J5000D01*
G03X43130I-370J-151D01*
G02X38500Y204000I-4630J1889D01*
G02X34241Y206380I0J5000D01*
G03X33500Y206171I-341J-210D01*
G01Y205000D01*
G02X32500Y204000I-1000J0D01*
G01X24500D01*
G02X23500Y205000I0J1000D01*
G01Y206500D01*
X22500D01*
G02X20732Y207232I0J2500D01*
G01X18232Y209732D01*
G02X17500Y211500I1768J1768D01*
G01Y212343D01*
X17143D01*
X17106Y212192D01*
G02X9827Y206500I-7279J1809D01*
G02Y221500I0J7500D01*
G02X16732Y216929I0J-7500D01*
G03X17500Y217085I368J156D01*
G01Y230000D01*
G02X18232Y231768I2500J0D01*
G01X24232Y237768D01*
G37*
G54D25*
X238173Y21087D03*
X9827D03*
X238173Y214000D03*
G54D26*
X109710Y86520D03*
Y181790D03*
X14630D03*
Y86520D03*
G54D24*
X59000Y209000D03*
X265000Y215000D03*
X270000Y173000D03*
G54D27*
X204000Y84940D03*
G54D23*
Y183370D03*
%LPD*%
G75*
G54D10*
X9827Y21087D03*
Y214000D03*
X238173Y21087D03*
Y214000D03*
G54D20*
G01X54300Y209000D02*
X59000D01*
G01Y204300D02*
Y209000D01*
G01X178000Y167000D02*
X192000D01*
X207000Y152000D01*
X218000D01*
X220000Y154000D01*
X239000D01*
G01X236000Y145000D02*
X232000Y141000D01*
X211000D01*
X208000Y144000D01*
G01X268000Y124000D02*
X274000Y130000D01*
Y157000D01*
X271000Y160000D01*
X260000D01*
X254000Y166000D01*
Y186900D01*
X261000Y193900D01*
Y197000D01*
G01X260300Y215000D02*
X265000D01*
G01X277000Y124000D02*
Y156546D01*
X272000Y161546D01*
Y165000D01*
X280000Y173000D01*
G01X270000Y168300D02*
Y173000D01*
G01D02*
Y177700D01*
G01X278000Y192000D02*
X280192Y189808D01*
X293192D01*
X310000Y173000D01*
G01X265000Y210300D02*
Y215000D01*
G01D02*
Y219700D01*
G54D11*
X25000Y37000D03*
X24000Y17000D03*
X25000Y67000D03*
X14000Y117000D03*
Y157000D03*
Y137000D03*
Y227000D03*
X38000Y40000D03*
X44000Y17000D03*
X54000Y97000D03*
Y77000D03*
Y117000D03*
Y157000D03*
Y137000D03*
Y177000D03*
X70000Y35000D03*
X74000Y97000D03*
Y117000D03*
Y157000D03*
Y137000D03*
Y177000D03*
X59000Y198000D03*
X94000Y27000D03*
X93000Y49000D03*
X105000Y47000D03*
X94000Y97000D03*
Y117000D03*
X114000D03*
X94000Y137000D03*
Y157000D03*
X114000D03*
Y137000D03*
X130000Y55000D03*
X136000D03*
X134000Y97000D03*
Y77000D03*
Y117000D03*
Y157000D03*
Y137000D03*
X154000Y97000D03*
Y77000D03*
X176000Y102000D03*
X154000Y117000D03*
X176000Y134000D03*
X163000D03*
X176000Y150000D03*
X154000Y157000D03*
Y137000D03*
X168000Y178000D03*
X170000Y172000D03*
X186000Y40000D03*
Y25000D03*
X181000Y50000D03*
X178000Y167000D03*
X233000Y35000D03*
X214000Y17000D03*
Y37000D03*
X233000Y62000D03*
Y53000D03*
Y44000D03*
X214000Y57000D03*
X229000Y100000D03*
X211000D03*
X212000Y110000D03*
X229000Y109000D03*
Y148000D03*
X212000Y157000D03*
Y132000D03*
X208000Y144000D03*
X236000Y145000D03*
X212000Y167000D03*
X243000Y35000D03*
X258000Y69000D03*
X249000D03*
X240000D03*
X243000Y62000D03*
Y53000D03*
Y44000D03*
X250000Y99000D03*
X258000Y80000D03*
X249000D03*
X241000Y107000D03*
X258377Y133000D03*
X239000Y154000D03*
X238000Y162000D03*
X261000Y197000D03*
X255000Y216000D03*
X264000Y224000D03*
X268000Y69000D03*
X288000D03*
X269000Y85000D03*
X288000Y80000D03*
X268000Y124000D03*
Y107000D03*
X277000Y124000D03*
X284000Y136000D03*
X269000D03*
X280000Y183000D03*
X278000Y192000D03*
X280000Y198000D03*
X296000Y210000D03*
X294000Y227000D03*
X298000Y69000D03*
X308000D03*
X318000D03*
X327000D03*
X298000Y80000D03*
X308000D03*
X318000D03*
X327000D03*
X326000Y125000D03*
X313000Y107000D03*
X314000Y207000D03*
X302000Y204000D03*
X314000Y227000D03*
G54D21*
G01X28500Y209000D02*
X22500D01*
X20000Y211500D01*
Y230000D01*
X26000Y236000D01*
X296000D01*
X302000Y230000D01*
Y204000D01*
G01X176000Y134000D02*
X163000D01*
G01X238000Y162000D02*
X206000D01*
X190000Y178000D01*
X168000D01*
G01X302000Y204000D02*
X279000D01*
X260000Y185000D01*
Y173000D01*
G54D12*
X14630Y86520D03*
Y181790D03*
X109710Y86520D03*
Y181790D03*
G54D22*
G01X0Y240000D02*
Y0D01*
X332000D01*
Y240000D01*
X0D01*
G54D13*
X28500Y209000D03*
G54D14*
Y219000D03*
X38500Y209000D03*
Y219000D03*
X48500Y209000D03*
Y219000D03*
X59000Y209000D03*
Y219000D03*
X69000Y209000D03*
Y219000D03*
X79000Y209000D03*
Y219000D03*
X89000Y209000D03*
Y219000D03*
X99000Y209000D03*
Y219000D03*
X109000Y209000D03*
Y219000D03*
X119000Y209000D03*
Y219000D03*
X129000Y209000D03*
Y219000D03*
X139000Y209000D03*
Y219000D03*
X149000Y209000D03*
Y219000D03*
X159000Y209000D03*
Y219000D03*
X169000Y209000D03*
Y219000D03*
X179000Y209000D03*
Y219000D03*
X189000Y209000D03*
Y219000D03*
X199000Y209000D03*
Y219000D03*
X209000Y209000D03*
Y219000D03*
X219000Y209000D03*
Y219000D03*
X265000Y215000D03*
X270000Y173000D03*
X280000D03*
X290000D03*
X275000Y215000D03*
X300000Y173000D03*
X310000D03*
G54D15*
X204000Y84940D03*
G54D16*
Y183370D03*
G54D17*
X260000Y173000D03*
G54D18*
X280000Y54000D03*
G54D19*
X285000Y215000D03*
M02*
