G04 ================== begin FILE IDENTIFICATION RECORD ==================*
G04 Layout Name:  E:/0_Working/1_Hardware/17_LoraNode/tmp2/RAK833_RPIGATEWAY.brd*
G04 Film Name:    RAK833_SMASK_TOP.art*
G04 File Format:  Gerber RS274X*
G04 File Origin:  Cadence Allegro 17.2-S052*
G04 Origin Date:  Mon Jun 29 19:00:06 2020*
G04 *
G04 Layer:  PIN/SOLDERMASK_TOP*
G04 Layer:  PACKAGE GEOMETRY/SOLDERMASK_TOP*
G04 Layer:  BOARD GEOMETRY/OUTLINE*
G04 Layer:  BOARD GEOMETRY/SOLDERMASK_TOP*
G04 *
G04 Offset:    (0.000 0.000)*
G04 Mirror:    No*
G04 Mode:      Positive*
G04 Rotation:  0*
G04 FullContactRelief:  No*
G04 UndefLineWidth:     5.000*
G04 ================== end FILE IDENTIFICATION RECORD ====================*
%FSLAX25Y25*MOIN*%
%IR0*IPPOS*OFA0.00000B0.00000*MIA0B0*SFA1.00000B1.00000*%
%AMMACRO37*
4,1,22,-.027559,-.042319,
-.027559,.01476,
-.027141,.019546,
-.025898,.024186,
-.023869,.02854,
-.021114,.032475,
-.017717,.035873,
-.013783,.038629,
-.009429,.040659,
-.004789,.041903,
-.000004,.042323,
.004782,.041905,
.009422,.040662,
.013776,.038632,
.017712,.035878,
.021109,.032481,
.023865,.028547,
.025896,.024193,
.02714,.019553,
.027559,.014768,
.027559,.01476,
.027559,-.042319,
-.027559,-.042319,
0.0*
%
%ADD37MACRO37*%
%ADD20R,.04X.125*%
%ADD26R,.125X.04*%
%ADD11C,.14*%
%ADD25R,.04724X.11024*%
%ADD22R,.11024X.04724*%
%ADD30R,.131902X.0965*%
%AMMACRO33*
4,1,22,.02165,.03839,
.02165,-.016728,
.021322,-.020488,
.020346,-.024133,
.018752,-.027554,
.016588,-.030645,
.01392,-.033314,
.010829,-.03548,
.007409,-.037075,
.003764,-.038053,
.000004,-.038382,
-.003755,-.038054,
-.007401,-.037078,
-.010821,-.035484,
-.013913,-.03332,
-.016582,-.030652,
-.018747,-.027561,
-.020343,-.024141,
-.02132,-.020496,
-.02165,-.016737,
-.02165,-.016728,
-.02165,.03839,
.02165,.03839,
0.0*
%
%ADD33MACRO33*%
%AMMACRO31*
4,1,22,-.03839,.02165,
.016728,.02165,
.020488,.021322,
.024133,.020346,
.027554,.018752,
.030645,.016588,
.033314,.01392,
.03548,.010829,
.037075,.007409,
.038053,.003764,
.038382,.000004,
.038054,-.003755,
.037078,-.007401,
.035484,-.010821,
.03332,-.013913,
.030652,-.016582,
.027561,-.018747,
.024141,-.020343,
.020496,-.02132,
.016737,-.02165,
.016728,-.02165,
-.03839,-.02165,
-.03839,.02165,
0.0*
%
%ADD31MACRO31*%
%ADD24R,.07087X.23228*%
%ADD15C,.214598*%
%AMMACRO32*
4,1,22,-.042319,.027559,
.01476,.027559,
.019546,.027141,
.024186,.025898,
.02854,.023869,
.032475,.021114,
.035873,.017717,
.038629,.013783,
.040659,.009429,
.041903,.004789,
.042323,.000004,
.041905,-.004782,
.040662,-.009422,
.038632,-.013776,
.035878,-.017712,
.032481,-.021109,
.028547,-.023865,
.024193,-.025896,
.019553,-.02714,
.014768,-.027559,
.01476,-.027559,
-.042319,-.027559,
-.042319,.027559,
0.0*
%
%ADD32MACRO32*%
%ADD39R,.073X.02*%
%ADD17R,.038X.041*%
%ADD16R,.041X.038*%
%ADD43R,.051X.056*%
%ADD21R,.045X.027*%
%ADD23R,.036X.048*%
%ADD40C,.09*%
%ADD28C,.081*%
%ADD18R,.085X.085*%
%ADD41R,.085X.085*%
%ADD19C,.085*%
%ADD34R,.09X.09*%
%ADD13R,.08661X.062012*%
%ADD14R,.07874X.050201*%
%ADD12R,.058272X.02165*%
%AMMACRO42*
4,1,22,.03839,-.02165,
-.016728,-.02165,
-.020488,-.021322,
-.024133,-.020346,
-.027554,-.018752,
-.030645,-.016588,
-.033314,-.01392,
-.03548,-.010829,
-.037075,-.007409,
-.038053,-.003764,
-.038382,-.000004,
-.038054,.003755,
-.037078,.007401,
-.035484,.010821,
-.03332,.013913,
-.030652,.016582,
-.027561,.018747,
-.024141,.020343,
-.020496,.02132,
-.016737,.02165,
-.016728,.02165,
.03839,.02165,
.03839,-.02165,
0.0*
%
%ADD42MACRO42*%
%AMMACRO36*
4,1,22,-.02165,-.03839,
-.02165,.016728,
-.021322,.020488,
-.020346,.024133,
-.018752,.027554,
-.016588,.030645,
-.01392,.033314,
-.010829,.03548,
-.007409,.037075,
-.003764,.038053,
-.000004,.038382,
.003755,.038054,
.007401,.037078,
.010821,.035484,
.013913,.03332,
.016582,.030652,
.018747,.027561,
.020343,.024141,
.02132,.020496,
.02165,.016737,
.02165,.016728,
.02165,-.03839,
-.02165,-.03839,
0.0*
%
%ADD36MACRO36*%
%ADD29C,.061299*%
%ADD27R,.090598X.035402*%
%ADD10R,.07874X.097441*%
%AMMACRO38*
4,1,22,.042319,-.027559,
-.01476,-.027559,
-.019546,-.027141,
-.024186,-.025898,
-.02854,-.023869,
-.032475,-.021114,
-.035873,-.017717,
-.038629,-.013783,
-.040659,-.009429,
-.041903,-.004789,
-.042323,-.000004,
-.041905,.004782,
-.040662,.009422,
-.038632,.013776,
-.035878,.017712,
-.032481,.021109,
-.028547,.023865,
-.024193,.025896,
-.019553,.02714,
-.014768,.027559,
-.01476,.027559,
.042319,.027559,
.042319,-.027559,
0.0*
%
%ADD38MACRO38*%
%ADD35P,.142075X8X22.5*%
%ADD44C,.005*%
G75*
%LPD*%
G75*
G54D10*
X7764Y40533D03*
Y63467D03*
G54D11*
X9827Y21087D03*
Y214000D03*
X238173Y21087D03*
Y214000D03*
G54D20*
X70000Y44338D03*
Y67662D03*
G54D12*
X18236Y46882D03*
Y49441D03*
Y57118D03*
Y54559D03*
Y52000D03*
G54D21*
X113685Y66740D03*
Y59260D03*
Y63000D03*
X124315Y59260D03*
Y63000D03*
Y66740D03*
G54D30*
X217780Y76480D03*
Y191830D03*
G54D13*
X16819Y42305D03*
Y61695D03*
G54D40*
X270000Y173000D03*
X280000D03*
X290000D03*
X300000D03*
X310000D03*
G54D31*
X249839Y121307D03*
Y127213D03*
Y133118D03*
G54D22*
X93000Y66906D03*
Y55094D03*
G54D14*
X7764Y48703D03*
Y55297D03*
G54D41*
X285000Y215000D03*
G54D23*
X115600Y45000D03*
X128400D03*
G54D32*
X250232Y106543D03*
Y139024D03*
G54D42*
X298461Y127213D03*
Y121307D03*
Y115402D03*
Y133118D03*
G54D15*
X14630Y86520D03*
Y181790D03*
X109710Y86520D03*
Y181790D03*
G54D24*
X129748Y25000D03*
X148252D03*
G54D33*
X262339Y149161D03*
X268244D03*
X274150D03*
X280055D03*
X285961D03*
G54D34*
X260000Y173000D03*
G54D43*
X319500Y133000D03*
X312500D03*
G54D16*
X38000Y61000D03*
X32000D03*
X38000Y56000D03*
X32000D03*
X38000Y51000D03*
X32000D03*
X38000Y46000D03*
X32000D03*
X116000Y52000D03*
X122000D03*
X142000Y55000D03*
X133000Y62000D03*
X139000D03*
X133000Y67000D03*
X139000D03*
X148000Y55000D03*
X168000Y50000D03*
X174000D03*
X256000Y158000D03*
X262000D03*
Y163000D03*
X256000D03*
X280000Y85000D03*
X274000D03*
X280000Y69000D03*
X274000D03*
X292000Y200000D03*
X286000D03*
X313000Y139000D03*
X319000D03*
G54D25*
X137094Y46000D03*
X148906D03*
G54D44*
G01X0Y240000D02*
Y0D01*
X332000D01*
Y240000D01*
X0D01*
G54D35*
X280000Y54000D03*
G54D17*
X38000Y108000D03*
Y102000D03*
X105000Y58000D03*
Y52000D03*
Y64000D03*
Y70000D03*
X176000Y89000D03*
Y95000D03*
Y137000D03*
Y143000D03*
Y180000D03*
Y174000D03*
X235000Y126000D03*
X234000Y159000D03*
Y153000D03*
X235000Y132000D03*
X234000Y164000D03*
Y170000D03*
X260000Y187000D03*
Y193000D03*
X280000Y80000D03*
Y74000D03*
X311000Y116000D03*
Y122000D03*
X316000D03*
Y116000D03*
G54D26*
X162338Y32000D03*
X185662D03*
G54D27*
X187860Y89280D03*
Y92430D03*
Y95570D03*
Y98720D03*
Y123920D03*
Y120770D03*
Y117620D03*
Y114470D03*
Y101870D03*
Y105020D03*
Y108170D03*
Y111320D03*
Y127070D03*
Y130220D03*
Y133370D03*
Y136520D03*
Y139670D03*
Y142820D03*
Y145970D03*
Y149120D03*
Y152270D03*
Y155420D03*
Y158570D03*
Y161720D03*
Y164870D03*
Y168020D03*
Y171170D03*
Y174310D03*
Y177460D03*
Y180610D03*
X220140Y87700D03*
Y90850D03*
Y94000D03*
Y97150D03*
Y122350D03*
Y119200D03*
Y116050D03*
Y112900D03*
Y100300D03*
Y103450D03*
Y106600D03*
Y109750D03*
Y125500D03*
Y128650D03*
Y131800D03*
Y134950D03*
Y138100D03*
Y141250D03*
Y144400D03*
Y147550D03*
Y150700D03*
Y153850D03*
Y157000D03*
Y160150D03*
Y163300D03*
Y166450D03*
Y169600D03*
Y172740D03*
Y175890D03*
Y179040D03*
G54D36*
X280055Y96209D03*
G54D18*
X28500Y209000D03*
G54D19*
Y219000D03*
X38500Y209000D03*
Y219000D03*
X48500Y209000D03*
Y219000D03*
X59000Y209000D03*
Y219000D03*
X69000Y209000D03*
Y219000D03*
X79000Y209000D03*
Y219000D03*
X89000Y209000D03*
Y219000D03*
X99000Y209000D03*
Y219000D03*
X109000Y209000D03*
Y219000D03*
X119000Y209000D03*
Y219000D03*
X129000Y209000D03*
Y219000D03*
X139000Y209000D03*
Y219000D03*
X149000Y209000D03*
Y219000D03*
X159000Y209000D03*
Y219000D03*
X169000Y209000D03*
Y219000D03*
X179000Y209000D03*
Y219000D03*
X189000Y209000D03*
Y219000D03*
X199000Y209000D03*
Y219000D03*
X209000Y209000D03*
Y219000D03*
X219000Y209000D03*
Y219000D03*
X265000Y215000D03*
X275000D03*
G54D28*
X204000Y84940D03*
G54D37*
X273165Y96602D03*
G54D38*
X298067Y106543D03*
Y139024D03*
G54D29*
X204000Y183370D03*
G54D39*
X292880Y187720D03*
Y185160D03*
X269120D03*
Y187720D03*
X292880Y192840D03*
Y190280D03*
X269120D03*
Y192840D03*
M02*
