<?xml version="1.0" standalone="no"?>
<!DOCTYPE svg PUBLIC "-//W3C//DTD SVG 20010904//EN"
 "http://www.w3.org/TR/2001/REC-SVG-20010904/DTD/svg10.dtd">
<svg version="1.0" xmlns="http://www.w3.org/2000/svg"
 width="58pt" height="58pt" viewBox="0 0 58 58"
 preserveAspectRatio="xMidYMid meet">
<metadata>
Created by potrace 1.8, written by Peter Selinger 2001-2007
</metadata>
<g transform="translate(0,58) scale(0.004800,-0.004800)"
fill="#000000" stroke="none">
<path d="M1837 11629 c-9 -5 -26 -28 -37 -49 -26 -51 -45 -60 -125 -60 -57 0
-69 -3 -90 -25 l-25 -24 0 -1391 0 -1391 25 -24 24 -25 1571 0 1571 0 24 25
c21 20 25 34 25 84 0 76 12 101 60 131 47 29 60 56 60 120 0 64 13 91 59 120
21 12 48 40 61 60 13 20 40 48 61 60 20 13 47 41 59 62 28 49 46 58 120 58 75
0 94 10 120 60 11 22 29 44 39 50 11 5 74 10 141 10 67 0 130 5 141 10 10 6
28 28 39 50 11 22 29 44 39 50 25 13 257 13 282 0 10 -6 28 -28 39 -50 11 -22
29 -44 39 -50 11 -5 74 -10 141 -10 67 0 130 -5 140 -10 10 -6 28 -27 40 -48
12 -21 39 -49 59 -62 21 -12 48 -40 61 -60 13 -20 40 -47 60 -60 20 -13 47
-40 60 -60 13 -20 40 -47 60 -60 20 -13 47 -40 60 -60 13 -20 40 -48 61 -60
46 -29 59 -56 59 -120 0 -64 13 -91 60 -120 21 -13 43 -34 49 -47 15 -33 15
-713 0 -746 -6 -13 -28 -34 -49 -47 -47 -29 -60 -56 -60 -120 0 -64 -13 -91
-59 -120 -21 -12 -48 -40 -61 -60 -13 -20 -40 -47 -60 -60 -20 -13 -47 -40
-60 -60 -13 -20 -40 -48 -61 -60 -20 -13 -47 -41 -59 -62 -28 -49 -46 -58
-120 -58 -75 0 -94 -10 -120 -60 -11 -22 -29 -44 -39 -50 -27 -14 -735 -14
-762 0 -10 6 -28 28 -39 50 -26 50 -45 60 -120 60 -74 0 -92 9 -120 58 -12 21
-39 49 -59 62 -21 12 -48 40 -61 60 -13 20 -40 47 -60 60 -20 13 -47 40 -60
60 -13 20 -40 47 -60 60 -20 13 -47 40 -60 60 -13 20 -40 48 -61 60 -21 13
-42 34 -48 47 -6 13 -11 78 -11 144 0 114 -1 121 -25 144 l-24 25 -1571 0
-1571 0 -24 -25 -25 -24 0 -371 0 -371 25 -24 24 -25 846 0 c563 0 853 3 866
10 10 6 28 28 39 50 11 22 29 44 39 50 11 5 76 10 146 10 120 0 127 -1 150
-25 25 -24 25 -26 25 -215 0 -189 0 -191 -25 -215 -23 -24 -30 -25 -150 -25
-70 0 -135 5 -146 10 -10 6 -28 28 -39 50 -11 22 -29 44 -39 50 -13 7 -303 10
-866 10 l-846 0 -24 -25 -25 -24 0 -731 0 -731 25 -24 24 -25 426 0 c274 0
433 4 446 10 10 6 28 28 39 50 11 22 29 44 39 50 25 13 256 13 281 0 10 -6 28
-27 40 -48 12 -21 39 -49 60 -62 47 -29 60 -56 60 -120 0 -64 -13 -91 -60
-120 -21 -13 -48 -41 -60 -62 -12 -21 -30 -42 -40 -48 -25 -13 -256 -13 -281
0 -10 6 -28 28 -39 50 -11 22 -29 44 -39 50 -13 6 -172 10 -446 10 l-426 0
-24 -25 -25 -24 0 -851 0 -851 25 -24 24 -25 1086 0 c729 0 1093 3 1106 10 10
6 28 28 39 50 26 50 45 60 120 60 74 0 92 -9 120 -58 12 -21 39 -49 60 -62 47
-29 60 -56 60 -120 0 -64 -13 -91 -60 -120 -21 -13 -48 -41 -60 -62 -12 -21
-30 -42 -40 -48 -25 -13 -256 -13 -281 0 -10 6 -28 28 -39 50 -11 22 -29 44
-39 50 -13 7 -359 10 -1046 10 l-1026 0 -24 -25 -25 -24 0 -1320 c0 -919 3
-1327 11 -1344 6 -13 28 -34 49 -47 21 -13 48 -41 60 -62 12 -21 30 -42 40
-48 12 -6 219 -10 565 -10 l546 0 24 25 25 24 0 840 c0 577 -3 847 -11 864 -6
13 -28 34 -49 47 -47 29 -60 56 -60 120 0 64 13 91 60 120 21 13 48 41 60 62
12 21 30 42 40 48 10 5 75 10 145 10 120 0 127 -1 150 -25 24 -23 25 -30 25
-144 0 -66 -5 -131 -11 -144 -6 -13 -28 -34 -49 -47 -21 -13 -43 -34 -49 -47
-8 -17 -11 -287 -11 -864 l0 -840 25 -24 24 -25 908 0 c980 1 931 -2 953 54
13 36 14 815 0 850 -5 14 -27 38 -48 53 -22 16 -49 42 -60 59 -11 18 -40 45
-64 61 -55 37 -64 81 -22 110 74 50 84 67 84 138 0 57 3 69 25 90 23 24 29 25
155 25 126 0 132 -1 155 -25 22 -21 25 -33 25 -90 0 -71 10 -88 84 -138 42
-29 33 -73 -22 -110 -24 -16 -53 -43 -64 -61 -11 -17 -38 -43 -60 -59 -21 -15
-43 -39 -48 -53 -14 -35 -13 -814 0 -850 22 -56 -27 -53 950 -53 977 0 928 -3
950 53 13 36 14 1174 0 1210 -5 14 -27 38 -49 53 -49 35 -61 59 -61 129 0 59
-14 79 -84 127 -36 25 -36 70 1 94 25 17 71 62 113 111 18 21 27 22 145 22 70
0 135 -5 145 -10 10 -6 28 -27 40 -48 12 -21 39 -49 60 -62 47 -29 60 -56 60
-120 0 -64 -13 -91 -59 -120 -21 -12 -48 -39 -61 -59 -12 -20 -40 -48 -61 -64
-22 -15 -44 -39 -49 -53 -14 -36 -13 -1174 0 -1210 21 -54 17 -53 408 -54 232
0 370 4 383 10 10 6 28 28 39 50 11 22 29 44 39 50 12 6 95 10 201 10 106 0
189 4 201 10 10 6 28 28 39 50 26 50 45 60 120 60 75 0 94 10 120 60 26 50 45
60 120 60 75 0 94 10 120 60 26 51 45 60 128 60 54 0 72 4 85 18 26 28 21 68
-9 89 -15 10 -40 30 -55 45 l-29 26 0 716 c0 488 -3 723 -11 739 -6 13 -28 34
-49 47 -21 13 -43 34 -49 47 -7 14 -11 97 -11 204 0 178 0 180 25 204 23 24
30 25 150 25 70 0 135 -5 145 -10 10 -6 28 -27 40 -48 12 -21 39 -49 60 -62
21 -13 43 -34 49 -47 14 -31 14 -235 0 -266 -6 -13 -28 -34 -49 -47 -21 -13
-43 -34 -49 -47 -8 -16 -11 -236 -11 -687 0 -640 1 -663 19 -680 32 -29 71
-17 104 32 16 24 44 53 62 65 18 12 43 38 55 58 13 20 40 46 60 59 20 13 47
40 60 60 13 20 40 47 60 60 20 13 47 40 60 60 13 20 40 47 60 60 20 13 47 40
60 60 13 20 40 48 61 60 46 29 59 56 59 120 0 64 13 91 59 120 21 12 48 40 61
60 13 20 40 48 61 60 46 29 59 56 59 120 0 64 13 91 60 120 47 29 60 56 60
120 0 64 13 91 60 120 21 13 43 34 49 47 7 14 11 94 11 193 0 99 4 179 11 193
6 13 28 34 49 47 21 13 43 34 49 47 6 13 11 78 11 144 0 114 -1 121 -25 144
l-24 25 -1746 0 c-1147 0 -1753 -3 -1765 -10 -10 -6 -28 -27 -40 -48 -12 -21
-39 -49 -60 -62 -47 -29 -60 -56 -60 -120 0 -64 -13 -91 -59 -120 -21 -12 -48
-40 -61 -60 -13 -20 -40 -47 -60 -60 -20 -13 -47 -40 -60 -60 -13 -20 -40 -48
-61 -60 -20 -13 -47 -41 -59 -62 -28 -49 -46 -58 -120 -58 -75 0 -94 -10 -120
-60 -26 -50 -45 -60 -120 -60 -75 0 -94 -10 -120 -60 -11 -22 -29 -44 -39 -50
-25 -13 -257 -13 -282 0 -10 6 -28 28 -39 50 -11 22 -29 44 -39 50 -11 5 -74
10 -141 10 -67 0 -130 5 -141 10 -10 6 -28 28 -39 50 -26 50 -45 60 -120 60
-74 0 -92 9 -120 58 -12 21 -39 49 -59 62 -21 12 -48 40 -61 60 -13 20 -40 48
-61 60 -46 29 -59 56 -59 120 0 64 -13 91 -60 120 -47 29 -60 56 -60 120 0 64
-13 91 -60 120 -21 13 -43 34 -49 47 -15 32 -15 474 0 506 6 13 28 34 49 47
47 29 60 56 60 120 0 64 13 91 60 120 47 29 60 56 60 120 0 64 13 91 60 120
21 13 48 41 60 62 28 49 46 58 120 58 74 0 92 9 120 58 12 21 39 49 60 62 21
13 48 41 60 62 12 21 30 42 40 48 26 14 855 14 881 0 10 -6 28 -28 39 -50 26
-50 45 -60 120 -60 74 0 92 -9 120 -58 12 -21 39 -49 59 -62 21 -12 48 -40 61
-60 13 -20 40 -47 60 -60 20 -13 47 -40 60 -60 13 -20 40 -48 61 -60 46 -29
59 -56 59 -120 0 -64 13 -91 60 -120 48 -30 60 -55 60 -131 0 -50 4 -64 25
-84 l24 -25 1751 0 1751 0 24 25 25 24 0 300 c0 192 -4 309 -11 324 -6 13 -28
34 -49 47 -21 13 -43 34 -49 47 -7 14 -11 97 -11 204 0 178 0 180 -25 204
l-24 25 -474 0 c-296 0 -485 -4 -503 -10 -17 -6 -40 -27 -53 -49 -13 -21 -41
-49 -62 -61 -20 -13 -47 -41 -59 -62 -28 -49 -46 -58 -120 -58 -74 0 -92 9
-120 58 -12 21 -39 49 -60 62 -21 13 -43 34 -49 47 -6 13 -11 78 -11 144 0
114 1 121 25 144 21 22 33 25 93 25 74 0 83 5 125 70 19 29 29 35 57 35 29 0
38 -6 63 -43 16 -24 44 -53 62 -65 18 -12 43 -38 56 -59 13 -21 36 -42 53 -48
18 -6 187 -10 440 -10 356 0 415 2 434 16 32 22 30 68 -4 91 -70 48 -84 68
-84 127 0 71 -12 97 -60 126 -47 29 -60 56 -60 120 0 64 -13 91 -59 120 -21
12 -48 40 -61 60 -13 20 -40 47 -60 60 -20 13 -47 40 -60 60 -13 20 -40 48
-61 60 -46 29 -59 56 -59 120 0 64 -13 91 -59 119 -20 13 -46 38 -58 56 -12
18 -41 46 -65 62 -55 37 -64 81 -22 110 70 48 84 68 84 127 0 71 12 97 60 126
47 29 60 56 60 120 0 64 13 91 60 120 47 29 60 56 60 120 0 64 13 91 60 120
21 13 43 34 49 47 6 13 11 77 11 141 -1 126 -6 144 -54 162 -37 14 -1440 14
-1466 0 -10 -6 -28 -27 -40 -48 -11 -20 -36 -47 -54 -59 -19 -12 -47 -41 -63
-65 -25 -37 -34 -43 -63 -43 -29 0 -38 6 -63 43 -16 24 -44 53 -62 65 -18 12
-43 38 -55 58 -13 20 -40 47 -61 59 -46 29 -59 56 -59 120 0 64 13 91 60 120
21 13 48 41 60 62 12 21 30 42 40 48 10 5 73 10 140 10 67 0 130 -5 140 -10
10 -6 28 -27 40 -48 12 -21 39 -49 59 -62 21 -12 49 -40 62 -61 13 -22 36 -43
53 -49 19 -6 284 -10 743 -10 l714 0 24 25 25 24 0 600 c0 406 -3 608 -11 624
-6 13 -28 34 -49 47 -21 13 -43 34 -49 47 -6 13 -11 73 -11 133 0 60 -5 120
-11 133 -6 13 -28 34 -49 47 -21 13 -43 34 -49 47 -6 13 -11 73 -11 133 0 60
-5 120 -11 133 -6 13 -28 34 -49 47 -47 29 -60 56 -60 120 0 64 -13 91 -59
120 -21 12 -48 40 -61 60 -13 20 -40 48 -61 60 -46 29 -59 56 -59 120 0 62
-13 90 -54 117 -19 12 -47 41 -63 65 -33 49 -72 61 -104 32 -17 -15 -19 -32
-19 -140 0 -68 5 -134 11 -147 6 -13 28 -34 49 -47 21 -13 43 -34 49 -47 6
-13 11 -78 11 -144 0 -114 -1 -121 -25 -144 -24 -25 -26 -25 -215 -25 -256 0
-240 -15 -240 229 0 107 4 190 11 204 6 13 28 34 49 47 21 13 43 34 49 47 15
32 15 474 0 506 -6 13 -27 34 -48 47 -21 12 -48 40 -61 60 -13 20 -40 48 -61
60 -20 13 -47 41 -59 62 -28 49 -46 58 -120 58 -74 0 -92 9 -120 58 -12 21
-39 49 -60 62 -21 13 -48 41 -60 62 -12 21 -30 42 -40 48 -10 5 -73 10 -140
10 -67 0 -130 5 -141 10 -10 6 -28 28 -39 50 -26 50 -45 60 -120 60 -75 0 -94
10 -120 60 -11 22 -29 44 -39 50 -12 6 -134 10 -324 10 l-304 0 -24 -26 c-23
-25 -24 -31 -27 -198 -2 -102 1 -182 7 -199 6 -15 28 -39 50 -54 48 -34 61
-60 61 -123 0 -64 13 -91 60 -120 47 -29 60 -56 60 -120 0 -64 -13 -91 -60
-120 -21 -13 -48 -41 -60 -62 -28 -49 -46 -58 -120 -58 -74 0 -92 9 -120 58
-12 21 -38 49 -59 61 -20 13 -46 38 -58 56 -12 18 -41 46 -65 62 -37 25 -43
34 -43 63 0 29 6 38 43 63 24 16 53 44 65 62 12 18 38 43 58 56 21 13 42 33
48 46 7 15 11 132 11 324 l0 300 -25 24 -24 25 -908 0 c-980 -1 -931 2 -953
-54 -13 -36 -14 -935 0 -970 5 -14 27 -38 49 -53 22 -16 44 -38 50 -51 7 -14
11 -95 11 -203 0 -178 0 -180 -25 -204 -23 -24 -30 -25 -150 -25 -70 0 -135 5
-145 10 -10 6 -28 27 -40 48 -12 21 -39 49 -60 62 -47 29 -60 56 -60 120 0 64
13 91 59 120 21 12 48 39 61 59 12 20 40 48 61 64 22 15 44 39 49 53 14 35 13
934 0 970 -22 56 27 53 -953 54 l-908 0 -24 -25 -25 -24 0 -900 c0 -620 3
-907 11 -924 6 -13 28 -34 49 -47 21 -13 43 -34 49 -47 14 -31 14 -235 0 -266
-6 -13 -28 -34 -49 -47 -21 -13 -48 -41 -60 -62 -28 -49 -46 -58 -120 -58 -74
0 -92 9 -120 58 -12 21 -39 49 -60 62 -21 13 -43 34 -49 47 -6 13 -11 73 -11
133 0 60 5 120 11 133 6 13 28 34 49 47 21 13 43 34 49 47 8 17 11 304 11 924
l0 900 -25 24 -24 25 -488 0 c-314 0 -494 -4 -506 -11z"/>
<path d="M5558 9109 c-9 -5 -27 -26 -38 -47 -12 -21 -39 -49 -59 -62 -21 -12
-48 -40 -61 -60 -13 -20 -40 -47 -60 -60 -20 -13 -47 -40 -60 -60 -13 -20 -40
-48 -61 -60 -21 -13 -42 -34 -48 -47 -15 -33 -15 -593 0 -626 6 -13 28 -34 49
-47 47 -29 60 -56 60 -120 0 -64 13 -91 60 -120 21 -13 48 -41 60 -62 12 -21
30 -42 40 -48 10 -5 73 -10 140 -10 67 0 130 -5 141 -10 10 -6 28 -28 39 -50
11 -22 29 -44 39 -50 11 -5 74 -10 141 -10 67 0 130 5 141 10 10 6 28 28 39
50 26 50 45 60 120 60 74 0 92 9 120 58 12 21 39 49 59 62 21 12 48 40 61 60
13 20 40 48 61 60 21 13 42 34 48 47 6 13 11 73 11 133 0 60 5 120 11 133 6
13 28 34 49 47 47 29 60 56 60 120 0 64 -13 91 -60 120 -47 29 -60 56 -60 120
0 64 -13 91 -60 120 -48 30 -60 55 -60 131 0 50 -4 64 -25 84 -21 22 -33 25
-90 25 -80 0 -99 9 -125 60 -11 22 -29 44 -39 50 -26 13 -620 13 -643 -1z"/>
<path d="M5677 4429 c-9 -5 -26 -28 -37 -49 -26 -50 -45 -60 -120 -60 -74 0
-92 -9 -120 -58 -12 -21 -39 -49 -60 -62 -47 -29 -60 -56 -60 -120 0 -64 -13
-91 -60 -120 -21 -13 -43 -34 -49 -47 -7 -15 -11 -128 -11 -313 0 -185 4 -298
11 -313 6 -13 27 -34 48 -47 21 -12 48 -40 61 -60 13 -20 40 -47 60 -60 20
-13 47 -40 60 -60 13 -20 40 -48 61 -60 20 -13 47 -41 59 -62 12 -21 30 -42
40 -48 26 -14 615 -13 641 0 10 6 28 28 39 50 26 51 45 60 125 60 57 0 69 3
90 25 21 20 25 34 25 84 0 76 12 101 60 131 47 29 60 56 60 120 0 64 13 91 60
120 47 29 60 56 60 120 0 64 -13 91 -60 120 -21 13 -43 34 -49 47 -6 13 -11
73 -11 133 0 60 -5 120 -11 133 -6 13 -27 34 -48 47 -21 12 -48 40 -61 60 -13
20 -40 48 -61 60 -20 13 -47 41 -59 62 -28 49 -46 58 -120 58 -75 0 -94 10
-120 60 -11 22 -29 44 -39 50 -26 13 -380 13 -404 -1z"/>
</g>
</svg>
