G04 ================== begin FILE IDENTIFICATION RECORD ==================*
G04 Layout Name:  ZWAVE_BOOSTERPACK.brd*
G04 Film Name:    BOTTOM*
G04 File Format:  Gerber RS274X*
G04 File Origin:  Cadence Allegro 16.6-S049*
G04 Origin Date:  Thu Sep 26 01:35:45 2019*
G04 *
G04 Layer:  ETCH/BOTTOM*
G04 Layer:  PIN/BOTTOM*
G04 Layer:  VIA CLASS/BOTTOM*
G04 Layer:  BOARD GEOMETRY/OUTLINE*
G04 *
G04 Offset:    (0.000 0.000)*
G04 Mirror:    No*
G04 Mode:      Positive*
G04 Rotation:  0*
G04 FullContactRelief:  No*
G04 UndefLineWidth:     5.000*
G04 ================== end FILE IDENTIFICATION RECORD ====================*
%FSLAX25Y25*MOIN*%
%IR0*IPPOS*OFA0.00000B0.00000*MIA0B0*SFA1.00000B1.00000*%
%ADD12C,.1*%
%ADD21R,.1X.1*%
%ADD20C,.17*%
%AMMACRO10*
21,1,.1,.1,0.0,0.0,55.*%
%ADD10MACRO10*%
%ADD19R,.08X.08*%
%ADD16C,.04*%
%ADD18C,.08*%
%ADD15C,.085*%
%AMMACRO22*
21,1,.08,.08,0.0,0.0,45.*%
%ADD22MACRO22*%
%ADD13R,.08X.08*%
%ADD11C,.078*%
%ADD14R,.085X.085*%
%ADD17P,.127841X8X22.5*%
%ADD23C,.02*%
%ADD24C,.05*%
%ADD25C,.015*%
%ADD26C,.005*%
%ADD27R,.110004X.110004*%
G75*
%LPD*%
G75*
G36*
G01X18000Y96000D02*
X19000Y95000D01*
Y64000D01*
X16000Y61000D01*
X0D01*
X-4000Y57000D01*
Y37000D01*
X-8000Y33000D01*
X-40000D01*
X-48000Y41000D01*
Y59000D01*
X-46000Y61000D01*
X-12000D01*
X3000Y76000D01*
Y96000D01*
X18000D01*
G37*
G36*
G01X11750Y-57250D02*
X14932D01*
X39494Y-32688D01*
Y-18437D01*
G03X34994I-2250J2681D01*
G01Y-30824D01*
X29818Y-36000D01*
X22000D01*
X16000Y-30000D01*
Y-4000D01*
X20000Y0D01*
X59000D01*
X64000Y-5000D01*
Y-72000D01*
X60000Y-76000D01*
G02X27066Y-93352I-44465J44465D01*
G01X20000Y-86286D01*
Y-76000D01*
X16000Y-72000D01*
X-3000D01*
X-6000Y-69000D01*
Y-62000D01*
X-5000Y-61000D01*
X-2000D01*
X-1000Y-62000D01*
X-575D01*
Y-62266D01*
X-614Y-62319D01*
G03X6614I3614J-2681D01*
G01X6575Y-62266D01*
Y-62000D01*
X7000D01*
X11750Y-57250D01*
G37*
%LPC*%
G75*
G54D27*
X9842Y78000D03*
%LPD*%
G75*
G54D10*
X-59957Y-49049D03*
G54D11*
X-76020Y-21620D03*
Y25620D03*
X-20110Y2000D03*
X-27980Y25620D03*
G54D20*
X34000Y78000D03*
G54D21*
X9842D03*
G54D12*
X-27756Y-71597D03*
X-43832Y-60340D03*
X-9842Y78000D03*
G54D13*
X-27980Y-21620D03*
X13000Y24000D03*
G54D22*
X67071Y58929D03*
G54D23*
G01X3000Y-69700D02*
Y-65000D01*
G01X-1700D02*
X3000D01*
G01D02*
X7700D01*
G01X3000Y-19000D02*
Y-35000D01*
G01X5000Y-4000D02*
Y16000D01*
X13000Y24000D01*
G01X5000Y48100D02*
Y32000D01*
X13000Y24000D01*
G01X67071Y58929D02*
X63182Y55040D01*
X11940D01*
X5000Y48100D01*
G01X9842Y72300D02*
Y78000D01*
G01D02*
Y83700D01*
G01X4142Y78000D02*
X9842D01*
G01D02*
X15542D01*
G01X77000Y27000D02*
Y-16000D01*
X79000Y-18000D01*
Y-28000D01*
G54D14*
X-8000Y-15000D03*
G54D24*
G01X-27980Y25620D02*
X-41144D01*
X-55000Y39476D01*
Y65000D01*
X-50000Y70000D01*
X-17842D01*
X-9842Y78000D01*
G54D15*
X-8000Y25000D03*
G54D25*
G01X37244Y-15756D02*
Y-31756D01*
X14000Y-55000D01*
X3000D01*
G01X4000Y56000D02*
X0Y52000D01*
Y-8000D01*
X11000Y-19000D01*
Y-33000D01*
G01X33000Y24000D02*
Y18750D01*
X42750Y9000D01*
X65000D01*
X68000Y6000D01*
Y-41000D01*
X76000Y-49000D01*
G01X31270Y42280D02*
X37550Y36000D01*
X51000D01*
X63000Y24000D01*
G01X83000Y-37000D02*
Y-32000D01*
X84733Y-30268D01*
Y-16732D01*
X81000Y-13000D01*
Y2250D01*
X82750Y4000D01*
X88000D01*
G54D16*
X-25000Y35000D03*
X-15000D03*
X-7000Y36000D03*
X-8906Y59094D03*
X25000Y-87000D03*
Y-70000D03*
Y-60000D03*
X15000D03*
Y-70000D03*
X3000Y-19000D03*
X11000Y-33000D03*
X5000Y-4000D03*
X20000Y-10000D03*
X5000Y48100D03*
X15000Y65000D03*
X5000D03*
X4000Y56000D03*
X32000Y-87000D03*
X38000D03*
X32000Y-75000D03*
X55000Y-77000D03*
Y-72000D03*
Y-66000D03*
Y-60000D03*
Y-50000D03*
X45000D03*
X35000D03*
Y-60000D03*
Y-70000D03*
X30000Y-20000D03*
Y-30000D03*
X45000Y-40000D03*
X37244Y-15756D03*
X31270Y42280D03*
X76000Y-49000D03*
X79000Y-28000D03*
X60327Y-20976D03*
X83000Y-37000D03*
X77000Y27000D03*
G54D26*
G01X100500Y0D02*
G03I-100500J0D01*
G54D17*
X3000Y-84000D03*
G54D18*
G01X-27756Y-71597D02*
Y-53000D01*
X-76020Y-4736D01*
Y25620D01*
X3000Y-65000D03*
Y-55000D03*
Y-45000D03*
X23000Y24000D03*
X33000D03*
X43000D03*
X53000D03*
X60000Y66000D03*
X88000Y14000D03*
Y4000D03*
Y24000D03*
X63000D03*
G54D19*
X3000Y-35000D03*
X88000Y-6000D03*
M02*
