G04 ================== begin FILE IDENTIFICATION RECORD ==================*
G04 Layout Name:  ZWAVE_BOOSTERPACK.brd*
G04 Film Name:    PASTE_TOP*
G04 File Format:  Gerber RS274X*
G04 File Origin:  Cadence Allegro 16.6-S049*
G04 Origin Date:  Wed Sep 25 15:17:19 2019*
G04 *
G04 Layer:  PIN/PASTEMASK_TOP*
G04 Layer:  PACKAGE GEOMETRY/PASTEMASK_TOP*
G04 Layer:  BOARD GEOMETRY/OUTLINE*
G04 *
G04 Offset:    (0.000 0.000)*
G04 Mirror:    No*
G04 Mode:      Positive*
G04 Rotation:  0*
G04 FullContactRelief:  No*
G04 UndefLineWidth:     5.000*
G04 ================== end FILE IDENTIFICATION RECORD ====================*
%FSLAX25Y25*MOIN*%
%IR0*IPPOS*OFA0.00000B0.00000*MIA0B0*SFA1.00000B1.00000*%
%AMMACRO20*
4,1,21,-.027598,-.04235,
-.027598,.014748,
-.027173,.01954,
-.025922,.024185,
-.023883,.028542,
-.021119,.03248,
-.017713,.035877,
-.013769,.038631,
-.009407,.040659,
-.004759,.041898,
.000034,.042312,
.004826,.041887,
.009471,.040636,
.013829,.038597,
.017766,.035833,
.021163,.032427,
.023918,.028483,
.025945,.024121,
.027185,.019472,
.027598,.014748,
.027598,-.04235,
-.027598,-.04235,
0.0*
%
%ADD20MACRO20*%
%ADD11R,.098429X.035429*%
%AMMACRO22*
21,1,.035,.032,0.0,0.0,135.*%
%ADD22MACRO22*%
%AMMACRO23*
21,1,.045,.05,0.0,0.0,135.*%
%ADD23MACRO23*%
%ADD17R,.04724X.11024*%
%ADD12R,.11024X.04724*%
%AMMACRO21*
4,1,22,.021701,.038421,
.021701,-.016681,
.021377,-.02045,
.020403,-.024105,
.018809,-.027536,
.016644,-.030637,
.013973,-.033316,
.010878,-.03549,
.007452,-.037094,
.003799,-.038078,
.000031,-.038413,
-.003738,-.038089,
-.007393,-.037115,
-.010823,-.035522,
-.013925,-.033356,
-.016604,-.030685,
-.018778,-.02759,
-.020382,-.024164,
-.021366,-.020511,
-.021701,-.016744,
-.021701,-.016681,
-.021701,.038421,
.021701,.038421,
0.0*
%
%ADD21MACRO21*%
%AMMACRO16*
4,1,22,-.038421,.021701,
.016681,.021701,
.02045,.021377,
.024105,.020403,
.027536,.018809,
.030637,.016644,
.033316,.013973,
.03549,.010878,
.037094,.007452,
.038078,.003799,
.038413,.000031,
.038089,-.003738,
.037115,-.007393,
.035522,-.010823,
.033356,-.013925,
.030685,-.016604,
.02759,-.018778,
.024164,-.020382,
.020511,-.021366,
.016744,-.021701,
.016681,-.021701,
-.038421,-.021701,
-.038421,.021701,
0.0*
%
%ADD16MACRO16*%
%AMMACRO15*
4,1,21,-.04235,.027598,
.014748,.027598,
.01954,.027173,
.024185,.025922,
.028542,.023883,
.03248,.021119,
.035877,.017713,
.038631,.013769,
.040659,.009407,
.041898,.004759,
.042312,-.000034,
.041887,-.004826,
.040636,-.009471,
.038597,-.013829,
.035833,-.017766,
.032427,-.021163,
.028483,-.023918,
.024121,-.025945,
.019472,-.027185,
.014748,-.027598,
-.04235,-.027598,
-.04235,.027598,
0.0*
%
%ADD15MACRO15*%
%ADD14R,.032X.035*%
%ADD13R,.035X.032*%
%ADD18R,.065X.012*%
%ADD10R,.11811X.147642*%
%AMMACRO25*
4,1,22,.038421,-.021701,
-.016681,-.021701,
-.02045,-.021377,
-.024105,-.020403,
-.027536,-.018809,
-.030637,-.016644,
-.033316,-.013973,
-.03549,-.010878,
-.037094,-.007452,
-.038078,-.003799,
-.038413,-.000031,
-.038089,.003738,
-.037115,.007393,
-.035522,.010823,
-.033356,.013925,
-.030685,.016604,
-.02759,.018778,
-.024164,.020382,
-.020511,.021366,
-.016744,.021701,
-.016681,.021701,
.038421,.021701,
.038421,-.021701,
0.0*
%
%ADD25MACRO25*%
%AMMACRO19*
4,1,22,-.021701,-.038421,
-.021701,.016681,
-.021377,.02045,
-.020403,.024105,
-.018809,.027536,
-.016644,.030637,
-.013973,.033316,
-.010878,.03549,
-.007452,.037094,
-.003799,.038078,
-.000031,.038413,
.003738,.038089,
.007393,.037115,
.010823,.035522,
.013925,.033356,
.016604,.030685,
.018778,.02759,
.020382,.024164,
.021366,.020511,
.021701,.016744,
.021701,.016681,
.021701,-.038421,
-.021701,-.038421,
0.0*
%
%ADD19MACRO19*%
%AMMACRO24*
4,1,21,.04235,-.027598,
-.014748,-.027598,
-.01954,-.027173,
-.024185,-.025922,
-.028542,-.023883,
-.03248,-.021119,
-.035877,-.017713,
-.038631,-.013769,
-.040659,-.009407,
-.041898,-.004759,
-.042312,.000034,
-.041887,.004826,
-.040636,.009471,
-.038597,.013829,
-.035833,.017766,
-.032427,.021163,
-.028483,.023918,
-.024121,.025945,
-.019472,.027185,
-.014748,.027598,
.04235,.027598,
.04235,-.027598,
0.0*
%
%ADD24MACRO24*%
%ADD26C,.005*%
G75*
%LPD*%
G75*
G54D10*
X-68992Y50000D03*
G54D11*
X-43795Y40945D03*
Y59055D03*
Y50000D03*
G54D20*
X42165Y-63393D03*
G54D21*
X31339Y-10841D03*
X37244D03*
X43150D03*
X49055D03*
X54961D03*
G54D12*
X-30000Y39094D03*
Y50906D03*
Y70906D03*
Y59094D03*
G54D13*
X-7000Y-33000D03*
X-13000D03*
X16000Y-2000D03*
X22000D03*
X35000Y-81000D03*
X29000D03*
X36000Y11000D03*
X30000D03*
Y4000D03*
X36000D03*
G54D22*
X42879Y65121D03*
X47121Y60879D03*
G54D14*
X-6000Y-47000D03*
Y-41000D03*
X-17000Y44000D03*
Y50000D03*
X24000Y-81000D03*
Y-75000D03*
X10000Y38000D03*
Y44000D03*
Y50000D03*
Y56000D03*
X40000Y-81000D03*
Y-75000D03*
X81000Y-21000D03*
Y-15000D03*
X89000Y-21000D03*
Y-33000D03*
Y-27000D03*
Y-15000D03*
G54D23*
X59475Y49525D03*
X54525Y54475D03*
G54D24*
X67062Y-53457D03*
Y-20976D03*
G54D15*
X19237Y-53457D03*
Y-20976D03*
G54D25*
X67459Y-26882D03*
Y-32787D03*
Y-38693D03*
Y-44598D03*
G54D16*
X18841Y-38693D03*
Y-32787D03*
Y-26882D03*
G54D26*
G01X100500Y0D02*
G03I-100500J0D01*
G54D17*
X21906Y8000D03*
X10094D03*
G54D18*
X22120Y41160D03*
Y43720D03*
Y46280D03*
Y48840D03*
X45880D03*
Y46280D03*
Y43720D03*
Y41160D03*
G54D19*
X49055Y-63789D03*
M02*
