G04 ================== begin FILE IDENTIFICATION RECORD ==================*
G04 Layout Name:  E:/TTTN/ValveController/Hardware/allegro/VALVECONTROLLER.brd*
G04 Film Name:    ASSY_TOP*
G04 File Format:  Gerber RS274X*
G04 File Origin:  Cadence Allegro 16.6-S049*
G04 Origin Date:  Fri Nov 01 09:43:20 2019*
G04 *
G04 Layer:  REF DES/ASSEMBLY_TOP*
G04 Layer:  PACKAGE GEOMETRY/ASSEMBLY_TOP*
G04 Layer:  DRAWING FORMAT/OUTLINE*
G04 Layer:  BOARD GEOMETRY/OUTLINE*
G04 *
G04 Offset:    (0.000 0.000)*
G04 Mirror:    No*
G04 Mode:      Positive*
G04 Rotation:  0*
G04 FullContactRelief:  No*
G04 UndefLineWidth:     4.000*
G04 ================== end FILE IDENTIFICATION RECORD ====================*
%FSLAX25Y25*MOIN*%
%IR0*IPPOS*OFA0.00000B0.00000*MIA0B0*SFA1.00000B1.00000*%
%ADD10C,.005*%
%ADD11C,.006*%
%ADD12C,.005906*%
%ADD13C,.00787*%
%ADD14C,.001969*%
%ADD15C,.007874*%
%ADD16C,.009839*%
%ADD17C,.01*%
%ADD18C,.004*%
G75*
%LPD*%
G75*
G36*
G01X897000Y1029000D02*
Y1061500D01*
X812000D01*
Y1029000D01*
X897000D01*
G37*
G36*
G01D02*
Y1061500D01*
X812000D01*
Y1029000D01*
X897000D01*
G37*
G36*
G01X985000D02*
Y1061500D01*
X900000D01*
Y1029000D01*
X985000D01*
G37*
G36*
G01D02*
Y1061500D01*
X900000D01*
Y1029000D01*
X985000D01*
G37*
G36*
G01X1073000D02*
Y1061500D01*
X988000D01*
Y1029000D01*
X1073000D01*
G37*
G36*
G01D02*
Y1061500D01*
X988000D01*
Y1029000D01*
X1073000D01*
G37*
G36*
G01X1160000D02*
Y1061500D01*
X1075000D01*
Y1029000D01*
X1160000D01*
G37*
G36*
G01D02*
Y1061500D01*
X1075000D01*
Y1029000D01*
X1160000D01*
G37*
G54D10*
G01X812343Y1061000D02*
Y1029500D01*
G01X837342D02*
X896342D01*
Y1061000D01*
X837342D01*
G01X862750Y1184250D02*
G03Y1127750I-4455J-28250D01*
G01X891250Y1150750D02*
Y1149750D01*
X884250Y1142750D01*
Y1127750D01*
X862750D01*
G01Y1184250D02*
X884250D01*
Y1171250D01*
X891250Y1164250D01*
Y1162750D01*
G01X880000Y1197000D02*
X854000D01*
Y1216500D01*
X860500Y1223000D01*
X873500D01*
X880000Y1216500D01*
Y1197000D01*
G01X871000Y1195500D02*
Y1191500D01*
G01X871500Y1228500D02*
Y1224500D01*
G01X869500Y1226500D02*
X873500D01*
G01X900000Y1284000D02*
X874000D01*
Y1303500D01*
X880500Y1310000D01*
X893500D01*
X900000Y1303500D01*
Y1284000D01*
G01X900342Y1061000D02*
Y1029500D01*
G01X926000Y1219000D02*
X900000D01*
Y1238500D01*
X906500Y1245000D01*
X919500D01*
X926000Y1238500D01*
Y1219000D01*
G01X891000Y1282500D02*
Y1278500D01*
G01X891500Y1315500D02*
Y1311500D01*
G01X889500Y1313500D02*
X893500D01*
G01X925342Y1029500D02*
X984342D01*
Y1061000D01*
X925342D01*
G01X917000Y1217500D02*
Y1213500D01*
G01X917500Y1250500D02*
Y1246500D01*
G01X915500Y1248500D02*
X919500D01*
G01X981500Y1277500D02*
X985500D01*
G01X1020685Y1318748D02*
X981315D01*
Y1287252D01*
X1020685D01*
Y1318748D01*
G01X988342Y1061000D02*
Y1029500D01*
G01X1013000Y1286000D02*
Y1260000D01*
X993500D01*
X987000Y1266500D01*
Y1279500D01*
X993500Y1286000D01*
X1013000D01*
G01X983500Y1275500D02*
Y1279500D01*
G01X1013342Y1029500D02*
X1072342D01*
Y1061000D01*
X1013342D01*
G01X1014500Y1277000D02*
X1018500D01*
G01X1060500Y1177500D02*
Y1181000D01*
X1064000D01*
G01X1075342Y1061000D02*
Y1029500D01*
G01X1074500Y1164000D02*
Y1180000D01*
X1061500D01*
Y1164000D01*
X1074500D01*
G01X1100342Y1029500D02*
X1159342D01*
Y1061000D01*
X1100342D01*
G01X1255250Y1184000D02*
Y1254000D01*
X1180750D01*
Y1184000D01*
X1255250D01*
G01X1245450D02*
Y1254000D01*
G54D11*
G01X799571Y1035000D02*
G03I-7071J0D01*
G01Y1317500D02*
G03I-7071J0D01*
G01X833500Y1246000D02*
Y1240500D01*
X833000D01*
X826500D01*
Y1246000D01*
G01X827500Y1263000D02*
Y1267500D01*
X832500D01*
Y1263000D01*
G01Y1256500D02*
X827500D01*
G01D02*
Y1263000D01*
G01X826500Y1246000D02*
Y1253500D01*
X833500D01*
G01X823500Y1293000D02*
X818500D01*
G01X823500D02*
Y1299500D01*
G01X818500Y1293000D02*
Y1299500D01*
G01X821500Y1275500D02*
X820000D01*
G01X822000Y1290500D02*
X820000D01*
G01X821000Y1291500D02*
Y1289500D01*
G01X824500Y1282000D02*
Y1276500D01*
X824000D01*
X817500D01*
Y1282000D01*
G01X824500Y1289500D02*
Y1282000D01*
G01X817500D02*
Y1289500D01*
X824500D01*
G01X818500Y1299500D02*
Y1304000D01*
X823500D01*
Y1299500D01*
G01X819900Y1298100D02*
X822200D01*
G01X819900Y1298800D02*
X822200D01*
G01X846000Y1228500D02*
X841500D01*
Y1233500D01*
X846000D01*
G01X852500D02*
Y1228500D01*
G01Y1233500D02*
X846000D01*
G01X852500Y1228500D02*
X846000D01*
G01X847400Y1229900D02*
Y1232200D01*
G01X846700Y1229900D02*
Y1232200D01*
G01X848000Y1227500D02*
X852500D01*
Y1222500D01*
X848000D01*
G01X841500D02*
Y1227500D01*
G01Y1222500D02*
X848000D01*
G01X841500Y1227500D02*
X848000D01*
G01X846600Y1226100D02*
Y1223800D01*
G01X847300Y1226100D02*
Y1223800D01*
G01X830500Y1239500D02*
X829000D01*
G01X832500Y1256500D02*
Y1263000D01*
G01X828900Y1261600D02*
X831200D01*
G01X828900Y1262300D02*
X831200D01*
G01X831000Y1254500D02*
X829000D01*
G01X830000Y1255500D02*
Y1253500D01*
G01X833500D02*
Y1246000D01*
G01X839205Y1260103D02*
Y1246322D01*
X864795D01*
Y1260103D01*
X839205D01*
G01X880500Y1258000D02*
Y1253500D01*
X875500D01*
Y1258000D01*
G01Y1264500D02*
X880500D01*
G01X875500D02*
Y1258000D01*
G01X879100Y1259400D02*
X876800D01*
G01X879100Y1258700D02*
X876800D01*
G01X873500Y1258000D02*
Y1253500D01*
X868500D01*
Y1258000D01*
G01Y1264500D02*
X873500D01*
G01X868500D02*
Y1258000D01*
G01X873500Y1264500D02*
Y1258000D01*
G01X872100Y1259400D02*
X869800D01*
G01X872100Y1258700D02*
X869800D01*
G01X876000Y1272500D02*
X881500D01*
Y1272000D01*
Y1265500D01*
X876000D01*
G01D02*
X868500D01*
Y1272500D01*
G01X867500Y1270000D02*
Y1268000D01*
G01X866500Y1269000D02*
X868500D01*
G01Y1272500D02*
X876000D01*
G01X890000Y1173500D02*
X885500D01*
Y1178500D01*
X890000D01*
G01X896500D02*
Y1173500D01*
G01Y1178500D02*
X890000D01*
G01X896500Y1173500D02*
X890000D01*
G01X891400Y1174900D02*
Y1177200D01*
G01X890700Y1174900D02*
Y1177200D01*
G01X881500Y1259000D02*
Y1264500D01*
X882000D01*
X888500D01*
Y1259000D01*
G01X881500Y1251500D02*
Y1259000D01*
G01X888500D02*
Y1251500D01*
X881500D01*
G01X880500Y1264500D02*
Y1258000D01*
G01X889500Y1260000D02*
Y1264500D01*
X894500D01*
Y1260000D01*
G01Y1253500D02*
X889500D01*
G01X894500D02*
Y1260000D01*
G01X889500Y1253500D02*
Y1260000D01*
G01X890900Y1258600D02*
X893200D01*
G01X890900Y1259300D02*
X893200D01*
G01X908500Y1292000D02*
Y1286500D01*
X908000D01*
X901500D01*
Y1292000D01*
G01D02*
Y1299500D01*
X908500D01*
G01X882500Y1269500D02*
Y1268000D01*
G01X908000Y1303500D02*
X902500D01*
Y1304000D01*
Y1310500D01*
X908000D01*
G01X930000Y1071500D02*
X924500D01*
Y1072000D01*
Y1078500D01*
X930000D01*
G01X937500Y1071500D02*
X930000D01*
G01Y1078500D02*
X937500D01*
Y1071500D01*
G01X924500Y1086500D02*
X932000D01*
G01Y1079500D02*
X924500D01*
Y1086500D01*
G01X908500Y1299500D02*
Y1292000D01*
G01X915500Y1303500D02*
X908000D01*
G01Y1310500D02*
X915500D01*
Y1303500D01*
G01X926500Y1310500D02*
X934000D01*
G01Y1303500D02*
X926500D01*
Y1310500D01*
G01X932000Y1086500D02*
X937500D01*
Y1086000D01*
Y1079500D01*
X932000D01*
G01X955000Y1215500D02*
X950500D01*
Y1220500D01*
X955000D01*
G01X961500Y1215500D02*
X955000D01*
G01X960500Y1238500D02*
X955500D01*
G01D02*
Y1245000D01*
G01X961500Y1220500D02*
X955000D01*
G01X956400Y1216900D02*
Y1219200D01*
G01X955700Y1216900D02*
Y1219200D01*
G01X955500Y1245000D02*
Y1249500D01*
X960500D01*
Y1245000D01*
G01X956900Y1243600D02*
X959200D01*
G01X956900Y1244300D02*
X959200D01*
G01X948000Y1288500D02*
X942500D01*
Y1289000D01*
Y1295500D01*
X948000D01*
G01X955500Y1288500D02*
X948000D01*
G01Y1295500D02*
X955500D01*
Y1288500D01*
G01X940500Y1293000D02*
Y1287500D01*
X940000D01*
X933500D01*
Y1293000D01*
G01X940500Y1300500D02*
Y1293000D01*
G01X933500D02*
Y1300500D01*
X940500D01*
G01X942500Y1304000D02*
Y1309500D01*
X943000D01*
X949500D01*
Y1304000D01*
G01X942500Y1296500D02*
Y1304000D01*
G01X949500D02*
Y1296500D01*
X942500D01*
G01X934000Y1310500D02*
X939500D01*
Y1310000D01*
Y1303500D01*
X934000D01*
G01X987000Y1080500D02*
X979500D01*
Y1087500D01*
G01X985000Y1088500D02*
X979500D01*
Y1089000D01*
Y1095500D01*
X985000D01*
G01X979500Y1087500D02*
X987000D01*
G01X961500Y1220500D02*
Y1215500D01*
G01X960500Y1238500D02*
Y1245000D01*
G01X983500Y1233000D02*
Y1228500D01*
X978500D01*
Y1233000D01*
G01Y1239500D02*
X983500D01*
G01X978500D02*
Y1233000D01*
G01X982100Y1234400D02*
X979800D01*
G01X982100Y1233700D02*
X979800D01*
G01X968000Y1229500D02*
X972500D01*
Y1224500D01*
X968000D01*
G01X961500D02*
Y1229500D01*
G01Y1224500D02*
X968000D01*
G01X961500Y1229500D02*
X968000D01*
G01X966600Y1228100D02*
Y1225800D01*
G01X967300Y1228100D02*
Y1225800D01*
G01X970000Y1302500D02*
X975500D01*
Y1302000D01*
Y1295500D01*
X970000D01*
G01X962500Y1302500D02*
X970000D01*
G01Y1295500D02*
X962500D01*
Y1302500D01*
G01X987000Y1087500D02*
X992500D01*
Y1087000D01*
Y1080500D01*
X987000D01*
G01X992500Y1088500D02*
X985000D01*
G01Y1095500D02*
X992500D01*
Y1088500D01*
G01X1002000Y1211500D02*
X997500D01*
Y1216500D01*
X1002000D01*
G01X1008500D02*
Y1211500D01*
G01D02*
X1002000D01*
G01X1003400Y1212900D02*
Y1215200D01*
G01X1002700Y1212900D02*
Y1215200D01*
G01X983500Y1239500D02*
Y1233000D01*
G01X1008500Y1216500D02*
X1002000D01*
G01X1007500Y1226000D02*
Y1231500D01*
X1008000D01*
X1014500D01*
Y1226000D01*
G01X1007500Y1218500D02*
Y1226000D01*
G01X1014500D02*
Y1218500D01*
X1007500D01*
G01X1003000Y1258500D02*
X1007500D01*
Y1253500D01*
X1003000D01*
G01X996500D02*
Y1258500D01*
G01Y1253500D02*
X1003000D01*
G01X996500Y1258500D02*
X1003000D01*
G01X1001600Y1257100D02*
Y1254800D01*
G01X1002300Y1257100D02*
Y1254800D01*
G01X1033500Y1160000D02*
Y1155500D01*
X1028500D01*
Y1160000D01*
G01Y1166500D02*
Y1160000D01*
G01X1033500Y1166500D02*
Y1160000D01*
G01X1032100Y1161400D02*
X1029800D01*
G01X1032100Y1160700D02*
X1029800D01*
G01X1028500Y1166500D02*
X1033500D01*
G01Y1172000D02*
Y1167500D01*
X1028500D01*
Y1172000D01*
G01Y1178500D02*
X1033500D01*
G01X1028500D02*
Y1172000D01*
G01X1033500Y1178500D02*
Y1172000D01*
G01X1032100Y1173400D02*
X1029800D01*
G01X1032100Y1172700D02*
X1029800D01*
G01X1020000Y1228500D02*
X1015500D01*
Y1233500D01*
X1020000D01*
G01X1026500D02*
Y1228500D01*
G01Y1233500D02*
X1020000D01*
G01X1026500Y1228500D02*
X1020000D01*
G01X1021400Y1229900D02*
Y1232200D01*
G01X1020700Y1229900D02*
Y1232200D01*
G01X1034000Y1233500D02*
X1038500D01*
Y1228500D01*
X1034000D01*
G01X1027500D02*
Y1233500D01*
G01Y1228500D02*
X1034000D01*
G01X1027500Y1233500D02*
X1034000D01*
G01X1032600Y1232100D02*
Y1229800D01*
G01X1033300Y1232100D02*
Y1229800D01*
G01X1010500Y1232500D02*
X1012000D01*
G01X1010000Y1217500D02*
X1012000D01*
G01X1011000Y1216500D02*
Y1218500D01*
G01X1027000Y1253500D02*
X1022500D01*
Y1258500D01*
X1027000D01*
G01X1033500D02*
Y1253500D01*
G01Y1258500D02*
X1027000D01*
G01X1033500Y1253500D02*
X1027000D01*
G01X1028400Y1254900D02*
Y1257200D01*
G01X1027700Y1254900D02*
Y1257200D01*
G01X1021500Y1248500D02*
Y1250000D01*
G01X1028000Y1245500D02*
X1022500D01*
Y1246000D01*
Y1252500D01*
X1028000D01*
G01X1035500Y1245500D02*
X1028000D01*
G01Y1252500D02*
X1035500D01*
Y1245500D01*
G01X1028000Y1274500D02*
X1023500D01*
Y1279500D01*
X1028000D01*
G01X1034500D02*
Y1274500D01*
G01Y1279500D02*
X1028000D01*
G01X1034500Y1274500D02*
X1028000D01*
G01X1029400Y1275900D02*
Y1278200D01*
G01X1028700Y1275900D02*
Y1278200D01*
G01X1030000Y1274500D02*
X1034500D01*
Y1269500D01*
X1030000D01*
G01X1023500D02*
Y1274500D01*
G01Y1269500D02*
X1030000D01*
G01X1023500Y1274500D02*
X1030000D01*
G01X1028600Y1273100D02*
Y1270800D01*
G01X1029300Y1273100D02*
Y1270800D01*
G01X1041000Y1222000D02*
Y1210000D01*
X1103000D01*
Y1222000D01*
X1041000D01*
G01X1036500Y1248000D02*
Y1250000D01*
G01X1037500Y1249000D02*
X1035500D01*
G01X1087000Y1150500D02*
X1082500D01*
Y1155500D01*
X1087000D01*
G01X1066000Y1158500D02*
X1061500D01*
Y1163500D01*
X1066000D01*
G01X1072500D02*
Y1158500D01*
G01Y1163500D02*
X1066000D01*
G01X1072500Y1158500D02*
X1066000D01*
G01X1067400Y1159900D02*
Y1162200D01*
G01X1066700Y1159900D02*
Y1162200D01*
G01X1068000Y1191500D02*
X1072500D01*
Y1186500D01*
X1068000D01*
G01X1061500D02*
Y1191500D01*
G01Y1186500D02*
X1068000D01*
G01X1066600Y1190100D02*
Y1187800D01*
G01X1067300Y1190100D02*
Y1187800D01*
G01X1068000Y1186500D02*
X1072500D01*
Y1181500D01*
X1068000D01*
G01X1061500D02*
Y1186500D01*
G01Y1181500D02*
X1068000D01*
G01X1061500Y1186500D02*
X1068000D01*
G01X1066600Y1185100D02*
Y1182800D01*
G01X1067300Y1185100D02*
Y1182800D01*
G01X1090102Y1191835D02*
G03I-6102J0D01*
G01X1061500Y1191500D02*
X1068000D01*
G01Y1197500D02*
X1072500D01*
Y1192500D01*
X1068000D01*
G01X1061500D02*
Y1197500D01*
G01Y1192500D02*
X1068000D01*
G01X1061500Y1197500D02*
X1068000D01*
G01X1066600Y1196100D02*
Y1193800D01*
G01X1067300Y1196100D02*
Y1193800D01*
G01X1075000Y1309500D02*
X1079500D01*
Y1304500D01*
X1075000D01*
G01X1068500D02*
Y1309500D01*
G01Y1304500D02*
X1075000D01*
G01X1068500Y1309500D02*
X1075000D01*
G01X1073600Y1308100D02*
Y1305800D01*
G01X1074300Y1308100D02*
Y1305800D01*
G01X1069500Y1303000D02*
Y1298500D01*
X1064500D01*
Y1303000D01*
G01Y1309500D02*
X1069500D01*
G01X1064500D02*
Y1303000D01*
G01X1069500Y1309500D02*
Y1303000D01*
G01X1068100Y1304400D02*
X1065800D01*
G01X1068100Y1303700D02*
X1065800D01*
G01X1083500Y1303000D02*
Y1298500D01*
X1078500D01*
Y1303000D01*
G01Y1309500D02*
X1083500D01*
G01X1078500D02*
Y1303000D01*
G01X1083500Y1309500D02*
Y1303000D01*
G01X1082100Y1304400D02*
X1079800D01*
G01X1082100Y1303700D02*
X1079800D01*
G01X1116500Y1080500D02*
X1111500D01*
G01D02*
Y1087000D01*
G01D02*
Y1091500D01*
X1116500D01*
Y1087000D01*
G01X1107500Y1135000D02*
Y1139500D01*
X1112500D01*
Y1135000D01*
G01Y1128500D02*
X1107500D01*
G01D02*
Y1135000D01*
G01X1108900Y1133600D02*
X1111200D01*
G01X1108900Y1134300D02*
X1111200D01*
G01X1093500Y1155500D02*
Y1150500D01*
G01Y1155500D02*
X1087000D01*
G01X1093500Y1150500D02*
X1087000D01*
G01X1088400Y1151900D02*
Y1154200D01*
G01X1087700Y1151900D02*
Y1154200D01*
G01X1109500Y1205000D02*
Y1209500D01*
X1114500D01*
Y1205000D01*
G01Y1198500D02*
X1109500D01*
G01D02*
Y1205000D01*
G01X1110900Y1203600D02*
X1113200D01*
G01X1110900Y1204300D02*
X1113200D01*
G01X1102500Y1238000D02*
Y1242500D01*
X1107500D01*
Y1238000D01*
G01Y1231500D02*
X1102500D01*
G01X1107500D02*
Y1238000D01*
G01X1102500Y1231500D02*
Y1238000D01*
G01X1103900Y1236600D02*
X1106200D01*
G01X1103900Y1237300D02*
X1106200D01*
G01X1101500Y1236000D02*
Y1231500D01*
X1096500D01*
Y1236000D01*
G01Y1242500D02*
Y1236000D01*
G01X1101500Y1242500D02*
Y1236000D01*
G01X1100100Y1237400D02*
X1097800D01*
G01X1100100Y1236700D02*
X1097800D01*
G01X1096500Y1242500D02*
X1101500D01*
G01X1116500Y1080500D02*
Y1087000D01*
G01X1112900Y1085600D02*
X1115200D01*
G01X1112900Y1086300D02*
X1115200D01*
G01X1140500Y1111000D02*
Y1106500D01*
X1135500D01*
Y1111000D01*
G01Y1117500D02*
Y1111000D01*
G01X1139100Y1112400D02*
X1136800D01*
G01X1139100Y1111700D02*
X1136800D01*
G01X1112500Y1128500D02*
Y1135000D01*
G01X1135500Y1117500D02*
X1140500D01*
G01X1114500Y1198500D02*
Y1205000D01*
G01X1124500Y1203000D02*
Y1198500D01*
X1119500D01*
Y1203000D01*
G01Y1209500D02*
X1124500D01*
G01X1119500D02*
Y1203000D01*
G01X1124500Y1209500D02*
Y1203000D01*
G01X1123100Y1204400D02*
X1120800D01*
G01X1123100Y1203700D02*
X1120800D01*
G01X1135500Y1266500D02*
X1143000D01*
G01Y1259500D02*
X1135500D01*
Y1266500D01*
G01X1140500Y1117500D02*
Y1111000D01*
G01X1146500D02*
Y1106500D01*
X1141500D01*
Y1111000D01*
G01Y1117500D02*
Y1111000D01*
G01X1146500Y1117500D02*
Y1111000D01*
G01X1145100Y1112400D02*
X1142800D01*
G01X1145100Y1111700D02*
X1142800D01*
G01X1147500Y1133000D02*
Y1128500D01*
X1142500D01*
Y1133000D01*
G01Y1139500D02*
Y1133000D01*
G01X1147500Y1139500D02*
Y1133000D01*
G01X1146100Y1134400D02*
X1143800D01*
G01X1146100Y1133700D02*
X1143800D01*
G01X1141500Y1117500D02*
X1146500D01*
G01X1142500Y1139500D02*
X1147500D01*
G01X1149500Y1205000D02*
Y1209500D01*
X1154500D01*
Y1205000D01*
G01Y1198500D02*
X1149500D01*
G01X1154500D02*
Y1205000D01*
G01X1149500Y1198500D02*
Y1205000D01*
G01X1150900Y1203600D02*
X1153200D01*
G01X1150900Y1204300D02*
X1153200D01*
G01X1143000Y1266500D02*
X1148500D01*
Y1266000D01*
Y1259500D01*
X1143000D01*
G01X1175000Y1036500D02*
X1179500D01*
Y1031500D01*
X1175000D01*
G01X1168500D02*
Y1036500D01*
G01Y1031500D02*
X1175000D01*
G01X1173600Y1035100D02*
Y1032800D01*
G01X1174300Y1035100D02*
Y1032800D01*
G01X1188500Y1063000D02*
Y1058500D01*
X1183500D01*
Y1063000D01*
G01X1168500Y1036500D02*
X1175000D01*
G01Y1044500D02*
X1179500D01*
Y1039500D01*
X1175000D01*
G01X1168500D02*
Y1044500D01*
G01Y1039500D02*
X1175000D01*
G01X1173600Y1043100D02*
Y1040800D01*
G01X1174300Y1043100D02*
Y1040800D01*
G01X1167000Y1048500D02*
X1169000D01*
G01X1168000Y1047500D02*
Y1049500D01*
G01X1164500Y1057000D02*
Y1062500D01*
X1165000D01*
X1171500D01*
Y1057000D01*
G01X1164500Y1049500D02*
Y1057000D01*
G01X1171500D02*
Y1049500D01*
X1164500D01*
G01X1175000Y1048500D02*
X1177000D01*
G01X1176000Y1047500D02*
Y1049500D01*
G01X1172500Y1057000D02*
Y1062500D01*
X1173000D01*
X1179500D01*
Y1057000D01*
G01X1172500Y1049500D02*
Y1057000D01*
G01X1179500D02*
Y1049500D01*
X1172500D01*
G01X1183500Y1069500D02*
X1188500D01*
G01X1183500D02*
Y1063000D01*
G01X1188500Y1069500D02*
Y1063000D01*
G01X1187100Y1064400D02*
X1184800D01*
G01X1187100Y1063700D02*
X1184800D01*
G01X1188500Y1075000D02*
Y1070500D01*
X1183500D01*
Y1075000D01*
G01Y1081500D02*
X1188500D01*
G01X1183500D02*
Y1075000D01*
G01X1188500Y1081500D02*
Y1075000D01*
G01X1187100Y1076400D02*
X1184800D01*
G01X1187100Y1075700D02*
X1184800D01*
G01X1167500Y1063500D02*
X1169000D01*
G01X1175500D02*
X1177000D01*
G01X1188500Y1100000D02*
Y1095500D01*
X1183500D01*
Y1100000D01*
G01Y1106500D02*
X1188500D01*
G01X1183500D02*
Y1100000D01*
G01X1188500Y1106500D02*
Y1100000D01*
G01X1187100Y1101400D02*
X1184800D01*
G01X1187100Y1100700D02*
X1184800D01*
G01X1188500Y1112000D02*
Y1107500D01*
X1183500D01*
Y1112000D01*
G01Y1118500D02*
Y1112000D01*
G01X1188500Y1118500D02*
Y1112000D01*
G01X1183500Y1118500D02*
X1188500D01*
G01X1187100Y1113400D02*
X1184800D01*
G01X1187100Y1112700D02*
X1184800D01*
G01X1187500Y1150000D02*
Y1145500D01*
X1182500D01*
Y1150000D01*
G01Y1156500D02*
X1187500D01*
G01X1182500D02*
Y1150000D01*
G01X1187500Y1156500D02*
Y1150000D01*
G01X1186100Y1151400D02*
X1183800D01*
G01X1186100Y1150700D02*
X1183800D01*
G01X1187500Y1162000D02*
Y1157500D01*
X1182500D01*
Y1162000D01*
G01Y1168500D02*
Y1162000D01*
G01X1187500Y1168500D02*
Y1162000D01*
G01X1186100Y1163400D02*
X1183800D01*
G01X1186100Y1162700D02*
X1183800D01*
G01X1182500Y1168500D02*
X1187500D01*
G01X1212500Y1266000D02*
Y1271500D01*
X1213000D01*
X1219500D01*
Y1266000D01*
G01X1212500Y1258500D02*
Y1266000D01*
G01X1219500D02*
Y1258500D01*
X1212500D01*
G01X1209500Y1274500D02*
Y1279500D01*
G01Y1274500D02*
X1216000D01*
G01X1209500Y1279500D02*
X1216000D01*
G01X1214600Y1278100D02*
Y1275800D01*
G01X1215300Y1278100D02*
Y1275800D01*
G01X1209500Y1280500D02*
Y1285500D01*
G01Y1280500D02*
X1216000D01*
G01X1209500Y1285500D02*
X1216000D01*
G01X1214600Y1284100D02*
Y1281800D01*
G01X1215300Y1284100D02*
Y1281800D01*
G01X1209500Y1286500D02*
Y1291500D01*
G01Y1286500D02*
X1216000D01*
G01X1209500Y1291500D02*
X1216000D01*
G01X1214600Y1290100D02*
Y1287800D01*
G01X1215300Y1290100D02*
Y1287800D01*
G01X1209500Y1292500D02*
Y1297500D01*
G01Y1292500D02*
X1216000D01*
G01X1209500Y1297500D02*
X1216000D01*
G01X1214600Y1296100D02*
Y1293800D01*
G01X1215300Y1296100D02*
Y1293800D01*
G01X1254209Y1264041D02*
X1233342D01*
Y1293963D01*
X1254209D01*
Y1294553D01*
X1255902D01*
Y1263450D01*
X1254209D01*
Y1264041D01*
G01X1216000Y1279500D02*
X1220500D01*
Y1274500D01*
X1216000D01*
G01Y1285500D02*
X1220500D01*
Y1280500D01*
X1216000D01*
G01Y1291500D02*
X1220500D01*
Y1286500D01*
X1216000D01*
G01Y1297500D02*
X1220500D01*
Y1292500D01*
X1216000D01*
G01X1269571Y1035000D02*
G03I-7071J0D01*
G01Y1317500D02*
G03I-7071J0D01*
G54D12*
G01X1091457Y1238543D02*
Y1292087D01*
X1042244D01*
Y1238543D01*
X1091457D01*
G54D13*
G01X886685Y1242693D02*
Y1229307D01*
X897315D01*
Y1242693D01*
X886685D01*
G01X977453Y1313894D02*
X956547D01*
Y1312900D01*
G01Y1305100D02*
Y1304106D01*
X977453D01*
Y1305000D01*
G01Y1313000D02*
Y1313894D01*
G01X996307Y1241685D02*
X1009693D01*
Y1252315D01*
X996307D01*
Y1241685D01*
G54D14*
G01X1041520Y1286181D02*
G03I-1245J0D01*
G54D15*
G01X935094Y1222220D02*
X927220D01*
Y1249780D01*
X935094D01*
G01X919220Y1259189D02*
Y1284780D01*
X927094D01*
G01X919220Y1259189D02*
Y1257220D01*
X927094D01*
G01X954780Y1247811D02*
Y1222220D01*
X946906D01*
G01X938906Y1284780D02*
X946780D01*
Y1257220D01*
X938906D01*
G01X954780Y1247811D02*
Y1249780D01*
X946906D01*
G01X949008Y1259008D02*
X974992D01*
Y1279874D01*
X969874Y1284992D01*
X954126D01*
X949008Y1279874D01*
Y1259008D01*
G54D16*
G01X979685Y1304300D02*
G02I-492J0D01*
G54D17*
G01X1002000Y1200000D02*
Y1191000D01*
X1001000Y1190000D01*
X1002000Y1189000D01*
Y1181000D01*
X1001000Y1180000D01*
X1002000Y1179000D01*
Y1171000D01*
X1001000Y1170000D01*
X1002000Y1169000D01*
Y1161000D01*
X1001000Y1160000D01*
X1002000Y1159000D01*
Y1150000D01*
X1001000Y1149000D01*
X991000D01*
X990000Y1150000D01*
Y1159000D01*
X991000Y1160000D01*
X990000Y1161000D01*
Y1169000D01*
X991000Y1170000D01*
X990000Y1171000D01*
Y1179000D01*
X991000Y1180000D01*
X990000Y1181000D01*
Y1189000D01*
X991000Y1190000D01*
X990000Y1191000D01*
Y1200000D01*
X991000Y1201000D01*
X1001000D01*
X1002000Y1200000D01*
G01X1103047Y1314382D02*
X1108953D01*
X1113382Y1309953D01*
Y1304047D01*
X1108953Y1299618D01*
X1103047D01*
X1098618Y1304047D01*
Y1309953D01*
X1103047Y1314382D01*
G01X1162000Y1312000D02*
X1171000D01*
X1172000Y1311000D01*
X1173000Y1312000D01*
X1181000D01*
X1182000Y1311000D01*
X1183000Y1312000D01*
X1191000D01*
X1192000Y1311000D01*
X1193000Y1312000D01*
X1201000D01*
X1202000Y1311000D01*
X1203000Y1312000D01*
X1212000D01*
X1213000Y1311000D01*
Y1301000D01*
X1212000Y1300000D01*
X1203000D01*
X1202000Y1301000D01*
X1201000Y1300000D01*
X1193000D01*
X1192000Y1301000D01*
X1191000Y1300000D01*
X1183000D01*
X1182000Y1301000D01*
X1181000Y1300000D01*
X1173000D01*
X1172000Y1301000D01*
X1171000Y1300000D01*
X1162000D01*
X1161000Y1301000D01*
Y1311000D01*
X1162000Y1312000D01*
G54D18*
G01X782000Y1024000D02*
X1274000D01*
Y1329000D01*
X782000D01*
Y1024000D01*
G01X786667Y1032500D02*
Y1037500D01*
X788400Y1033333D01*
X790133Y1037500D01*
Y1032500D01*
G01X791100D02*
Y1037500D01*
G01X793900D02*
Y1032500D01*
G01Y1035000D02*
X791100D01*
G01X795133Y1032333D02*
X798067Y1036000D01*
G01X796600Y1036667D02*
Y1031667D01*
G01X798067Y1032333D02*
X795133Y1036000D01*
G01X794600Y1034167D02*
X798600D01*
G01X786667Y1315000D02*
Y1320000D01*
X788400Y1315833D01*
X790133Y1320000D01*
Y1315000D01*
G01X791100D02*
Y1320000D01*
G01X793900D02*
Y1315000D01*
G01Y1317500D02*
X791100D01*
G01X796600Y1315000D02*
Y1320000D01*
X795800Y1319000D01*
G01Y1315000D02*
X797400D01*
G01X819000Y1286293D02*
X822100D01*
Y1285527D01*
X821945Y1285220D01*
X821738Y1284990D01*
X821428Y1284798D01*
X821067Y1284645D01*
X820550Y1284607D01*
X820033Y1284645D01*
X819672Y1284798D01*
X819362Y1284990D01*
X819155Y1285220D01*
X819000Y1285527D01*
Y1286293D01*
G01Y1282427D02*
X819672Y1282350D01*
X820240Y1282235D01*
X820757Y1282082D01*
X821325Y1281890D01*
X822100Y1281583D01*
Y1283117D01*
G01X823534Y1293933D02*
X820434D01*
Y1294892D01*
X820589Y1295198D01*
X820796Y1295390D01*
X821209Y1295467D01*
X821622Y1295390D01*
X821880Y1295160D01*
X822036Y1294892D01*
Y1293933D01*
G01Y1294892D02*
X823534Y1295467D01*
G01Y1297800D02*
X820434D01*
X821054Y1297340D01*
G01X823534D02*
Y1298260D01*
G01Y1300900D02*
X820434D01*
X821054Y1300440D01*
G01X823534D02*
Y1301360D01*
G01X836552Y1077514D02*
X838774D01*
X839239Y1077668D01*
X839549Y1077974D01*
X839652Y1078358D01*
X839549Y1078741D01*
X839239Y1079048D01*
X838774Y1079201D01*
X836552D01*
G01X839652Y1081458D02*
X839600Y1081726D01*
X839445Y1082032D01*
X839187Y1082224D01*
X838825Y1082301D01*
X838464Y1082224D01*
X838154Y1081994D01*
X837999Y1081649D01*
Y1081266D01*
X837895Y1081036D01*
X837637Y1080844D01*
X837275Y1080768D01*
X836914Y1080882D01*
X836655Y1081151D01*
X836552Y1081458D01*
X836655Y1081764D01*
X836914Y1082032D01*
X837275Y1082148D01*
X837637Y1082071D01*
X837895Y1081879D01*
X837999Y1081649D01*
Y1081266D01*
X838154Y1080921D01*
X838464Y1080691D01*
X838825Y1080614D01*
X839187Y1080691D01*
X839445Y1080882D01*
X839600Y1081189D01*
X839652Y1081458D01*
G01X844043Y1232308D02*
X843813Y1232463D01*
X843545Y1232566D01*
X843238D01*
X842893Y1232411D01*
X842625Y1232153D01*
X842433Y1231843D01*
X842280Y1231326D01*
X842242Y1230861D01*
X842318Y1230396D01*
X842433Y1230086D01*
X842663Y1229776D01*
X842932Y1229569D01*
X843200Y1229466D01*
X843468D01*
X843737Y1229569D01*
X843967Y1229724D01*
X844158Y1229931D01*
G01X846300Y1229466D02*
Y1232566D01*
X845840Y1231946D01*
G01Y1229466D02*
X846760D01*
G01X848557Y1229931D02*
X848787Y1229673D01*
X849055Y1229518D01*
X849400Y1229466D01*
X849745Y1229569D01*
X850013Y1229776D01*
X850205Y1230138D01*
X850243Y1230551D01*
X850167Y1230964D01*
X849975Y1231223D01*
X849707Y1231429D01*
X849438Y1231481D01*
X849170Y1231429D01*
X848825Y1231223D01*
X848940Y1232566D01*
X849975D01*
G01X844043Y1226308D02*
X843813Y1226463D01*
X843545Y1226566D01*
X843238D01*
X842893Y1226411D01*
X842625Y1226153D01*
X842433Y1225843D01*
X842280Y1225326D01*
X842242Y1224861D01*
X842318Y1224396D01*
X842433Y1224086D01*
X842663Y1223776D01*
X842932Y1223569D01*
X843200Y1223466D01*
X843468D01*
X843737Y1223569D01*
X843967Y1223724D01*
X844158Y1223931D01*
G01X846300Y1223466D02*
Y1226566D01*
X845840Y1225946D01*
G01Y1223466D02*
X846760D01*
G01X848672Y1224758D02*
X848940Y1225120D01*
X849170Y1225326D01*
X849477Y1225429D01*
X849745Y1225326D01*
X849937Y1225120D01*
X850090Y1224809D01*
X850128Y1224448D01*
X850090Y1224138D01*
X849937Y1223828D01*
X849707Y1223569D01*
X849438Y1223466D01*
X849132Y1223569D01*
X848863Y1223879D01*
X848710Y1224344D01*
X848672Y1224861D01*
X848748Y1225533D01*
X848863Y1225894D01*
X849055Y1226256D01*
X849323Y1226514D01*
X849592Y1226566D01*
X849860Y1226463D01*
X850052Y1226204D01*
G01X831534Y1259433D02*
X828434D01*
Y1260392D01*
X828589Y1260698D01*
X828796Y1260890D01*
X829209Y1260967D01*
X829622Y1260890D01*
X829880Y1260660D01*
X830036Y1260392D01*
Y1259433D01*
G01Y1260392D02*
X831534Y1260967D01*
G01Y1263300D02*
X831482Y1263568D01*
X831327Y1263875D01*
X831069Y1264067D01*
X830707Y1264143D01*
X830346Y1264067D01*
X830036Y1263837D01*
X829880Y1263492D01*
Y1263108D01*
X829777Y1262878D01*
X829519Y1262687D01*
X829157Y1262610D01*
X828796Y1262725D01*
X828537Y1262993D01*
X828434Y1263300D01*
X828537Y1263607D01*
X828796Y1263875D01*
X829157Y1263990D01*
X829519Y1263913D01*
X829777Y1263722D01*
X829880Y1263492D01*
Y1263108D01*
X830036Y1262763D01*
X830346Y1262533D01*
X830707Y1262457D01*
X831069Y1262533D01*
X831327Y1262725D01*
X831482Y1263032D01*
X831534Y1263300D01*
G01X832000Y1243307D02*
X828900D01*
Y1244073D01*
X829055Y1244380D01*
X829262Y1244610D01*
X829572Y1244802D01*
X829933Y1244955D01*
X830450Y1244993D01*
X830967Y1244955D01*
X831328Y1244802D01*
X831638Y1244610D01*
X831845Y1244380D01*
X832000Y1244073D01*
Y1243307D01*
G01Y1247710D02*
X828900D01*
X831122Y1246292D01*
Y1248208D01*
G01X849094Y1254600D02*
Y1252378D01*
X849248Y1251913D01*
X849554Y1251603D01*
X849938Y1251500D01*
X850321Y1251603D01*
X850628Y1251913D01*
X850781Y1252378D01*
Y1254600D01*
G01X852194Y1252120D02*
X852424Y1251758D01*
X852731Y1251552D01*
X853076Y1251500D01*
X853383Y1251552D01*
X853690Y1251810D01*
X853881Y1252120D01*
X853920Y1252430D01*
X853843Y1252792D01*
X853574Y1253050D01*
X853306Y1253153D01*
X852961D01*
G01X853306D02*
X853536Y1253308D01*
X853728Y1253567D01*
X853804Y1253877D01*
X853728Y1254187D01*
X853536Y1254445D01*
X853191Y1254600D01*
X852846Y1254548D01*
X852501Y1254342D01*
G01X840694Y1244439D02*
G03I-681J0D01*
G01X833300Y1277800D02*
X868700D01*
Y1334800D01*
G01X833300Y1277800D02*
Y1334800D01*
G01X852380Y1298383D02*
X852690Y1298575D01*
X852897Y1298805D01*
X853000Y1299073D01*
X852897Y1299380D01*
X852690Y1299610D01*
X852380Y1299840D01*
X851967Y1299917D01*
X849900D01*
G01X853000Y1302250D02*
X849900D01*
X850520Y1301790D01*
G01X853000D02*
Y1302710D01*
G01X833300Y1334800D02*
X868700D01*
G01X859959Y1046880D02*
X859767Y1047190D01*
X859538Y1047397D01*
X859269Y1047500D01*
X858962Y1047397D01*
X858733Y1047190D01*
X858502Y1046880D01*
X858426Y1046467D01*
Y1044400D01*
G01X856169Y1047500D02*
X856092Y1046828D01*
X855978Y1046260D01*
X855824Y1045743D01*
X855633Y1045175D01*
X855326Y1044400D01*
X856859D01*
G01X881957Y1176692D02*
X882187Y1176537D01*
X882455Y1176434D01*
X882762D01*
X883107Y1176589D01*
X883375Y1176847D01*
X883567Y1177157D01*
X883720Y1177674D01*
X883758Y1178139D01*
X883682Y1178604D01*
X883567Y1178914D01*
X883337Y1179224D01*
X883068Y1179431D01*
X882800Y1179534D01*
X882532D01*
X882263Y1179431D01*
X882033Y1179276D01*
X881842Y1179069D01*
G01X880428Y1176951D02*
X880198Y1176641D01*
X879930Y1176486D01*
X879623Y1176434D01*
X879240Y1176537D01*
X878972Y1176796D01*
X878895Y1177106D01*
X878933Y1177416D01*
X879087Y1177674D01*
X879853Y1178191D01*
X880198Y1178552D01*
X880428Y1179069D01*
X880505Y1179534D01*
X878895D01*
G01X877328Y1176951D02*
X877098Y1176641D01*
X876830Y1176486D01*
X876523Y1176434D01*
X876140Y1176537D01*
X875872Y1176796D01*
X875795Y1177106D01*
X875833Y1177416D01*
X875987Y1177674D01*
X876753Y1178191D01*
X877098Y1178552D01*
X877328Y1179069D01*
X877405Y1179534D01*
X875795D01*
G01X862350Y1169943D02*
X860128D01*
X859663Y1169790D01*
X859353Y1169483D01*
X859250Y1169100D01*
X859353Y1168717D01*
X859663Y1168410D01*
X860128Y1168257D01*
X862350D01*
G01X859715Y1166843D02*
X859457Y1166613D01*
X859302Y1166345D01*
X859250Y1166000D01*
X859353Y1165655D01*
X859560Y1165387D01*
X859922Y1165195D01*
X860335Y1165157D01*
X860748Y1165233D01*
X861007Y1165425D01*
X861213Y1165693D01*
X861265Y1165962D01*
X861213Y1166230D01*
X861007Y1166575D01*
X862350Y1166460D01*
Y1165425D01*
G01X868842Y1211507D02*
X868997Y1211737D01*
X869100Y1212005D01*
Y1212312D01*
X868945Y1212657D01*
X868687Y1212925D01*
X868377Y1213117D01*
X867860Y1213270D01*
X867395Y1213308D01*
X866930Y1213232D01*
X866620Y1213117D01*
X866310Y1212887D01*
X866103Y1212618D01*
X866000Y1212350D01*
Y1212082D01*
X866103Y1211813D01*
X866258Y1211583D01*
X866465Y1211392D01*
G01X866000Y1209250D02*
X869100D01*
X868480Y1209710D01*
G01X866000D02*
Y1208790D01*
G01Y1206227D02*
X866672Y1206150D01*
X867240Y1206035D01*
X867757Y1205882D01*
X868325Y1205690D01*
X869100Y1205383D01*
Y1206917D01*
G01X878842Y1262007D02*
X878997Y1262237D01*
X879100Y1262505D01*
Y1262812D01*
X878945Y1263157D01*
X878687Y1263425D01*
X878377Y1263617D01*
X877860Y1263770D01*
X877395Y1263808D01*
X876930Y1263732D01*
X876620Y1263617D01*
X876310Y1263387D01*
X876103Y1263118D01*
X876000Y1262850D01*
Y1262582D01*
X876103Y1262313D01*
X876258Y1262083D01*
X876465Y1261892D01*
G01X876000Y1259750D02*
X879100D01*
X878480Y1260210D01*
G01X876000D02*
Y1259290D01*
G01Y1256190D02*
X879100D01*
X876878Y1257608D01*
Y1255692D01*
G01X868466Y1261567D02*
X871566D01*
Y1260608D01*
X871411Y1260302D01*
X871204Y1260110D01*
X870791Y1260033D01*
X870378Y1260110D01*
X870120Y1260340D01*
X869964Y1260608D01*
Y1261567D01*
G01Y1260608D02*
X868466Y1260033D01*
G01X868828Y1258352D02*
X868569Y1258083D01*
X868466Y1257777D01*
X868569Y1257470D01*
X868879Y1257202D01*
X869344Y1257010D01*
X869809Y1256933D01*
X870378D01*
X870843Y1257010D01*
X871256Y1257202D01*
X871463Y1257432D01*
X871566Y1257700D01*
X871463Y1258007D01*
X871256Y1258237D01*
X870946Y1258390D01*
X870533Y1258467D01*
X870171Y1258390D01*
X869809Y1258198D01*
X869603Y1257968D01*
X869551Y1257700D01*
X869654Y1257393D01*
X869913Y1257163D01*
X870378Y1256933D01*
G01X871707Y1267000D02*
Y1270100D01*
X872473D01*
X872780Y1269945D01*
X873010Y1269738D01*
X873202Y1269428D01*
X873355Y1269067D01*
X873393Y1268550D01*
X873355Y1268033D01*
X873202Y1267672D01*
X873010Y1267362D01*
X872780Y1267155D01*
X872473Y1267000D01*
X871707D01*
G01X874807Y1267465D02*
X875037Y1267207D01*
X875305Y1267052D01*
X875650Y1267000D01*
X875995Y1267103D01*
X876263Y1267310D01*
X876455Y1267672D01*
X876493Y1268085D01*
X876417Y1268498D01*
X876225Y1268757D01*
X875957Y1268963D01*
X875688Y1269015D01*
X875420Y1268963D01*
X875075Y1268757D01*
X875190Y1270100D01*
X876225D01*
G01X892086Y1237470D02*
X892241Y1237700D01*
X892344Y1237968D01*
Y1238275D01*
X892189Y1238620D01*
X891931Y1238888D01*
X891621Y1239080D01*
X891104Y1239233D01*
X890639Y1239271D01*
X890174Y1239195D01*
X889864Y1239080D01*
X889554Y1238850D01*
X889347Y1238581D01*
X889244Y1238313D01*
Y1238045D01*
X889347Y1237776D01*
X889502Y1237546D01*
X889709Y1237355D01*
G01X889244Y1235213D02*
X892344D01*
X891724Y1235673D01*
G01X889244D02*
Y1234753D01*
G01X892344Y1232113D02*
X892241Y1232420D01*
X891982Y1232650D01*
X891673Y1232803D01*
X891259Y1232918D01*
X890794Y1232956D01*
X890329Y1232918D01*
X889916Y1232803D01*
X889606Y1232650D01*
X889347Y1232420D01*
X889244Y1232113D01*
X889347Y1231806D01*
X889606Y1231576D01*
X889916Y1231423D01*
X890329Y1231308D01*
X890794Y1231270D01*
X891259Y1231308D01*
X891673Y1231423D01*
X891982Y1231576D01*
X892241Y1231806D01*
X892344Y1232113D01*
G01X885842Y1261207D02*
X885997Y1261437D01*
X886100Y1261705D01*
Y1262012D01*
X885945Y1262357D01*
X885687Y1262625D01*
X885377Y1262817D01*
X884860Y1262970D01*
X884395Y1263008D01*
X883930Y1262932D01*
X883620Y1262817D01*
X883310Y1262587D01*
X883103Y1262318D01*
X883000Y1262050D01*
Y1261782D01*
X883103Y1261513D01*
X883258Y1261283D01*
X883465Y1261092D01*
G01X883000Y1258950D02*
X886100D01*
X885480Y1259410D01*
G01X883000D02*
Y1258490D01*
G01X883620Y1256693D02*
X883258Y1256463D01*
X883052Y1256157D01*
X883000Y1255812D01*
X883052Y1255505D01*
X883310Y1255198D01*
X883620Y1255007D01*
X883930Y1254968D01*
X884292Y1255045D01*
X884550Y1255313D01*
X884653Y1255582D01*
Y1255927D01*
G01Y1255582D02*
X884808Y1255352D01*
X885067Y1255160D01*
X885377Y1255083D01*
X885687Y1255160D01*
X885945Y1255352D01*
X886100Y1255697D01*
X886048Y1256042D01*
X885842Y1256387D01*
G01X892692Y1268043D02*
X892537Y1267813D01*
X892434Y1267545D01*
Y1267238D01*
X892589Y1266893D01*
X892847Y1266625D01*
X893157Y1266433D01*
X893674Y1266280D01*
X894139Y1266242D01*
X894604Y1266318D01*
X894914Y1266433D01*
X895224Y1266663D01*
X895431Y1266932D01*
X895534Y1267200D01*
Y1267468D01*
X895431Y1267737D01*
X895276Y1267967D01*
X895069Y1268158D01*
G01X895534Y1270300D02*
X892434D01*
X893054Y1269840D01*
G01X895534D02*
Y1270760D01*
G01X892951Y1272672D02*
X892641Y1272902D01*
X892486Y1273170D01*
X892434Y1273477D01*
X892537Y1273860D01*
X892796Y1274128D01*
X893106Y1274205D01*
X893416Y1274167D01*
X893674Y1274013D01*
X894191Y1273247D01*
X894552Y1272902D01*
X895069Y1272672D01*
X895534Y1272595D01*
Y1274205D01*
G01X906842Y1294207D02*
X906997Y1294437D01*
X907100Y1294705D01*
Y1295012D01*
X906945Y1295357D01*
X906687Y1295625D01*
X906377Y1295817D01*
X905860Y1295970D01*
X905395Y1296008D01*
X904930Y1295932D01*
X904620Y1295817D01*
X904310Y1295587D01*
X904103Y1295318D01*
X904000Y1295050D01*
Y1294782D01*
X904103Y1294513D01*
X904258Y1294283D01*
X904465Y1294092D01*
G01X904620Y1292793D02*
X904258Y1292563D01*
X904052Y1292257D01*
X904000Y1291912D01*
X904052Y1291605D01*
X904310Y1291298D01*
X904620Y1291107D01*
X904930Y1291068D01*
X905292Y1291145D01*
X905550Y1291413D01*
X905653Y1291682D01*
Y1292027D01*
G01Y1291682D02*
X905808Y1291452D01*
X906067Y1291260D01*
X906377Y1291183D01*
X906687Y1291260D01*
X906945Y1291452D01*
X907100Y1291797D01*
X907048Y1292142D01*
X906842Y1292487D01*
G01X888842Y1298507D02*
X888997Y1298737D01*
X889100Y1299005D01*
Y1299312D01*
X888945Y1299657D01*
X888687Y1299925D01*
X888377Y1300117D01*
X887860Y1300270D01*
X887395Y1300308D01*
X886930Y1300232D01*
X886620Y1300117D01*
X886310Y1299887D01*
X886103Y1299618D01*
X886000Y1299350D01*
Y1299082D01*
X886103Y1298813D01*
X886258Y1298583D01*
X886465Y1298392D01*
G01X888583Y1296978D02*
X888893Y1296748D01*
X889048Y1296480D01*
X889100Y1296173D01*
X888997Y1295790D01*
X888738Y1295522D01*
X888428Y1295445D01*
X888118Y1295483D01*
X887860Y1295637D01*
X887343Y1296403D01*
X886982Y1296748D01*
X886465Y1296978D01*
X886000Y1297055D01*
Y1295445D01*
G01X932207Y1073158D02*
X932437Y1073003D01*
X932705Y1072900D01*
X933012D01*
X933357Y1073055D01*
X933625Y1073313D01*
X933817Y1073623D01*
X933970Y1074140D01*
X934008Y1074605D01*
X933932Y1075070D01*
X933817Y1075380D01*
X933587Y1075690D01*
X933318Y1075897D01*
X933050Y1076000D01*
X932782D01*
X932513Y1075897D01*
X932283Y1075742D01*
X932092Y1075535D01*
G01X930793Y1075380D02*
X930563Y1075742D01*
X930257Y1075948D01*
X929912Y1076000D01*
X929605Y1075948D01*
X929298Y1075690D01*
X929107Y1075380D01*
X929068Y1075070D01*
X929145Y1074708D01*
X929413Y1074450D01*
X929682Y1074347D01*
X930027D01*
G01X929682D02*
X929452Y1074192D01*
X929260Y1073933D01*
X929183Y1073623D01*
X929260Y1073313D01*
X929452Y1073055D01*
X929797Y1072900D01*
X930142Y1072952D01*
X930487Y1073158D01*
G01X927693Y1075535D02*
X927463Y1075793D01*
X927195Y1075948D01*
X926850Y1076000D01*
X926505Y1075897D01*
X926237Y1075690D01*
X926045Y1075328D01*
X926007Y1074915D01*
X926083Y1074502D01*
X926275Y1074243D01*
X926543Y1074037D01*
X926812Y1073985D01*
X927080Y1074037D01*
X927425Y1074243D01*
X927310Y1072900D01*
X926275D01*
G01X929793Y1084842D02*
X929563Y1084997D01*
X929295Y1085100D01*
X928988D01*
X928643Y1084945D01*
X928375Y1084687D01*
X928183Y1084377D01*
X928030Y1083860D01*
X927992Y1083395D01*
X928068Y1082930D01*
X928183Y1082620D01*
X928413Y1082310D01*
X928682Y1082103D01*
X928950Y1082000D01*
X929218D01*
X929487Y1082103D01*
X929717Y1082258D01*
X929908Y1082465D01*
G01X931207Y1082620D02*
X931437Y1082258D01*
X931743Y1082052D01*
X932088Y1082000D01*
X932395Y1082052D01*
X932702Y1082310D01*
X932893Y1082620D01*
X932932Y1082930D01*
X932855Y1083292D01*
X932587Y1083550D01*
X932318Y1083653D01*
X931973D01*
G01X932318D02*
X932548Y1083808D01*
X932740Y1084067D01*
X932817Y1084377D01*
X932740Y1084687D01*
X932548Y1084945D01*
X932203Y1085100D01*
X931858Y1085048D01*
X931513Y1084842D01*
G01X934422Y1083292D02*
X934690Y1083653D01*
X934920Y1083860D01*
X935227Y1083963D01*
X935495Y1083860D01*
X935687Y1083653D01*
X935840Y1083343D01*
X935878Y1082982D01*
X935840Y1082672D01*
X935687Y1082362D01*
X935457Y1082103D01*
X935188Y1082000D01*
X934882Y1082103D01*
X934613Y1082413D01*
X934460Y1082878D01*
X934422Y1083395D01*
X934498Y1084067D01*
X934613Y1084428D01*
X934805Y1084790D01*
X935073Y1085048D01*
X935342Y1085100D01*
X935610Y1084997D01*
X935802Y1084738D01*
G01X914842Y1234007D02*
X914997Y1234237D01*
X915100Y1234505D01*
Y1234812D01*
X914945Y1235157D01*
X914687Y1235425D01*
X914377Y1235617D01*
X913860Y1235770D01*
X913395Y1235808D01*
X912930Y1235732D01*
X912620Y1235617D01*
X912310Y1235387D01*
X912103Y1235118D01*
X912000Y1234850D01*
Y1234582D01*
X912103Y1234313D01*
X912258Y1234083D01*
X912465Y1233892D01*
G01X912000Y1231750D02*
X915100D01*
X914480Y1232210D01*
G01X912000D02*
Y1231290D01*
G01Y1228650D02*
X915100D01*
X914480Y1229110D01*
G01X912000D02*
Y1228190D01*
G01X912200Y1275800D02*
X915800D01*
Y1258200D01*
X912200D01*
Y1275800D01*
G01X921393Y1291900D02*
Y1294122D01*
X921240Y1294587D01*
X920933Y1294897D01*
X920550Y1295000D01*
X920167Y1294897D01*
X919860Y1294587D01*
X919707Y1294122D01*
Y1291900D01*
G01X917450Y1295000D02*
Y1291900D01*
X917910Y1292520D01*
G01Y1295000D02*
X916990D01*
G01X922000Y1301004D02*
X916000D01*
Y1288996D01*
X922000D01*
Y1301004D01*
G01X923200Y1275893D02*
X926300D01*
Y1275127D01*
X926145Y1274820D01*
X925938Y1274590D01*
X925628Y1274398D01*
X925267Y1274245D01*
X924750Y1274207D01*
X924233Y1274245D01*
X923872Y1274398D01*
X923562Y1274590D01*
X923355Y1274820D01*
X923200Y1275127D01*
Y1275893D01*
G01X925783Y1272678D02*
X926093Y1272448D01*
X926248Y1272180D01*
X926300Y1271873D01*
X926197Y1271490D01*
X925938Y1271222D01*
X925628Y1271145D01*
X925318Y1271183D01*
X925060Y1271337D01*
X924543Y1272103D01*
X924182Y1272448D01*
X923665Y1272678D01*
X923200Y1272755D01*
Y1271145D01*
G01X912917Y1309000D02*
Y1305900D01*
X911958D01*
X911652Y1306055D01*
X911460Y1306262D01*
X911383Y1306675D01*
X911460Y1307088D01*
X911690Y1307347D01*
X911958Y1307502D01*
X912917D01*
G01X911958D02*
X911383Y1309000D01*
G01X909050D02*
Y1305900D01*
X909510Y1306520D01*
G01Y1309000D02*
X908590D01*
G01X929083Y1305000D02*
Y1308100D01*
X930042D01*
X930348Y1307945D01*
X930540Y1307738D01*
X930617Y1307325D01*
X930540Y1306912D01*
X930310Y1306653D01*
X930042Y1306498D01*
X929083D01*
G01X930042D02*
X930617Y1305000D01*
G01X933410D02*
Y1308100D01*
X931992Y1305878D01*
X933908D01*
G01X957959Y1044880D02*
X957767Y1045190D01*
X957538Y1045397D01*
X957269Y1045500D01*
X956962Y1045397D01*
X956732Y1045190D01*
X956502Y1044880D01*
X956426Y1044467D01*
Y1042400D01*
G01X954092Y1045500D02*
X953824Y1045448D01*
X953517Y1045293D01*
X953326Y1045035D01*
X953249Y1044673D01*
X953326Y1044312D01*
X953556Y1044002D01*
X953901Y1043847D01*
X954284D01*
X954514Y1043743D01*
X954706Y1043485D01*
X954783Y1043123D01*
X954667Y1042762D01*
X954399Y1042503D01*
X954092Y1042400D01*
X953786Y1042503D01*
X953517Y1042762D01*
X953402Y1043123D01*
X953479Y1043485D01*
X953671Y1043743D01*
X953901Y1043847D01*
X954284D01*
X954629Y1044002D01*
X954859Y1044312D01*
X954936Y1044673D01*
X954859Y1045035D01*
X954667Y1045293D01*
X954361Y1045448D01*
X954092Y1045500D01*
G01X944000Y1110883D02*
X940900D01*
Y1111842D01*
X941055Y1112148D01*
X941262Y1112340D01*
X941675Y1112417D01*
X942088Y1112340D01*
X942347Y1112110D01*
X942502Y1111842D01*
Y1110883D01*
G01Y1111842D02*
X944000Y1112417D01*
G01X941417Y1114022D02*
X941107Y1114252D01*
X940952Y1114520D01*
X940900Y1114827D01*
X941003Y1115210D01*
X941262Y1115478D01*
X941572Y1115555D01*
X941882Y1115517D01*
X942140Y1115363D01*
X942657Y1114597D01*
X943018Y1114252D01*
X943535Y1114022D01*
X944000Y1113945D01*
Y1115555D01*
G01Y1117773D02*
X943328Y1117850D01*
X942760Y1117965D01*
X942243Y1118118D01*
X941675Y1118310D01*
X940900Y1118617D01*
Y1117083D01*
G01X934000Y1129117D02*
X937100D01*
Y1128158D01*
X936945Y1127852D01*
X936738Y1127660D01*
X936325Y1127583D01*
X935912Y1127660D01*
X935653Y1127890D01*
X935498Y1128158D01*
Y1129117D01*
G01Y1128158D02*
X934000Y1127583D01*
G01X936583Y1125978D02*
X936893Y1125748D01*
X937048Y1125480D01*
X937100Y1125173D01*
X936997Y1124790D01*
X936738Y1124522D01*
X936428Y1124445D01*
X936118Y1124483D01*
X935860Y1124637D01*
X935343Y1125403D01*
X934982Y1125748D01*
X934465Y1125978D01*
X934000Y1126055D01*
Y1124445D01*
G01Y1122150D02*
X934052Y1121882D01*
X934207Y1121575D01*
X934465Y1121383D01*
X934827Y1121307D01*
X935188Y1121383D01*
X935498Y1121613D01*
X935653Y1121958D01*
Y1122342D01*
X935757Y1122572D01*
X936015Y1122763D01*
X936377Y1122840D01*
X936738Y1122725D01*
X936997Y1122457D01*
X937100Y1122150D01*
X936997Y1121843D01*
X936738Y1121575D01*
X936377Y1121460D01*
X936015Y1121537D01*
X935757Y1121728D01*
X935653Y1121958D01*
Y1122342D01*
X935498Y1122687D01*
X935188Y1122917D01*
X934827Y1122993D01*
X934465Y1122917D01*
X934207Y1122725D01*
X934052Y1122418D01*
X934000Y1122150D01*
G01X953433Y1216466D02*
Y1219566D01*
X954392D01*
X954698Y1219411D01*
X954890Y1219204D01*
X954967Y1218791D01*
X954890Y1218378D01*
X954660Y1218120D01*
X954392Y1217964D01*
X953433D01*
G01X954392D02*
X954967Y1216466D01*
G01X956572Y1217758D02*
X956840Y1218120D01*
X957070Y1218326D01*
X957377Y1218429D01*
X957645Y1218326D01*
X957837Y1218120D01*
X957990Y1217809D01*
X958028Y1217448D01*
X957990Y1217138D01*
X957837Y1216828D01*
X957607Y1216569D01*
X957338Y1216466D01*
X957032Y1216569D01*
X956763Y1216879D01*
X956610Y1217344D01*
X956572Y1217861D01*
X956648Y1218533D01*
X956763Y1218894D01*
X956955Y1219256D01*
X957223Y1219514D01*
X957492Y1219566D01*
X957760Y1219463D01*
X957952Y1219204D01*
G01X937383Y1238100D02*
Y1235000D01*
X938917D01*
G01X940522Y1237583D02*
X940752Y1237893D01*
X941020Y1238048D01*
X941327Y1238100D01*
X941710Y1237997D01*
X941978Y1237738D01*
X942055Y1237428D01*
X942017Y1237118D01*
X941863Y1236860D01*
X941097Y1236343D01*
X940752Y1235982D01*
X940522Y1235465D01*
X940445Y1235000D01*
X942055D01*
G01X951617Y1293000D02*
Y1289900D01*
X950658D01*
X950352Y1290055D01*
X950160Y1290262D01*
X950083Y1290675D01*
X950160Y1291088D01*
X950390Y1291347D01*
X950658Y1291502D01*
X951617D01*
G01X950658D02*
X950083Y1293000D01*
G01X948593Y1292380D02*
X948363Y1292742D01*
X948057Y1292948D01*
X947712Y1293000D01*
X947405Y1292948D01*
X947098Y1292690D01*
X946907Y1292380D01*
X946868Y1292070D01*
X946945Y1291708D01*
X947213Y1291450D01*
X947482Y1291347D01*
X947827D01*
G01X947482D02*
X947252Y1291192D01*
X947060Y1290933D01*
X946983Y1290623D01*
X947060Y1290313D01*
X947252Y1290055D01*
X947597Y1289900D01*
X947942Y1289952D01*
X948287Y1290158D01*
G01X938842Y1295207D02*
X938997Y1295437D01*
X939100Y1295705D01*
Y1296012D01*
X938945Y1296357D01*
X938687Y1296625D01*
X938377Y1296817D01*
X937860Y1296970D01*
X937395Y1297008D01*
X936930Y1296932D01*
X936620Y1296817D01*
X936310Y1296587D01*
X936103Y1296318D01*
X936000Y1296050D01*
Y1295782D01*
X936103Y1295513D01*
X936258Y1295283D01*
X936465Y1295092D01*
G01X936000Y1292950D02*
X939100D01*
X938480Y1293410D01*
G01X936000D02*
Y1292490D01*
G01X933383Y1274100D02*
Y1271000D01*
X934917D01*
G01X937250D02*
Y1274100D01*
X936790Y1273480D01*
G01Y1271000D02*
X937710D01*
G01X948000Y1299083D02*
X944900D01*
Y1300042D01*
X945055Y1300348D01*
X945262Y1300540D01*
X945675Y1300617D01*
X946088Y1300540D01*
X946347Y1300310D01*
X946502Y1300042D01*
Y1299083D01*
G01Y1300042D02*
X948000Y1300617D01*
G01X945417Y1302222D02*
X945107Y1302452D01*
X944952Y1302720D01*
X944900Y1303027D01*
X945003Y1303410D01*
X945262Y1303678D01*
X945572Y1303755D01*
X945882Y1303717D01*
X946140Y1303563D01*
X946657Y1302797D01*
X947018Y1302452D01*
X947535Y1302222D01*
X948000Y1302145D01*
Y1303755D01*
G01X987207Y1090158D02*
X987437Y1090003D01*
X987705Y1089900D01*
X988012D01*
X988357Y1090055D01*
X988625Y1090313D01*
X988817Y1090623D01*
X988970Y1091140D01*
X989008Y1091605D01*
X988932Y1092070D01*
X988817Y1092380D01*
X988587Y1092690D01*
X988318Y1092897D01*
X988050Y1093000D01*
X987782D01*
X987513Y1092897D01*
X987283Y1092742D01*
X987092Y1092535D01*
G01X985793Y1092380D02*
X985563Y1092742D01*
X985257Y1092948D01*
X984912Y1093000D01*
X984605Y1092948D01*
X984298Y1092690D01*
X984107Y1092380D01*
X984068Y1092070D01*
X984145Y1091708D01*
X984413Y1091450D01*
X984682Y1091347D01*
X985027D01*
G01X984682D02*
X984452Y1091192D01*
X984260Y1090933D01*
X984183Y1090623D01*
X984260Y1090313D01*
X984452Y1090055D01*
X984797Y1089900D01*
X985142Y1089952D01*
X985487Y1090158D01*
G01X982693Y1092380D02*
X982463Y1092742D01*
X982157Y1092948D01*
X981812Y1093000D01*
X981505Y1092948D01*
X981198Y1092690D01*
X981007Y1092380D01*
X980968Y1092070D01*
X981045Y1091708D01*
X981313Y1091450D01*
X981582Y1091347D01*
X981927D01*
G01X981582D02*
X981352Y1091192D01*
X981160Y1090933D01*
X981083Y1090623D01*
X981160Y1090313D01*
X981352Y1090055D01*
X981697Y1089900D01*
X982042Y1089952D01*
X982387Y1090158D01*
G01X975167Y1136117D02*
X978267D01*
Y1135158D01*
X978111Y1134852D01*
X977905Y1134660D01*
X977492Y1134583D01*
X977078Y1134660D01*
X976820Y1134890D01*
X976665Y1135158D01*
Y1136117D01*
G01Y1135158D02*
X975167Y1134583D01*
G01X977750Y1132978D02*
X978060Y1132748D01*
X978215Y1132480D01*
X978267Y1132173D01*
X978163Y1131790D01*
X977905Y1131522D01*
X977595Y1131445D01*
X977285Y1131483D01*
X977026Y1131637D01*
X976510Y1132403D01*
X976148Y1132748D01*
X975631Y1132978D01*
X975167Y1133055D01*
Y1131445D01*
G01X976458Y1129878D02*
X976820Y1129610D01*
X977026Y1129380D01*
X977130Y1129073D01*
X977026Y1128805D01*
X976820Y1128613D01*
X976510Y1128460D01*
X976148Y1128422D01*
X975838Y1128460D01*
X975528Y1128613D01*
X975270Y1128843D01*
X975167Y1129112D01*
X975270Y1129418D01*
X975580Y1129687D01*
X976045Y1129840D01*
X976562Y1129878D01*
X977233Y1129802D01*
X977595Y1129687D01*
X977956Y1129495D01*
X978215Y1129227D01*
X978267Y1128958D01*
X978163Y1128690D01*
X977905Y1128498D01*
G01X966607Y1240100D02*
Y1237878D01*
X966760Y1237413D01*
X967067Y1237103D01*
X967450Y1237000D01*
X967833Y1237103D01*
X968140Y1237413D01*
X968293Y1237878D01*
Y1240100D01*
G01X969822Y1239583D02*
X970052Y1239893D01*
X970320Y1240048D01*
X970627Y1240100D01*
X971010Y1239997D01*
X971278Y1239738D01*
X971355Y1239428D01*
X971317Y1239118D01*
X971163Y1238860D01*
X970397Y1238343D01*
X970052Y1237982D01*
X969822Y1237465D01*
X969745Y1237000D01*
X971355D01*
G01X966000Y1230996D02*
X972000D01*
Y1243004D01*
X966000D01*
Y1230996D01*
G01X982534Y1231433D02*
X979434D01*
Y1232392D01*
X979589Y1232698D01*
X979796Y1232890D01*
X980209Y1232967D01*
X980622Y1232890D01*
X980881Y1232660D01*
X981036Y1232392D01*
Y1231433D01*
G01Y1232392D02*
X982534Y1232967D01*
G01X982069Y1234457D02*
X982327Y1234687D01*
X982482Y1234955D01*
X982534Y1235300D01*
X982431Y1235645D01*
X982224Y1235913D01*
X981862Y1236105D01*
X981449Y1236143D01*
X981036Y1236067D01*
X980777Y1235875D01*
X980571Y1235607D01*
X980519Y1235338D01*
X980571Y1235070D01*
X980777Y1234725D01*
X979434Y1234840D01*
Y1235875D01*
G01X964433Y1225466D02*
Y1228566D01*
X965392D01*
X965698Y1228411D01*
X965890Y1228204D01*
X965967Y1227791D01*
X965890Y1227378D01*
X965660Y1227120D01*
X965392Y1226964D01*
X964433D01*
G01X965392D02*
X965967Y1225466D01*
G01X968223D02*
X968300Y1226138D01*
X968415Y1226706D01*
X968568Y1227223D01*
X968760Y1227791D01*
X969067Y1228566D01*
X967533D01*
G01X961107Y1256200D02*
Y1259300D01*
X961873D01*
X962180Y1259145D01*
X962410Y1258938D01*
X962602Y1258628D01*
X962755Y1258267D01*
X962793Y1257750D01*
X962755Y1257233D01*
X962602Y1256872D01*
X962410Y1256562D01*
X962180Y1256355D01*
X961873Y1256200D01*
X961107D01*
G01X964207Y1256820D02*
X964437Y1256458D01*
X964743Y1256252D01*
X965088Y1256200D01*
X965395Y1256252D01*
X965702Y1256510D01*
X965893Y1256820D01*
X965932Y1257130D01*
X965855Y1257492D01*
X965587Y1257750D01*
X965318Y1257853D01*
X964973D01*
G01X965318D02*
X965548Y1258008D01*
X965740Y1258267D01*
X965817Y1258577D01*
X965740Y1258887D01*
X965548Y1259145D01*
X965203Y1259300D01*
X964858Y1259248D01*
X964513Y1259042D01*
G01X961200Y1245200D02*
Y1248800D01*
X978800D01*
Y1245200D01*
X961200D01*
G01X958692Y1253043D02*
X958537Y1252813D01*
X958434Y1252545D01*
Y1252238D01*
X958589Y1251893D01*
X958847Y1251625D01*
X959157Y1251433D01*
X959674Y1251280D01*
X960139Y1251242D01*
X960604Y1251318D01*
X960914Y1251433D01*
X961224Y1251663D01*
X961431Y1251932D01*
X961534Y1252200D01*
Y1252468D01*
X961431Y1252737D01*
X961276Y1252967D01*
X961069Y1253158D01*
G01X960242Y1254572D02*
X959880Y1254840D01*
X959674Y1255070D01*
X959571Y1255377D01*
X959674Y1255645D01*
X959880Y1255837D01*
X960191Y1255990D01*
X960552Y1256028D01*
X960862Y1255990D01*
X961172Y1255837D01*
X961431Y1255607D01*
X961534Y1255338D01*
X961431Y1255032D01*
X961121Y1254763D01*
X960656Y1254610D01*
X960139Y1254572D01*
X959467Y1254648D01*
X959106Y1254763D01*
X958744Y1254955D01*
X958486Y1255223D01*
X958434Y1255492D01*
X958537Y1255760D01*
X958796Y1255952D01*
G01X963206Y1274054D02*
X962976Y1274209D01*
X962708Y1274313D01*
X962401D01*
X962056Y1274158D01*
X961788Y1273899D01*
X961596Y1273589D01*
X961443Y1273073D01*
X961404Y1272608D01*
X961481Y1272143D01*
X961596Y1271833D01*
X961826Y1271522D01*
X962094Y1271316D01*
X962363Y1271213D01*
X962631D01*
X962899Y1271316D01*
X963129Y1271471D01*
X963321Y1271678D01*
G01X964619D02*
X964849Y1271419D01*
X965118Y1271264D01*
X965463Y1271213D01*
X965808Y1271316D01*
X966076Y1271522D01*
X966268Y1271884D01*
X966306Y1272298D01*
X966229Y1272711D01*
X966038Y1272969D01*
X965769Y1273176D01*
X965501Y1273228D01*
X965233Y1273176D01*
X964888Y1272969D01*
X965003Y1274313D01*
X966038D01*
G01X967793Y1300842D02*
X967563Y1300997D01*
X967295Y1301100D01*
X966988D01*
X966643Y1300945D01*
X966375Y1300687D01*
X966183Y1300377D01*
X966030Y1299860D01*
X965992Y1299395D01*
X966068Y1298930D01*
X966183Y1298620D01*
X966413Y1298310D01*
X966682Y1298103D01*
X966950Y1298000D01*
X967218D01*
X967487Y1298103D01*
X967717Y1298258D01*
X967908Y1298465D01*
G01X970510Y1298000D02*
Y1301100D01*
X969092Y1298878D01*
X971008D01*
G01X969993Y1311200D02*
Y1308100D01*
X969227D01*
X968920Y1308255D01*
X968690Y1308462D01*
X968498Y1308772D01*
X968345Y1309133D01*
X968307Y1309650D01*
X968345Y1310167D01*
X968498Y1310528D01*
X968690Y1310838D01*
X968920Y1311045D01*
X969227Y1311200D01*
X969993D01*
G01X966050D02*
Y1308100D01*
X966510Y1308720D01*
G01Y1311200D02*
X965590D01*
G01X984793Y1085842D02*
X984563Y1085997D01*
X984295Y1086100D01*
X983988D01*
X983643Y1085945D01*
X983375Y1085687D01*
X983183Y1085377D01*
X983030Y1084860D01*
X982992Y1084395D01*
X983068Y1083930D01*
X983183Y1083620D01*
X983413Y1083310D01*
X983682Y1083103D01*
X983950Y1083000D01*
X984218D01*
X984487Y1083103D01*
X984717Y1083258D01*
X984908Y1083465D01*
G01X986207Y1083620D02*
X986437Y1083258D01*
X986743Y1083052D01*
X987088Y1083000D01*
X987395Y1083052D01*
X987702Y1083310D01*
X987893Y1083620D01*
X987932Y1083930D01*
X987855Y1084292D01*
X987587Y1084550D01*
X987318Y1084653D01*
X986973D01*
G01X987318D02*
X987548Y1084808D01*
X987740Y1085067D01*
X987817Y1085377D01*
X987740Y1085687D01*
X987548Y1085945D01*
X987203Y1086100D01*
X986858Y1086048D01*
X986513Y1085842D01*
G01X990610Y1083000D02*
Y1086100D01*
X989192Y1083878D01*
X991108D01*
G01X989834Y1110383D02*
X986733D01*
Y1111342D01*
X986889Y1111648D01*
X987095Y1111840D01*
X987508Y1111917D01*
X987922Y1111840D01*
X988180Y1111610D01*
X988335Y1111342D01*
Y1110383D01*
G01Y1111342D02*
X989834Y1111917D01*
G01X987250Y1113522D02*
X986940Y1113752D01*
X986785Y1114020D01*
X986733Y1114327D01*
X986837Y1114710D01*
X987095Y1114978D01*
X987405Y1115055D01*
X987715Y1115017D01*
X987974Y1114863D01*
X988490Y1114097D01*
X988852Y1113752D01*
X989369Y1113522D01*
X989834Y1113445D01*
Y1115055D01*
G01X989369Y1116507D02*
X989627Y1116737D01*
X989782Y1117005D01*
X989834Y1117350D01*
X989730Y1117695D01*
X989524Y1117963D01*
X989162Y1118155D01*
X988749Y1118193D01*
X988335Y1118117D01*
X988077Y1117925D01*
X987870Y1117657D01*
X987819Y1117388D01*
X987870Y1117120D01*
X988077Y1116775D01*
X986733Y1116890D01*
Y1117925D01*
G01X1004620Y1162617D02*
X1004310Y1162425D01*
X1004103Y1162195D01*
X1004000Y1161927D01*
X1004103Y1161620D01*
X1004310Y1161390D01*
X1004620Y1161160D01*
X1005033Y1161083D01*
X1007100D01*
G01X1004000Y1158750D02*
X1007100D01*
X1006480Y1159210D01*
G01X1004000D02*
Y1158290D01*
G01Y1155650D02*
X1007100D01*
X1006480Y1156110D01*
G01X1004000D02*
Y1155190D01*
G01X995567Y1217534D02*
Y1214434D01*
X994608D01*
X994302Y1214589D01*
X994110Y1214796D01*
X994033Y1215209D01*
X994110Y1215622D01*
X994340Y1215880D01*
X994608Y1216036D01*
X995567D01*
G01X994608D02*
X994033Y1217534D01*
G01X991700D02*
Y1214434D01*
X992160Y1215054D01*
G01Y1217534D02*
X991240D01*
G01X988600Y1214434D02*
X988907Y1214537D01*
X989137Y1214796D01*
X989290Y1215106D01*
X989405Y1215519D01*
X989443Y1215984D01*
X989405Y1216449D01*
X989290Y1216862D01*
X989137Y1217172D01*
X988907Y1217431D01*
X988600Y1217534D01*
X988293Y1217431D01*
X988063Y1217172D01*
X987910Y1216862D01*
X987795Y1216449D01*
X987757Y1215984D01*
X987795Y1215519D01*
X987910Y1215106D01*
X988063Y1214796D01*
X988293Y1214537D01*
X988600Y1214434D01*
G01X1011957Y1231692D02*
X1012187Y1231537D01*
X1012455Y1231434D01*
X1012762D01*
X1013107Y1231589D01*
X1013375Y1231847D01*
X1013567Y1232157D01*
X1013720Y1232674D01*
X1013758Y1233139D01*
X1013682Y1233604D01*
X1013567Y1233914D01*
X1013337Y1234224D01*
X1013068Y1234431D01*
X1012800Y1234534D01*
X1012532D01*
X1012263Y1234431D01*
X1012033Y1234276D01*
X1011842Y1234069D01*
G01X1009240Y1234534D02*
Y1231434D01*
X1010658Y1233656D01*
X1008742D01*
G01X1007328Y1231951D02*
X1007098Y1231641D01*
X1006830Y1231486D01*
X1006523Y1231434D01*
X1006140Y1231537D01*
X1005872Y1231796D01*
X1005795Y1232106D01*
X1005833Y1232416D01*
X1005987Y1232674D01*
X1006753Y1233191D01*
X1007098Y1233552D01*
X1007328Y1234069D01*
X1007405Y1234534D01*
X1005795D01*
G01X1001043Y1256308D02*
X1000813Y1256463D01*
X1000545Y1256566D01*
X1000238D01*
X999893Y1256411D01*
X999625Y1256153D01*
X999433Y1255843D01*
X999280Y1255326D01*
X999242Y1254861D01*
X999318Y1254396D01*
X999433Y1254086D01*
X999663Y1253776D01*
X999932Y1253569D01*
X1000200Y1253466D01*
X1000468D01*
X1000737Y1253569D01*
X1000967Y1253724D01*
X1001158Y1253931D01*
G01X1003300Y1253466D02*
X1003568Y1253518D01*
X1003875Y1253673D01*
X1004067Y1253931D01*
X1004143Y1254293D01*
X1004067Y1254654D01*
X1003837Y1254964D01*
X1003492Y1255120D01*
X1003108D01*
X1002878Y1255223D01*
X1002687Y1255481D01*
X1002610Y1255843D01*
X1002725Y1256204D01*
X1002993Y1256463D01*
X1003300Y1256566D01*
X1003607Y1256463D01*
X1003875Y1256204D01*
X1003990Y1255843D01*
X1003913Y1255481D01*
X1003722Y1255223D01*
X1003492Y1255120D01*
X1003108D01*
X1002763Y1254964D01*
X1002533Y1254654D01*
X1002457Y1254293D01*
X1002533Y1253931D01*
X1002725Y1253673D01*
X1003032Y1253518D01*
X1003300Y1253466D01*
G01X1003080Y1247086D02*
X1002850Y1247241D01*
X1002582Y1247344D01*
X1002275D01*
X1001930Y1247189D01*
X1001662Y1246931D01*
X1001470Y1246621D01*
X1001317Y1246104D01*
X1001279Y1245639D01*
X1001355Y1245174D01*
X1001470Y1244864D01*
X1001700Y1244554D01*
X1001969Y1244347D01*
X1002237Y1244244D01*
X1002505D01*
X1002774Y1244347D01*
X1003004Y1244502D01*
X1003195Y1244709D01*
G01X1004685Y1244606D02*
X1004954Y1244347D01*
X1005260Y1244244D01*
X1005567Y1244347D01*
X1005835Y1244657D01*
X1006027Y1245122D01*
X1006104Y1245587D01*
Y1246156D01*
X1006027Y1246621D01*
X1005835Y1247034D01*
X1005605Y1247241D01*
X1005337Y1247344D01*
X1005030Y1247241D01*
X1004800Y1247034D01*
X1004647Y1246724D01*
X1004570Y1246311D01*
X1004647Y1245949D01*
X1004839Y1245587D01*
X1005069Y1245381D01*
X1005337Y1245329D01*
X1005644Y1245432D01*
X1005874Y1245691D01*
X1006104Y1246156D01*
G01X998493Y1274842D02*
X998263Y1274997D01*
X997995Y1275100D01*
X997688D01*
X997343Y1274945D01*
X997075Y1274687D01*
X996883Y1274377D01*
X996730Y1273860D01*
X996692Y1273395D01*
X996768Y1272930D01*
X996883Y1272620D01*
X997113Y1272310D01*
X997382Y1272103D01*
X997650Y1272000D01*
X997918D01*
X998187Y1272103D01*
X998417Y1272258D01*
X998608Y1272465D01*
G01X1000673Y1272000D02*
X1000750Y1272672D01*
X1000865Y1273240D01*
X1001018Y1273757D01*
X1001210Y1274325D01*
X1001517Y1275100D01*
X999983D01*
G01X998883Y1322301D02*
X999075Y1321991D01*
X999305Y1321784D01*
X999573Y1321681D01*
X999880Y1321784D01*
X1000110Y1321991D01*
X1000340Y1322301D01*
X1000417Y1322714D01*
Y1324781D01*
G01X1002022Y1324264D02*
X1002252Y1324574D01*
X1002520Y1324729D01*
X1002827Y1324781D01*
X1003210Y1324678D01*
X1003478Y1324419D01*
X1003555Y1324110D01*
X1003517Y1323799D01*
X1003363Y1323541D01*
X1002597Y1323024D01*
X1002252Y1322663D01*
X1002022Y1322146D01*
X1001945Y1321681D01*
X1003555D01*
G01X1032959Y1048880D02*
X1032767Y1049190D01*
X1032538Y1049397D01*
X1032269Y1049500D01*
X1031962Y1049397D01*
X1031732Y1049190D01*
X1031502Y1048880D01*
X1031426Y1048467D01*
Y1046400D01*
G01X1029936Y1049035D02*
X1029706Y1049293D01*
X1029438Y1049448D01*
X1029092Y1049500D01*
X1028748Y1049397D01*
X1028479Y1049190D01*
X1028288Y1048828D01*
X1028249Y1048415D01*
X1028326Y1048002D01*
X1028517Y1047743D01*
X1028786Y1047537D01*
X1029054Y1047485D01*
X1029323Y1047537D01*
X1029667Y1047743D01*
X1029552Y1046400D01*
X1028517D01*
G01X1030308Y1151957D02*
X1030463Y1152187D01*
X1030566Y1152455D01*
Y1152762D01*
X1030411Y1153107D01*
X1030153Y1153375D01*
X1029843Y1153567D01*
X1029326Y1153720D01*
X1028861Y1153758D01*
X1028396Y1153682D01*
X1028086Y1153567D01*
X1027776Y1153337D01*
X1027569Y1153068D01*
X1027466Y1152800D01*
Y1152532D01*
X1027569Y1152263D01*
X1027724Y1152033D01*
X1027931Y1151842D01*
G01X1028086Y1150543D02*
X1027724Y1150313D01*
X1027518Y1150007D01*
X1027466Y1149662D01*
X1027518Y1149355D01*
X1027776Y1149048D01*
X1028086Y1148857D01*
X1028396Y1148818D01*
X1028758Y1148895D01*
X1029016Y1149163D01*
X1029120Y1149432D01*
Y1149777D01*
G01Y1149432D02*
X1029274Y1149202D01*
X1029533Y1149010D01*
X1029843Y1148933D01*
X1030153Y1149010D01*
X1030411Y1149202D01*
X1030566Y1149547D01*
X1030514Y1149892D01*
X1030308Y1150237D01*
G01X1030049Y1147328D02*
X1030359Y1147098D01*
X1030514Y1146830D01*
X1030566Y1146523D01*
X1030463Y1146140D01*
X1030204Y1145872D01*
X1029894Y1145795D01*
X1029584Y1145833D01*
X1029326Y1145987D01*
X1028809Y1146753D01*
X1028448Y1147098D01*
X1027931Y1147328D01*
X1027466Y1147405D01*
Y1145795D01*
G01Y1165567D02*
X1030566D01*
Y1164608D01*
X1030411Y1164302D01*
X1030204Y1164110D01*
X1029791Y1164033D01*
X1029378Y1164110D01*
X1029120Y1164340D01*
X1028964Y1164608D01*
Y1165567D01*
G01Y1164608D02*
X1027466Y1164033D01*
G01Y1161700D02*
X1030566D01*
X1029946Y1162160D01*
G01X1027466D02*
Y1161240D01*
G01X1027828Y1159252D02*
X1027569Y1158983D01*
X1027466Y1158677D01*
X1027569Y1158370D01*
X1027879Y1158102D01*
X1028344Y1157910D01*
X1028809Y1157833D01*
X1029378D01*
X1029843Y1157910D01*
X1030256Y1158102D01*
X1030463Y1158332D01*
X1030566Y1158600D01*
X1030463Y1158907D01*
X1030256Y1159137D01*
X1029946Y1159290D01*
X1029533Y1159367D01*
X1029171Y1159290D01*
X1028809Y1159098D01*
X1028603Y1158868D01*
X1028551Y1158600D01*
X1028654Y1158293D01*
X1028913Y1158063D01*
X1029378Y1157833D01*
G01X1034683Y1215020D02*
X1034875Y1214710D01*
X1035105Y1214503D01*
X1035373Y1214400D01*
X1035680Y1214503D01*
X1035910Y1214710D01*
X1036140Y1215020D01*
X1036217Y1215433D01*
Y1217500D01*
G01X1037898Y1214762D02*
X1038167Y1214503D01*
X1038473Y1214400D01*
X1038780Y1214503D01*
X1039048Y1214813D01*
X1039240Y1215278D01*
X1039317Y1215743D01*
Y1216312D01*
X1039240Y1216777D01*
X1039048Y1217190D01*
X1038818Y1217397D01*
X1038550Y1217500D01*
X1038243Y1217397D01*
X1038013Y1217190D01*
X1037860Y1216880D01*
X1037783Y1216467D01*
X1037860Y1216105D01*
X1038052Y1215743D01*
X1038282Y1215537D01*
X1038550Y1215485D01*
X1038857Y1215588D01*
X1039087Y1215847D01*
X1039317Y1216312D01*
G01X1030100Y1214943D02*
X1027878D01*
X1027413Y1214790D01*
X1027103Y1214483D01*
X1027000Y1214100D01*
X1027103Y1213717D01*
X1027413Y1213410D01*
X1027878Y1213257D01*
X1030100D01*
G01X1027000Y1211000D02*
X1030100D01*
X1029480Y1211460D01*
G01X1027000D02*
Y1210540D01*
G01X1030100Y1207900D02*
X1029997Y1208207D01*
X1029738Y1208437D01*
X1029428Y1208590D01*
X1029015Y1208705D01*
X1028550Y1208743D01*
X1028085Y1208705D01*
X1027672Y1208590D01*
X1027362Y1208437D01*
X1027103Y1208207D01*
X1027000Y1207900D01*
X1027103Y1207593D01*
X1027362Y1207363D01*
X1027672Y1207210D01*
X1028085Y1207095D01*
X1028550Y1207057D01*
X1029015Y1207095D01*
X1029428Y1207210D01*
X1029738Y1207363D01*
X1029997Y1207593D01*
X1030100Y1207900D01*
G01X1021090Y1219500D02*
Y1202500D01*
X1032910D01*
Y1219500D01*
X1021090D01*
G01X1013000Y1221707D02*
X1009900D01*
Y1222473D01*
X1010055Y1222780D01*
X1010262Y1223010D01*
X1010572Y1223202D01*
X1010933Y1223355D01*
X1011450Y1223393D01*
X1011967Y1223355D01*
X1012328Y1223202D01*
X1012638Y1223010D01*
X1012845Y1222780D01*
X1013000Y1222473D01*
Y1221707D01*
G01X1011708Y1224922D02*
X1011347Y1225190D01*
X1011140Y1225420D01*
X1011037Y1225727D01*
X1011140Y1225995D01*
X1011347Y1226187D01*
X1011657Y1226340D01*
X1012018Y1226378D01*
X1012328Y1226340D01*
X1012638Y1226187D01*
X1012897Y1225957D01*
X1013000Y1225688D01*
X1012897Y1225382D01*
X1012587Y1225113D01*
X1012122Y1224960D01*
X1011605Y1224922D01*
X1010933Y1224998D01*
X1010572Y1225113D01*
X1010210Y1225305D01*
X1009952Y1225573D01*
X1009900Y1225842D01*
X1010003Y1226110D01*
X1010262Y1226302D01*
G01X1032600Y1218500D02*
G03I-600J0D01*
G01X1023433Y1253466D02*
Y1256566D01*
X1024392D01*
X1024698Y1256411D01*
X1024890Y1256204D01*
X1024967Y1255791D01*
X1024890Y1255378D01*
X1024660Y1255120D01*
X1024392Y1254964D01*
X1023433D01*
G01X1024392D02*
X1024967Y1253466D01*
G01X1026457Y1254086D02*
X1026687Y1253724D01*
X1026993Y1253518D01*
X1027338Y1253466D01*
X1027645Y1253518D01*
X1027952Y1253776D01*
X1028143Y1254086D01*
X1028182Y1254396D01*
X1028105Y1254758D01*
X1027837Y1255016D01*
X1027568Y1255120D01*
X1027223D01*
G01X1027568D02*
X1027798Y1255274D01*
X1027990Y1255533D01*
X1028067Y1255843D01*
X1027990Y1256153D01*
X1027798Y1256411D01*
X1027453Y1256566D01*
X1027108Y1256514D01*
X1026763Y1256308D01*
G01X1030400Y1256566D02*
X1030093Y1256463D01*
X1029863Y1256204D01*
X1029710Y1255894D01*
X1029595Y1255481D01*
X1029557Y1255016D01*
X1029595Y1254551D01*
X1029710Y1254138D01*
X1029863Y1253828D01*
X1030093Y1253569D01*
X1030400Y1253466D01*
X1030707Y1253569D01*
X1030937Y1253828D01*
X1031090Y1254138D01*
X1031205Y1254551D01*
X1031243Y1255016D01*
X1031205Y1255481D01*
X1031090Y1255894D01*
X1030937Y1256204D01*
X1030707Y1256463D01*
X1030400Y1256566D01*
G01X1023707Y1247000D02*
Y1250100D01*
X1024473D01*
X1024780Y1249945D01*
X1025010Y1249738D01*
X1025202Y1249428D01*
X1025355Y1249067D01*
X1025393Y1248550D01*
X1025355Y1248033D01*
X1025202Y1247672D01*
X1025010Y1247362D01*
X1024780Y1247155D01*
X1024473Y1247000D01*
X1023707D01*
G01X1027650D02*
Y1250100D01*
X1027190Y1249480D01*
G01Y1247000D02*
X1028110D01*
G01X1030750Y1250100D02*
X1030443Y1249997D01*
X1030213Y1249738D01*
X1030060Y1249428D01*
X1029945Y1249015D01*
X1029907Y1248550D01*
X1029945Y1248085D01*
X1030060Y1247672D01*
X1030213Y1247362D01*
X1030443Y1247103D01*
X1030750Y1247000D01*
X1031057Y1247103D01*
X1031287Y1247362D01*
X1031440Y1247672D01*
X1031555Y1248085D01*
X1031593Y1248550D01*
X1031555Y1249015D01*
X1031440Y1249428D01*
X1031287Y1249738D01*
X1031057Y1249997D01*
X1030750Y1250100D01*
G01X1031957Y1275692D02*
X1032187Y1275537D01*
X1032455Y1275434D01*
X1032762D01*
X1033107Y1275589D01*
X1033375Y1275847D01*
X1033567Y1276157D01*
X1033720Y1276674D01*
X1033758Y1277139D01*
X1033682Y1277604D01*
X1033567Y1277914D01*
X1033337Y1278224D01*
X1033068Y1278431D01*
X1032800Y1278534D01*
X1032532D01*
X1032263Y1278431D01*
X1032033Y1278276D01*
X1031842Y1278069D01*
G01X1030543Y1277914D02*
X1030313Y1278276D01*
X1030007Y1278482D01*
X1029662Y1278534D01*
X1029355Y1278482D01*
X1029048Y1278224D01*
X1028857Y1277914D01*
X1028818Y1277604D01*
X1028895Y1277242D01*
X1029163Y1276984D01*
X1029432Y1276880D01*
X1029777D01*
G01X1029432D02*
X1029202Y1276726D01*
X1029010Y1276467D01*
X1028933Y1276157D01*
X1029010Y1275847D01*
X1029202Y1275589D01*
X1029547Y1275434D01*
X1029892Y1275486D01*
X1030237Y1275692D01*
G01X1027252Y1278172D02*
X1026983Y1278431D01*
X1026677Y1278534D01*
X1026370Y1278431D01*
X1026102Y1278121D01*
X1025910Y1277656D01*
X1025833Y1277191D01*
Y1276622D01*
X1025910Y1276157D01*
X1026102Y1275744D01*
X1026332Y1275537D01*
X1026600Y1275434D01*
X1026907Y1275537D01*
X1027137Y1275744D01*
X1027290Y1276054D01*
X1027367Y1276467D01*
X1027290Y1276829D01*
X1027098Y1277191D01*
X1026868Y1277397D01*
X1026600Y1277449D01*
X1026293Y1277346D01*
X1026063Y1277087D01*
X1025833Y1276622D01*
G01X1024433Y1270466D02*
Y1273566D01*
X1025392D01*
X1025698Y1273411D01*
X1025890Y1273204D01*
X1025967Y1272791D01*
X1025890Y1272378D01*
X1025660Y1272120D01*
X1025392Y1271964D01*
X1024433D01*
G01X1025392D02*
X1025967Y1270466D01*
G01X1027572Y1273049D02*
X1027802Y1273359D01*
X1028070Y1273514D01*
X1028377Y1273566D01*
X1028760Y1273463D01*
X1029028Y1273204D01*
X1029105Y1272894D01*
X1029067Y1272584D01*
X1028913Y1272326D01*
X1028147Y1271809D01*
X1027802Y1271448D01*
X1027572Y1270931D01*
X1027495Y1270466D01*
X1029105D01*
G01X1030748Y1270828D02*
X1031017Y1270569D01*
X1031323Y1270466D01*
X1031630Y1270569D01*
X1031898Y1270879D01*
X1032090Y1271344D01*
X1032167Y1271809D01*
Y1272378D01*
X1032090Y1272843D01*
X1031898Y1273256D01*
X1031668Y1273463D01*
X1031400Y1273566D01*
X1031093Y1273463D01*
X1030863Y1273256D01*
X1030710Y1272946D01*
X1030633Y1272533D01*
X1030710Y1272171D01*
X1030902Y1271809D01*
X1031132Y1271603D01*
X1031400Y1271551D01*
X1031707Y1271654D01*
X1031937Y1271913D01*
X1032167Y1272378D01*
G01X1057957Y1161692D02*
X1058187Y1161537D01*
X1058455Y1161434D01*
X1058762D01*
X1059107Y1161589D01*
X1059375Y1161847D01*
X1059567Y1162157D01*
X1059720Y1162674D01*
X1059758Y1163139D01*
X1059682Y1163604D01*
X1059567Y1163914D01*
X1059337Y1164224D01*
X1059068Y1164431D01*
X1058800Y1164534D01*
X1058532D01*
X1058263Y1164431D01*
X1058033Y1164276D01*
X1057842Y1164069D01*
G01X1056428Y1161951D02*
X1056198Y1161641D01*
X1055930Y1161486D01*
X1055623Y1161434D01*
X1055240Y1161537D01*
X1054972Y1161796D01*
X1054895Y1162106D01*
X1054933Y1162416D01*
X1055087Y1162674D01*
X1055853Y1163191D01*
X1056198Y1163552D01*
X1056428Y1164069D01*
X1056505Y1164534D01*
X1054895D01*
G01X1052600D02*
Y1161434D01*
X1053060Y1162054D01*
G01Y1164534D02*
X1052140D01*
G01X1039433Y1224466D02*
Y1227566D01*
X1040392D01*
X1040698Y1227411D01*
X1040890Y1227204D01*
X1040967Y1226791D01*
X1040890Y1226378D01*
X1040660Y1226120D01*
X1040392Y1225964D01*
X1039433D01*
G01X1040392D02*
X1040967Y1224466D01*
G01X1042457Y1225086D02*
X1042687Y1224724D01*
X1042993Y1224518D01*
X1043338Y1224466D01*
X1043645Y1224518D01*
X1043952Y1224776D01*
X1044143Y1225086D01*
X1044182Y1225396D01*
X1044105Y1225758D01*
X1043837Y1226016D01*
X1043568Y1226120D01*
X1043223D01*
G01X1043568D02*
X1043798Y1226274D01*
X1043990Y1226533D01*
X1044067Y1226843D01*
X1043990Y1227153D01*
X1043798Y1227411D01*
X1043453Y1227566D01*
X1043108Y1227514D01*
X1042763Y1227308D01*
G01X1046400Y1224466D02*
Y1227566D01*
X1045940Y1226946D01*
G01Y1224466D02*
X1046860D01*
G01X1079448Y1103486D02*
X1077226D01*
X1076761Y1103333D01*
X1076451Y1103026D01*
X1076348Y1102642D01*
X1076451Y1102259D01*
X1076761Y1101952D01*
X1077226Y1101799D01*
X1079448D01*
G01X1076348Y1099619D02*
X1077020Y1099542D01*
X1077588Y1099428D01*
X1078105Y1099274D01*
X1078673Y1099082D01*
X1079448Y1098776D01*
Y1100309D01*
G01X1078957Y1153692D02*
X1079187Y1153537D01*
X1079455Y1153434D01*
X1079762D01*
X1080107Y1153589D01*
X1080375Y1153847D01*
X1080567Y1154157D01*
X1080720Y1154674D01*
X1080758Y1155139D01*
X1080682Y1155604D01*
X1080567Y1155914D01*
X1080337Y1156224D01*
X1080068Y1156431D01*
X1079800Y1156534D01*
X1079532D01*
X1079263Y1156431D01*
X1079033Y1156276D01*
X1078842Y1156069D01*
G01X1077428Y1153951D02*
X1077198Y1153641D01*
X1076930Y1153486D01*
X1076623Y1153434D01*
X1076240Y1153537D01*
X1075972Y1153796D01*
X1075895Y1154106D01*
X1075933Y1154416D01*
X1076087Y1154674D01*
X1076853Y1155191D01*
X1077198Y1155552D01*
X1077428Y1156069D01*
X1077505Y1156534D01*
X1075895D01*
G01X1073677D02*
X1073600Y1155862D01*
X1073485Y1155294D01*
X1073332Y1154777D01*
X1073140Y1154209D01*
X1072833Y1153434D01*
X1074367D01*
G01X1076043Y1188308D02*
X1075813Y1188463D01*
X1075545Y1188566D01*
X1075238D01*
X1074893Y1188411D01*
X1074625Y1188153D01*
X1074433Y1187843D01*
X1074280Y1187326D01*
X1074242Y1186861D01*
X1074318Y1186396D01*
X1074433Y1186086D01*
X1074663Y1185776D01*
X1074932Y1185569D01*
X1075200Y1185466D01*
X1075468D01*
X1075737Y1185569D01*
X1075967Y1185724D01*
X1076158Y1185931D01*
G01X1078300Y1185466D02*
Y1188566D01*
X1077840Y1187946D01*
G01Y1185466D02*
X1078760D01*
G01X1080748Y1185828D02*
X1081017Y1185569D01*
X1081323Y1185466D01*
X1081630Y1185569D01*
X1081898Y1185879D01*
X1082090Y1186344D01*
X1082167Y1186809D01*
Y1187378D01*
X1082090Y1187843D01*
X1081898Y1188256D01*
X1081668Y1188463D01*
X1081400Y1188566D01*
X1081093Y1188463D01*
X1080863Y1188256D01*
X1080710Y1187946D01*
X1080633Y1187533D01*
X1080710Y1187171D01*
X1080902Y1186809D01*
X1081132Y1186603D01*
X1081400Y1186551D01*
X1081707Y1186654D01*
X1081937Y1186913D01*
X1082167Y1187378D01*
G01X1076043Y1183308D02*
X1075813Y1183463D01*
X1075545Y1183566D01*
X1075238D01*
X1074893Y1183411D01*
X1074625Y1183153D01*
X1074433Y1182843D01*
X1074280Y1182326D01*
X1074242Y1181861D01*
X1074318Y1181396D01*
X1074433Y1181086D01*
X1074663Y1180776D01*
X1074932Y1180569D01*
X1075200Y1180466D01*
X1075468D01*
X1075737Y1180569D01*
X1075967Y1180724D01*
X1076158Y1180931D01*
G01X1077572Y1183049D02*
X1077802Y1183359D01*
X1078070Y1183514D01*
X1078377Y1183566D01*
X1078760Y1183463D01*
X1079028Y1183204D01*
X1079105Y1182894D01*
X1079067Y1182584D01*
X1078913Y1182326D01*
X1078147Y1181809D01*
X1077802Y1181448D01*
X1077572Y1180931D01*
X1077495Y1180466D01*
X1079105D01*
G01X1081400Y1183566D02*
X1081093Y1183463D01*
X1080863Y1183204D01*
X1080710Y1182894D01*
X1080595Y1182481D01*
X1080557Y1182016D01*
X1080595Y1181551D01*
X1080710Y1181138D01*
X1080863Y1180828D01*
X1081093Y1180569D01*
X1081400Y1180466D01*
X1081707Y1180569D01*
X1081937Y1180828D01*
X1082090Y1181138D01*
X1082205Y1181551D01*
X1082243Y1182016D01*
X1082205Y1182481D01*
X1082090Y1182894D01*
X1081937Y1183204D01*
X1081707Y1183463D01*
X1081400Y1183566D01*
G01X1069500Y1166150D02*
X1068105D01*
X1066400Y1165383D01*
G01Y1166917D02*
X1068105Y1166150D01*
G01X1066917Y1168522D02*
X1066607Y1168752D01*
X1066452Y1169020D01*
X1066400Y1169327D01*
X1066503Y1169710D01*
X1066762Y1169978D01*
X1067072Y1170055D01*
X1067382Y1170017D01*
X1067640Y1169863D01*
X1068157Y1169097D01*
X1068518Y1168752D01*
X1069035Y1168522D01*
X1069500Y1168445D01*
Y1170055D01*
G01X1073512Y1165305D02*
X1062488D01*
Y1178691D01*
X1073512D01*
Y1165305D01*
G01X1085500Y1182850D02*
X1086895D01*
X1088600Y1183617D01*
G01Y1182083D02*
X1086895Y1182850D01*
G01X1085500Y1179750D02*
X1088600D01*
X1087980Y1180210D01*
G01X1085500D02*
Y1179290D01*
G01X1076043Y1194308D02*
X1075813Y1194463D01*
X1075545Y1194566D01*
X1075238D01*
X1074893Y1194411D01*
X1074625Y1194153D01*
X1074433Y1193843D01*
X1074280Y1193326D01*
X1074242Y1192861D01*
X1074318Y1192396D01*
X1074433Y1192086D01*
X1074663Y1191776D01*
X1074932Y1191569D01*
X1075200Y1191466D01*
X1075468D01*
X1075737Y1191569D01*
X1075967Y1191724D01*
X1076158Y1191931D01*
G01X1078300Y1191466D02*
Y1194566D01*
X1077840Y1193946D01*
G01Y1191466D02*
X1078760D01*
G01X1081400D02*
X1081668Y1191518D01*
X1081975Y1191673D01*
X1082167Y1191931D01*
X1082243Y1192293D01*
X1082167Y1192654D01*
X1081937Y1192964D01*
X1081592Y1193120D01*
X1081208D01*
X1080978Y1193223D01*
X1080787Y1193481D01*
X1080710Y1193843D01*
X1080825Y1194204D01*
X1081093Y1194463D01*
X1081400Y1194566D01*
X1081707Y1194463D01*
X1081975Y1194204D01*
X1082090Y1193843D01*
X1082013Y1193481D01*
X1081822Y1193223D01*
X1081592Y1193120D01*
X1081208D01*
X1080863Y1192964D01*
X1080633Y1192654D01*
X1080557Y1192293D01*
X1080633Y1191931D01*
X1080825Y1191673D01*
X1081132Y1191518D01*
X1081400Y1191466D01*
G01X1063160Y1264834D02*
X1065382D01*
X1065847Y1264988D01*
X1066157Y1265294D01*
X1066260Y1265678D01*
X1066157Y1266061D01*
X1065847Y1266368D01*
X1065382Y1266521D01*
X1063160D01*
G01X1065898Y1268126D02*
X1066157Y1268394D01*
X1066260Y1268701D01*
X1066157Y1269008D01*
X1065847Y1269276D01*
X1065382Y1269468D01*
X1064917Y1269544D01*
X1064348D01*
X1063883Y1269468D01*
X1063470Y1269276D01*
X1063263Y1269046D01*
X1063160Y1268778D01*
X1063263Y1268471D01*
X1063470Y1268241D01*
X1063780Y1268088D01*
X1064193Y1268011D01*
X1064555Y1268088D01*
X1064917Y1268279D01*
X1065123Y1268509D01*
X1065175Y1268778D01*
X1065072Y1269084D01*
X1064813Y1269314D01*
X1064348Y1269544D01*
G01X1066308Y1294957D02*
X1066463Y1295187D01*
X1066566Y1295455D01*
Y1295762D01*
X1066411Y1296107D01*
X1066153Y1296375D01*
X1065843Y1296567D01*
X1065326Y1296720D01*
X1064861Y1296758D01*
X1064396Y1296682D01*
X1064086Y1296567D01*
X1063776Y1296337D01*
X1063569Y1296068D01*
X1063466Y1295800D01*
Y1295532D01*
X1063569Y1295263D01*
X1063724Y1295033D01*
X1063931Y1294842D01*
G01X1063466Y1292240D02*
X1066566D01*
X1064344Y1293658D01*
Y1291742D01*
G01X1066566Y1289600D02*
X1066463Y1289907D01*
X1066204Y1290137D01*
X1065894Y1290290D01*
X1065481Y1290405D01*
X1065016Y1290443D01*
X1064551Y1290405D01*
X1064138Y1290290D01*
X1063828Y1290137D01*
X1063569Y1289907D01*
X1063466Y1289600D01*
X1063569Y1289293D01*
X1063828Y1289063D01*
X1064138Y1288910D01*
X1064551Y1288795D01*
X1065016Y1288757D01*
X1065481Y1288795D01*
X1065894Y1288910D01*
X1066204Y1289063D01*
X1066463Y1289293D01*
X1066566Y1289600D01*
G01X1080308Y1294957D02*
X1080463Y1295187D01*
X1080566Y1295455D01*
Y1295762D01*
X1080411Y1296107D01*
X1080153Y1296375D01*
X1079843Y1296567D01*
X1079326Y1296720D01*
X1078861Y1296758D01*
X1078396Y1296682D01*
X1078086Y1296567D01*
X1077776Y1296337D01*
X1077569Y1296068D01*
X1077466Y1295800D01*
Y1295532D01*
X1077569Y1295263D01*
X1077724Y1295033D01*
X1077931Y1294842D01*
G01X1077466Y1292240D02*
X1080566D01*
X1078344Y1293658D01*
Y1291742D01*
G01X1077466Y1289600D02*
X1080566D01*
X1079946Y1290060D01*
G01X1077466D02*
Y1289140D01*
G01X1081433Y1306566D02*
Y1303466D01*
X1082967D01*
G01X1084457Y1304086D02*
X1084687Y1303724D01*
X1084993Y1303518D01*
X1085338Y1303466D01*
X1085645Y1303518D01*
X1085952Y1303776D01*
X1086143Y1304086D01*
X1086182Y1304396D01*
X1086105Y1304758D01*
X1085837Y1305016D01*
X1085568Y1305120D01*
X1085223D01*
G01X1085568D02*
X1085798Y1305274D01*
X1085990Y1305533D01*
X1086067Y1305843D01*
X1085990Y1306153D01*
X1085798Y1306411D01*
X1085453Y1306566D01*
X1085108Y1306514D01*
X1084763Y1306308D01*
G01X1112959Y1051880D02*
X1112768Y1052190D01*
X1112538Y1052397D01*
X1112269Y1052500D01*
X1111962Y1052397D01*
X1111732Y1052190D01*
X1111502Y1051880D01*
X1111426Y1051467D01*
Y1049400D01*
G01X1109821Y1051208D02*
X1109552Y1050847D01*
X1109322Y1050640D01*
X1109016Y1050537D01*
X1108748Y1050640D01*
X1108556Y1050847D01*
X1108402Y1051157D01*
X1108364Y1051518D01*
X1108402Y1051828D01*
X1108556Y1052138D01*
X1108786Y1052397D01*
X1109054Y1052500D01*
X1109361Y1052397D01*
X1109629Y1052087D01*
X1109782Y1051622D01*
X1109821Y1051105D01*
X1109744Y1050433D01*
X1109629Y1050072D01*
X1109438Y1049710D01*
X1109169Y1049452D01*
X1108901Y1049400D01*
X1108632Y1049503D01*
X1108441Y1049762D01*
G01X1110692Y1143043D02*
X1110537Y1142813D01*
X1110434Y1142545D01*
Y1142238D01*
X1110589Y1141893D01*
X1110847Y1141625D01*
X1111157Y1141433D01*
X1111674Y1141280D01*
X1112139Y1141242D01*
X1112604Y1141318D01*
X1112914Y1141433D01*
X1113224Y1141663D01*
X1113431Y1141932D01*
X1113534Y1142200D01*
Y1142468D01*
X1113431Y1142737D01*
X1113276Y1142967D01*
X1113069Y1143158D01*
G01X1110951Y1144572D02*
X1110641Y1144802D01*
X1110486Y1145070D01*
X1110434Y1145377D01*
X1110537Y1145760D01*
X1110796Y1146028D01*
X1111106Y1146105D01*
X1111416Y1146067D01*
X1111674Y1145913D01*
X1112191Y1145147D01*
X1112552Y1144802D01*
X1113069Y1144572D01*
X1113534Y1144495D01*
Y1146105D01*
G01Y1148860D02*
X1110434D01*
X1112656Y1147442D01*
Y1149358D01*
G01X1109224Y1149224D02*
X1148776D01*
Y1188776D01*
X1109224D01*
Y1149224D01*
G01X1109500Y1191100D02*
G03I-2500J0D01*
G01X1097692Y1234043D02*
X1097537Y1233813D01*
X1097434Y1233545D01*
Y1233238D01*
X1097589Y1232893D01*
X1097847Y1232625D01*
X1098157Y1232433D01*
X1098674Y1232280D01*
X1099139Y1232242D01*
X1099604Y1232318D01*
X1099914Y1232433D01*
X1100224Y1232663D01*
X1100431Y1232932D01*
X1100534Y1233200D01*
Y1233468D01*
X1100431Y1233737D01*
X1100276Y1233967D01*
X1100069Y1234158D01*
G01X1099914Y1235457D02*
X1100276Y1235687D01*
X1100482Y1235993D01*
X1100534Y1236338D01*
X1100482Y1236645D01*
X1100224Y1236952D01*
X1099914Y1237143D01*
X1099604Y1237182D01*
X1099242Y1237105D01*
X1098984Y1236837D01*
X1098880Y1236568D01*
Y1236223D01*
G01Y1236568D02*
X1098726Y1236798D01*
X1098467Y1236990D01*
X1098157Y1237067D01*
X1097847Y1236990D01*
X1097589Y1236798D01*
X1097434Y1236453D01*
X1097486Y1236108D01*
X1097692Y1235763D01*
G01X1100534Y1239400D02*
X1100482Y1239668D01*
X1100327Y1239975D01*
X1100069Y1240167D01*
X1099707Y1240243D01*
X1099346Y1240167D01*
X1099036Y1239937D01*
X1098880Y1239592D01*
Y1239208D01*
X1098777Y1238978D01*
X1098519Y1238787D01*
X1098157Y1238710D01*
X1097796Y1238825D01*
X1097537Y1239093D01*
X1097434Y1239400D01*
X1097537Y1239707D01*
X1097796Y1239975D01*
X1098157Y1240090D01*
X1098519Y1240013D01*
X1098777Y1239822D01*
X1098880Y1239592D01*
Y1239208D01*
X1099036Y1238863D01*
X1099346Y1238633D01*
X1099707Y1238557D01*
X1100069Y1238633D01*
X1100327Y1238825D01*
X1100482Y1239132D01*
X1100534Y1239400D01*
G01X1105692Y1246043D02*
X1105537Y1245813D01*
X1105434Y1245545D01*
Y1245238D01*
X1105589Y1244893D01*
X1105847Y1244625D01*
X1106157Y1244433D01*
X1106674Y1244280D01*
X1107139Y1244242D01*
X1107604Y1244318D01*
X1107914Y1244433D01*
X1108224Y1244663D01*
X1108431Y1244932D01*
X1108534Y1245200D01*
Y1245468D01*
X1108431Y1245737D01*
X1108276Y1245967D01*
X1108069Y1246158D01*
G01X1107914Y1247457D02*
X1108276Y1247687D01*
X1108482Y1247993D01*
X1108534Y1248338D01*
X1108482Y1248645D01*
X1108224Y1248952D01*
X1107914Y1249143D01*
X1107604Y1249182D01*
X1107242Y1249105D01*
X1106984Y1248837D01*
X1106880Y1248568D01*
Y1248223D01*
G01Y1248568D02*
X1106726Y1248798D01*
X1106467Y1248990D01*
X1106157Y1249067D01*
X1105847Y1248990D01*
X1105589Y1248798D01*
X1105434Y1248453D01*
X1105486Y1248108D01*
X1105692Y1247763D01*
G01X1108534Y1251323D02*
X1107862Y1251400D01*
X1107294Y1251515D01*
X1106777Y1251668D01*
X1106209Y1251860D01*
X1105434Y1252167D01*
Y1250633D01*
G01X1106440Y1315858D02*
X1104907D01*
Y1318958D01*
X1106440D01*
G01X1105827Y1317460D02*
X1104907D01*
G01X1108774Y1315858D02*
Y1318958D01*
X1108314Y1318338D01*
G01Y1315858D02*
X1109233D01*
G01X1144624Y1100842D02*
X1129376D01*
Y1081158D01*
X1144624D01*
Y1100842D01*
G01X1114692Y1095043D02*
X1114537Y1094813D01*
X1114434Y1094545D01*
Y1094238D01*
X1114589Y1093893D01*
X1114847Y1093625D01*
X1115157Y1093433D01*
X1115674Y1093280D01*
X1116139Y1093242D01*
X1116604Y1093318D01*
X1116914Y1093433D01*
X1117224Y1093663D01*
X1117431Y1093932D01*
X1117534Y1094200D01*
Y1094468D01*
X1117431Y1094737D01*
X1117276Y1094967D01*
X1117069Y1095158D01*
G01X1114951Y1096572D02*
X1114641Y1096802D01*
X1114486Y1097070D01*
X1114434Y1097377D01*
X1114537Y1097760D01*
X1114796Y1098028D01*
X1115106Y1098105D01*
X1115416Y1098067D01*
X1115674Y1097913D01*
X1116191Y1097147D01*
X1116552Y1096802D01*
X1117069Y1096572D01*
X1117534Y1096495D01*
Y1098105D01*
G01Y1100400D02*
X1117482Y1100668D01*
X1117327Y1100975D01*
X1117069Y1101167D01*
X1116707Y1101243D01*
X1116346Y1101167D01*
X1116036Y1100937D01*
X1115880Y1100592D01*
Y1100208D01*
X1115777Y1099978D01*
X1115519Y1099787D01*
X1115157Y1099710D01*
X1114796Y1099825D01*
X1114537Y1100093D01*
X1114434Y1100400D01*
X1114537Y1100707D01*
X1114796Y1100975D01*
X1115157Y1101090D01*
X1115519Y1101013D01*
X1115777Y1100822D01*
X1115880Y1100592D01*
Y1100208D01*
X1116036Y1099863D01*
X1116346Y1099633D01*
X1116707Y1099557D01*
X1117069Y1099633D01*
X1117327Y1099825D01*
X1117482Y1100132D01*
X1117534Y1100400D01*
G01X1134466Y1104567D02*
X1137566D01*
Y1103608D01*
X1137411Y1103302D01*
X1137204Y1103110D01*
X1136791Y1103033D01*
X1136378Y1103110D01*
X1136120Y1103340D01*
X1135964Y1103608D01*
Y1104567D01*
G01Y1103608D02*
X1134466Y1103033D01*
G01Y1100700D02*
X1137566D01*
X1136946Y1101160D01*
G01X1134466D02*
Y1100240D01*
G01Y1097677D02*
X1135138Y1097600D01*
X1135706Y1097485D01*
X1136223Y1097332D01*
X1136791Y1097140D01*
X1137566Y1096833D01*
Y1098367D01*
G01X1139393Y1087900D02*
Y1090122D01*
X1139240Y1090587D01*
X1138933Y1090897D01*
X1138550Y1091000D01*
X1138167Y1090897D01*
X1137860Y1090587D01*
X1137707Y1090122D01*
Y1087900D01*
G01X1136178Y1089708D02*
X1135910Y1089347D01*
X1135680Y1089140D01*
X1135373Y1089037D01*
X1135105Y1089140D01*
X1134913Y1089347D01*
X1134760Y1089657D01*
X1134722Y1090018D01*
X1134760Y1090328D01*
X1134913Y1090638D01*
X1135143Y1090897D01*
X1135412Y1091000D01*
X1135718Y1090897D01*
X1135987Y1090587D01*
X1136140Y1090122D01*
X1136178Y1089605D01*
X1136102Y1088933D01*
X1135987Y1088572D01*
X1135795Y1088210D01*
X1135527Y1087952D01*
X1135258Y1087900D01*
X1134990Y1088003D01*
X1134798Y1088262D01*
G01X1118466Y1196567D02*
X1121566D01*
Y1195608D01*
X1121411Y1195302D01*
X1121204Y1195110D01*
X1120791Y1195033D01*
X1120378Y1195110D01*
X1120120Y1195340D01*
X1119964Y1195608D01*
Y1196567D01*
G01Y1195608D02*
X1118466Y1195033D01*
G01Y1192700D02*
X1121566D01*
X1120946Y1193160D01*
G01X1118466D02*
Y1192240D01*
G01X1121049Y1190328D02*
X1121359Y1190098D01*
X1121514Y1189830D01*
X1121566Y1189523D01*
X1121463Y1189140D01*
X1121204Y1188872D01*
X1120894Y1188795D01*
X1120584Y1188833D01*
X1120326Y1188987D01*
X1119809Y1189753D01*
X1119448Y1190098D01*
X1118931Y1190328D01*
X1118466Y1190405D01*
Y1188795D01*
G01X1126607Y1172100D02*
Y1169878D01*
X1126760Y1169413D01*
X1127067Y1169103D01*
X1127450Y1169000D01*
X1127833Y1169103D01*
X1128140Y1169413D01*
X1128293Y1169878D01*
Y1172100D01*
G01X1131010Y1169000D02*
Y1172100D01*
X1129592Y1169878D01*
X1131508D01*
G01X1112692Y1213043D02*
X1112537Y1212813D01*
X1112434Y1212545D01*
Y1212238D01*
X1112589Y1211893D01*
X1112847Y1211625D01*
X1113157Y1211433D01*
X1113674Y1211280D01*
X1114139Y1211242D01*
X1114604Y1211318D01*
X1114914Y1211433D01*
X1115224Y1211663D01*
X1115431Y1211932D01*
X1115534Y1212200D01*
Y1212468D01*
X1115431Y1212737D01*
X1115276Y1212967D01*
X1115069Y1213158D01*
G01X1112951Y1214572D02*
X1112641Y1214802D01*
X1112486Y1215070D01*
X1112434Y1215377D01*
X1112537Y1215760D01*
X1112796Y1216028D01*
X1113106Y1216105D01*
X1113416Y1216067D01*
X1113674Y1215913D01*
X1114191Y1215147D01*
X1114552Y1214802D01*
X1115069Y1214572D01*
X1115534Y1214495D01*
Y1216105D01*
G01X1114914Y1217557D02*
X1115276Y1217787D01*
X1115482Y1218093D01*
X1115534Y1218438D01*
X1115482Y1218745D01*
X1115224Y1219052D01*
X1114914Y1219243D01*
X1114604Y1219282D01*
X1114242Y1219205D01*
X1113984Y1218937D01*
X1113881Y1218668D01*
Y1218323D01*
G01Y1218668D02*
X1113726Y1218898D01*
X1113467Y1219090D01*
X1113157Y1219167D01*
X1112847Y1219090D01*
X1112589Y1218898D01*
X1112434Y1218553D01*
X1112486Y1218208D01*
X1112692Y1217863D01*
G01X1143000Y1083500D02*
G03I-1000J0D01*
G01X1140466Y1104567D02*
X1143566D01*
Y1103608D01*
X1143411Y1103302D01*
X1143204Y1103110D01*
X1142791Y1103033D01*
X1142378Y1103110D01*
X1142120Y1103340D01*
X1141964Y1103608D01*
Y1104567D01*
G01Y1103608D02*
X1140466Y1103033D01*
G01Y1100700D02*
X1143566D01*
X1142946Y1101160D01*
G01X1140466D02*
Y1100240D01*
G01Y1097600D02*
X1140518Y1097332D01*
X1140673Y1097025D01*
X1140931Y1096833D01*
X1141293Y1096757D01*
X1141654Y1096833D01*
X1141964Y1097063D01*
X1142120Y1097408D01*
Y1097792D01*
X1142223Y1098022D01*
X1142481Y1098213D01*
X1142843Y1098290D01*
X1143204Y1098175D01*
X1143463Y1097907D01*
X1143566Y1097600D01*
X1143463Y1097293D01*
X1143204Y1097025D01*
X1142843Y1096910D01*
X1142481Y1096987D01*
X1142223Y1097178D01*
X1142120Y1097408D01*
Y1097792D01*
X1141964Y1098137D01*
X1141654Y1098367D01*
X1141293Y1098443D01*
X1140931Y1098367D01*
X1140673Y1098175D01*
X1140518Y1097868D01*
X1140466Y1097600D01*
G01X1151842Y1137007D02*
X1151997Y1137237D01*
X1152100Y1137505D01*
Y1137812D01*
X1151945Y1138157D01*
X1151687Y1138425D01*
X1151377Y1138617D01*
X1150860Y1138770D01*
X1150395Y1138808D01*
X1149930Y1138732D01*
X1149620Y1138617D01*
X1149310Y1138387D01*
X1149103Y1138118D01*
X1149000Y1137850D01*
Y1137582D01*
X1149103Y1137313D01*
X1149258Y1137083D01*
X1149465Y1136892D01*
G01X1151583Y1135478D02*
X1151893Y1135248D01*
X1152048Y1134980D01*
X1152100Y1134673D01*
X1151997Y1134290D01*
X1151738Y1134022D01*
X1151428Y1133945D01*
X1151118Y1133983D01*
X1150860Y1134137D01*
X1150343Y1134903D01*
X1149982Y1135248D01*
X1149465Y1135478D01*
X1149000Y1135555D01*
Y1133945D01*
G01X1149465Y1132493D02*
X1149207Y1132263D01*
X1149052Y1131995D01*
X1149000Y1131650D01*
X1149103Y1131305D01*
X1149310Y1131037D01*
X1149672Y1130845D01*
X1150085Y1130807D01*
X1150498Y1130883D01*
X1150757Y1131075D01*
X1150963Y1131343D01*
X1151015Y1131612D01*
X1150963Y1131880D01*
X1150757Y1132225D01*
X1152100Y1132110D01*
Y1131075D01*
G01X1152692Y1213043D02*
X1152537Y1212813D01*
X1152434Y1212545D01*
Y1212238D01*
X1152589Y1211893D01*
X1152847Y1211625D01*
X1153157Y1211433D01*
X1153674Y1211280D01*
X1154139Y1211242D01*
X1154604Y1211318D01*
X1154914Y1211433D01*
X1155224Y1211663D01*
X1155431Y1211932D01*
X1155534Y1212200D01*
Y1212468D01*
X1155431Y1212737D01*
X1155276Y1212967D01*
X1155069Y1213158D01*
G01X1152951Y1214572D02*
X1152641Y1214802D01*
X1152486Y1215070D01*
X1152434Y1215377D01*
X1152537Y1215760D01*
X1152796Y1216028D01*
X1153106Y1216105D01*
X1153416Y1216067D01*
X1153674Y1215913D01*
X1154191Y1215147D01*
X1154552Y1214802D01*
X1155069Y1214572D01*
X1155534Y1214495D01*
Y1216105D01*
G01X1154242Y1217672D02*
X1153880Y1217940D01*
X1153674Y1218170D01*
X1153571Y1218477D01*
X1153674Y1218745D01*
X1153880Y1218937D01*
X1154191Y1219090D01*
X1154552Y1219128D01*
X1154862Y1219090D01*
X1155172Y1218937D01*
X1155431Y1218707D01*
X1155534Y1218438D01*
X1155431Y1218132D01*
X1155121Y1217863D01*
X1154656Y1217710D01*
X1154139Y1217672D01*
X1153467Y1217748D01*
X1153106Y1217863D01*
X1152744Y1218055D01*
X1152486Y1218323D01*
X1152434Y1218592D01*
X1152537Y1218860D01*
X1152796Y1219052D01*
G01X1140793Y1264842D02*
X1140563Y1264997D01*
X1140295Y1265100D01*
X1139988D01*
X1139643Y1264945D01*
X1139375Y1264687D01*
X1139183Y1264377D01*
X1139030Y1263860D01*
X1138992Y1263395D01*
X1139068Y1262930D01*
X1139183Y1262620D01*
X1139413Y1262310D01*
X1139682Y1262103D01*
X1139950Y1262000D01*
X1140218D01*
X1140487Y1262103D01*
X1140717Y1262258D01*
X1140908Y1262465D01*
G01X1143510Y1262000D02*
Y1265100D01*
X1142092Y1262878D01*
X1144008D01*
G01X1145307Y1262620D02*
X1145537Y1262258D01*
X1145843Y1262052D01*
X1146188Y1262000D01*
X1146495Y1262052D01*
X1146802Y1262310D01*
X1146993Y1262620D01*
X1147032Y1262930D01*
X1146955Y1263292D01*
X1146687Y1263550D01*
X1146418Y1263653D01*
X1146073D01*
G01X1146418D02*
X1146648Y1263808D01*
X1146840Y1264067D01*
X1146917Y1264377D01*
X1146840Y1264687D01*
X1146648Y1264945D01*
X1146303Y1265100D01*
X1145958Y1265048D01*
X1145613Y1264842D01*
G01X1170433Y1032466D02*
Y1035566D01*
X1171392D01*
X1171698Y1035411D01*
X1171890Y1035204D01*
X1171967Y1034791D01*
X1171890Y1034378D01*
X1171660Y1034120D01*
X1171392Y1033964D01*
X1170433D01*
G01X1171392D02*
X1171967Y1032466D01*
G01X1173572Y1035049D02*
X1173802Y1035359D01*
X1174070Y1035514D01*
X1174377Y1035566D01*
X1174760Y1035463D01*
X1175028Y1035204D01*
X1175105Y1034894D01*
X1175067Y1034584D01*
X1174913Y1034326D01*
X1174147Y1033809D01*
X1173802Y1033448D01*
X1173572Y1032931D01*
X1173495Y1032466D01*
X1175105D01*
G01X1176557Y1033086D02*
X1176787Y1032724D01*
X1177093Y1032518D01*
X1177438Y1032466D01*
X1177745Y1032518D01*
X1178052Y1032776D01*
X1178243Y1033086D01*
X1178282Y1033396D01*
X1178205Y1033758D01*
X1177937Y1034016D01*
X1177668Y1034120D01*
X1177323D01*
G01X1177668D02*
X1177898Y1034274D01*
X1178090Y1034533D01*
X1178167Y1034843D01*
X1178090Y1035153D01*
X1177898Y1035411D01*
X1177553Y1035566D01*
X1177208Y1035514D01*
X1176863Y1035308D01*
G01X1187308Y1065957D02*
X1187463Y1066187D01*
X1187566Y1066455D01*
Y1066762D01*
X1187411Y1067107D01*
X1187153Y1067375D01*
X1186843Y1067567D01*
X1186326Y1067720D01*
X1185861Y1067758D01*
X1185396Y1067682D01*
X1185086Y1067567D01*
X1184776Y1067337D01*
X1184569Y1067068D01*
X1184466Y1066800D01*
Y1066532D01*
X1184569Y1066263D01*
X1184724Y1066033D01*
X1184931Y1065842D01*
G01X1185086Y1064543D02*
X1184724Y1064313D01*
X1184518Y1064007D01*
X1184466Y1063662D01*
X1184518Y1063355D01*
X1184776Y1063048D01*
X1185086Y1062857D01*
X1185396Y1062818D01*
X1185758Y1062895D01*
X1186016Y1063163D01*
X1186120Y1063432D01*
Y1063777D01*
G01Y1063432D02*
X1186274Y1063202D01*
X1186533Y1063010D01*
X1186843Y1062933D01*
X1187153Y1063010D01*
X1187411Y1063202D01*
X1187566Y1063547D01*
X1187514Y1063892D01*
X1187308Y1064237D01*
G01X1184466Y1060600D02*
X1187566D01*
X1186946Y1061060D01*
G01X1184466D02*
Y1060140D01*
G01X1169433Y1041466D02*
Y1044566D01*
X1170392D01*
X1170698Y1044411D01*
X1170890Y1044204D01*
X1170967Y1043791D01*
X1170890Y1043378D01*
X1170660Y1043120D01*
X1170392Y1042964D01*
X1169433D01*
G01X1170392D02*
X1170967Y1041466D01*
G01X1172572Y1044049D02*
X1172802Y1044359D01*
X1173070Y1044514D01*
X1173377Y1044566D01*
X1173760Y1044463D01*
X1174028Y1044204D01*
X1174105Y1043894D01*
X1174067Y1043584D01*
X1173913Y1043326D01*
X1173147Y1042809D01*
X1172802Y1042448D01*
X1172572Y1041931D01*
X1172495Y1041466D01*
X1174105D01*
G01X1176860D02*
Y1044566D01*
X1175442Y1042344D01*
X1177358D01*
G01X1170000Y1052707D02*
X1166900D01*
Y1053473D01*
X1167055Y1053780D01*
X1167262Y1054010D01*
X1167572Y1054202D01*
X1167933Y1054355D01*
X1168450Y1054393D01*
X1168967Y1054355D01*
X1169328Y1054202D01*
X1169638Y1054010D01*
X1169845Y1053780D01*
X1170000Y1053473D01*
Y1052707D01*
G01Y1056650D02*
X1169948Y1056918D01*
X1169793Y1057225D01*
X1169535Y1057417D01*
X1169173Y1057493D01*
X1168812Y1057417D01*
X1168502Y1057187D01*
X1168347Y1056842D01*
Y1056458D01*
X1168243Y1056228D01*
X1167985Y1056037D01*
X1167623Y1055960D01*
X1167262Y1056075D01*
X1167003Y1056343D01*
X1166900Y1056650D01*
X1167003Y1056957D01*
X1167262Y1057225D01*
X1167623Y1057340D01*
X1167985Y1057263D01*
X1168243Y1057072D01*
X1168347Y1056842D01*
Y1056458D01*
X1168502Y1056113D01*
X1168812Y1055883D01*
X1169173Y1055807D01*
X1169535Y1055883D01*
X1169793Y1056075D01*
X1169948Y1056382D01*
X1170000Y1056650D01*
G01X1178000Y1052707D02*
X1174900D01*
Y1053473D01*
X1175055Y1053780D01*
X1175262Y1054010D01*
X1175572Y1054202D01*
X1175933Y1054355D01*
X1176450Y1054393D01*
X1176967Y1054355D01*
X1177328Y1054202D01*
X1177638Y1054010D01*
X1177845Y1053780D01*
X1178000Y1053473D01*
Y1052707D01*
G01X1177638Y1055998D02*
X1177897Y1056267D01*
X1178000Y1056573D01*
X1177897Y1056880D01*
X1177587Y1057148D01*
X1177122Y1057340D01*
X1176657Y1057417D01*
X1176088D01*
X1175623Y1057340D01*
X1175210Y1057148D01*
X1175003Y1056918D01*
X1174900Y1056650D01*
X1175003Y1056343D01*
X1175210Y1056113D01*
X1175520Y1055960D01*
X1175933Y1055883D01*
X1176295Y1055960D01*
X1176657Y1056152D01*
X1176863Y1056382D01*
X1176915Y1056650D01*
X1176812Y1056957D01*
X1176553Y1057187D01*
X1176088Y1057417D01*
G01X1184466Y1079567D02*
X1187566D01*
Y1078608D01*
X1187411Y1078302D01*
X1187204Y1078110D01*
X1186791Y1078033D01*
X1186378Y1078110D01*
X1186120Y1078340D01*
X1185964Y1078608D01*
Y1079567D01*
G01Y1078608D02*
X1184466Y1078033D01*
G01X1187049Y1076428D02*
X1187359Y1076198D01*
X1187514Y1075930D01*
X1187566Y1075623D01*
X1187463Y1075240D01*
X1187204Y1074972D01*
X1186894Y1074895D01*
X1186584Y1074933D01*
X1186326Y1075087D01*
X1185809Y1075853D01*
X1185448Y1076198D01*
X1184931Y1076428D01*
X1184466Y1076505D01*
Y1074895D01*
G01X1187049Y1073328D02*
X1187359Y1073098D01*
X1187514Y1072830D01*
X1187566Y1072523D01*
X1187463Y1072140D01*
X1187204Y1071872D01*
X1186894Y1071795D01*
X1186584Y1071833D01*
X1186326Y1071987D01*
X1185809Y1072753D01*
X1185448Y1073098D01*
X1184931Y1073328D01*
X1184466Y1073405D01*
Y1071795D01*
G01X1187308Y1101957D02*
X1187463Y1102187D01*
X1187566Y1102455D01*
Y1102762D01*
X1187411Y1103107D01*
X1187153Y1103375D01*
X1186843Y1103567D01*
X1186326Y1103720D01*
X1185861Y1103758D01*
X1185396Y1103682D01*
X1185086Y1103567D01*
X1184776Y1103337D01*
X1184569Y1103068D01*
X1184466Y1102800D01*
Y1102532D01*
X1184569Y1102263D01*
X1184724Y1102033D01*
X1184931Y1101842D01*
G01X1185086Y1100543D02*
X1184724Y1100313D01*
X1184518Y1100007D01*
X1184466Y1099662D01*
X1184518Y1099355D01*
X1184776Y1099048D01*
X1185086Y1098857D01*
X1185396Y1098818D01*
X1185758Y1098895D01*
X1186016Y1099163D01*
X1186120Y1099432D01*
Y1099777D01*
G01Y1099432D02*
X1186274Y1099202D01*
X1186533Y1099010D01*
X1186843Y1098933D01*
X1187153Y1099010D01*
X1187411Y1099202D01*
X1187566Y1099547D01*
X1187514Y1099892D01*
X1187308Y1100237D01*
G01X1187566Y1096600D02*
X1187463Y1096907D01*
X1187204Y1097137D01*
X1186894Y1097290D01*
X1186481Y1097405D01*
X1186016Y1097443D01*
X1185551Y1097405D01*
X1185138Y1097290D01*
X1184828Y1097137D01*
X1184569Y1096907D01*
X1184466Y1096600D01*
X1184569Y1096293D01*
X1184828Y1096063D01*
X1185138Y1095910D01*
X1185551Y1095795D01*
X1186016Y1095757D01*
X1186481Y1095795D01*
X1186894Y1095910D01*
X1187204Y1096063D01*
X1187463Y1096293D01*
X1187566Y1096600D01*
G01X1184466Y1116567D02*
X1187566D01*
Y1115608D01*
X1187411Y1115302D01*
X1187204Y1115110D01*
X1186791Y1115033D01*
X1186378Y1115110D01*
X1186120Y1115340D01*
X1185964Y1115608D01*
Y1116567D01*
G01Y1115608D02*
X1184466Y1115033D01*
G01X1187049Y1113428D02*
X1187359Y1113198D01*
X1187514Y1112930D01*
X1187566Y1112623D01*
X1187463Y1112240D01*
X1187204Y1111972D01*
X1186894Y1111895D01*
X1186584Y1111933D01*
X1186326Y1112087D01*
X1185809Y1112853D01*
X1185448Y1113198D01*
X1184931Y1113428D01*
X1184466Y1113505D01*
Y1111895D01*
G01Y1109600D02*
X1187566D01*
X1186946Y1110060D01*
G01X1184466D02*
Y1109140D01*
G01X1186308Y1152957D02*
X1186463Y1153187D01*
X1186566Y1153455D01*
Y1153762D01*
X1186411Y1154107D01*
X1186153Y1154375D01*
X1185843Y1154567D01*
X1185326Y1154720D01*
X1184861Y1154758D01*
X1184396Y1154682D01*
X1184086Y1154567D01*
X1183776Y1154337D01*
X1183569Y1154068D01*
X1183466Y1153800D01*
Y1153532D01*
X1183569Y1153263D01*
X1183724Y1153033D01*
X1183931Y1152842D01*
G01X1186049Y1151428D02*
X1186359Y1151198D01*
X1186514Y1150930D01*
X1186566Y1150623D01*
X1186463Y1150240D01*
X1186204Y1149972D01*
X1185894Y1149895D01*
X1185584Y1149933D01*
X1185326Y1150087D01*
X1184809Y1150853D01*
X1184448Y1151198D01*
X1183931Y1151428D01*
X1183466Y1151505D01*
Y1149895D01*
G01X1183828Y1148252D02*
X1183569Y1147983D01*
X1183466Y1147677D01*
X1183569Y1147370D01*
X1183879Y1147102D01*
X1184344Y1146910D01*
X1184809Y1146833D01*
X1185378D01*
X1185843Y1146910D01*
X1186256Y1147102D01*
X1186463Y1147332D01*
X1186566Y1147600D01*
X1186463Y1147907D01*
X1186256Y1148137D01*
X1185946Y1148290D01*
X1185533Y1148367D01*
X1185171Y1148290D01*
X1184809Y1148098D01*
X1184603Y1147868D01*
X1184551Y1147600D01*
X1184654Y1147293D01*
X1184913Y1147063D01*
X1185378Y1146833D01*
G01X1183466Y1166567D02*
X1186566D01*
Y1165608D01*
X1186411Y1165302D01*
X1186204Y1165110D01*
X1185791Y1165033D01*
X1185378Y1165110D01*
X1185120Y1165340D01*
X1184964Y1165608D01*
Y1166567D01*
G01Y1165608D02*
X1183466Y1165033D01*
G01X1186049Y1163428D02*
X1186359Y1163198D01*
X1186514Y1162930D01*
X1186566Y1162623D01*
X1186463Y1162240D01*
X1186204Y1161972D01*
X1185894Y1161895D01*
X1185584Y1161933D01*
X1185326Y1162087D01*
X1184809Y1162853D01*
X1184448Y1163198D01*
X1183931Y1163428D01*
X1183466Y1163505D01*
Y1161895D01*
G01X1186566Y1159600D02*
X1186463Y1159907D01*
X1186204Y1160137D01*
X1185894Y1160290D01*
X1185481Y1160405D01*
X1185016Y1160443D01*
X1184551Y1160405D01*
X1184138Y1160290D01*
X1183828Y1160137D01*
X1183569Y1159907D01*
X1183466Y1159600D01*
X1183569Y1159293D01*
X1183828Y1159063D01*
X1184138Y1158910D01*
X1184551Y1158795D01*
X1185016Y1158757D01*
X1185481Y1158795D01*
X1185894Y1158910D01*
X1186204Y1159063D01*
X1186463Y1159293D01*
X1186566Y1159600D01*
G01X1177898Y1180106D02*
X1178208Y1180297D01*
X1178415Y1180527D01*
X1178518Y1180796D01*
X1178415Y1181102D01*
X1178208Y1181332D01*
X1177898Y1181562D01*
X1177485Y1181639D01*
X1175418D01*
G01X1178518Y1183972D02*
X1175418D01*
X1176038Y1183512D01*
G01X1178518D02*
Y1184432D01*
G01X1175418Y1187072D02*
X1175521Y1186766D01*
X1175780Y1186536D01*
X1176090Y1186382D01*
X1176503Y1186267D01*
X1176968Y1186229D01*
X1177433Y1186267D01*
X1177846Y1186382D01*
X1178156Y1186536D01*
X1178415Y1186766D01*
X1178518Y1187072D01*
X1178415Y1187379D01*
X1178156Y1187609D01*
X1177846Y1187762D01*
X1177433Y1187877D01*
X1176968Y1187916D01*
X1176503Y1187877D01*
X1176090Y1187762D01*
X1175780Y1187609D01*
X1175521Y1187379D01*
X1175418Y1187072D01*
G01X1186057Y1270100D02*
Y1267878D01*
X1186210Y1267413D01*
X1186517Y1267103D01*
X1186900Y1267000D01*
X1187283Y1267103D01*
X1187590Y1267413D01*
X1187743Y1267878D01*
Y1270100D01*
G01X1190000Y1267000D02*
Y1270100D01*
X1189540Y1269480D01*
G01Y1267000D02*
X1190460D01*
G01X1193100D02*
Y1270100D01*
X1192640Y1269480D01*
G01Y1267000D02*
X1193560D01*
G01X1182376Y1257158D02*
X1197624D01*
Y1276842D01*
X1182376D01*
Y1257158D01*
G01X1186000Y1274500D02*
G03I-1000J0D01*
G01X1242600Y1033400D02*
Y1080600D01*
X1195400D01*
Y1033400D01*
X1242600D01*
G01Y1081400D02*
Y1128600D01*
X1195400D01*
Y1081400D01*
X1242600D01*
G01Y1129400D02*
Y1176600D01*
X1195400D01*
Y1129400D01*
X1242600D01*
G01X1214158Y1263793D02*
X1214003Y1263563D01*
X1213900Y1263295D01*
Y1262988D01*
X1214055Y1262643D01*
X1214313Y1262375D01*
X1214623Y1262183D01*
X1215140Y1262030D01*
X1215605Y1261992D01*
X1216070Y1262068D01*
X1216380Y1262183D01*
X1216690Y1262413D01*
X1216897Y1262682D01*
X1217000Y1262950D01*
Y1263218D01*
X1216897Y1263487D01*
X1216742Y1263717D01*
X1216535Y1263908D01*
G01X1217000Y1266510D02*
X1213900D01*
X1216122Y1265092D01*
Y1267008D01*
G01X1217000Y1269610D02*
X1213900D01*
X1216122Y1268192D01*
Y1270108D01*
G01X1199383Y1314620D02*
X1199575Y1314310D01*
X1199805Y1314103D01*
X1200073Y1314000D01*
X1200380Y1314103D01*
X1200610Y1314310D01*
X1200840Y1314620D01*
X1200917Y1315033D01*
Y1317100D01*
G01X1202407Y1314620D02*
X1202637Y1314258D01*
X1202943Y1314052D01*
X1203288Y1314000D01*
X1203595Y1314052D01*
X1203902Y1314310D01*
X1204093Y1314620D01*
X1204132Y1314930D01*
X1204055Y1315292D01*
X1203787Y1315550D01*
X1203518Y1315653D01*
X1203173D01*
G01X1203518D02*
X1203748Y1315808D01*
X1203940Y1316067D01*
X1204017Y1316377D01*
X1203940Y1316687D01*
X1203748Y1316945D01*
X1203403Y1317100D01*
X1203058Y1317048D01*
X1202713Y1316842D01*
G01X1220160Y1057834D02*
X1222382D01*
X1222847Y1057988D01*
X1223157Y1058294D01*
X1223260Y1058678D01*
X1223157Y1059061D01*
X1222847Y1059368D01*
X1222382Y1059521D01*
X1220160D01*
G01X1223363Y1060934D02*
X1221090Y1062621D01*
G01X1220676Y1061778D02*
X1223776D01*
G01X1223363Y1062621D02*
X1221090Y1060934D01*
G01X1222226Y1060628D02*
Y1062928D01*
G01X1219413Y1064155D02*
X1219155Y1063848D01*
X1219000Y1063503D01*
Y1063197D01*
X1219155Y1062890D01*
X1219413Y1062660D01*
X1219775Y1062545D01*
X1220137Y1062622D01*
X1220447Y1062813D01*
X1220653Y1063158D01*
X1220757Y1063618D01*
X1220963Y1063887D01*
X1221325Y1064002D01*
X1221687Y1063925D01*
X1221945Y1063733D01*
X1222100Y1063465D01*
Y1063197D01*
X1221997Y1062928D01*
X1221738Y1062698D01*
G01X1222100Y1061400D02*
X1219000Y1060863D01*
X1222100Y1060250D01*
X1219000Y1059637D01*
X1222100Y1059100D01*
G01X1219620Y1057993D02*
X1219258Y1057763D01*
X1219052Y1057457D01*
X1219000Y1057112D01*
X1219052Y1056805D01*
X1219310Y1056498D01*
X1219620Y1056307D01*
X1219930Y1056268D01*
X1220292Y1056345D01*
X1220550Y1056613D01*
X1220653Y1056882D01*
Y1057227D01*
G01Y1056882D02*
X1220808Y1056652D01*
X1221067Y1056460D01*
X1221377Y1056383D01*
X1221687Y1056460D01*
X1221945Y1056652D01*
X1222100Y1056997D01*
X1222048Y1057342D01*
X1221842Y1057687D01*
G01X1220160Y1102834D02*
X1222382D01*
X1222847Y1102988D01*
X1223157Y1103294D01*
X1223260Y1103678D01*
X1223157Y1104061D01*
X1222847Y1104368D01*
X1222382Y1104521D01*
X1220160D01*
G01X1223363Y1105934D02*
X1221090Y1107621D01*
G01X1220676Y1106778D02*
X1223776D01*
G01X1223363Y1107621D02*
X1221090Y1105934D01*
G01X1222226Y1105628D02*
Y1107928D01*
G01X1219413Y1112155D02*
X1219155Y1111848D01*
X1219000Y1111503D01*
Y1111197D01*
X1219155Y1110890D01*
X1219413Y1110660D01*
X1219775Y1110545D01*
X1220137Y1110622D01*
X1220447Y1110813D01*
X1220653Y1111158D01*
X1220757Y1111618D01*
X1220963Y1111887D01*
X1221325Y1112002D01*
X1221687Y1111925D01*
X1221945Y1111733D01*
X1222100Y1111465D01*
Y1111197D01*
X1221997Y1110928D01*
X1221738Y1110698D01*
G01X1222100Y1109400D02*
X1219000Y1108863D01*
X1222100Y1108250D01*
X1219000Y1107637D01*
X1222100Y1107100D01*
G01X1221583Y1105878D02*
X1221893Y1105648D01*
X1222048Y1105380D01*
X1222100Y1105073D01*
X1221997Y1104690D01*
X1221738Y1104422D01*
X1221428Y1104345D01*
X1221118Y1104383D01*
X1220860Y1104537D01*
X1220343Y1105303D01*
X1219982Y1105648D01*
X1219465Y1105878D01*
X1219000Y1105955D01*
Y1104345D01*
G01X1220160Y1147834D02*
X1222382D01*
X1222847Y1147988D01*
X1223157Y1148294D01*
X1223260Y1148678D01*
X1223157Y1149061D01*
X1222847Y1149368D01*
X1222382Y1149521D01*
X1220160D01*
G01X1223363Y1150934D02*
X1221090Y1152621D01*
G01X1220676Y1151778D02*
X1223776D01*
G01X1223363Y1152621D02*
X1221090Y1150934D01*
G01X1222226Y1150628D02*
Y1152928D01*
G01X1223413Y1165655D02*
X1223155Y1165348D01*
X1223000Y1165003D01*
Y1164697D01*
X1223155Y1164390D01*
X1223413Y1164160D01*
X1223775Y1164045D01*
X1224137Y1164122D01*
X1224447Y1164313D01*
X1224653Y1164658D01*
X1224757Y1165118D01*
X1224963Y1165387D01*
X1225325Y1165502D01*
X1225687Y1165425D01*
X1225945Y1165233D01*
X1226100Y1164965D01*
Y1164697D01*
X1225997Y1164428D01*
X1225738Y1164198D01*
G01X1226100Y1162900D02*
X1223000Y1162363D01*
X1226100Y1161750D01*
X1223000Y1161137D01*
X1226100Y1160600D01*
G01X1223000Y1158650D02*
X1226100D01*
X1225480Y1159110D01*
G01X1223000D02*
Y1158190D01*
G01X1220160Y1179834D02*
X1222382D01*
X1222847Y1179988D01*
X1223157Y1180294D01*
X1223260Y1180678D01*
X1223157Y1181061D01*
X1222847Y1181368D01*
X1222382Y1181521D01*
X1220160D01*
G01X1223363Y1182934D02*
X1221090Y1184621D01*
G01X1220676Y1183778D02*
X1223776D01*
G01X1223363Y1184621D02*
X1221090Y1182934D01*
G01X1222226Y1182628D02*
Y1184928D01*
G01X1222433Y1273466D02*
Y1276566D01*
X1223392D01*
X1223698Y1276411D01*
X1223890Y1276204D01*
X1223967Y1275791D01*
X1223890Y1275378D01*
X1223660Y1275120D01*
X1223392Y1274964D01*
X1222433D01*
G01X1223392D02*
X1223967Y1273466D01*
G01X1226300D02*
Y1276566D01*
X1225840Y1275946D01*
G01Y1273466D02*
X1226760D01*
G01X1228557Y1274086D02*
X1228787Y1273724D01*
X1229093Y1273518D01*
X1229438Y1273466D01*
X1229745Y1273518D01*
X1230052Y1273776D01*
X1230243Y1274086D01*
X1230282Y1274396D01*
X1230205Y1274758D01*
X1229937Y1275016D01*
X1229668Y1275120D01*
X1229323D01*
G01X1229668D02*
X1229898Y1275274D01*
X1230090Y1275533D01*
X1230167Y1275843D01*
X1230090Y1276153D01*
X1229898Y1276411D01*
X1229553Y1276566D01*
X1229208Y1276514D01*
X1228863Y1276308D01*
G01X1222433Y1279466D02*
Y1282566D01*
X1223392D01*
X1223698Y1282411D01*
X1223890Y1282204D01*
X1223967Y1281791D01*
X1223890Y1281378D01*
X1223660Y1281120D01*
X1223392Y1280964D01*
X1222433D01*
G01X1223392D02*
X1223967Y1279466D01*
G01X1226300D02*
Y1282566D01*
X1225840Y1281946D01*
G01Y1279466D02*
X1226760D01*
G01X1229860D02*
Y1282566D01*
X1228442Y1280344D01*
X1230358D01*
G01X1222433Y1285466D02*
Y1288566D01*
X1223392D01*
X1223698Y1288411D01*
X1223890Y1288204D01*
X1223967Y1287791D01*
X1223890Y1287378D01*
X1223660Y1287120D01*
X1223392Y1286964D01*
X1222433D01*
G01X1223392D02*
X1223967Y1285466D01*
G01X1226300D02*
Y1288566D01*
X1225840Y1287946D01*
G01Y1285466D02*
X1226760D01*
G01X1228557Y1285931D02*
X1228787Y1285673D01*
X1229055Y1285518D01*
X1229400Y1285466D01*
X1229745Y1285569D01*
X1230013Y1285776D01*
X1230205Y1286138D01*
X1230243Y1286551D01*
X1230167Y1286964D01*
X1229975Y1287223D01*
X1229707Y1287429D01*
X1229438Y1287481D01*
X1229170Y1287429D01*
X1228825Y1287223D01*
X1228940Y1288566D01*
X1229975D01*
G01X1222433Y1291466D02*
Y1294566D01*
X1223392D01*
X1223698Y1294411D01*
X1223890Y1294204D01*
X1223967Y1293791D01*
X1223890Y1293378D01*
X1223660Y1293120D01*
X1223392Y1292964D01*
X1222433D01*
G01X1223392D02*
X1223967Y1291466D01*
G01X1226300D02*
Y1294566D01*
X1225840Y1293946D01*
G01Y1291466D02*
X1226760D01*
G01X1228672Y1292758D02*
X1228940Y1293120D01*
X1229170Y1293326D01*
X1229477Y1293429D01*
X1229745Y1293326D01*
X1229937Y1293120D01*
X1230090Y1292809D01*
X1230128Y1292448D01*
X1230090Y1292138D01*
X1229937Y1291828D01*
X1229707Y1291569D01*
X1229438Y1291466D01*
X1229132Y1291569D01*
X1228863Y1291879D01*
X1228710Y1292344D01*
X1228672Y1292861D01*
X1228748Y1293533D01*
X1228863Y1293894D01*
X1229055Y1294256D01*
X1229323Y1294514D01*
X1229592Y1294566D01*
X1229860Y1294463D01*
X1230052Y1294204D01*
G01X1230173Y1285433D02*
X1229943Y1285691D01*
X1229675Y1285846D01*
X1229330Y1285898D01*
X1228984Y1285794D01*
X1228716Y1285588D01*
X1228525Y1285226D01*
X1228486Y1284813D01*
X1228563Y1284399D01*
X1228754Y1284141D01*
X1229023Y1283934D01*
X1229291Y1283883D01*
X1229559Y1283934D01*
X1229904Y1284141D01*
X1229790Y1282798D01*
X1228754D01*
G01X1229222Y1274172D02*
Y1271072D01*
X1229682Y1271692D01*
G01Y1274172D02*
X1228762D01*
G01X1242864Y1277693D02*
X1242673Y1278004D01*
X1242443Y1278210D01*
X1242174Y1278313D01*
X1241868Y1278210D01*
X1241638Y1278004D01*
X1241408Y1277693D01*
X1241331Y1277280D01*
Y1275213D01*
G01X1238538Y1278313D02*
Y1275213D01*
X1239956Y1277435D01*
X1238039D01*
G01X1256667Y1032500D02*
Y1037500D01*
X1258400Y1033333D01*
X1260133Y1037500D01*
Y1032500D01*
G01X1261100D02*
Y1037500D01*
G01X1263900D02*
Y1032500D01*
G01Y1035000D02*
X1261100D01*
G01X1265133Y1032333D02*
X1268067Y1036000D01*
G01X1266600Y1036667D02*
Y1031667D01*
G01X1268067Y1032333D02*
X1265133Y1036000D01*
G01X1264600Y1034167D02*
X1268600D01*
G01X1256667Y1315000D02*
Y1320000D01*
X1258400Y1315833D01*
X1260133Y1320000D01*
Y1315000D01*
G01X1261100D02*
Y1320000D01*
G01X1263900D02*
Y1315000D01*
G01Y1317500D02*
X1261100D01*
G01X1265133Y1314833D02*
X1268067Y1318500D01*
G01X1266600Y1319167D02*
Y1314167D01*
G01X1268067Y1314833D02*
X1265133Y1318500D01*
G01X1264600Y1316667D02*
X1268600D01*
M02*
