G04 ================== begin FILE IDENTIFICATION RECORD ==================*
G04 Layout Name:  E:/TTTN/ValveController/Hardware/allegro/VALVECONTROLLER.brd*
G04 Film Name:    PASTE_TOP*
G04 File Format:  Gerber RS274X*
G04 File Origin:  Cadence Allegro 16.6-S049*
G04 Origin Date:  Fri Nov 01 09:43:20 2019*
G04 *
G04 Layer:  PIN/PASTEMASK_TOP*
G04 Layer:  PACKAGE GEOMETRY/PASTEMASK_TOP*
G04 Layer:  BOARD GEOMETRY/OUTLINE*
G04 *
G04 Offset:    (0.000 0.000)*
G04 Mirror:    No*
G04 Mode:      Positive*
G04 Rotation:  0*
G04 FullContactRelief:  No*
G04 UndefLineWidth:     5.000*
G04 ================== end FILE IDENTIFICATION RECORD ====================*
%FSLAX25Y25*MOIN*%
%IR0*IPPOS*OFA0.00000B0.00000*MIA0B0*SFA1.00000B1.00000*%
%ADD16R,.035X.12*%
%ADD25R,.12X.035*%
%ADD26R,.04724X.11024*%
%ADD18R,.11024X.04724*%
%AMMACRO32*
4,1,22,.021701,.038417,
.021701,-.016685,
.021377,-.020454,
.020403,-.024109,
.018809,-.02754,
.016644,-.030641,
.013973,-.03332,
.010878,-.035494,
.007452,-.037098,
.003799,-.038082,
.000031,-.038417,
-.003738,-.038093,
-.007393,-.037119,
-.010823,-.035526,
-.013925,-.03336,
-.016604,-.030689,
-.018778,-.027594,
-.020382,-.024168,
-.021366,-.020515,
-.021701,-.016748,
-.021701,-.016685,
-.021701,.038417,
.021701,.038417,
0.0*
%
%ADD32MACRO32*%
%AMMACRO30*
4,1,22,-.038417,.021701,
.016685,.021701,
.020454,.021377,
.024109,.020403,
.02754,.018809,
.030641,.016644,
.03332,.013973,
.035494,.010878,
.037098,.007452,
.038082,.003799,
.038417,.000031,
.038093,-.003738,
.037119,-.007393,
.035526,-.010823,
.03336,-.013925,
.030689,-.016604,
.027594,-.018778,
.024168,-.020382,
.020515,-.021366,
.016748,-.021701,
.016685,-.021701,
-.038417,-.021701,
-.038417,.021701,
0.0*
%
%ADD30MACRO30*%
%AMMACRO34*
4,1,21,.027598,.04235,
.027598,-.014748,
.027173,-.01954,
.025922,-.024185,
.023883,-.028542,
.021119,-.03248,
.017713,-.035877,
.013769,-.038631,
.009407,-.040659,
.004759,-.041898,
-.000034,-.042312,
-.004826,-.041887,
-.009471,-.040636,
-.013829,-.038597,
-.017766,-.035833,
-.021163,-.032427,
-.023918,-.028483,
-.025945,-.024121,
-.027185,-.019472,
-.027598,-.014748,
-.027598,.04235,
.027598,.04235,
0.0*
%
%ADD34MACRO34*%
%AMMACRO31*
4,1,21,-.04235,.027598,
.014748,.027598,
.01954,.027173,
.024185,.025922,
.028542,.023883,
.03248,.021119,
.035877,.017713,
.038631,.013769,
.040659,.009407,
.041898,.004759,
.042312,-.000034,
.041887,-.004826,
.040636,-.009471,
.038597,-.013829,
.035833,-.017766,
.032427,-.021163,
.028483,-.023918,
.024121,-.025945,
.019472,-.027185,
.014748,-.027598,
-.04235,-.027598,
-.04235,.027598,
0.0*
%
%ADD31MACRO31*%
%ADD19R,.062988X.224409*%
%ADD10R,.16X.122*%
%ADD21R,.04X.022*%
%ADD12R,.032X.035*%
%ADD27R,.012X.065*%
%ADD13R,.035X.032*%
%ADD11R,.05X.045*%
%ADD17R,.045X.05*%
%ADD24R,.062988X.137799*%
%ADD28R,.067X.032*%
%ADD20R,.048X.036*%
%ADD23R,.036X.048*%
%ADD38R,.016811X.05224*%
%ADD35R,.05224X.016811*%
%ADD15R,.147642X.11811*%
%ADD41R,.054331X.01772*%
%ADD33R,.04724X.04724*%
%AMMACRO36*
4,1,22,.038417,-.021701,
-.016685,-.021701,
-.020454,-.021377,
-.024109,-.020403,
-.02754,-.018809,
-.030641,-.016644,
-.03332,-.013973,
-.035494,-.010878,
-.037098,-.007452,
-.038082,-.003799,
-.038417,-.000031,
-.038093,.003738,
-.037119,.007393,
-.035526,.010823,
-.03336,.013925,
-.030689,.016604,
-.027594,.018778,
-.024168,.020382,
-.020515,.021366,
-.016748,.021701,
-.016685,.021701,
.038417,.021701,
.038417,-.021701,
0.0*
%
%ADD36MACRO36*%
%AMMACRO29*
4,1,22,-.021701,-.038417,
-.021701,.016685,
-.021377,.020454,
-.020403,.024109,
-.018809,.02754,
-.016644,.030641,
-.013973,.03332,
-.010878,.035494,
-.007452,.037098,
-.003799,.038082,
-.000031,.038417,
.003738,.038093,
.007393,.037119,
.010823,.035526,
.013925,.03336,
.016604,.030689,
.018778,.027594,
.020382,.024168,
.021366,.020515,
.021701,.016748,
.021701,.016685,
.021701,-.038417,
-.021701,-.038417,
0.0*
%
%ADD29MACRO29*%
%ADD39R,.082681X.058071*%
%ADD22R,.084642X.06678*%
%ADD40R,.074799X.0935*%
%ADD42R,.074799X.04626*%
%AMMACRO37*
4,1,21,.04235,-.027598,
-.014748,-.027598,
-.01954,-.027173,
-.024185,-.025922,
-.028542,-.023883,
-.03248,-.021119,
-.035877,-.017713,
-.038631,-.013769,
-.040659,-.009407,
-.041898,-.004759,
-.042312,.000034,
-.041887,.004826,
-.040636,.009471,
-.038597,.013829,
-.035833,.017766,
-.032427,.021163,
-.028483,.023918,
-.024121,.025945,
-.019472,.027185,
-.014748,.027598,
.04235,.027598,
.04235,-.027598,
0.0*
%
%ADD37MACRO37*%
%ADD14R,.035429X.098429*%
%ADD43C,.005*%
G75*
%LPD*%
G75*
G54D10*
X824750Y1156750D03*
X889650D03*
G54D20*
X914000Y1260600D03*
Y1273400D03*
G54D11*
X830000Y1243500D03*
Y1250500D03*
X821000Y1279500D03*
Y1286500D03*
X885000Y1261500D03*
Y1254500D03*
X905000Y1289500D03*
Y1296500D03*
X937000Y1290500D03*
X946000Y1306500D03*
Y1299500D03*
X937000Y1297500D03*
X1011000Y1228500D03*
Y1221500D03*
X1168000Y1059500D03*
Y1052500D03*
X1176000Y1059500D03*
Y1052500D03*
X1216000Y1268500D03*
Y1261500D03*
G54D12*
X821000Y1295500D03*
Y1301500D03*
X830000Y1259000D03*
Y1265000D03*
X878000Y1262000D03*
Y1256000D03*
X871000Y1262000D03*
Y1256000D03*
X892000D03*
Y1262000D03*
X958000Y1241000D03*
Y1247000D03*
X981000Y1237000D03*
Y1231000D03*
X1031000Y1164000D03*
Y1158000D03*
Y1176000D03*
Y1170000D03*
X1067000Y1307000D03*
Y1301000D03*
X1081000Y1307000D03*
Y1301000D03*
X1114000Y1083000D03*
Y1089000D03*
X1110000Y1131000D03*
Y1137000D03*
X1112000Y1201000D03*
Y1207000D03*
X1105000Y1234000D03*
Y1240000D03*
X1099000D03*
Y1234000D03*
X1138000Y1109000D03*
Y1115000D03*
X1122000Y1207000D03*
Y1201000D03*
X1144000Y1109000D03*
X1145000Y1137000D03*
Y1131000D03*
X1144000Y1115000D03*
X1152000Y1201000D03*
Y1207000D03*
X1186000Y1061000D03*
Y1067000D03*
Y1079000D03*
Y1073000D03*
Y1104000D03*
Y1098000D03*
Y1110000D03*
Y1116000D03*
X1185000Y1154000D03*
Y1148000D03*
Y1160000D03*
Y1166000D03*
G54D21*
X924315Y1291260D03*
X913685D03*
X924315Y1295000D03*
Y1298740D03*
X913685D03*
Y1295000D03*
X963685Y1240740D03*
Y1237000D03*
Y1233260D03*
X974315D03*
Y1240740D03*
Y1237000D03*
G54D30*
X1042541Y1254882D03*
Y1260787D03*
Y1266693D03*
Y1272598D03*
G54D40*
X1245743Y1267535D03*
Y1290468D03*
G54D22*
X958811Y1309000D03*
X975189D03*
G54D13*
X850000Y1231000D03*
X844000D03*
Y1225000D03*
X850000D03*
X894000Y1176000D03*
X888000D03*
X953000Y1218000D03*
X959000D03*
X964000Y1227000D03*
X970000D03*
X1006000Y1214000D03*
X1000000D03*
X999000Y1256000D03*
X1005000D03*
X1024000Y1231000D03*
X1018000D03*
X1030000D03*
X1036000D03*
X1031000Y1256000D03*
X1025000D03*
X1032000Y1277000D03*
X1026000D03*
Y1272000D03*
X1032000D03*
X1085000Y1153000D03*
X1070000Y1161000D03*
X1064000D03*
Y1189000D03*
X1070000D03*
X1064000Y1184000D03*
X1070000D03*
X1064000Y1195000D03*
X1070000D03*
X1071000Y1307000D03*
X1077000D03*
X1091000Y1153000D03*
X1171000Y1034000D03*
X1177000D03*
X1171000Y1042000D03*
X1177000D03*
X1212000Y1277000D03*
Y1283000D03*
Y1289000D03*
Y1295000D03*
X1218000Y1277000D03*
Y1283000D03*
Y1289000D03*
Y1295000D03*
G54D31*
X1042938Y1248976D03*
Y1281457D03*
G54D14*
X852000Y1241007D03*
X842945D03*
X861055D03*
G54D41*
X1235272Y1284120D03*
Y1281561D03*
Y1273884D03*
Y1276442D03*
Y1279002D03*
G54D23*
X976400Y1247000D03*
X963600D03*
G54D32*
X1060945Y1291790D03*
G54D42*
X1245743Y1282298D03*
Y1275705D03*
G54D33*
X1064850Y1176329D03*
Y1167667D03*
X1071150D03*
Y1176329D03*
G54D15*
X852000Y1266204D03*
G54D24*
X962000Y1261173D03*
Y1282827D03*
G54D43*
G01X782000Y1024000D02*
X1274000D01*
Y1329000D01*
X782000D01*
Y1024000D01*
G54D34*
X1067835Y1291392D03*
G54D25*
X988338Y1273000D03*
X1011662D03*
G54D16*
X867000Y1198338D03*
Y1221662D03*
X887000Y1285338D03*
Y1308662D03*
X913000Y1220338D03*
Y1243662D03*
G54D35*
X1106362Y1154236D03*
Y1156205D03*
Y1158173D03*
Y1160142D03*
Y1162110D03*
Y1164079D03*
Y1166047D03*
Y1168016D03*
Y1169984D03*
Y1171953D03*
Y1173921D03*
Y1175890D03*
Y1177858D03*
Y1179827D03*
Y1181795D03*
Y1183764D03*
X1151638Y1164079D03*
Y1162110D03*
Y1160142D03*
Y1158173D03*
Y1156205D03*
Y1154236D03*
Y1183764D03*
Y1181795D03*
Y1179827D03*
Y1177858D03*
Y1175890D03*
Y1173921D03*
Y1171953D03*
Y1169984D03*
Y1168016D03*
Y1166047D03*
G54D17*
X878500Y1269000D03*
X871500D03*
X905500Y1307000D03*
X927500Y1075000D03*
Y1083000D03*
X912500Y1307000D03*
X929500D03*
X934500Y1075000D03*
Y1083000D03*
X945500Y1292000D03*
X952500D03*
X936500Y1307000D03*
X982500Y1084000D03*
Y1092000D03*
X972500Y1299000D03*
X965500D03*
X989500Y1084000D03*
Y1092000D03*
X1025500Y1249000D03*
X1032500D03*
X1138500Y1263000D03*
X1145500D03*
G54D26*
X997094Y1247000D03*
X1008906D03*
G54D36*
X1091160Y1266693D03*
Y1260787D03*
Y1254882D03*
G54D27*
X1030840Y1199120D03*
X1028280D03*
X1025720D03*
X1023160D03*
Y1222880D03*
X1025720D03*
X1028280D03*
X1030840D03*
G54D18*
X892000Y1241906D03*
Y1230094D03*
G54D37*
X1090763Y1248976D03*
Y1281457D03*
G54D28*
X1040000Y1157300D03*
Y1170700D03*
G54D19*
X931748Y1236000D03*
X923748Y1271000D03*
X950252Y1236000D03*
X942252Y1271000D03*
G54D29*
X1060945Y1238840D03*
X1055039D03*
X1078661D03*
X1072756D03*
X1066850D03*
G54D38*
X1137858Y1146362D03*
X1135890D03*
X1133921D03*
X1131953D03*
X1129984D03*
X1128016D03*
X1126047D03*
X1124079D03*
X1122110D03*
X1120142D03*
X1118173D03*
X1116205D03*
X1114236D03*
Y1191638D03*
X1116205D03*
X1118173D03*
X1120142D03*
X1122110D03*
X1124079D03*
X1126047D03*
X1128016D03*
X1129984D03*
X1131953D03*
X1133921D03*
X1135890D03*
X1137858D03*
X1143764Y1146362D03*
X1141795D03*
X1139827D03*
Y1191638D03*
X1141795D03*
X1143764D03*
G54D39*
X1236689Y1269307D03*
Y1288696D03*
M02*
