G04 ================== begin FILE IDENTIFICATION RECORD ==================*
G04 Layout Name:  E:/TTTN/ValveController/Hardware/allegro/VALVECONTROLLER.brd*
G04 Film Name:    SMASK_TOP*
G04 File Format:  Gerber RS274X*
G04 File Origin:  Cadence Allegro 16.6-S049*
G04 Origin Date:  Fri Nov 01 09:43:20 2019*
G04 *
G04 Layer:  PIN/SOLDERMASK_TOP*
G04 Layer:  PACKAGE GEOMETRY/SOLDERMASK_TOP*
G04 Layer:  BOARD GEOMETRY/OUTLINE*
G04 Layer:  BOARD GEOMETRY/SOLDERMASK_TOP*
G04 *
G04 Offset:    (0.000 0.000)*
G04 Mirror:    No*
G04 Mode:      Positive*
G04 Rotation:  0*
G04 FullContactRelief:  No*
G04 UndefLineWidth:     5.000*
G04 ================== end FILE IDENTIFICATION RECORD ====================*
%FSLAX25Y25*MOIN*%
%IR0*IPPOS*OFA0.00000B0.00000*MIA0B0*SFA1.00000B1.00000*%
%ADD24R,.04X.125*%
%ADD34R,.125X.04*%
%ADD54R,.105X.045*%
%ADD38C,.11*%
%ADD21O,.074X.154*%
%ADD23O,.154X.074*%
%ADD10C,.14*%
%ADD60C,.114*%
%ADD22O,.184X.074*%
%ADD39R,.11X.11*%
%ADD61C,.128*%
%ADD37R,.04724X.11024*%
%ADD26R,.11024X.04724*%
%AMMACRO45*
4,1,22,.021701,.038417,
.021701,-.016685,
.021377,-.020454,
.020403,-.024109,
.018809,-.02754,
.016644,-.030641,
.013973,-.03332,
.010878,-.035494,
.007452,-.037098,
.003799,-.038082,
.000031,-.038417,
-.003738,-.038093,
-.007393,-.037119,
-.010823,-.035526,
-.013925,-.03336,
-.016604,-.030689,
-.018778,-.027594,
-.020382,-.024168,
-.021366,-.020515,
-.021701,-.016748,
-.021701,-.016685,
-.021701,.038417,
.021701,.038417,
0.0*
%
%ADD45MACRO45*%
%AMMACRO43*
4,1,22,-.038417,.021701,
.016685,.021701,
.020454,.021377,
.024109,.020403,
.02754,.018809,
.030641,.016644,
.03332,.013973,
.035494,.010878,
.037098,.007452,
.038082,.003799,
.038417,.000031,
.038093,-.003738,
.037119,-.007393,
.035526,-.010823,
.03336,-.013925,
.030689,-.016604,
.027594,-.018778,
.024168,-.020382,
.020515,-.021366,
.016748,-.021701,
.016685,-.021701,
-.038417,-.021701,
-.038417,.021701,
0.0*
%
%ADD43MACRO43*%
%ADD28R,.07087X.23228*%
%ADD19R,.045429X.108429*%
%ADD33R,.07087X.145669*%
%AMMACRO48*
4,1,21,.027598,.04235,
.027598,-.014748,
.027173,-.01954,
.025922,-.024185,
.023883,-.028542,
.021119,-.03248,
.017713,-.035877,
.013769,-.038631,
.009407,-.040659,
.004759,-.041898,
-.000034,-.042312,
-.004826,-.041887,
-.009471,-.040636,
-.013829,-.038597,
-.017766,-.035833,
-.021163,-.032427,
-.023918,-.028483,
-.025945,-.024121,
-.027185,-.019472,
-.027598,-.014748,
-.027598,.04235,
.027598,.04235,
0.0*
%
%ADD48MACRO48*%
%AMMACRO44*
4,1,21,-.04235,.027598,
.014748,.027598,
.01954,.027173,
.024185,.025922,
.028542,.023883,
.03248,.021119,
.035877,.017713,
.038631,.013769,
.040659,.009407,
.041898,.004759,
.042312,-.000034,
.041887,-.004826,
.040636,-.009471,
.038597,-.013829,
.035833,-.017766,
.032427,-.021163,
.028483,-.023918,
.024121,-.025945,
.019472,-.027185,
.014748,-.027598,
-.04235,-.027598,
-.04235,.027598,
0.0*
%
%ADD44MACRO44*%
%ADD12R,.16X.122*%
%ADD40R,.02X.073*%
%ADD14R,.038X.041*%
%ADD18R,.041X.038*%
%ADD13R,.056X.051*%
%ADD41R,.067X.032*%
%ADD25R,.051X.056*%
%ADD58C,.05*%
%ADD47C,.032*%
%ADD30R,.045X.027*%
%ADD29R,.048X.036*%
%ADD32R,.036X.048*%
%ADD35C,.09*%
%ADD57C,.083*%
%ADD17C,.047*%
%ADD59R,.05X.05*%
%ADD50C,.066*%
%ADD11C,.075*%
%ADD15C,.05315*%
%ADD55R,.016811X.05224*%
%ADD36R,.09X.09*%
%ADD49R,.05224X.016811*%
%ADD62R,.08661X.062012*%
%ADD56R,.066X.066*%
%ADD20R,.157642X.12811*%
%ADD65R,.07874X.050201*%
%ADD27C,.074811*%
%ADD16R,.05315X.05315*%
%ADD46R,.04724X.04724*%
%ADD64R,.058272X.02165*%
%AMMACRO51*
4,1,22,.038417,-.021701,
-.016685,-.021701,
-.020454,-.021377,
-.024109,-.020403,
-.02754,-.018809,
-.030641,-.016644,
-.03332,-.013973,
-.035494,-.010878,
-.037098,-.007452,
-.038082,-.003799,
-.038417,-.000031,
-.038093,.003738,
-.037119,.007393,
-.035526,.010823,
-.03336,.013925,
-.030689,.016604,
-.027594,.018778,
-.024168,.020382,
-.020515,.021366,
-.016748,.021701,
-.016685,.021701,
.038417,.021701,
.038417,-.021701,
0.0*
%
%ADD51MACRO51*%
%AMMACRO42*
4,1,22,-.021701,-.038417,
-.021701,.016685,
-.021377,.020454,
-.020403,.024109,
-.018809,.02754,
-.016644,.030641,
-.013973,.03332,
-.010878,.035494,
-.007452,.037098,
-.003799,.038082,
-.000031,.038417,
.003738,.038093,
.007393,.037119,
.010823,.035526,
.013925,.03336,
.016604,.030689,
.018778,.027594,
.020382,.024168,
.021366,.020515,
.021701,.016748,
.021701,.016685,
.021701,-.038417,
-.021701,-.038417,
0.0*
%
%ADD42MACRO42*%
%ADD63R,.07874X.097441*%
%ADD31R,.088579X.070701*%
%ADD53P,.142075X8X22.5*%
%AMMACRO52*
4,1,21,.04235,-.027598,
-.014748,-.027598,
-.01954,-.027173,
-.024185,-.025922,
-.028542,-.023883,
-.03248,-.021119,
-.035877,-.017713,
-.038631,-.013769,
-.040659,-.009407,
-.041898,-.004759,
-.042312,.000034,
-.041887,.004826,
-.040636,.009471,
-.038597,.013829,
-.035833,.017766,
-.032427,.021163,
-.028483,.023918,
-.024121,.025945,
-.019472,.027185,
-.014748,.027598,
.04235,.027598,
.04235,-.027598,
0.0*
%
%ADD52MACRO52*%
%ADD66C,.005*%
G75*
%LPD*%
G75*
G54D10*
X792500Y1035000D03*
Y1317500D03*
X1262500Y1035000D03*
Y1317500D03*
G54D20*
X852000Y1266204D03*
G54D11*
X820102Y1044000D03*
X833882D03*
X847661D03*
X861441D03*
X875220D03*
X908102D03*
X889000D03*
X921882D03*
X935661D03*
X949441D03*
X963221D03*
X977000D03*
X996102D03*
X1009882D03*
X1023661D03*
X1037441D03*
X1051220D03*
X1083102D03*
X1065000D03*
X1096882D03*
X1110661D03*
X1124441D03*
X1138220D03*
X1152000D03*
G54D30*
X924315Y1291260D03*
X913685D03*
X924315Y1295000D03*
Y1298740D03*
X913685D03*
Y1295000D03*
X963685Y1240740D03*
Y1237000D03*
Y1233260D03*
X974315D03*
Y1240740D03*
Y1237000D03*
G54D12*
X824750Y1156750D03*
X889650D03*
G54D21*
X832500Y1292800D03*
G54D31*
X958811Y1309000D03*
X975189D03*
G54D13*
X830000Y1243500D03*
Y1250500D03*
X821000Y1279500D03*
Y1286500D03*
X885000Y1261500D03*
Y1254500D03*
X905000Y1289500D03*
Y1296500D03*
X937000Y1290500D03*
X946000Y1306500D03*
Y1299500D03*
X937000Y1297500D03*
X1011000Y1228500D03*
Y1221500D03*
X1168000Y1059500D03*
Y1052500D03*
X1176000Y1059500D03*
Y1052500D03*
X1216000Y1268500D03*
Y1261500D03*
G54D40*
X1030840Y1199120D03*
X1028280D03*
X1025720D03*
X1023160D03*
Y1222880D03*
X1025720D03*
X1028280D03*
X1030840D03*
G54D22*
X851000Y1281000D03*
G54D50*
X1116000Y1242000D03*
Y1252000D03*
X1136000Y1242000D03*
X1126000D03*
X1136000Y1252000D03*
X1126000D03*
X1146000Y1242000D03*
G54D32*
X976400Y1247000D03*
X963600D03*
G54D41*
X1040000Y1157300D03*
Y1170700D03*
G54D14*
X821000Y1295500D03*
Y1301500D03*
X830000Y1259000D03*
Y1265000D03*
X878000Y1262000D03*
Y1256000D03*
X871000Y1262000D03*
Y1256000D03*
X892000D03*
Y1262000D03*
X958000Y1241000D03*
Y1247000D03*
X981000Y1237000D03*
Y1231000D03*
X1031000Y1164000D03*
Y1158000D03*
Y1176000D03*
Y1170000D03*
X1067000Y1307000D03*
Y1301000D03*
X1081000Y1307000D03*
Y1301000D03*
X1114000Y1083000D03*
Y1089000D03*
X1110000Y1131000D03*
Y1137000D03*
X1112000Y1201000D03*
Y1207000D03*
X1105000Y1234000D03*
Y1240000D03*
X1099000D03*
Y1234000D03*
X1138000Y1109000D03*
Y1115000D03*
X1122000Y1207000D03*
Y1201000D03*
X1144000Y1109000D03*
X1145000Y1137000D03*
Y1131000D03*
X1144000Y1115000D03*
X1152000Y1201000D03*
Y1207000D03*
X1186000Y1061000D03*
Y1067000D03*
Y1079000D03*
Y1073000D03*
Y1104000D03*
Y1098000D03*
Y1110000D03*
Y1116000D03*
X1185000Y1154000D03*
Y1148000D03*
Y1160000D03*
Y1166000D03*
G54D23*
X851000Y1304600D03*
G54D42*
X1060945Y1238840D03*
X1055039D03*
X1078661D03*
X1072756D03*
X1066850D03*
G54D51*
X1091160Y1266693D03*
Y1260787D03*
Y1254882D03*
G54D15*
X855000Y1075000D03*
X845000Y1105000D03*
X855000D03*
X875000Y1075000D03*
X865000D03*
Y1105000D03*
X875000D03*
X905000Y1075000D03*
X895000D03*
X885000D03*
Y1105000D03*
X895000D03*
X905000D03*
X915000Y1075000D03*
Y1105000D03*
X1001000Y1076000D03*
X1011000D03*
X1001000Y1106000D03*
X1011000D03*
X1031000Y1076000D03*
X1021000D03*
Y1106000D03*
X1031000D03*
X1061000Y1076000D03*
X1051000D03*
X1041000D03*
Y1106000D03*
X1051000D03*
X1061000D03*
X1071000Y1076000D03*
G54D33*
X962000Y1261173D03*
Y1282827D03*
G54D60*
X1235750Y1187000D03*
Y1251000D03*
G54D24*
X867000Y1198338D03*
Y1221662D03*
X887000Y1285338D03*
Y1308662D03*
X913000Y1220338D03*
Y1243662D03*
G54D52*
X1090763Y1248976D03*
Y1281457D03*
G54D16*
X845000Y1075000D03*
X1071000Y1106000D03*
G54D25*
X878500Y1269000D03*
X871500D03*
X905500Y1307000D03*
X927500Y1075000D03*
Y1083000D03*
X912500Y1307000D03*
X929500D03*
X934500Y1075000D03*
Y1083000D03*
X945500Y1292000D03*
X952500D03*
X936500Y1307000D03*
X982500Y1084000D03*
Y1092000D03*
X972500Y1299000D03*
X965500D03*
X989500Y1084000D03*
Y1092000D03*
X1025500Y1249000D03*
X1032500D03*
X1138500Y1263000D03*
X1145500D03*
G54D43*
X1042541Y1254882D03*
Y1260787D03*
Y1266693D03*
Y1272598D03*
G54D61*
X1223750Y1196500D03*
Y1241500D03*
G54D34*
X988338Y1273000D03*
X1011662D03*
G54D53*
X1106000Y1307000D03*
G54D62*
X1236689Y1269307D03*
Y1288696D03*
G54D17*
X842250Y1156750D03*
G54D35*
X996000Y1165000D03*
Y1155000D03*
Y1185000D03*
Y1175000D03*
X1057000Y1216000D03*
X1047000D03*
X1087000D03*
X1077000D03*
X1067000D03*
X1177000Y1306000D03*
X1187000D03*
X1197000D03*
X1207000D03*
G54D44*
X1042938Y1248976D03*
Y1281457D03*
G54D26*
X892000Y1241906D03*
Y1230094D03*
G54D63*
X1245743Y1267535D03*
Y1290468D03*
G54D27*
X934000Y1100500D03*
Y1139500D03*
X944000Y1100500D03*
Y1139500D03*
X980000Y1100500D03*
Y1139500D03*
X990000Y1100500D03*
Y1139500D03*
G54D36*
X996000Y1195000D03*
X1097000Y1216000D03*
X1167000Y1306000D03*
G54D18*
X850000Y1231000D03*
X844000D03*
Y1225000D03*
X850000D03*
X894000Y1176000D03*
X888000D03*
X953000Y1218000D03*
X959000D03*
X964000Y1227000D03*
X970000D03*
X1006000Y1214000D03*
X1000000D03*
X999000Y1256000D03*
X1005000D03*
X1024000Y1231000D03*
X1018000D03*
X1030000D03*
X1036000D03*
X1031000Y1256000D03*
X1025000D03*
X1032000Y1277000D03*
X1026000D03*
Y1272000D03*
X1032000D03*
X1085000Y1153000D03*
X1070000Y1161000D03*
X1064000D03*
Y1189000D03*
X1070000D03*
X1064000Y1184000D03*
X1070000D03*
X1064000Y1195000D03*
X1070000D03*
X1071000Y1307000D03*
X1077000D03*
X1091000Y1153000D03*
X1171000Y1034000D03*
X1177000D03*
X1171000Y1042000D03*
X1177000D03*
X1212000Y1277000D03*
Y1283000D03*
Y1289000D03*
Y1295000D03*
X1218000Y1277000D03*
Y1283000D03*
Y1289000D03*
Y1295000D03*
G54D45*
X1060945Y1291790D03*
G54D54*
X1126961Y1083500D03*
Y1098500D03*
Y1093500D03*
Y1088500D03*
X1147039Y1083500D03*
Y1088500D03*
Y1093500D03*
Y1098500D03*
X1179961Y1269500D03*
Y1264500D03*
Y1259500D03*
Y1274500D03*
X1200039Y1259500D03*
Y1264500D03*
Y1269500D03*
Y1274500D03*
G54D64*
X1235272Y1284120D03*
Y1281561D03*
Y1273884D03*
Y1276442D03*
Y1279002D03*
G54D46*
X1064850Y1176329D03*
Y1167667D03*
X1071150D03*
Y1176329D03*
G54D55*
X1137858Y1146362D03*
X1135890D03*
X1133921D03*
X1131953D03*
X1129984D03*
X1128016D03*
X1126047D03*
X1124079D03*
X1122110D03*
X1120142D03*
X1118173D03*
X1116205D03*
X1114236D03*
Y1191638D03*
X1116205D03*
X1118173D03*
X1120142D03*
X1122110D03*
X1124079D03*
X1126047D03*
X1128016D03*
X1129984D03*
X1131953D03*
X1133921D03*
X1135890D03*
X1137858D03*
X1143764Y1146362D03*
X1141795D03*
X1139827D03*
Y1191638D03*
X1141795D03*
X1143764D03*
G54D19*
X852000Y1241007D03*
X842945D03*
X861055D03*
G54D28*
X931748Y1236000D03*
X923748Y1271000D03*
X950252Y1236000D03*
X942252Y1271000D03*
G54D37*
X997094Y1247000D03*
X1008906D03*
G54D65*
X1245743Y1282298D03*
Y1275705D03*
G54D56*
X1146000Y1252000D03*
G54D29*
X914000Y1260600D03*
Y1273400D03*
G54D47*
X1084000Y1189669D03*
Y1194000D03*
G54D38*
X1010842Y1304181D03*
G54D66*
G01X782000Y1024000D02*
X1274000D01*
Y1329000D01*
X782000D01*
Y1024000D01*
G54D57*
X1194400Y1047150D03*
Y1066850D03*
Y1114850D03*
Y1095150D03*
Y1162850D03*
Y1143150D03*
X1243600Y1047150D03*
Y1066850D03*
Y1114850D03*
Y1095150D03*
Y1162850D03*
Y1143150D03*
G54D48*
X1067835Y1291392D03*
G54D39*
X991158Y1304181D03*
G54D49*
X1106362Y1154236D03*
Y1156205D03*
Y1158173D03*
Y1160142D03*
Y1162110D03*
Y1164079D03*
Y1166047D03*
Y1168016D03*
Y1169984D03*
Y1171953D03*
Y1173921D03*
Y1175890D03*
Y1177858D03*
Y1179827D03*
Y1181795D03*
Y1183764D03*
X1151638Y1164079D03*
Y1162110D03*
Y1160142D03*
Y1158173D03*
Y1156205D03*
Y1154236D03*
Y1183764D03*
Y1181795D03*
Y1179827D03*
Y1177858D03*
Y1175890D03*
Y1173921D03*
Y1171953D03*
Y1169984D03*
Y1168016D03*
Y1166047D03*
G54D58*
X1188750Y1216500D03*
Y1206500D03*
Y1236500D03*
Y1226500D03*
X1198750Y1211500D03*
Y1231500D03*
Y1221500D03*
G54D59*
Y1201500D03*
M02*
