G04 ================== begin FILE IDENTIFICATION RECORD ==================*
G04 Layout Name:  ZWAVE_BOOSTERPACK.brd*
G04 Film Name:    MyView*
G04 File Format:  Gerber RS274X*
G04 File Origin:  Cadence Allegro 16.6-S049*
G04 Origin Date:  Wed Sep 25 15:17:19 2019*
G04 *
G04 Layer:  VIA CLASS/SOLDERMASK_TOP*
G04 Layer:  VIA CLASS/SOLDERMASK_BOTTOM*
G04 Layer:  REF DES/SILKSCREEN_TOP*
G04 Layer:  PIN/SOLDERMASK_TOP*
G04 Layer:  PIN/SOLDERMASK_BOTTOM*
G04 Layer:  PACKAGE GEOMETRY/PLACE_BOUND_TOP*
G04 Layer:  PACKAGE GEOMETRY/SILKSCREEN_TOP*
G04 Layer:  ETCH/TOP*
G04 Layer:  BOARD GEOMETRY/OUTLINE*
G04 *
G04 Offset:    (0.000 0.000)*
G04 Mirror:    No*
G04 Mode:      Positive*
G04 Rotation:  0*
G04 FullContactRelief:  No*
G04 UndefLineWidth:     0.000*
G04 ================== end FILE IDENTIFICATION RECORD ====================*
%FSLAX25Y25*MOIN*%
%IR0*IPPOS*OFA0.00000B0.00000*MIA0B0*SFA1.00000B1.00000*%
%AMMACRO34*
4,1,21,-.027598,-.04235,
-.027598,.014748,
-.027173,.01954,
-.025922,.024185,
-.023883,.028542,
-.021119,.03248,
-.017713,.035877,
-.013769,.038631,
-.009407,.040659,
-.004759,.041898,
.000034,.042312,
.004826,.041887,
.009471,.040636,
.013829,.038597,
.017766,.035833,
.021163,.032427,
.023918,.028483,
.025945,.024121,
.027185,.019472,
.027598,.014748,
.027598,-.04235,
-.027598,-.04235,
0.0*
%
%ADD34MACRO34*%
%AMMACRO36*
21,1,.041,.038,0.0,0.0,135.*%
%ADD36MACRO36*%
%ADD24C,.11*%
%AMMACRO37*
21,1,.051,.056,0.0,0.0,135.*%
%ADD37MACRO37*%
%ADD32R,.11X.11*%
%ADD16C,.18*%
%ADD13C,.108*%
%ADD30R,.04724X.11024*%
%ADD15R,.11024X.04724*%
%AMMACRO10*
21,1,.108,.108,0.0,0.0,45.*%
%ADD10MACRO10*%
%AMMACRO35*
4,1,22,.021701,.038421,
.021701,-.016681,
.021377,-.02045,
.020403,-.024105,
.018809,-.027536,
.016644,-.030637,
.013973,-.033316,
.010878,-.03549,
.007452,-.037094,
.003799,-.038078,
.000031,-.038413,
-.003738,-.038089,
-.007393,-.037115,
-.010823,-.035522,
-.013925,-.033356,
-.016604,-.030685,
-.018778,-.02759,
-.020382,-.024164,
-.021366,-.020511,
-.021701,-.016744,
-.021701,-.016681,
-.021701,.038421,
.021701,.038421,
0.0*
%
%ADD35MACRO35*%
%AMMACRO28*
4,1,22,-.038421,.021701,
.016681,.021701,
.02045,.021377,
.024105,.020403,
.027536,.018809,
.030637,.016644,
.033316,.013973,
.03549,.010878,
.037094,.007452,
.038078,.003799,
.038413,.000031,
.038089,-.003738,
.037115,-.007393,
.035522,-.010823,
.033356,-.013925,
.030685,-.016604,
.02759,-.018778,
.024164,-.020382,
.020511,-.021366,
.016744,-.021701,
.016681,-.021701,
-.038421,-.021701,
-.038421,.021701,
0.0*
%
%ADD28MACRO28*%
%ADD14R,.108429X.045429*%
%AMMACRO26*
4,1,21,-.04235,.027598,
.014748,.027598,
.01954,.027173,
.024185,.025922,
.028542,.023883,
.03248,.021119,
.035877,.017713,
.038631,.013769,
.040659,.009407,
.041898,.004759,
.042312,-.000034,
.041887,-.004826,
.040636,-.009471,
.038597,-.013829,
.035833,-.017766,
.032427,-.021163,
.028483,-.023918,
.024121,-.025945,
.019472,-.027185,
.014748,-.027598,
-.04235,-.027598,
-.04235,.027598,
0.0*
%
%ADD26MACRO26*%
%ADD40R,.025X.022*%
%ADD31R,.073X.02*%
%ADD23R,.038X.041*%
%ADD22R,.041X.038*%
%ADD17C,.05*%
%ADD11C,.09*%
%ADD29R,.085X.085*%
%ADD27C,.085*%
%ADD18C,.077*%
%AMMACRO41*
21,1,.09,.09,0.0,0.0,45.*%
%ADD41MACRO41*%
%ADD20R,.09X.09*%
%ADD12R,.12811X.157642*%
%ADD19R,.077X.077*%
%ADD21R,.088X.088*%
%AMMACRO39*
4,1,22,.038421,-.021701,
-.016681,-.021701,
-.02045,-.021377,
-.024105,-.020403,
-.027536,-.018809,
-.030637,-.016644,
-.033316,-.013973,
-.03549,-.010878,
-.037094,-.007452,
-.038078,-.003799,
-.038413,-.000031,
-.038089,.003738,
-.037115,.007393,
-.035522,.010823,
-.033356,.013925,
-.030685,.016604,
-.02759,.018778,
-.024164,.020382,
-.020511,.021366,
-.016744,.021701,
-.016681,.021701,
.038421,.021701,
.038421,-.021701,
0.0*
%
%ADD39MACRO39*%
%AMMACRO33*
4,1,22,-.021701,-.038421,
-.021701,.016681,
-.021377,.02045,
-.020403,.024105,
-.018809,.027536,
-.016644,.030637,
-.013973,.033316,
-.010878,.03549,
-.007452,.037094,
-.003799,.038078,
-.000031,.038413,
.003738,.038089,
.007393,.037115,
.010823,.035522,
.013925,.033356,
.016604,.030685,
.018778,.02759,
.020382,.024164,
.021366,.020511,
.021701,.016744,
.021701,.016681,
.021701,-.038421,
-.021701,-.038421,
0.0*
%
%ADD33MACRO33*%
%AMMACRO38*
4,1,21,.04235,-.027598,
-.014748,-.027598,
-.01954,-.027173,
-.024185,-.025922,
-.028542,-.023883,
-.03248,-.021119,
-.035877,-.017713,
-.038631,-.013769,
-.040659,-.009407,
-.041898,-.004759,
-.042312,.000034,
-.041887,.004826,
-.040636,.009471,
-.038597,.013829,
-.035833,.017766,
-.032427,.021163,
-.028483,.023918,
-.024121,.025945,
-.019472,.027185,
-.014748,.027598,
.04235,.027598,
.04235,-.027598,
0.0*
%
%ADD38MACRO38*%
%ADD25P,.142075X8X22.5*%
%ADD42C,.002*%
%ADD43C,.005*%
%ADD44C,.006*%
%ADD45C,.00787*%
%ADD46C,.005909*%
%ADD47C,.001969*%
%ADD48C,.01*%
%ADD49C,.02*%
%ADD50C,.012*%
%ADD51C,.03*%
%ADD52C,.013*%
%ADD53C,.015*%
%ADD54C,.025*%
%ADD55C,.08*%
%ADD56C,.018*%
%ADD62C,.196004*%
%ADD60R,.057244X.120244*%
%ADD58R,.120244X.057244*%
%ADD61R,.110004X.110004*%
%ADD59R,.077004X.077004*%
%ADD57R,.128114X.157646*%
G75*
%LPD*%
G75*
G36*
G01X-31919Y-63150D02*
X-51129Y-82359D01*
X-80359Y-53129D01*
X-61150Y-33919D01*
X-31919Y-63150D01*
G37*
G36*
G01X-14000Y-29000D02*
Y33000D01*
X-90000D01*
Y-29000D01*
X-14000D01*
G37*
G36*
G01X-77000Y40000D02*
X-79000Y42000D01*
Y56938D01*
X-77000Y58938D01*
X-60321D01*
X-55125Y53000D01*
X-36012D01*
Y48000D01*
X-38373D01*
Y52272D01*
X-49217D01*
Y48000D01*
X-55000D01*
X-63000Y40000D01*
X-77000D01*
G37*
G36*
G01X-9000Y68000D02*
X-36000D01*
X-39000Y65000D01*
Y57000D01*
X-53000D01*
X-57000Y61000D01*
X-67000D01*
X-69000Y63000D01*
Y68000D01*
G02X-7000Y97000I69507J-67825D01*
G01X-6000D01*
X-1000Y92000D01*
Y76000D01*
X-9000Y68000D01*
G37*
G36*
G01X-36000Y-81000D02*
G02X-24000Y-69000I12000J0D01*
G01Y-71500D01*
G03X-33500Y-81000I0J-9500D01*
G01X-36000D01*
G37*
G36*
G01X-46546Y38014D02*
G03I-681J0D01*
G37*
G36*
G01X-8000Y-97000D02*
X-11000Y-94000D01*
Y-74000D01*
X-20000Y-65000D01*
Y-54000D01*
X-11000Y-45000D01*
X-8100D01*
Y-49250D01*
X-4000D01*
Y-56000D01*
X610Y-60610D01*
G02X545Y-61228I-283J-283D01*
G03X5648Y-61362I2455J-3772D01*
G01X5566Y-61302D01*
Y-61000D01*
X6000D01*
X10000Y-57000D01*
Y-52000D01*
X19000Y-43000D01*
X22000D01*
X25000Y-40000D01*
Y-26000D01*
X23000Y-24000D01*
X22508D01*
Y-23696D01*
X22592Y-23637D01*
G03X20712Y-17716I-1884J2661D01*
G01X14502D01*
Y-23000D01*
X13000D01*
X9000Y-19000D01*
Y-2000D01*
X0Y7000D01*
Y30000D01*
X-3000Y33000D01*
X-35000D01*
X-38000Y36000D01*
X-49000D01*
Y38673D01*
X-38373D01*
Y43000D01*
X-25000D01*
X-22000Y46000D01*
X-19100D01*
Y41750D01*
X-14900D01*
Y46000D01*
X-13000D01*
X-7000Y40000D01*
X7900D01*
Y35750D01*
X12100D01*
Y40000D01*
X15000D01*
X16570Y41570D01*
X18370D01*
Y40060D01*
X26000D01*
Y31000D01*
X25000Y30000D01*
X19000D01*
X16000Y33000D01*
X9000D01*
X6000Y30000D01*
Y20000D01*
X9000Y17000D01*
X11000D01*
X16000Y12000D01*
Y100D01*
X13750D01*
Y-4100D01*
X18100D01*
X20000Y-6000D01*
X21000D01*
X26000Y-11000D01*
Y-14000D01*
X33000Y-21000D01*
X49000D01*
X52000Y-24000D01*
Y-38000D01*
X63000Y-49000D01*
X72000D01*
Y-50197D01*
X65587D01*
G03Y-56717I4J-3260D01*
G01X72000D01*
Y-65000D01*
X58000Y-79000D01*
X57975Y-79014D01*
G03X42037Y-88063I320800J-583547D01*
G02X29976Y-92896I-22120J37739D01*
G03X22000Y-95000I36649J-155104D01*
G02X8000Y-97000I-14000J48000D01*
G01X-8000D01*
G37*
G36*
G01X-36299Y74449D02*
Y55551D01*
X-23701D01*
Y74449D01*
X-36299D01*
G37*
G36*
G01X-14000Y-81000D02*
G03I-10000J0D01*
G37*
G36*
G01X-24000Y-93000D02*
Y-90500D01*
G03X-14500Y-81000I0J9500D01*
G01X-12000D01*
G02X-24000Y-93000I-12000J0D01*
G37*
G36*
G01X-4500Y-30500D02*
Y-35500D01*
X-15500D01*
Y-30500D01*
X-4500D01*
G37*
G36*
G01X-3500Y-49500D02*
X-8500D01*
Y-38500D01*
X-3500D01*
Y-49500D01*
G37*
G36*
G01X-3000Y-20000D02*
Y30000D01*
X-13000D01*
Y-20000D01*
X-3000D01*
G37*
G36*
G01X-14500Y41500D02*
X-19500D01*
Y52500D01*
X-14500D01*
Y41500D01*
G37*
G36*
G01X-5000Y43000D02*
X-10000Y48000D01*
X-14900D01*
Y52250D01*
X-19100D01*
Y48000D01*
X-23988D01*
Y53000D01*
X0D01*
X1000Y52000D01*
X7900D01*
Y47750D01*
X12100D01*
Y50934D01*
G02X12783Y51217I400J0D01*
G01X13000Y51000D01*
Y44000D01*
X12783Y43783D01*
G02X12100Y44066I-283J283D01*
G01Y46250D01*
X7900D01*
Y43000D01*
X-5000D01*
G37*
G36*
G01X-23988Y56000D02*
Y62000D01*
X-11000D01*
X3000Y76000D01*
Y96000D01*
X18000D01*
G02X66000Y70000I-19413J-93147D01*
G01Y67000D01*
X65163Y66163D01*
G02X64482Y66409I-283J283D01*
G03X56947Y62694I-4482J-409D01*
G02X56676Y62000I-271J-294D01*
G01X54000D01*
X49000Y67000D01*
X46000D01*
X44985Y65985D01*
X42773Y68198D01*
X39802Y65227D01*
X42015Y63015D01*
X40000Y61000D01*
X1000D01*
X-4000Y56000D01*
X-23988D01*
G37*
G36*
G01X8000Y-30000D02*
X-2000D01*
Y-70000D01*
X8000D01*
Y-30000D01*
G37*
G36*
G01X7500Y46500D02*
X12500D01*
Y35500D01*
X7500D01*
Y46500D01*
G37*
G36*
G01X69000Y18000D02*
Y30000D01*
X7000D01*
Y18000D01*
X69000D01*
G37*
G36*
G01X12500Y47500D02*
X7500D01*
Y58500D01*
X12500D01*
Y47500D01*
G37*
G36*
G01X38500Y13500D02*
Y8500D01*
X27500D01*
Y13500D01*
X38500D01*
G37*
G36*
G01X27500Y1500D02*
Y6500D01*
X38500D01*
Y1500D01*
X27500D01*
G37*
G36*
G01X39343Y65121D02*
X42879Y68657D01*
X50657Y60879D01*
X47121Y57343D01*
X39343Y65121D01*
G37*
G36*
G01X74156Y58918D02*
X59718Y73356D01*
X52648Y66286D01*
X67086Y51848D01*
X74156Y58918D01*
G37*
G36*
G01X49929Y54121D02*
X54879Y59071D01*
X64071Y49879D01*
X59121Y44929D01*
X49929Y54121D01*
G37*
G36*
G01X78500Y-12500D02*
X83500D01*
Y-23500D01*
X78500D01*
Y-12500D01*
G37*
G36*
G01X79800Y-46000D02*
X82700D01*
Y-41300D01*
X84900D01*
Y-38700D01*
X82600D01*
Y-34100D01*
X77400D01*
Y-35100D01*
X75100D01*
Y-37600D01*
X77300D01*
Y-42600D01*
X75100D01*
Y-45100D01*
X77400D01*
Y-46000D01*
X79800D01*
G37*
G36*
G01X83000Y-11000D02*
X93000D01*
Y29000D01*
X83000D01*
Y-11000D01*
G37*
G36*
G01X86500Y-12500D02*
X91500D01*
Y-23500D01*
X86500D01*
Y-12500D01*
G37*
G36*
G01X91500Y-35500D02*
X86500D01*
Y-24500D01*
X91500D01*
Y-35500D01*
G37*
%LPC*%
G75*
G36*
G01X20712Y-50197D02*
G02Y-56717I-4J-3260D01*
G01X14502D01*
Y-50197D01*
X20712D01*
G37*
G36*
G01X5985Y-91206D02*
X15D01*
X-4206Y-86985D01*
Y-81015D01*
X15Y-76794D01*
X5985D01*
X9802Y-80611D01*
X12413Y-78000D01*
X21100D01*
Y-77950D01*
X22000D01*
Y-77250D01*
X21900D01*
Y-72750D01*
X26100D01*
Y-77250D01*
X26000D01*
Y-77950D01*
X26900D01*
Y-78100D01*
X37100D01*
Y-77950D01*
X38000D01*
Y-77250D01*
X37900D01*
Y-72750D01*
X42100D01*
Y-77250D01*
X42000D01*
Y-77950D01*
X42900D01*
Y-78250D01*
X43861D01*
X46305Y-75806D01*
Y-68931D01*
X45585D01*
Y-68128D01*
X38905D01*
Y-61918D01*
G02X45170Y-60657I3260J-4D01*
G03X45902Y-60669I369J155D01*
G02X52525Y-62122I3153J-1449D01*
G01Y-68931D01*
X51805D01*
Y-78084D01*
X46139Y-83750D01*
X42900D01*
Y-84050D01*
X37100D01*
Y-83900D01*
X26900D01*
Y-84050D01*
X21100D01*
Y-84000D01*
X14898D01*
X12777Y-86122D01*
G02X10316Y-86981I-2121J2122D01*
G01X10220Y-86970D01*
X5985Y-91206D01*
G37*
G54D62*
X34000Y78000D03*
G54D60*
X10094Y8000D03*
G54D58*
X-30000Y39094D03*
G54D61*
X9842Y78000D03*
G54D59*
X-14000Y-61000D03*
G54D57*
X-68992Y50000D03*
%LPD*%
G75*
G36*
G01X-63814Y-60793D02*
X-67349Y-64329D01*
X-62329Y-69349D01*
X-58793Y-65814D01*
X-63814Y-60793D01*
G37*
G36*
G01X-73678Y-50929D02*
X-77213Y-54464D01*
X-71910Y-59768D01*
X-68374Y-56232D01*
X-73678Y-50929D01*
G37*
G36*
G01X-54232Y-70374D02*
X-57768Y-73910D01*
X-52464Y-79213D01*
X-48929Y-75678D01*
X-54232Y-70374D01*
G37*
G36*
G01X47Y-76618D02*
X5953D01*
X10382Y-81047D01*
Y-86953D01*
X5953Y-91382D01*
X47D01*
X-4382Y-86953D01*
Y-81047D01*
X47Y-76618D01*
G37*
G36*
G01X26500Y-83500D02*
X21500D01*
Y-72500D01*
X26500D01*
Y-83500D01*
G37*
G36*
G01X44000Y78000D02*
G03I-10000J0D01*
G37*
G36*
G01X22000D02*
G02X34000Y90000I12000J0D01*
G01Y87500D01*
G03X24500Y78000I0J-9500D01*
G01X22000D01*
G37*
G36*
G01X42500Y-83500D02*
X37500D01*
Y-72500D01*
X42500D01*
Y-83500D01*
G37*
G36*
G01X37500Y-78500D02*
Y-83500D01*
X26500D01*
Y-78500D01*
X37500D01*
G37*
G36*
G01X34000Y66000D02*
Y68500D01*
G03X43500Y78000I0J9500D01*
G01X46000D01*
G02X34000Y66000I-12000J0D01*
G37*
G36*
G01X20870Y39090D02*
Y50910D01*
X47130D01*
Y39090D01*
X20870D01*
G37*
G54D10*
X-65744Y-48256D03*
D03*
G54D20*
X-27980Y-21620D03*
X-8000Y-15000D03*
D03*
X13000Y24000D03*
D03*
G54D11*
X-76020Y-21620D03*
D03*
Y25620D03*
D03*
X-20110Y2000D03*
D03*
X-8000Y25000D03*
D03*
X-27980Y25620D03*
D03*
X23000Y24000D03*
D03*
X33000D03*
D03*
X43000D03*
D03*
X53000D03*
D03*
X60000Y66000D03*
D03*
X63000Y24000D03*
D03*
G54D21*
X-27980Y-21620D03*
G54D12*
X-68992Y50000D03*
G54D30*
X21906Y8000D03*
X10094D03*
G54D22*
X-7000Y-33000D03*
X-13000D03*
X16000Y-2000D03*
X22000D03*
X35000Y-81000D03*
X29000D03*
X36000Y11000D03*
X30000D03*
Y4000D03*
X36000D03*
G54D31*
X22120Y41160D03*
Y43720D03*
Y46280D03*
Y48840D03*
X45880D03*
Y46280D03*
Y43720D03*
Y41160D03*
G54D40*
X76500Y-43800D03*
Y-36300D03*
X83500Y-40000D03*
G54D13*
X-46256Y-67744D03*
D03*
X-56000Y-58000D03*
D03*
G54D50*
G01X22120Y48840D02*
X19470D01*
X18092Y50218D01*
Y51908D01*
G01X45880Y41160D02*
Y38880D01*
X43000Y36000D01*
G01X53000Y39398D02*
Y40900D01*
X50180Y43720D01*
X45880D01*
G54D41*
X67071Y58929D03*
D03*
G54D23*
X-6000Y-47000D03*
Y-41000D03*
X-17000Y44000D03*
Y50000D03*
X24000Y-81000D03*
Y-75000D03*
X10000Y38000D03*
Y44000D03*
Y50000D03*
Y56000D03*
X40000Y-81000D03*
Y-75000D03*
X81000Y-21000D03*
Y-15000D03*
X89000Y-21000D03*
Y-33000D03*
Y-27000D03*
Y-15000D03*
G54D14*
X-43795Y40945D03*
Y59055D03*
Y50000D03*
G54D32*
X9842Y78000D03*
D03*
G54D51*
G01X-6850Y-33000D02*
X-7000D01*
G01X-13000D02*
Y-40000D01*
X-14000Y-41000D01*
G01X24000Y-81000D02*
X13656D01*
X10656Y-84000D01*
G01X10000Y56000D02*
X4000D01*
G54D42*
G01X-17600Y-61100D02*
X-17900D01*
G02X-26400Y-53700I0J8582D01*
G01X-11500Y-57400D02*
Y-43800D01*
G01X-26500Y-48400D02*
Y-48300D01*
G02X-17700Y-40100I8220J0D01*
G54D33*
X49055Y-63789D03*
G54D15*
X-30000Y39094D03*
Y50906D03*
Y70906D03*
Y59094D03*
G54D24*
X-9842Y78000D03*
D03*
G54D52*
G01X22120Y43720D02*
X14280D01*
G01X22120Y41160D02*
X17160D01*
G01X45880Y46280D02*
X55211D01*
G01X45880Y48840D02*
Y46280D01*
G54D43*
G01X-31919Y-63150D02*
X-61150Y-33919D01*
X-80359Y-53129D01*
X-51129Y-82359D01*
X-31919Y-63150D01*
G01X-19685Y63433D02*
X19685D01*
Y94929D01*
X-19685D01*
Y63433D01*
G01X-2000Y-30000D02*
Y-70000D01*
X8000D01*
Y-30000D01*
X-2000D01*
G01X74142Y58929D02*
X67071Y51858D01*
X52646Y66283D01*
G01X59717Y73354D02*
X52646Y66283D01*
G01X59646Y73283D02*
X52646Y66283D01*
G01X59717Y73354D02*
X52646Y66283D01*
G01X74142Y58929D02*
X67071Y51858D01*
X52646Y66283D01*
G01X93000Y-11000D02*
Y29000D01*
X83000D01*
Y-11000D01*
X93000D01*
G54D25*
X3000Y-84000D03*
D03*
G54D16*
X-24000Y-81000D03*
D03*
X34000Y78000D03*
D03*
G54D34*
X42165Y-63393D03*
G54D53*
G01X-6000Y-41000D02*
X-14000D01*
G01X18092Y51908D02*
X14000Y56000D01*
X10000D01*
G01X88000Y24000D02*
X82000D01*
X68000Y10000D01*
Y-6713D01*
X56000Y-18713D01*
Y-23726D01*
X59156Y-26882D01*
X67461D01*
G01X37244Y-10839D02*
Y-15756D01*
G01X36000Y11000D02*
Y4000D01*
G01X43000Y36000D02*
Y24000D01*
G01X36000Y11000D02*
Y15750D01*
X33000Y18750D01*
Y24000D01*
G01X53000D02*
Y39398D01*
G01X76000Y-49000D02*
X71598Y-44598D01*
X67461D01*
G01Y-32787D02*
X72551D01*
X74000Y-31338D01*
Y2000D01*
X82288Y10288D01*
X84288D01*
X88000Y14000D01*
G01X83500Y-40000D02*
Y-38750D01*
X83000Y-38250D01*
Y-37000D01*
G01X83500Y-40000D02*
X74451D01*
X73144Y-38693D01*
X67461D01*
G01X88000Y4000D02*
X82750D01*
X81000Y2250D01*
Y-15000D01*
G54D44*
G01X-62890Y37205D02*
X-49110D01*
Y62795D01*
X-62890D01*
Y37205D01*
G01X47Y-76618D02*
X5953D01*
X10382Y-81047D01*
Y-86953D01*
X5953Y-91382D01*
X47D01*
X-4382Y-86953D01*
Y-81047D01*
X47Y-76618D01*
G01X-4500Y-35500D02*
X-9000D01*
G01X-9600Y-34100D02*
Y-31800D01*
G01X-10300Y-34100D02*
Y-31800D01*
G01X-9000Y-30500D02*
X-4500D01*
Y-35500D01*
G01X-11000D02*
X-15500D01*
Y-30500D01*
X-11000D01*
G01X-8500Y-49500D02*
Y-45000D01*
G01X-7100Y-44400D02*
X-4800D01*
G01X-7100Y-43700D02*
X-4800D01*
G01X-3500Y-45000D02*
Y-49500D01*
X-8500D01*
G01Y-43000D02*
Y-38500D01*
X-3500D01*
Y-43000D01*
G01X-8000Y8500D02*
Y14000D01*
G01Y-4000D02*
Y2000D01*
G01X-10500Y8500D02*
X-5500D01*
G01X-11000Y2000D02*
X-5000D01*
X-8000Y8500D01*
X-11000Y2000D01*
G01X-13000Y18500D02*
X-3000D01*
G01X-19500Y41500D02*
Y46000D01*
G01X-18100Y46600D02*
X-15800D01*
G01X-18100Y47300D02*
X-15800D01*
G01X-14500Y46000D02*
Y41500D01*
X-19500D01*
G01Y48000D02*
Y52500D01*
X-14500D01*
Y48000D01*
G01X21500Y-83500D02*
Y-79000D01*
G01X26500D02*
Y-83500D01*
X21500D01*
G01X22900Y-78400D02*
X25200D01*
G01X22900Y-77700D02*
X25200D01*
G01X21500Y-77000D02*
Y-72500D01*
X26500D01*
Y-77000D01*
G01X13500Y500D02*
X18000D01*
G01X18600Y-900D02*
Y-3200D01*
G01X19300Y-900D02*
Y-3200D01*
G01X18000Y-4500D02*
X13500D01*
Y500D01*
G01X20000D02*
X24500D01*
Y-4500D01*
X20000D01*
G01X12500Y40000D02*
Y35500D01*
X7500D01*
Y40000D01*
G01X69000Y18000D02*
X7000D01*
Y30000D01*
X69000D01*
Y18000D01*
G01X12500Y46500D02*
Y42000D01*
G01X11100Y41400D02*
X8800D01*
G01X11100Y40700D02*
X8800D01*
G01X7500Y42000D02*
Y46500D01*
X12500D01*
G01X7500Y47500D02*
Y52000D01*
G01X8900Y52600D02*
X11200D01*
G01X8900Y53300D02*
X11200D01*
G01X12500Y52000D02*
Y47500D01*
X7500D01*
G01Y54000D02*
Y58500D01*
X12500D01*
Y54000D01*
G01X37500Y-83500D02*
Y-79000D01*
G01X42500D02*
Y-83500D01*
X37500D01*
G01D02*
X33000D01*
G01X32400Y-82100D02*
Y-79800D01*
G01X31700Y-82100D02*
Y-79800D01*
G01X33000Y-78500D02*
X37500D01*
Y-83500D01*
G01X31000D02*
X26500D01*
Y-78500D01*
X31000D01*
G01X38900Y-78400D02*
X41200D01*
G01X38900Y-77700D02*
X41200D01*
G01X37500Y-77000D02*
Y-72500D01*
X42500D01*
Y-77000D01*
G01X38500Y8500D02*
X34000D01*
G01X33400Y9900D02*
Y12200D01*
G01X32700Y9900D02*
Y12200D01*
G01X34000Y13500D02*
X38500D01*
Y8500D01*
G01X32000D02*
X27500D01*
Y13500D01*
X32000D01*
G01X27500Y6500D02*
X32000D01*
G01X32600Y5100D02*
Y2800D01*
G01X33300Y5100D02*
Y2800D01*
G01X32000Y1500D02*
X27500D01*
Y6500D01*
G01X34000D02*
X38500D01*
Y1500D01*
X34000D01*
G01X42879Y68657D02*
X46061Y65475D01*
G01X45495Y64061D02*
X43869Y62434D01*
G01X45990Y63566D02*
X44364Y61939D01*
G01X42525D02*
X39343Y65121D01*
X42879Y68657D01*
G01X47475Y64061D02*
X50657Y60879D01*
X47121Y57343D01*
X43939Y60525D01*
G01X74142Y58929D02*
X67071Y51858D01*
X52646Y66283D01*
G01X50990Y56596D02*
X52404Y58010D01*
G01X50990D02*
X52404Y56596D01*
G01X53818Y50232D02*
X49929Y54121D01*
X54879Y59071D01*
G01X60182Y53768D02*
X64071Y49879D01*
X63717Y49525D01*
X59121Y44929D01*
X55232Y48818D01*
G01X58343Y52778D02*
X56222Y50657D01*
G01X57848Y53273D02*
X55727Y51151D01*
G01X54879Y59071D02*
X58768Y55182D01*
G01X83500Y-19000D02*
Y-23500D01*
X78500D01*
Y-19000D01*
G01X83500Y-12500D02*
Y-17000D01*
G01X82100Y-17600D02*
X79800D01*
G01X82100Y-18300D02*
X79800D01*
G01X78500Y-17000D02*
Y-12500D01*
X83500D01*
G01X59717Y73354D02*
X74142Y58929D01*
G01X62657Y47050D02*
X61596Y45990D01*
G01X91500Y-19000D02*
Y-23500D01*
X86500D01*
Y-19000D01*
G01Y-35500D02*
Y-31000D01*
G01X87900Y-30400D02*
X90200D01*
G01X87900Y-29700D02*
X90200D01*
G01X91500Y-31000D02*
Y-35500D01*
X86500D01*
G01Y-29000D02*
Y-24500D01*
X91500D01*
Y-29000D01*
G01Y-12500D02*
Y-17000D01*
G01X90100Y-17600D02*
X87800D01*
G01X90100Y-18300D02*
X87800D01*
G01X86500Y-17000D02*
Y-12500D01*
X91500D01*
G54D17*
G01X-27000Y-51000D02*
Y-32000D01*
X-27980Y-31020D01*
Y-21620D01*
G01X-8000Y-15000D02*
X-14371Y-21371D01*
X-20731D01*
X-20980Y-21620D01*
X-27980D01*
G01X-8000Y25000D02*
X-20460D01*
X-21080Y25620D01*
X-27980D01*
X-5000Y-92000D03*
D03*
X-7000Y-87000D03*
D03*
Y-81000D03*
D03*
X-5000Y-76000D03*
D03*
X-25000Y35000D03*
D03*
X-15000D03*
D03*
X-7000Y36000D03*
D03*
X-8906Y59094D03*
D03*
X11000Y-91000D03*
D03*
X0Y-94000D03*
D03*
X6000D03*
D03*
X18000Y-87000D03*
D03*
X25000D03*
D03*
X0Y-74000D03*
D03*
X6000D03*
D03*
X15000Y-75000D03*
D03*
X25000Y-50000D03*
D03*
Y-70000D03*
D03*
Y-60000D03*
D03*
X15000D03*
D03*
Y-70000D03*
D03*
X3000Y-19000D03*
D03*
X11000Y-33000D03*
D03*
X5000Y-4000D03*
D03*
X20000Y-10000D03*
D03*
X5000Y48100D03*
D03*
X15000Y65000D03*
D03*
X5000D03*
D03*
X4000Y56000D03*
D03*
X32000Y-87000D03*
D03*
X38000D03*
D03*
X32000Y-75000D03*
D03*
X55000Y-77000D03*
D03*
Y-72000D03*
D03*
Y-66000D03*
D03*
Y-60000D03*
D03*
Y-50000D03*
D03*
X45000D03*
D03*
X35000D03*
D03*
Y-60000D03*
D03*
Y-70000D03*
D03*
X30000Y-20000D03*
D03*
Y-30000D03*
D03*
X45000Y-40000D03*
D03*
X37244Y-15756D03*
D03*
X31270Y42280D03*
D03*
X76000Y-49000D03*
D03*
X79000Y-28000D03*
D03*
X60327Y-20976D03*
D03*
X83000Y-37000D03*
D03*
X77000Y36000D03*
D03*
G54D26*
X19237Y-53457D03*
Y-20976D03*
G54D35*
X31339Y-10841D03*
X37244D03*
X43150D03*
X49055D03*
X54961D03*
G54D54*
G01X10656Y-84000D02*
X3000D01*
G01X29000Y-81000D02*
X24000D01*
G01X40000D02*
X35000D01*
G01X40000D02*
X45000D01*
X49055Y-76945D01*
Y-63791D01*
G54D45*
G01X-35315Y48200D02*
Y41800D01*
G01Y68200D02*
Y61800D01*
G01X-24685Y41800D02*
Y48200D01*
G01Y61800D02*
Y68200D01*
G01X12800Y2685D02*
X19200D01*
G01Y13315D02*
X12800D01*
G54D18*
X-27000Y-51000D03*
D03*
X-14000Y-41000D03*
D03*
G54D27*
X3000Y-65000D03*
D03*
Y-55000D03*
D03*
Y-45000D03*
D03*
X88000Y14000D03*
D03*
Y4000D03*
D03*
Y24000D03*
D03*
G54D36*
X42879Y65121D03*
X47121Y60879D03*
G54D55*
G01X-76020Y-21620D02*
Y-37980D01*
X-65744Y-48256D01*
G01X-56000Y-58000D02*
X-49282Y-51283D01*
Y-16282D01*
X-31000Y2000D01*
X-20110D01*
G54D46*
G01X18543Y-57000D02*
Y-64087D01*
X38622D01*
G01X18543Y-41646D02*
Y-49913D01*
G01X28386Y-10543D02*
X18543D01*
Y-17236D01*
G01X51614Y-64087D02*
X67756D01*
Y-56606D01*
G01X45315Y-64087D02*
X46496D01*
G01X67756Y-50307D02*
Y-47157D01*
G01Y-17630D02*
Y-10543D01*
X57913D01*
G54D19*
X-14000Y-61000D03*
D03*
G54D28*
X18841Y-38693D03*
Y-32787D03*
Y-26882D03*
G54D37*
X59475Y49525D03*
X54525Y54475D03*
G54D56*
G01X43150Y-10839D02*
Y2850D01*
X43000Y3000D01*
G01X49055Y-10839D02*
Y2501D01*
X53000Y6446D01*
G54D47*
G01X70837Y-58181D02*
G03I-1113J0D01*
G54D38*
X67062Y-53457D03*
Y-20976D03*
G54D29*
X3000Y-35000D03*
D03*
X88000Y-6000D03*
D03*
G54D48*
G01X-73000Y-3000D02*
X-67000Y3000D01*
G01X-72000Y-17000D02*
Y-5000D01*
G01X-29000Y3000D02*
X-67000D01*
G01X-72000Y11000D02*
Y23000D01*
G01X-33870Y9060D02*
G02X-34030Y15050I-130J2994D01*
G01X-33870Y3060D02*
G02X-34030Y9050I-130J2994D01*
G01X-33870Y-2940D02*
G02X-34030Y3050I-130J2994D01*
G01X-33870Y-8940D02*
G02X-34030Y-2950I-130J2994D01*
G01X-34000Y-17000D02*
Y-9000D01*
G01Y15000D02*
Y23000D01*
G01X31270Y42280D02*
X27270Y46280D01*
X22120D01*
G01X89000Y-27000D02*
X85950D01*
X76650Y-36300D01*
X76500D01*
G01X89000Y-21000D02*
Y-27000D01*
G54D39*
X67459Y-26882D03*
Y-32787D03*
Y-38693D03*
Y-44598D03*
G54D49*
G01X-43795Y50000D02*
X-68992D01*
G01Y41918D02*
Y50000D01*
G01D02*
Y58082D01*
G01X-75598Y50000D02*
X-68992D01*
G01X-36212Y39094D02*
X-30000D01*
G01X-43795Y38473D02*
Y40945D01*
G01D02*
X-38173D01*
G01X-36212Y50906D02*
X-37118Y50000D01*
G01D02*
X-43795D01*
G01X-36212Y50906D02*
X-30000D01*
G01X-6000Y-49450D02*
Y-47000D01*
G01X-14000Y-65050D02*
Y-61000D01*
G01D02*
Y-56950D01*
G01X-18050Y-61000D02*
X-14000D01*
G01D02*
X-9950D01*
G01X-8300Y-47000D02*
X-6000D01*
G01X18839Y-26882D02*
X-4882D01*
X-7000Y-29000D01*
Y-33000D01*
G01X-30000Y36032D02*
Y39094D01*
G01D02*
Y42156D01*
G01Y39094D02*
X-23788D01*
G01X-17000Y50000D02*
X-29094D01*
X-30000Y50906D01*
G01X6900Y50000D02*
X-17000D01*
G01X-30000Y50906D02*
X-23788D01*
G01X-30000Y59094D02*
X-8906D01*
G01X-17000Y41550D02*
Y44000D01*
G01X-19300D02*
X-17000D01*
G01D02*
X-14700D01*
G01X19237Y-53462D02*
X19232Y-53457D01*
G01X3000Y-65000D02*
X9000D01*
G01X24000Y-75000D02*
X27000D01*
G01X24000D02*
Y-72550D01*
G01X21700Y-75000D02*
X24000D01*
G01X3000Y-69700D02*
Y-65000D01*
G01X-1700D02*
X3000D01*
G01X14302Y-53457D02*
X19232D01*
G01D02*
X24172D01*
G01X19232Y-56917D02*
Y-53457D01*
G01D02*
Y-49997D01*
G01Y-20976D02*
X19237Y-20971D01*
G01X14302Y-20976D02*
X19232D01*
G01D02*
X24172D01*
G01X19232D02*
Y-17516D01*
G01X11000Y-33000D02*
X11213Y-32787D01*
X18839D01*
G01X3000Y-45000D02*
X7000D01*
X13307Y-38693D01*
X18839D01*
G01X21906Y8000D02*
Y-1906D01*
X22000Y-2000D01*
G01X30000Y4000D02*
X25906D01*
X21906Y8000D01*
G01X13000Y24000D02*
Y20056D01*
X21906Y11150D01*
Y8000D01*
G01X22000Y-2000D02*
X27740D01*
X31339Y-5599D01*
Y-10839D01*
G01X5000Y-4000D02*
Y-8000D01*
X3000Y-10000D01*
Y-19000D01*
G01X10094Y1788D02*
Y8000D01*
G01D02*
Y14212D01*
G01X7032Y8000D02*
X10094D01*
G01D02*
X13156D01*
G01X16000Y-4300D02*
Y-2000D01*
G01D02*
Y300D01*
G01X13550Y-2000D02*
X16000D01*
G01X23000Y24000D02*
X30000Y17000D01*
Y11000D01*
G01X10000Y38000D02*
Y37850D01*
G01X23000Y24000D02*
Y33000D01*
G01X10000Y38000D02*
X6000D01*
G01X10000D02*
X14000D01*
G01X22000D02*
X22120Y38120D01*
G01D02*
Y41160D01*
G01X10000Y50000D02*
Y44000D01*
G01Y50000D02*
X6900D01*
G01X14280Y43720D02*
X13280D01*
X13000Y44000D01*
G01X6900Y50000D02*
X5000Y48100D01*
G01X13000Y44000D02*
X10000D01*
G01Y50000D02*
X12000D01*
G01X9842Y78000D02*
Y71500D01*
G01Y78000D02*
Y83700D01*
G01X4142Y78000D02*
X9842D01*
G01D02*
X15542D01*
G01X40000Y-75000D02*
X37000D01*
G01X42165Y-57165D02*
Y-63398D01*
G01X37393Y-63393D02*
X42160D01*
X42165Y-63398D01*
G01Y-69835D02*
Y-63398D01*
G01X40000Y-75000D02*
Y-72550D01*
G01Y-75000D02*
X42300D01*
G01X43000Y3000D02*
Y24000D01*
G01X63000D02*
Y4000D01*
X54961Y-4039D01*
Y-10839D01*
G01X53000Y6446D02*
Y24000D01*
G01X55211Y46280D02*
G03X56950Y47000I0J2459D01*
G01X59475Y49525D01*
G01X42879Y65121D02*
X47646Y69889D01*
G01X56111D02*
X60000Y66000D01*
G01X47646Y69889D02*
X56111D01*
G01X55300Y66000D02*
X60000D01*
G01X41146Y66854D02*
X42879Y65121D01*
G01X41252Y63495D02*
X42879Y65121D01*
G01X47121Y60879D02*
X49419Y58581D01*
X50419D01*
X54525Y54475D01*
G01X85000Y-46000D02*
X84000Y-47000D01*
Y-49000D01*
X79982Y-53018D01*
G02X75197Y-55000I-4786J4786D01*
G01X68567D01*
X67067Y-53500D01*
Y-53457D01*
G01X67062Y-57717D02*
Y-53462D01*
X67067Y-53457D01*
G01X62127D02*
X67067D01*
G01D02*
Y-49997D01*
G01X79000Y-28000D02*
X81000Y-26000D01*
Y-21000D01*
G01X89000Y-33000D02*
Y-36343D01*
G02X85000Y-46000I-13657J0D01*
G01X76500Y-43800D02*
X79689D01*
G02X85000Y-46000I0J-7511D01*
G01X67067Y-20976D02*
X60327D01*
G01X77000Y36000D02*
X73000D01*
X59475Y49525D01*
G01D02*
Y51333D01*
X67071Y58929D01*
G01X60000Y66000D02*
Y70700D01*
G01X88000Y-6000D02*
Y-14000D01*
X89000Y-15000D01*
M02*
