G04 ================== begin FILE IDENTIFICATION RECORD ==================*
G04 Layout Name:  ZWAVE_BOOSTERPACK.brd*
G04 Film Name:    ZWave_Ex_TOP.art*
G04 File Format:  Gerber RS274X*
G04 File Origin:  Cadence Allegro 16.6-S049*
G04 Origin Date:  Wed Oct 02 09:33:25 2019*
G04 *
G04 Layer:  ETCH/TOP*
G04 Layer:  PIN/TOP*
G04 Layer:  VIA CLASS/TOP*
G04 Layer:  BOARD GEOMETRY/OUTLINE*
G04 *
G04 Offset:    (0.000 0.000)*
G04 Mirror:    No*
G04 Mode:      Positive*
G04 Rotation:  0*
G04 FullContactRelief:  No*
G04 UndefLineWidth:     5.000*
G04 ================== end FILE IDENTIFICATION RECORD ====================*
%FSLAX25Y25*MOIN*%
%IR0*IPPOS*OFA0.00000B0.00000*MIA0B0*SFA1.00000B1.00000*%
%AMMACRO33*
4,1,21,-.027598,-.04235,
-.027598,.014748,
-.027173,.01954,
-.025922,.024185,
-.023883,.028542,
-.021119,.03248,
-.017713,.035877,
-.013769,.038631,
-.009407,.040659,
-.004759,.041898,
.000034,.042312,
.004826,.041887,
.009471,.040636,
.013829,.038597,
.017766,.035833,
.021163,.032427,
.023918,.028483,
.025945,.024121,
.027185,.019472,
.027598,.014748,
.027598,-.04235,
-.027598,-.04235,
0.0*
%
%ADD33MACRO33*%
%ADD14R,.098429X.035429*%
%AMMACRO35*
21,1,.035,.032,0.0,0.0,135.*%
%ADD35MACRO35*%
%AMMACRO36*
21,1,.045,.05,0.0,0.0,135.*%
%ADD36MACRO36*%
%ADD13C,.1*%
%ADD31R,.1X.1*%
%ADD30C,.17*%
%AMMACRO10*
21,1,.1,.1,0.0,0.0,55.*%
%ADD10MACRO10*%
%ADD28R,.04724X.11024*%
%ADD15R,.11024X.04724*%
%AMMACRO34*
4,1,22,.021701,.038421,
.021701,-.016681,
.021377,-.02045,
.020403,-.024105,
.018809,-.027536,
.016644,-.030637,
.013973,-.033316,
.010878,-.03549,
.007452,-.037094,
.003799,-.038078,
.000031,-.038413,
-.003738,-.038089,
-.007393,-.037115,
-.010823,-.035522,
-.013925,-.033356,
-.016604,-.030685,
-.018778,-.02759,
-.020382,-.024164,
-.021366,-.020511,
-.021701,-.016744,
-.021701,-.016681,
-.021701,.038421,
.021701,.038421,
0.0*
%
%ADD34MACRO34*%
%AMMACRO26*
4,1,22,-.038421,.021701,
.016681,.021701,
.02045,.021377,
.024105,.020403,
.027536,.018809,
.030637,.016644,
.033316,.013973,
.03549,.010878,
.037094,.007452,
.038078,.003799,
.038413,.000031,
.038089,-.003738,
.037115,-.007393,
.035522,-.010823,
.033356,-.013925,
.030685,-.016604,
.02759,-.018778,
.024164,-.020382,
.020511,-.021366,
.016744,-.021701,
.016681,-.021701,
-.038421,-.021701,
-.038421,.021701,
0.0*
%
%ADD26MACRO26*%
%AMMACRO24*
4,1,21,-.04235,.027598,
.014748,.027598,
.01954,.027173,
.024185,.025922,
.028542,.023883,
.03248,.021119,
.035877,.017713,
.038631,.013769,
.040659,.009407,
.041898,.004759,
.042312,-.000034,
.041887,-.004826,
.040636,-.009471,
.038597,-.013829,
.035833,-.017766,
.032427,-.021163,
.028483,-.023918,
.024121,-.025945,
.019472,-.027185,
.014748,-.027598,
-.04235,-.027598,
-.04235,.027598,
0.0*
%
%ADD24MACRO24*%
%ADD19R,.017X.02*%
%ADD39R,.02X.017*%
%ADD18R,.032X.035*%
%ADD17R,.035X.032*%
%ADD29R,.065X.012*%
%ADD27R,.08X.08*%
%ADD22C,.04*%
%ADD25C,.08*%
%ADD21C,.085*%
%AMMACRO40*
21,1,.08,.08,0.0,0.0,45.*%
%ADD40MACRO40*%
%ADD16R,.08X.08*%
%ADD11C,.078*%
%ADD12R,.11811X.147642*%
%ADD20R,.085X.085*%
%AMMACRO38*
4,1,22,.038421,-.021701,
-.016681,-.021701,
-.02045,-.021377,
-.024105,-.020403,
-.027536,-.018809,
-.030637,-.016644,
-.033316,-.013973,
-.03549,-.010878,
-.037094,-.007452,
-.038078,-.003799,
-.038413,-.000031,
-.038089,.003738,
-.037115,.007393,
-.035522,.010823,
-.033356,.013925,
-.030685,.016604,
-.02759,.018778,
-.024164,.020382,
-.020511,.021366,
-.016744,.021701,
-.016681,.021701,
.038421,.021701,
.038421,-.021701,
0.0*
%
%ADD38MACRO38*%
%AMMACRO32*
4,1,22,-.021701,-.038421,
-.021701,.016681,
-.021377,.02045,
-.020403,.024105,
-.018809,.027536,
-.016644,.030637,
-.013973,.033316,
-.010878,.03549,
-.007452,.037094,
-.003799,.038078,
-.000031,.038413,
.003738,.038089,
.007393,.037115,
.010823,.035522,
.013925,.033356,
.016604,.030685,
.018778,.02759,
.020382,.024164,
.021366,.020511,
.021701,.016744,
.021701,.016681,
.021701,-.038421,
-.021701,-.038421,
0.0*
%
%ADD32MACRO32*%
%ADD23P,.127841X8X22.5*%
%AMMACRO37*
4,1,21,.04235,-.027598,
-.014748,-.027598,
-.01954,-.027173,
-.024185,-.025922,
-.028542,-.023883,
-.03248,-.021119,
-.035877,-.017713,
-.038631,-.013769,
-.040659,-.009407,
-.041898,-.004759,
-.042312,.000034,
-.041887,.004826,
-.040636,.009471,
-.038597,.013829,
-.035833,.017766,
-.032427,.021163,
-.028483,.023918,
-.024121,.025945,
-.019472,.027185,
-.014748,.027598,
.04235,.027598,
.04235,-.027598,
0.0*
%
%ADD37MACRO37*%
%ADD41C,.01*%
%ADD42C,.02*%
%ADD43C,.012*%
%ADD44C,.03*%
%ADD45C,.013*%
%ADD46C,.05*%
%ADD47C,.015*%
%ADD48C,.025*%
%ADD49C,.018*%
%ADD50C,.005*%
%ADD54C,.196004*%
%ADD53R,.057244X.120244*%
%ADD52R,.120244X.057244*%
%ADD55R,.110004X.110004*%
%ADD51R,.128114X.157646*%
G75*
%LPD*%
G75*
G36*
G01X-77000Y40000D02*
X-79000Y42000D01*
Y56938D01*
X-77000Y58938D01*
X-60321D01*
X-55125Y53000D01*
X-36012D01*
Y48000D01*
X-38373D01*
Y52272D01*
X-49217D01*
Y48000D01*
X-55000D01*
X-63000Y40000D01*
X-77000D01*
G37*
G36*
G01X-9000Y68000D02*
X-36000D01*
X-39000Y65000D01*
Y57000D01*
X-53000D01*
X-57000Y61000D01*
X-67000D01*
X-69000Y63000D01*
Y68000D01*
G02X-7000Y97000I69507J-67825D01*
G01X-6000D01*
X-1000Y92000D01*
Y76000D01*
X-9000Y68000D01*
G37*
G36*
G01X26413Y-93413D02*
X20000Y-87000D01*
Y-84000D01*
X21100D01*
Y-84050D01*
X26900D01*
Y-83900D01*
X37100D01*
Y-84050D01*
X42900D01*
Y-83750D01*
X46139D01*
X51805Y-78084D01*
Y-68931D01*
X52525D01*
Y-62122D01*
G03X45902Y-60669I-3470J4D01*
G02X45170Y-60657I-363J167D01*
G03X38905Y-61918I-3005J-1265D01*
G01Y-68128D01*
X45585D01*
Y-68931D01*
X46305D01*
Y-75806D01*
X43861Y-78250D01*
X42900D01*
Y-77950D01*
X42000D01*
Y-77250D01*
X42100D01*
Y-72750D01*
X37900D01*
Y-77250D01*
X38000D01*
Y-77950D01*
X37100D01*
Y-78100D01*
X26900D01*
Y-77950D01*
X26000D01*
Y-77250D01*
X26100D01*
Y-72750D01*
X21900D01*
Y-77250D01*
X22000D01*
Y-77950D01*
X21100D01*
Y-78000D01*
X20000D01*
Y-76000D01*
X16000Y-72000D01*
X-3000D01*
X-6000Y-69000D01*
Y-55000D01*
X-17000Y-44000D01*
Y-39000D01*
X-16892Y-38892D01*
G02X-16550Y-39033I141J-141D01*
G01Y-40000D01*
X-13850D01*
Y-37000D01*
X-8100D01*
Y-41250D01*
X-3900D01*
Y-38066D01*
G02X-3217Y-37783I400J0D01*
G01X-3000Y-38000D01*
Y-57000D01*
X610Y-60610D01*
G02X545Y-61228I-283J-283D01*
G03X5648Y-61362I2455J-3772D01*
G01X5566Y-61302D01*
Y-61000D01*
X6000D01*
X10000Y-57000D01*
Y-52000D01*
X19000Y-43000D01*
X22000D01*
X25000Y-40000D01*
Y-26000D01*
X23000Y-24000D01*
X22508D01*
Y-23696D01*
X22592Y-23637D01*
G03X20712Y-17716I-1884J2661D01*
G01X14502D01*
Y-23000D01*
X13000D01*
X9000Y-19000D01*
Y-2000D01*
X0Y7000D01*
Y30000D01*
X-3000Y33000D01*
X-35000D01*
X-38000Y36000D01*
X-49000D01*
Y38673D01*
X-38373D01*
Y43000D01*
X-25000D01*
X-22000Y46000D01*
X-19100D01*
Y41750D01*
X-14900D01*
Y46000D01*
X-13000D01*
X-7000Y40000D01*
X7900D01*
Y35750D01*
X12100D01*
Y40000D01*
X15000D01*
X16570Y41570D01*
X18370D01*
Y40060D01*
X25870D01*
Y41820D01*
X27000D01*
Y32000D01*
X25000Y30000D01*
X19000D01*
X16000Y33000D01*
X9000D01*
X6000Y30000D01*
Y20000D01*
X9000Y17000D01*
X11000D01*
X16000Y12000D01*
Y100D01*
X13750D01*
Y-4100D01*
X18100D01*
X20000Y-6000D01*
X21000D01*
X26000Y-11000D01*
Y-14000D01*
X33000Y-21000D01*
X49000D01*
X52000Y-24000D01*
Y-38000D01*
X63000Y-49000D01*
X72000D01*
Y-50197D01*
X65587D01*
G03Y-56717I4J-3260D01*
G01X72000D01*
Y-65000D01*
X58000Y-79000D01*
X57975Y-79014D01*
G03X42037Y-88063I320800J-583547D01*
G02X29976Y-92896I-22120J37739D01*
G03X27877Y-93407I36650J-155104D01*
G01X27853Y-93413D01*
X26413D01*
G37*
G36*
G01X-5000Y43000D02*
X-10000Y48000D01*
X-14900D01*
Y52250D01*
X-19100D01*
Y48000D01*
X-23988D01*
Y53000D01*
X0D01*
X1000Y52000D01*
X7900D01*
Y47750D01*
X12100D01*
Y50934D01*
G02X12783Y51217I400J0D01*
G01X13000Y51000D01*
Y44000D01*
X12783Y43783D01*
G02X12100Y44066I-283J283D01*
G01Y46250D01*
X7900D01*
Y43000D01*
X-5000D01*
G37*
G36*
G01X-23988Y56000D02*
Y62000D01*
X-11000D01*
X3000Y76000D01*
Y96000D01*
X18000D01*
G02X66000Y70000I-19413J-93147D01*
G01Y67000D01*
X65163Y66163D01*
G02X64482Y66409I-283J283D01*
G03X56947Y62694I-4482J-409D01*
G02X56676Y62000I-271J-294D01*
G01X54000D01*
X49000Y67000D01*
X46000D01*
X44985Y65985D01*
X42773Y68198D01*
X39802Y65227D01*
X42015Y63015D01*
X40000Y61000D01*
X1000D01*
X-4000Y56000D01*
X-23988D01*
G37*
%LPC*%
G75*
G36*
G01X20712Y-50197D02*
G02Y-56717I-4J-3260D01*
G01X14502D01*
Y-50197D01*
X20712D01*
G37*
G54D54*
X34000Y78000D03*
G54D53*
X10094Y8000D03*
G54D52*
X-30000Y39094D03*
G54D55*
X9842Y78000D03*
G54D51*
X-68992Y50000D03*
%LPD*%
G75*
G54D10*
X-59957Y-49049D03*
G54D20*
X-8000Y-15000D03*
G54D11*
X-76020Y-21620D03*
Y25620D03*
X-20110Y2000D03*
X-27980Y25620D03*
G54D12*
X-68992Y50000D03*
G54D21*
X-8000Y25000D03*
G54D30*
X34000Y78000D03*
G54D40*
X67071Y58929D03*
G54D22*
X-25000Y35000D03*
X-15000D03*
X-7000Y36000D03*
X-8906Y59094D03*
X25000Y-87000D03*
Y-70000D03*
Y-60000D03*
X15000D03*
Y-70000D03*
X3000Y-19000D03*
X11000Y-33000D03*
X5000Y-4000D03*
X20000Y-10000D03*
X5000Y48100D03*
X15000Y65000D03*
X5000D03*
X4000Y56000D03*
X32000Y-87000D03*
X38000D03*
X32000Y-75000D03*
X55000Y-77000D03*
Y-72000D03*
Y-66000D03*
Y-60000D03*
Y-50000D03*
X45000D03*
X35000D03*
Y-60000D03*
Y-70000D03*
X30000Y-20000D03*
Y-30000D03*
X45000Y-40000D03*
X37244Y-15756D03*
X31270Y42280D03*
X76000Y-49000D03*
X79000Y-28000D03*
X60327Y-20976D03*
X83000Y-37000D03*
X77000Y27000D03*
G54D31*
X9842Y78000D03*
G54D13*
X-27756Y-71597D03*
X-43832Y-60340D03*
X-9842Y78000D03*
G54D50*
G01X100500Y0D02*
G03I-100500J0D01*
G54D41*
G01X31270Y42280D02*
X27270Y46280D01*
X22120D01*
G01X89000Y-27000D02*
X85950D01*
X76650Y-36300D01*
X76500D01*
G01X89000Y-21000D02*
Y-27000D01*
G54D23*
X3000Y-84000D03*
G54D32*
X49055Y-63789D03*
G54D14*
X-43795Y40945D03*
Y59055D03*
Y50000D03*
G54D42*
G01D02*
X-68992D01*
G01Y41918D02*
Y50000D01*
G01D02*
Y58082D01*
G01X-75598Y50000D02*
X-68992D01*
G01X-36212Y39094D02*
X-30000D01*
G01X-43795Y38473D02*
Y40945D01*
G01D02*
X-38173D01*
G01X-36212Y50906D02*
X-37118Y50000D01*
G01D02*
X-43795D01*
G01X-36212Y50906D02*
X-30000D01*
G01X-15000Y-43000D02*
X-15200Y-42800D01*
G01D02*
Y-38500D01*
G01X-6000Y-41450D02*
Y-39000D01*
G01X-8300D02*
X-6000D01*
G01D02*
X-3700D01*
G01X-6000Y-26000D02*
Y-33000D01*
G01X-30000Y36032D02*
Y39094D01*
G01D02*
Y42156D01*
G01Y39094D02*
X-23788D01*
G01X-17000Y50000D02*
X-29094D01*
X-30000Y50906D01*
G01X6900Y50000D02*
X-17000D01*
G01X-30000Y50906D02*
X-23788D01*
G01X-30000Y59094D02*
X-8906D01*
G01X-17000Y41550D02*
Y44000D01*
G01X-19300D02*
X-17000D01*
G01D02*
X-14700D01*
G01X19237Y-53462D02*
X19232Y-53457D01*
G01X24000Y-75000D02*
X27000D01*
G01X24000D02*
Y-72550D01*
G01X21700Y-75000D02*
X24000D01*
G01X3000Y-69700D02*
Y-65000D01*
G01X-1700D02*
X3000D01*
G01D02*
X7700D01*
G01X14302Y-53457D02*
X19232D01*
G01D02*
X24172D01*
G01X19232Y-56917D02*
Y-53457D01*
G01D02*
Y-49997D01*
G01Y-20976D02*
X19237Y-20971D01*
G01X14302Y-20976D02*
X19232D01*
G01D02*
X24172D01*
G01X19232D02*
Y-17516D01*
G01X11000Y-33000D02*
X11213Y-32787D01*
X18839D01*
G01X3000Y-45000D02*
X7000D01*
X13307Y-38693D01*
X18839D01*
G01X21906Y8000D02*
Y-1906D01*
X22000Y-2000D01*
G01X30000Y4000D02*
X25906D01*
X21906Y8000D01*
G01X13000Y24000D02*
Y20056D01*
X21906Y11150D01*
Y8000D01*
G01X22000Y-2000D02*
X27740D01*
X31339Y-5599D01*
Y-10839D01*
G01X5000Y-4000D02*
Y-8000D01*
X3000Y-10000D01*
Y-19000D01*
G01X10094Y1788D02*
Y8000D01*
G01D02*
Y14212D01*
G01X7032Y8000D02*
X10094D01*
G01D02*
X13156D01*
G01X16000Y-4300D02*
Y-2000D01*
G01D02*
Y300D01*
G01X13550Y-2000D02*
X16000D01*
G01X23000Y24000D02*
X30000Y17000D01*
Y11000D01*
G01X10000Y38000D02*
Y37850D01*
G01X23000Y24000D02*
Y33000D01*
G01X10000Y38000D02*
X6000D01*
G01X10000D02*
X14000D01*
G01X22000D02*
X22120Y38120D01*
G01D02*
Y41160D01*
G01X10000Y50000D02*
Y44000D01*
G01Y50000D02*
X6900D01*
G01X10000D02*
X12000D01*
G01X10000Y44000D02*
X13000D01*
G01X6900Y50000D02*
X5000Y48100D01*
G01X13000Y44000D02*
X13280Y43720D01*
X14280D01*
G01X9842Y78000D02*
Y71500D01*
G01Y78000D02*
Y83700D01*
G01X4142Y78000D02*
X9842D01*
G01D02*
X15542D01*
G01X40000Y-75000D02*
X37000D01*
G01X42165Y-57165D02*
Y-63398D01*
G01X37393Y-63393D02*
X42160D01*
X42165Y-63398D01*
G01Y-69835D02*
Y-63398D01*
G01X40000Y-75000D02*
Y-72550D01*
G01Y-75000D02*
X42300D01*
G01X43000Y3000D02*
Y24000D01*
G01X63000D02*
Y4000D01*
X54961Y-4039D01*
Y-10839D01*
G01X53000Y6446D02*
Y24000D01*
G01X55211Y46280D02*
G03X56950Y47000I0J2459D01*
G01X59298Y49348D01*
G01X42879Y65121D02*
X47646Y69889D01*
G01X56111D02*
X60000Y66000D01*
G01X47646Y69889D02*
X56111D01*
G01X55300Y66000D02*
X60000D01*
G01X41146Y66854D02*
X42879Y65121D01*
G01X41252Y63495D02*
X42879Y65121D01*
G01X47121Y60879D02*
X49419Y58581D01*
X50419D01*
X54525Y54475D01*
G01X67062Y-57717D02*
Y-53462D01*
X67067Y-53457D01*
G01X85000Y-46000D02*
X84000Y-47000D01*
Y-49000D01*
X79982Y-53018D01*
G02X75197Y-55000I-4786J4786D01*
G01X68567D01*
X67067Y-53500D01*
Y-53457D01*
G01X62127D02*
X67067D01*
G01D02*
Y-49997D01*
G01X79000Y-28000D02*
X81000Y-26000D01*
Y-21000D01*
G01X89000Y-33000D02*
Y-36343D01*
G02X85000Y-46000I-13657J0D01*
G01X76500Y-43800D02*
X79689D01*
G02X85000Y-46000I0J-7511D01*
G01X67067Y-20976D02*
X60327D01*
G01X77000Y27000D02*
X73000D01*
X59298Y40702D01*
Y49348D01*
G01X59475Y49525D02*
Y51333D01*
X67071Y58929D01*
G01X59298Y49348D02*
X59475Y49525D01*
G01X60000Y66000D02*
Y70700D01*
G01X88000Y-6000D02*
Y-14000D01*
X89000Y-15000D01*
G54D24*
X19237Y-53457D03*
Y-20976D03*
G54D15*
X-30000Y39094D03*
Y50906D03*
Y70906D03*
Y59094D03*
G54D33*
X42165Y-63393D03*
G54D43*
G01X22120Y48840D02*
X19470D01*
X18092Y50218D01*
Y51908D01*
G01X45880Y41160D02*
Y38880D01*
X43000Y36000D01*
G01X53000Y39398D02*
Y40900D01*
X50180Y43720D01*
X45880D01*
G54D16*
X-27980Y-21620D03*
X13000Y24000D03*
G54D25*
G01X-76020Y-21620D02*
Y-37802D01*
X-59957Y-49049D01*
G01X-43832Y-60340D02*
Y-10832D01*
X-31000Y2000D01*
X-20110D01*
X3000Y-65000D03*
Y-55000D03*
Y-45000D03*
X23000Y24000D03*
X33000D03*
X43000D03*
X53000D03*
X60000Y66000D03*
X88000Y14000D03*
Y4000D03*
Y24000D03*
X63000D03*
G54D34*
X31339Y-10841D03*
X37244D03*
X43150D03*
X49055D03*
X54961D03*
G54D44*
G01X3000Y-84000D02*
X10656D01*
X13656Y-81000D01*
X24000D01*
G01X10000Y56000D02*
X4000D01*
G54D17*
X-6000Y-26000D03*
X0D03*
X16000Y-2000D03*
X22000D03*
X35000Y-81000D03*
X29000D03*
X36000Y11000D03*
X30000D03*
Y4000D03*
X36000D03*
G54D26*
X18841Y-38693D03*
Y-32787D03*
Y-26882D03*
G54D35*
X42879Y65121D03*
X47121Y60879D03*
G54D45*
G01X14280Y43720D02*
X22120D01*
G01X45880Y46280D02*
X55211D01*
G01X45880Y48840D02*
Y46280D01*
G54D27*
X3000Y-35000D03*
X88000Y-6000D03*
G54D18*
X-6000Y-39000D03*
Y-33000D03*
X-17000Y44000D03*
Y50000D03*
X24000Y-81000D03*
Y-75000D03*
X10000Y38000D03*
Y44000D03*
Y50000D03*
Y56000D03*
X40000Y-81000D03*
Y-75000D03*
X81000Y-21000D03*
Y-15000D03*
X89000Y-21000D03*
Y-33000D03*
Y-27000D03*
Y-15000D03*
G54D36*
X59475Y49525D03*
X54525Y54475D03*
G54D46*
G01X-27980Y-21620D02*
X-20980D01*
X-20731Y-21371D01*
X-14371D01*
X-8000Y-15000D01*
G01Y25000D02*
X-20460D01*
X-21080Y25620D01*
X-27980D01*
G54D37*
X67062Y-53457D03*
Y-20976D03*
G54D19*
X-15200Y-38500D03*
X-22700D03*
X-19000Y-31500D03*
G54D28*
X21906Y8000D03*
X10094D03*
G54D47*
G01X-19000Y-31500D02*
X-23500D01*
X-27980Y-27020D01*
Y-21620D01*
G01X-6000Y-33000D02*
X-15100D01*
X-20600Y-38500D01*
X-22700D01*
G01X18839Y-26882D02*
X6882D01*
X6000Y-26000D01*
X0D01*
G01X18092Y51908D02*
X14000Y56000D01*
X10000D01*
G01X88000Y24000D02*
X82000D01*
X68000Y10000D01*
Y-6713D01*
X56000Y-18713D01*
Y-23726D01*
X59156Y-26882D01*
X67461D01*
G01X37244Y-10839D02*
Y-15756D01*
G01X36000Y11000D02*
Y4000D01*
G01X43000Y36000D02*
Y24000D01*
G01X36000Y11000D02*
Y15750D01*
X33000Y18750D01*
Y24000D01*
G01X53000D02*
Y39398D01*
G01X76000Y-49000D02*
X71598Y-44598D01*
X67461D01*
G01Y-32787D02*
X72551D01*
X74000Y-31338D01*
Y2000D01*
X82288Y10288D01*
X84288D01*
X88000Y14000D01*
G01X83500Y-40000D02*
Y-38750D01*
X83000Y-38250D01*
Y-37000D01*
G01X83500Y-40000D02*
X74451D01*
X73144Y-38693D01*
X67461D01*
G01X88000Y4000D02*
X82750D01*
X81000Y2250D01*
Y-15000D01*
G54D38*
X67459Y-26882D03*
Y-32787D03*
Y-38693D03*
Y-44598D03*
G54D29*
X22120Y41160D03*
Y43720D03*
Y46280D03*
Y48840D03*
X45880D03*
Y46280D03*
Y43720D03*
Y41160D03*
G54D48*
G01X29000Y-81000D02*
X24000D01*
G01X40000D02*
X35000D01*
G01X40000D02*
X45000D01*
X49055Y-76945D01*
Y-63791D01*
G54D39*
X76500Y-43800D03*
Y-36300D03*
X83500Y-40000D03*
G54D49*
G01X43150Y-10839D02*
Y2850D01*
X43000Y3000D01*
G01X49055Y-10839D02*
Y2501D01*
X53000Y6446D01*
M02*
