M48
INCH,LZ
VER,1
FMAT,2
T01C0.024F1B1S6H2000
T02C0.035F1B1S6H2000
T03C0.04F1B1S6H2000
T04C0.04F1B1S6H2000
T05C0.047244F1B1S6H2000
T06C0.05F1B1S6H2000
T07C0.055F1B1S6H2000
T08C0.16F1B1S6H2000
DETECT,ON
ATC,ON
%
T01
X0025Y-0087
X0032
X0038
X0055Y-0066
Y-0072
Y-0077
X0035Y-007
X0032Y-0075
X0025Y-007
X0015
Y-006
X0025
X0035
Y-005
X0045
X0055Y-006
Y-005
X0076Y-0049
X0083Y-0037
X0079Y-0028
X006033Y-002098
X0045Y-004
X003Y-003
X0011Y-0033
X0003Y-0019
X0005Y-0004
X002Y-001
X003Y-002
X003724Y-001576
X0077Y0027
X-0007Y0036
X-0015Y0035
X-0025
X-000891Y005909
X0004Y0056
X0005Y00481
X003127Y004228
X0015Y0065
X0005
T02
X006707Y005893
X006Y0066
T03
X-007602Y-002162
Y002562
X-002798
X-002011Y0002
X-002798Y-002162
X0003Y-0035
X0088Y-0006
T04
X0013Y0024
T05
X0003Y-0084
T06
X0003Y-0065
Y-0055
Y-0045
X0023Y0024
X0033
X0043
X0053
X0063
X0088
Y0014
Y0004
T07
X-005996Y-004905
X-004383Y-006034
X-002776Y-00716
X-0008Y-0015
Y0025
X-000984Y0078
X000984
T08
X0034Y0078
M30
